<svg xmlns="http://www.w3.org/2000/svg" width="33.268" height="30.093" viewBox="0 0 33.268 30.093">
  <g id="photoediting" transform="translate(0 0)">
    <g id="Group_21" data-name="Group 21" transform="translate(4.969 4.282)">
      <path id="Path_48" data-name="Path 48" d="M352.643,262.171a5.224,5.224,0,1,1,5.223-5.224A5.231,5.231,0,0,1,352.643,262.171Zm0-8.35a3.126,3.126,0,1,0,3.126,3.126A3.13,3.13,0,0,0,352.643,253.821Z" transform="translate(-347.417 -251.722)" fill="#9672fb"/>
    </g>
    <path id="Path_49" data-name="Path 49" d="M376.041,248.633H344.892a1.06,1.06,0,0,0-1.06,1.059v27.975a1.055,1.055,0,0,0,1.06,1.059h31.148a1.059,1.059,0,0,0,1.059-1.059V249.692h0A1.059,1.059,0,0,0,376.041,248.633Zm-1.059,27.975h-27.64l7.362-7.876,4.867,4.373a1.049,1.049,0,0,0,1.4-1.559l-5.632-5.061a1.049,1.049,0,0,0-1.468.062l-7.922,8.475v-24.27h29.03Z" transform="translate(-343.832 -248.633)" fill="#433f4d"/>
    <path id="Path_50" data-name="Path 50" d="M358.245,270.874h2.119V267.62H365.2v3.253h2.119v-6.913a1.021,1.021,0,0,0-.021-.2,1.039,1.039,0,0,0-.29-.851l-3.461-3.463a1.112,1.112,0,0,0-1.533,0l-3.463,3.463a1.039,1.039,0,0,0-.29.851,1.021,1.021,0,0,0-.021.2Zm2.119-6.774,2.42-2.419,2.419,2.42v1.4h-4.839Z" transform="translate(-338.266 -244.574)" fill="#9672fb"/>
  </g>
</svg>
