<svg id="blogimages" xmlns="http://www.w3.org/2000/svg" width="25.96" height="30.093" viewBox="0 0 25.96 30.093">
  <g id="Group_36" data-name="Group 36">
    <path id="Path_68" data-name="Path 68" d="M193.662,417.95a2.045,2.045,0,0,0-.557-1.216l-.555-.556-.952-.951-.747-.748-.087-.087-.465-.465h0l-.115-.115c-.019-.018-.043-.025-.063-.042a2.168,2.168,0,0,0-1.182-.52.768.768,0,0,0-.159-.016H168.542a.818.818,0,0,0-.818.819v28.456a.818.818,0,0,0,.818.819h24.324a.819.819,0,0,0,.819-.819V418.132A.781.781,0,0,0,193.662,417.95Zm-4.723-3.08.018,0a.668.668,0,0,0,.068.1l2.922,2.922a.753.753,0,0,0,.106.07h-3.114Zm-1.637.016v3.894a.818.818,0,0,0,.818.819h3.926v22.074H169.361V414.887Z" transform="translate(-167.724 -413.234)" fill="#433f4d"/>
  </g>
  <path id="Path_69" data-name="Path 69" d="M190.156,435.759,176.8,428.048l1.889-3.271,11.468,6.621v-1.909l-13.114-7.572a.915.915,0,0,0-.142-.064.811.811,0,0,0-.688-.135l-3.691.989a.867.867,0,0,0-.6,1.036l.989,3.69a.813.813,0,0,0,.462.528.769.769,0,0,0,.127.091l16.656,9.616Zm-15.735-9.085-.691-2.58,2.58-.691.948.547-1.889,3.271Z" transform="translate(-167.383 -412.543)" fill="#9672fb"/>
</svg>
