<svg id="ebooks" xmlns="http://www.w3.org/2000/svg" width="25.954" height="30.093" viewBox="0 0 25.954 30.093">
  <rect id="Rectangle_33" data-name="Rectangle 33" width="10.573" height="1.637" rx="0.653" transform="translate(9.395 21.633)" fill="#9672fb"/>
  <rect id="Rectangle_34" data-name="Rectangle 34" width="14.229" height="1.637" rx="0.653" transform="translate(7.568 25.041)" fill="#9672fb"/>
  <path id="Path_61" data-name="Path 61" d="M100.995,85.183H87.033a.792.792,0,0,0-.792.792v6.236a.792.792,0,0,0,.792.792h13.962a.792.792,0,0,0,.792-.792V85.975A.792.792,0,0,0,100.995,85.183Zm-.846,1.637v4.545H87.878V86.82Z" transform="translate(-79.331 -77.327)" fill="#9672fb"/>
  <path id="Path_62" data-name="Path 62" d="M105.781,82.6a2.053,2.053,0,0,0-.4-.974l-.045-.047a.709.709,0,0,0-.094-.141l-2.959-2.96a2.262,2.262,0,0,0-1.188-.544h-.005l-.045-.006v0a.746.746,0,0,0-.111-.011H80.641a.79.79,0,0,0-.79.791v25.06a.766.766,0,0,0,.038.229,1.993,1.993,0,0,0,.522,1.119l2.33,2.329a2.194,2.194,0,0,0,1.677.556h20.594a.791.791,0,0,0,.792-.79V82.784A.8.8,0,0,0,105.781,82.6Zm-4.705-3.043a.642.642,0,0,0,.053.08l2.356,2.356H84.571a.663.663,0,0,0-.043-.064L82.17,79.57h18.767A.845.845,0,0,0,101.076,79.556Zm-19.6,24.34a.7.7,0,0,0,.013-.128V81.2l1.829,1.829v22.676l-1.746-1.748A.687.687,0,0,0,81.474,103.9Zm3.479-20.251h19.214V106.35H84.953Z" transform="translate(-79.851 -77.918)" fill="#433f4d"/>
</svg>
