<svg xmlns="http://www.w3.org/2000/svg" width="29.565" height="30.082" viewBox="0 0 29.565 30.082">
  <g id="brandbook" transform="translate(0)">
    <path id="Path_59" data-name="Path 59" d="M460.648,79.622h-27.69a.938.938,0,0,0-.937.937v28.207a.938.938,0,0,0,.937.937h27.69a.937.937,0,0,0,.938-.937V80.559A.937.937,0,0,0,460.648,79.622ZM433.9,105.371h25.814v2.459H433.9ZM449.448,81.5v5.442l-1.917-1.917a.961.961,0,0,0-1.34,0l-1.917,1.917V81.5ZM442.4,89.236a.937.937,0,0,0,1.723.509l2.738-2.738,2.738,2.738a.937.937,0,0,0,1.723-.509V89.2h0V81.5h8.388v22H433.9v-22h8.5Z" transform="translate(-432.021 -79.622)" fill="#433f4d"/>
    <rect id="Rectangle_26" data-name="Rectangle 26" width="7.048" height="1.857" rx="0.741" transform="translate(11.316 13.51)" fill="#9672fb"/>
    <rect id="Rectangle_27" data-name="Rectangle 27" width="13.478" height="1.857" rx="0.741" transform="translate(8.101 17.844)" fill="#9672fb"/>
  </g>
</svg>
