<svg id="businessreports" xmlns="http://www.w3.org/2000/svg" width="25.96" height="30.093" viewBox="0 0 25.96 30.093">
  <g id="Group_32" data-name="Group 32" transform="translate(4.548 18.448)">
    <rect id="Rectangle_35" data-name="Rectangle 35" width="10.576" height="1.637" rx="0.653" fill="#9672fb"/>
    <rect id="Rectangle_36" data-name="Rectangle 36" width="16.865" height="1.637" rx="0.653" transform="translate(0 3.027)" fill="#9672fb"/>
    <rect id="Rectangle_37" data-name="Rectangle 37" width="16.865" height="1.637" rx="0.653" transform="translate(0 6.054)" fill="#9672fb"/>
  </g>
  <g id="Group_33" data-name="Group 33" transform="translate(4.285 4.314)">
    <path id="Path_63" data-name="Path 63" d="M176.371,90.78a3.156,3.156,0,0,1-2.87-2.87,3.12,3.12,0,0,1,2.292-3.247h0V82.989h0a4.754,4.754,0,1,0,5.5,5.5h-1.674A3.122,3.122,0,0,1,176.371,90.78Z" transform="translate(-171.855 -81.822)" fill="#433f4d"/>
    <path id="Path_64" data-name="Path 64" d="M182.064,86.3a4.848,4.848,0,0,0-4.373-4.372c-.121-.011-.243-.016-.368-.016a4.633,4.633,0,0,0-.663.05.186.186,0,0,0-.155.183V87.3a.183.183,0,0,0,.183.183h5.16a.184.184,0,0,0,.182-.156,4.461,4.461,0,0,0,.051-.663C182.08,86.543,182.075,86.42,182.064,86.3Zm-3.922-.634V83.913a.185.185,0,0,1,.242-.177,3.128,3.128,0,0,1,1.869,1.87.183.183,0,0,1-.176.241h-1.751A.183.183,0,0,1,178.142,85.664Z" transform="translate(-171.475 -81.91)" fill="#9672fb"/>
  </g>
  <path id="Path_65" data-name="Path 65" d="M193.832,82.638a2.045,2.045,0,0,0-.557-1.216l-.556-.556-.951-.952-.747-.747-.088-.087-.464-.465h0l-.116-.115a.636.636,0,0,0-.063-.042,2.171,2.171,0,0,0-1.181-.521.862.862,0,0,0-.159-.015H168.712a.819.819,0,0,0-.819.818V107.2a.819.819,0,0,0,.819.819h24.324a.819.819,0,0,0,.818-.819V82.82A.836.836,0,0,0,193.832,82.638Zm-4.723-3.08.017,0a.754.754,0,0,0,.069.1l2.922,2.922a.752.752,0,0,0,.106.07h-3.114Zm-1.638.016v3.894a.819.819,0,0,0,.819.819h3.926v22.074H169.531V79.575Z" transform="translate(-167.893 -77.922)" fill="#433f4d"/>
</svg>
