<svg xmlns="http://www.w3.org/2000/svg" width="29.295" height="29.581" viewBox="0 0 29.295 29.581">
  <g id="customillustration" transform="translate(0)">
    <circle id="Ellipse_3" data-name="Ellipse 3" cx="1.507" cy="1.507" r="1.507" transform="translate(13.197 13.472)" fill="#9672fb"/>
    <path id="Path_66" data-name="Path 66" d="M549.289,98.162h-.021a.929.929,0,0,0-.908-.736H524.607a1,1,0,0,0-.172.017.915.915,0,0,0-.747.255l-3.037,3.037a.977.977,0,0,0,0,1.345l3.037,3.036a.915.915,0,0,0,.747.255.894.894,0,0,0,.172.017H548.36a.929.929,0,0,0,.929-.929h0a.952.952,0,0,0-.015-.145h.015Zm-24.56,5.368-2.123-2.123,2.123-2.123h1.23v4.245Zm3.089-4.245h19.613v4.245H527.818Z" transform="translate(-519.994 -75.807)" fill="#9672fb"/>
    <path id="Path_67" data-name="Path 67" d="M549.087,79.987a.925.925,0,0,0-.657-.272H520.993a.929.929,0,0,0-.929.929h0V99.317h0a.929.929,0,0,0,.929.929H548.43a.929.929,0,0,0,.929-.929V80.644A.925.925,0,0,0,549.087,79.987Zm-27.165,1.586H547.5V98.388h-25.58Z" transform="translate(-520.064 -79.715)" fill="#433f4d"/>
  </g>
</svg>
