<svg xmlns="http://www.w3.org/2000/svg" width="34.62" height="30.093" viewBox="0 0 34.62 30.093">
  <g id="ecommerce" transform="translate(0 0)">
    <path id="Path_46" data-name="Path 46" d="M201.226,270.537h-1.77v-20.4a1.084,1.084,0,0,0-1.083-1.085H171.63a1.085,1.085,0,0,0-1.085,1.085v20.4h-1.77a1.085,1.085,0,0,0-1.085,1.085v6.444a1.085,1.085,0,0,0,1.085,1.085h32.45a1.084,1.084,0,0,0,1.085-1.085v-6.444A1.084,1.084,0,0,0,201.226,270.537Zm-1.083,2.17v4.274H169.861v-4.274Zm-27.428-21.48h24.573v19.311H172.715Z" transform="translate(-167.691 -249.057)" fill="#433f4d"/>
    <path id="Path_47" data-name="Path 47" d="M188.331,256.529a1.082,1.082,0,0,0-.767-.317h-1.193a4.635,4.635,0,0,0-9.154,0h-1.193a1.084,1.084,0,0,0-1.085,1.083h0v7.875h0a1.086,1.086,0,0,0,1.085,1.085h11.54a1.084,1.084,0,0,0,1.085-1.085V257.3A1.081,1.081,0,0,0,188.331,256.529Zm-6.537-2.074a2.487,2.487,0,0,1,2.369,1.757h-4.737A2.487,2.487,0,0,1,181.794,254.455Zm4.687,3.925v5.708h-9.372V258.38Z" transform="translate(-164.484 -247.619)" fill="#9672fb"/>
  </g>
</svg>
