<svg xmlns="http://www.w3.org/2000/svg" width="30.094" height="30.093" viewBox="0 0 30.094 30.093">
  <g id="icons" transform="translate(0 0)">
    <path id="Path_36" data-name="Path 36" d="M459.283,260.894l-5.266-10.533a1.522,1.522,0,0,0-2.107-.6c-.151.15-.451.3-.6.6l-5.266,10.533a1.6,1.6,0,0,0,.752,1.956c.15.15.3.15.6.15h10.533a1.422,1.422,0,0,0,1.5-1.5C459.433,261.195,459.433,261.044,459.283,260.894Zm-9.479-.9,2.859-5.718,2.859,5.718Z" transform="translate(-429.34 -249.458)" fill="#433f4d"/>
    <path id="Path_37" data-name="Path 37" d="M441.674,249.488a6.771,6.771,0,1,0,6.771,6.771A6.743,6.743,0,0,0,441.674,249.488Zm0,10.533a3.762,3.762,0,1,1,3.762-3.762A3.725,3.725,0,0,1,441.674,260.021Z" transform="translate(-434.903 -249.488)" fill="#9672fb"/>
    <path id="Path_38" data-name="Path 38" d="M447.994,260.939h0a1.455,1.455,0,0,0-2.107,0h0l-4.213,4.213-4.213-4.213a1.49,1.49,0,1,0-2.107,2.107l4.213,4.213-4.213,4.213a1.49,1.49,0,0,0,2.107,2.107h0l4.213-4.213,4.213,4.213a1.49,1.49,0,0,0,2.107-2.107l-4.213-4.213,4.213-4.213A1.455,1.455,0,0,0,447.994,260.939Z" transform="translate(-434.903 -243.937)" fill="#433f4d"/>
    <path id="Path_39" data-name="Path 39" d="M457.94,260.488H447.408a1.422,1.422,0,0,0-1.5,1.5v10.533a1.422,1.422,0,0,0,1.5,1.5H457.94a1.422,1.422,0,0,0,1.5-1.5V261.993A1.422,1.422,0,0,0,457.94,260.488Zm-1.5,10.533h-7.523V263.5h7.523Z" transform="translate(-429.352 -243.937)" fill="#9672fb"/>
  </g>
</svg>
