<svg xmlns="http://www.w3.org/2000/svg" width="34.891" height="30.093" viewBox="0 0 34.891 30.093">
  <g id="logo" transform="translate(0)">
    <g id="Group_11" data-name="Group 11" transform="translate(5.993 5.962)">
      <g id="Group_10" data-name="Group 10" transform="translate(0 0)">
        <rect id="Rectangle_13" data-name="Rectangle 13" width="8.574" height="2.2" rx="0.757" transform="translate(0 10.101)" fill="#9672fb"/>
        <rect id="Rectangle_14" data-name="Rectangle 14" width="8.574" height="2.2" rx="0.757" transform="translate(0 5.05)" fill="#9672fb"/>
        <rect id="Rectangle_15" data-name="Rectangle 15" width="8.574" height="2.2" rx="0.757" fill="#9672fb"/>
      </g>
      <path id="Path_34" data-name="Path 34" d="M533.3,265.541h2.221V262.13H540.6v3.411h2.221v-7.25a1.073,1.073,0,0,0-.02-.206,1.091,1.091,0,0,0-.305-.893l-3.63-3.63a1.163,1.163,0,0,0-1.608,0l-3.63,3.63a2.5,2.5,0,0,0-.326,1.1Zm2.221-7.1,2.538-2.538,2.538,2.538v1.471h-5.077Z" transform="translate(-519.918 -253.239)" fill="#9672fb"/>
    </g>
    <path id="Path_35" data-name="Path 35" d="M554.186,249.225a1.1,1.1,0,0,0-.433-.087H521.085a1.111,1.111,0,0,0-1.111,1.111h0v22h0v5.865h0a1.111,1.111,0,0,0,.887,1.089,1.136,1.136,0,0,0,.224.022h32.67a1.111,1.111,0,0,0,1.111-1.111V250.249A1.113,1.113,0,0,0,554.186,249.225Zm-1.544,21.917H522.2V251.359h30.447ZM522.2,273.364h30.447v3.646H522.2Z" transform="translate(-519.974 -249.138)" fill="#433f4d"/>
  </g>
</svg>
