<svg xmlns="http://www.w3.org/2000/svg" width="26.958" height="30.093" viewBox="0 0 26.958 30.093">
  <g id="podcast" transform="translate(0 0)">
    <path id="Path_70" data-name="Path 70" d="M92,429.713a4.063,4.063,0,0,1-.235-8.119.911.911,0,0,1,.235-.031,4.075,4.075,0,1,1,0,8.15Zm.181-6.262a.94.94,0,0,1-.181.018,1.93,1.93,0,1,0,.181-.018Z" transform="translate(-78.517 -412.786)" fill="#433f4d"/>
    <path id="Path_71" data-name="Path 71" d="M92,442.122c-.681,0-4.075-.5-4.075-10.314a4.075,4.075,0,1,1,8.15,0C96.071,441.626,92.677,442.122,92,442.122Zm0-12.539a2.212,2.212,0,0,0-2.194,2.225c0,7.08,1.822,8.247,2.194,8.411.374-.164,2.195-1.331,2.195-8.411A2.213,2.213,0,0,0,92,429.583Z" transform="translate(-78.517 -412.029)" fill="#433f4d"/>
    <path id="Path_72" data-name="Path 72" d="M98.4,439.491a.94.94,0,0,1-.4-1.79,11.6,11.6,0,1,0-9.929,0,.94.94,0,0,1-.805,1.7,13.478,13.478,0,1,1,11.538,0A.952.952,0,0,1,98.4,439.491Z" transform="translate(-79.549 -413.749)" fill="#433f4d"/>
    <path id="Path_73" data-name="Path 73" d="M97.983,432.734a.941.941,0,0,1-.685-1.587,6.479,6.479,0,0,0,1.764-4.469,6.583,6.583,0,1,0-13.166,0,6.481,6.481,0,0,0,1.762,4.469.941.941,0,1,1-1.369,1.292,8.366,8.366,0,0,1-2.275-5.761,8.464,8.464,0,1,1,16.928,0,8.366,8.366,0,0,1-2.275,5.761A.942.942,0,0,1,97.983,432.734Z" transform="translate(-78.999 -413.199)" fill="#9672fb"/>
  </g>
</svg>
