<svg xmlns="http://www.w3.org/2000/svg" width="34.891" height="30.093" viewBox="0 0 34.891 30.093">
  <g id="slides" transform="translate(0)">
    <path id="Path_31" data-name="Path 31" d="M723.2,249.138H700.737a1.111,1.111,0,0,0-1.111,1.111h0v27.872h0a1.111,1.111,0,0,0,1.111,1.111H723.2a1.111,1.111,0,0,0,1.111-1.111h0V250.249h0A1.11,1.11,0,0,0,723.2,249.138Zm-21.35,2.221h20.24V277.01h-20.24Z" transform="translate(-694.522 -249.138)" fill="#433f4d"/>
    <path id="Path_32" data-name="Path 32" d="M719.7,250.666a1.111,1.111,0,0,0-1.111,1.111v23.429a1.111,1.111,0,1,0,2.221,0V251.777A1.111,1.111,0,0,0,719.7,250.666Z" transform="translate(-685.917 -248.445)" fill="#9672fb"/>
    <path id="Path_33" data-name="Path 33" d="M697.226,250.666a1.111,1.111,0,0,0-1.111,1.111v23.429a1.111,1.111,0,1,0,2.221,0V251.777A1.111,1.111,0,0,0,697.226,250.666Z" transform="translate(-696.115 -248.445)" fill="#9672fb"/>
  </g>
</svg>
