<svg xmlns="http://www.w3.org/2000/svg" width="30.105" height="30.093" viewBox="0 0 30.105 30.093">
  <g id="printmedia" transform="translate(0 0)">
    <g id="Group_18" data-name="Group 18" transform="translate(4.746 4.511)">
      <path id="Path_44" data-name="Path 44" d="M617.2,251.089h-4.649a.721.721,0,0,0-.721.721v6.146a.721.721,0,0,0,.721.721h5.824a.72.72,0,0,0,.721-.721V251.81a.72.72,0,0,0-.721-.721Zm0,5.692h-3.472v-3.8H617.2Z" transform="translate(-611.828 -251.089)" fill="#9672fb"/>
      <rect id="Rectangle_19" data-name="Rectangle 19" width="13.768" height="1.897" rx="0.756" transform="translate(0 10.751)" fill="#9672fb"/>
      <rect id="Rectangle_20" data-name="Rectangle 20" width="13.768" height="1.897" rx="0.756" transform="translate(0 14.546)" fill="#9672fb"/>
      <rect id="Rectangle_21" data-name="Rectangle 21" width="13.768" height="1.897" rx="0.756" transform="translate(0 18.34)" fill="#9672fb"/>
    </g>
    <path id="Path_45" data-name="Path 45" d="M637.2,262.743h-5.993V248.46h0v-.018a.949.949,0,0,0-.95-.948H609.015a.949.949,0,0,0-.95.948v.018h0v22.67a3.309,3.309,0,0,0,0,.763v0a.927.927,0,0,0,.039.252,2.894,2.894,0,0,0,.618,1.355c.006.006.007.015.014.021l.024.024a2.585,2.585,0,0,0,.262.262l2.727,2.726h0a2.551,2.551,0,0,0,1.7.995.934.934,0,0,0,.286.048,1.066,1.066,0,0,0,.246,0h18.586a1.8,1.8,0,0,0,1.274-.5l.043-.04a.9.9,0,0,0,.2-.134l3.384-3.386a.652.652,0,0,0,.052-.078l.069-.069a1.842,1.842,0,0,0,.518-1.261.981.981,0,0,0,.033-.236v-8.19A.948.948,0,0,0,637.2,262.743Zm-.967,1.915v6.588a2.86,2.86,0,0,1-.629,1.468l-2.854,2.854a1,1,0,0,0-.071.108,1.046,1.046,0,0,0-.108-.011h-1.365V264.658ZM613.6,275.679l-3.633-3.633a.849.849,0,0,0,.015-.151V249.408h19.31v26.255H613.74A.871.871,0,0,0,613.6,275.679Z" transform="translate(-608.044 -247.493)" fill="#433f4d"/>
  </g>
</svg>
