<svg xmlns="http://www.w3.org/2000/svg" width="22.094" height="30.067" viewBox="0 0 22.094 30.067">
  <g id="menu" transform="translate(0 0)">
    <path id="Path_78" data-name="Path 78" d="M542.576,419.193h-5.981v-4.4a1.044,1.044,0,0,0-.012-.119.937.937,0,0,0-1.284-1.06L522,419.266h0l-.01.006a1.053,1.053,0,0,0-.151.083.9.9,0,0,0-.07.059.7.7,0,0,0-.07.059.858.858,0,0,0-.059.071.9.9,0,0,0-.056.071c-.014.022-.025.047-.037.071a.875.875,0,0,0-.048.091c-.01.024-.015.05-.023.074s-.022.065-.029.1a.939.939,0,0,0-.015.147c0,.012,0,.023,0,.035v22.533a.938.938,0,0,0,.938.938h20.217a.938.938,0,0,0,.939-.938V420.131A.938.938,0,0,0,542.576,419.193ZM523.3,421.07h18.34v20.655H523.3Zm3.668-1.877,7.753-3.3v3.3Z" transform="translate(-521.421 -413.535)" fill="#433f4d"/>
    <g id="Group_46" data-name="Group 46" transform="translate(3.802 9.584)">
      <path id="Path_79" data-name="Path 79" d="M537.591,427.087h-3.937a.938.938,0,1,0,0,1.877h3.937a.938.938,0,1,0,0-1.877Z" transform="translate(-524.041 -421.701)" fill="#9672fb"/>
      <path id="Path_80" data-name="Path 80" d="M533.654,424.088h3.937a.938.938,0,1,0,0-1.877h-3.937a.938.938,0,1,0,0,1.877Z" transform="translate(-524.041 -422.211)" fill="#9672fb"/>
      <path id="Path_81" data-name="Path 81" d="M531.7,423.149a.939.939,0,0,0-.573-.865.929.929,0,0,0-.365-.073H525.8a.938.938,0,0,0-.939.938v5.388a.939.939,0,0,0,.939.938h4.957a.938.938,0,0,0,.938-.938V423.15Zm-4.957.939h3.08v3.51h-3.08Z" transform="translate(-524.863 -422.211)" fill="#9672fb"/>
      <path id="Path_82" data-name="Path 82" d="M537.591,435.5h-3.937a.938.938,0,1,0,0,1.877h3.937a.938.938,0,1,0,0-1.877Z" transform="translate(-524.041 -420.82)" fill="#9672fb"/>
      <path id="Path_83" data-name="Path 83" d="M537.591,430.624h-3.937a.938.938,0,1,0,0,1.877h3.937a.938.938,0,1,0,0-1.877Z" transform="translate(-524.041 -421.33)" fill="#9672fb"/>
      <path id="Path_84" data-name="Path 84" d="M531.7,431.562a.939.939,0,0,0-.573-.865.929.929,0,0,0-.365-.073H525.8a.938.938,0,0,0-.939.938v5.388a.939.939,0,0,0,.939.938h4.957a.938.938,0,0,0,.938-.938h0v-5.385Zm-4.957.939h3.08v3.51h-3.08Z" transform="translate(-524.863 -421.33)" fill="#9672fb"/>
    </g>
  </g>
</svg>
