<svg xmlns="http://www.w3.org/2000/svg" width="37.137" height="30.067" viewBox="0 0 37.137 30.067">
  <g id="digitalads" transform="translate(0 0)">
    <path id="Path_85" data-name="Path 85" d="M644.858,417.466a1.211,1.211,0,0,0-.282-.037H609.751a1.156,1.156,0,0,0-1.156,1.156h0V446.34a1.157,1.157,0,0,0,1.156,1.156h34.825a1.156,1.156,0,0,0,1.156-1.156V418.585A1.155,1.155,0,0,0,644.858,417.466Zm-33.951,2.275H643.42v25.443H610.907Z" transform="translate(-608.595 -417.429)" fill="#3a3a3a"/>
    <circle id="Ellipse_4" data-name="Ellipse 4" cx="1.486" cy="1.486" r="1.486" transform="translate(17.083 22.492)" fill="#9672fb"/>
    <g id="Group_48" data-name="Group 48" transform="translate(4.996 6.553)">
      <path id="Path_86" data-name="Path 86" d="M618.4,421.711h-5.5a1.073,1.073,0,0,0-1.077,1.077v.156h0v5.272h0v5.27a1.077,1.077,0,0,0,1.077,1.078h.156a1.078,1.078,0,0,0,1.079-1.078v-4.193h3.03v4.193a1.078,1.078,0,0,0,1.079,1.078h.156a1.078,1.078,0,0,0,1.077-1.078v-10.7A1.077,1.077,0,0,0,618.4,421.711Zm-4.265,5.27v-2.959h3.03v2.959Z" transform="translate(-611.824 -421.638)" fill="#9672fb"/>
      <path id="Path_87" data-name="Path 87" d="M625.5,423.563a1.239,1.239,0,0,0-.215.022,1.071,1.071,0,0,0,.215-.641v-.156a1.076,1.076,0,0,0-1.077-1.077h-5.106a1.076,1.076,0,0,0-1.077,1.077v10.7a1.077,1.077,0,0,0,1.077,1.078h5.106a1.077,1.077,0,0,0,1.077-1.078v-.156a1.071,1.071,0,0,0-.215-.641,1.233,1.233,0,0,0,.215.022,1.156,1.156,0,0,0,1.156-1.156v-6.836A1.156,1.156,0,0,0,625.5,423.563Zm-4.948,8.69v-8.23h3.872A1.118,1.118,0,0,0,624.6,424a1.142,1.142,0,0,0-.255.715v6.836a1.138,1.138,0,0,0,.255.715,1.117,1.117,0,0,0-.176-.017Z" transform="translate(-608.314 -421.638)" fill="#9672fb"/>
      <path id="Path_88" data-name="Path 88" d="M630.6,423.976a1.077,1.077,0,0,0,1.079-1.077v-.156a1.078,1.078,0,0,0-1.079-1.078h-4.382a1.078,1.078,0,0,0-1.079,1.078v5.5a1.078,1.078,0,0,0,1.077,1.077h3.151v3.031h-3.149a1.078,1.078,0,0,0-1.079,1.077v.156a1.078,1.078,0,0,0,1.079,1.078H630.6a1.078,1.078,0,0,0,1.079-1.078v-5.5a1.078,1.078,0,0,0-1.079-1.078h-3.149v-3.031Z" transform="translate(-604.535 -421.664)" fill="#9672fb"/>
    </g>
  </g>
</svg>
