<svg xmlns="http://www.w3.org/2000/svg" width="29.426" height="30.082" viewBox="0 0 29.426 30.082">
  <g id="socialmedia" transform="translate(0)">
    <g id="Group_25" data-name="Group 25" transform="translate(4.539 5.872)">
      <path id="Path_52" data-name="Path 52" d="M717.232,88.725h-7.4a.934.934,0,1,0,0,1.867h7.4a.934.934,0,1,0,0-1.867Z" transform="translate(-697.805 -83.366)" fill="#9672fb"/>
      <path id="Path_53" data-name="Path 53" d="M717.232,93.1h-7.4a.934.934,0,1,0,0,1.867h7.4a.934.934,0,1,0,0-1.867Z" transform="translate(-697.805 -82.377)" fill="#9672fb"/>
      <path id="Path_54" data-name="Path 54" d="M709.835,86.221h7.4a.934.934,0,1,0,0-1.867h-7.4a.934.934,0,1,0,0,1.867Z" transform="translate(-697.805 -84.354)" fill="#9672fb"/>
      <path id="Path_55" data-name="Path 55" d="M708.182,84.354h-7.4a.934.934,0,0,0-.934.933v10.72a.934.934,0,0,0,.934.934h7.4a.934.934,0,0,0,.934-.934V85.287A.934.934,0,0,0,708.182,84.354Zm-.933,1.867v8.852h-5.531V86.221Z" transform="translate(-699.851 -84.354)" fill="#9672fb"/>
    </g>
    <path id="Path_56" data-name="Path 56" d="M724.642,79.565H697.083a.934.934,0,0,0-.934.933h0v22.463a.934.934,0,0,0,.934.934h3.882v4.823a.879.879,0,0,0,.013.137c0,.016,0,.032.005.047s.013.039.018.059a.865.865,0,0,0,.037.116l.007.015a.969.969,0,0,0,.082.148l0,0c.01.015.022.026.033.039a1.034,1.034,0,0,0,.082.1c.021.02.043.036.065.054s.049.042.076.06.05.027.076.04a.942.942,0,0,0,.086.043.7.7,0,0,0,.082.026.582.582,0,0,0,.2.037.582.582,0,0,0,.065.007h.005a.9.9,0,0,0,.14-.013l.045,0c.023,0,.047-.015.07-.022a1.063,1.063,0,0,0,.105-.033l.023-.014a1.006,1.006,0,0,0,.138-.076l0,0,8.054-5.585h14.157a.934.934,0,0,0,.933-.934V80.5h0A.933.933,0,0,0,724.642,79.565Zm-14.591,22.463a.93.93,0,0,0-.792.445l-6.427,4.456v-3.968a.934.934,0,0,0-.933-.933h-3.883v-20.6h25.692v20.6Z" transform="translate(-696.149 -79.565)" fill="#433f4d"/>
  </g>
</svg>
