<svg xmlns="http://www.w3.org/2000/svg" width="34.197" height="30.093" viewBox="0 0 34.197 30.093">
  <g id="tshirt" transform="translate(0 0)">
    <path id="Path_74" data-name="Path 74" d="M274.387,423.211a1.012,1.012,0,0,0-1.012-1.012h-4.847a1.012,1.012,0,0,0-1.013,1.012v5.4c0,.013,0,.024,0,.036a1,1,0,0,0,.336.75l.718.638a1,1,0,0,0,.8.245,1.02,1.02,0,0,0,.115.011h2.935a1.023,1.023,0,0,0,.115-.011,1.007,1.007,0,0,0,.8-.245l.718-.638a1.012,1.012,0,0,0,.336-.75c0-.011,0-.023,0-.036Zm-4.756,5.057-.091-.081v-3.963h2.824v3.963l-.091.081Z" transform="translate(-250.962 -414.198)" fill="#9672fb"/>
    <path id="Path_75" data-name="Path 75" d="M289.082,416.584h-9.319c-.026,0-.048.006-.074.007l-.057.006a1.007,1.007,0,0,0-.637.348l-3.757,3.341h-4.483L267,416.944a1.007,1.007,0,0,0-.637-.348l-.057-.006c-.026,0-.05-.007-.074-.007h-9.32A1.012,1.012,0,0,0,255.9,417.6a.989.989,0,0,0,.084.4v9.624a1.012,1.012,0,0,0,1.012,1.012h5.781v18.045h20.738V428.633h5.57a1.012,1.012,0,0,0,1.013-1.012V417.6A1.012,1.012,0,0,0,289.082,416.584ZM264.8,444.654V427.621a1.012,1.012,0,0,0-1.012-1.012.864.864,0,0,0-.107.01.818.818,0,0,0-.1-.01h-5.571v-8h7.817l3.874,3.447a1.011,1.011,0,0,0,.8.244,1.106,1.106,0,0,0,.12.011h4.847a.524.524,0,0,0,.068-.007,1,1,0,0,0,.767-.248l3.874-3.447h7.9v8H282.5a1.012,1.012,0,0,0-1.013,1.012v17.033Z" transform="translate(-255.898 -416.584)" fill="#433f4d"/>
  </g>
</svg>
