<svg xmlns="http://www.w3.org/2000/svg" width="30.293" height="30.093" viewBox="0 0 30.293 30.093">
  <g id="websitebanners" transform="translate(0)">
    <path id="Path_57" data-name="Path 57" d="M373.311,79.911H345.139a.863.863,0,0,0-.1.01.89.89,0,0,0-.1-.01.96.96,0,0,0-.961.961v28.172a.96.96,0,0,0,.961.961.888.888,0,0,0,.1-.01.861.861,0,0,0,.1.01h28.172a.961.961,0,0,0,.961-.961V80.872A.961.961,0,0,0,373.311,79.911ZM345.9,81.832H372.35v26.251H345.9Z" transform="translate(-343.979 -79.911)" fill="#433f4d"/>
    <path id="Path_58" data-name="Path 58" d="M365.826,85.189a.961.961,0,0,0-.961.961v.983l-14.215,3.787a.958.958,0,0,0-1.911.1v5.463a.961.961,0,1,0,1.921,0v-.366l1.484.4v3.463a.961.961,0,0,0,.961.961h4.341a.957.957,0,0,0,.952-.877h.009V98.178l6.459,1.72v1.089a.961.961,0,1,0,1.921,0V86.15A.96.96,0,0,0,365.826,85.189Zm-9.34,13.824h-2.42v-1.99l2.42.645Zm-2.42-3.978h-.005l-3.4-.906V92.9l14.2-3.783v8.787Z" transform="translate(-342.731 -78.527)" fill="#9672fb"/>
  </g>
</svg>
