<svg id="brandicon" xmlns="http://www.w3.org/2000/svg" width="24" height="24" viewBox="0 0 24 24">
  <rect id="Rectangle_25" data-name="Rectangle 25" width="24" height="24" fill="#fff" opacity="0"/>
  <path id="Path_504" data-name="Path 504" d="M12.085,6.008l-1.514-.971a1.1,1.1,0,0,0-.158-.068,1.557,1.557,0,0,0-.429-.858L6.054.339A1.172,1.172,0,0,0,4.4.339L.452,4.111A1.433,1.433,0,0,0,0,5.173v9.284a1.465,1.465,0,0,0,1.468,1.468H1.9v.836a1.465,1.465,0,0,0,1.468,1.468h7.725a1.465,1.465,0,0,0,1.468-1.468V6.935a1.234,1.234,0,0,0-.361-.858c-.045-.023-.068-.045-.113-.068ZM5.15,4.292A1.672,1.672,0,1,1,3.479,5.963,1.668,1.668,0,0,1,5.15,4.292Zm6.28,12.469a.347.347,0,0,1-.339.339H3.366a.347.347,0,0,1-.339-.339v-.836H8.99a1.465,1.465,0,0,0,1.468-1.468V6.28l.971.632v9.849Z" transform="translate(14.615 0.725) rotate(45)" fill="#9672fb"/>
</svg>
