<svg id="Component_15_2" data-name="Component 15 – 2" xmlns="http://www.w3.org/2000/svg" width="40" height="40" viewBox="0 0 40 40">
  <circle id="avatar" cx="20" cy="20" r="20" fill="#ececf1" opacity="0"/>
  <g id="Group_2198" data-name="Group 2198" transform="translate(12 10)">
    <path id="Path_523" data-name="Path 523" d="M218.4,112.62c0-4.114-2.205-6.582-4.8-7.313a1.79,1.79,0,0,0-3.576,0c-2.593.762-4.8,3.2-4.8,7.313,0,0,0,3.809-1.609,6.277,0,0-.8,1.645.8,1.92h14.751c1.609-.274.8-1.92.8-1.92C218.4,116.46,218.4,112.62,218.4,112.62Z" transform="translate(-203.418 -103.601)" fill="#433f4d"/>
    <path id="Path_524" data-name="Path 524" d="M313.591,439.595a2.781,2.781,0,0,0,2.793-2.793H310.8a2.8,2.8,0,0,0,2.793,2.793Z" transform="translate(-305.194 -418.984)" fill="#433f4d"/>
  </g>
</svg>
