<svg xmlns="http://www.w3.org/2000/svg" width="51" height="51" viewBox="0 0 51 51">
  <g id="request" transform="translate(-544 -212)">
    <circle id="Ellipse_153" data-name="Ellipse 153" cx="25.5" cy="25.5" r="25.5" transform="translate(544 212)" fill="#f3efff"/>
    <path id="noun-request-4462576" d="M140.775,52.5H124.884a2.383,2.383,0,0,0-2.384,2.384V70.775a2.383,2.383,0,0,0,2.384,2.384h4.242c2.278-.845,2.511-2.966,2.511-5.562V63.322l-1.143,1.144a1.192,1.192,0,1,1-1.686-1.686l3.178-3.178a1.192,1.192,0,0,1,1.686,0l3.178,3.178a1.192,1.192,0,1,1-1.686,1.686l-1.143-1.144V67.6a10.139,10.139,0,0,1-1.224,5.562h7.977a2.383,2.383,0,0,0,2.384-2.384V54.884a2.383,2.383,0,0,0-2.384-2.384Z" transform="translate(436.5 174.5)" fill="#9672fb"/>
  </g>
</svg>
