<svg xmlns="http://www.w3.org/2000/svg" width="51" height="51" viewBox="0 0 51 51">
  <g id="completed" transform="translate(-1820 -212)">
    <circle id="Ellipse_157" data-name="Ellipse 157" cx="25.5" cy="25.5" r="25.5" transform="translate(1820 212)" fill="#f3efff"/>
    <g id="Group_3" data-name="Group 3" transform="translate(1684.854 7.131)">
      <path id="Path_2" data-name="Path 2" d="M167.551,241.082h-12.81a3.808,3.808,0,0,1-3.808-3.808v-12.81a3.809,3.809,0,0,1,3.808-3.809h12.81a3.809,3.809,0,0,1,3.809,3.809v12.81A3.809,3.809,0,0,1,167.551,241.082Z" transform="translate(0)" fill="#9672fb"/>
      <path id="Path_3" data-name="Path 3" d="M165.772,228.263l-5.391,5.391a.36.36,0,0,1-.509,0l-1.463-1.463a.361.361,0,0,0-.51,0l-.519.52a.36.36,0,0,0,0,.509l1.718,1.718.775.775a.36.36,0,0,0,.509,0l.775-.775,5.646-5.646a.359.359,0,0,0,0-.509l-.519-.52A.361.361,0,0,0,165.772,228.263Z" transform="translate(-0.944 -1.117)" fill="#fff"/>
    </g>
  </g>
</svg>
