<svg xmlns="http://www.w3.org/2000/svg" width="10.786" height="13.699" viewBox="0 0 10.786 13.699">
  <g id="delete" transform="translate(-431.231 -1640.077)">
    <path id="Path_23" data-name="Path 23" d="M22.838,3.509H19.954V3.481a.972.972,0,0,0-.981-.981H17.013a.972.972,0,0,0-.981.981v.029H13.148a.548.548,0,0,0-.548.548v.548a.548.548,0,0,0,.548.548h9.69a.548.548,0,0,0,.548-.548V4.057A.548.548,0,0,0,22.838,3.509Z" transform="translate(418.631 1637.577)" fill="#8d889a"/>
    <path id="Path_24" data-name="Path 24" d="M28.1,26.1H19.852a.258.258,0,0,0-.26.288l.4,8.349a1.741,1.741,0,0,0,1.73,1.658h4.485a1.731,1.731,0,0,0,1.73-1.658l.4-8.349A.254.254,0,0,0,28.1,26.1Zm-5.018,8.061a.461.461,0,0,1-.923,0V28.35a.461.461,0,0,1,.923,0Zm2.711,0a.461.461,0,0,1-.923,0V28.35a.461.461,0,0,1,.923,0Z" transform="translate(412.647 1617.38)" fill="#8d889a"/>
  </g>
</svg>
