<svg xmlns="http://www.w3.org/2000/svg" width="369.075" height="214.92" viewBox="0 0 369.075 214.92">
  <g id="Designer_life-pana" data-name="Designer life-pana" transform="translate(-54.71 -67.829)">
    <g id="freepik--Floor--inject-41" transform="translate(54.71 282.264)">
      <path id="Path_6280" data-name="Path 6280" d="M423.785,453.025c0,.084-82.627.145-184.529.145s-184.546-.061-184.546-.145,82.611-.145,184.546-.145S423.785,452.947,423.785,453.025Z" transform="translate(-54.71 -452.88)" fill="#263238"/>
    </g>
    <g id="freepik--Character--inject-41" transform="translate(182.18 153.282)">
      <path id="Path_6281" data-name="Path 6281" d="M437.849,316.54c0,.3,1.6,2.228.963,4.372-.184.607-1.76,1.827-1.76,1.827l1.671,2.946-9.824,4.2-4.94-9.64,9.885-2.784Z" transform="translate(-345.795 -263.486)" fill="#ffbe9d"/>
      <path id="Path_6282" data-name="Path 6282" d="M430.6,280.607a4.327,4.327,0,0,0,.958-6.193c-1.069-1.264-2.862-1.854-3.664-3.308a5.259,5.259,0,0,1-.273-3.581,15.536,15.536,0,0,0,.585-3.614,3.221,3.221,0,0,0-1.788-2.968c-1.6-.6-3.269.746-4.16,2.2a10.954,10.954,0,0,0-.529,10.264c.668,1.4,1.632,2.634,2.356,4a6.357,6.357,0,0,1,.835,4.455" transform="translate(-344.352 -238.786)" fill="#f5f5f5"/>
      <path id="Path_6283" data-name="Path 6283" d="M429.537,269a7.634,7.634,0,0,0-.674,2.033,5.77,5.77,0,0,0,.122,2.294,6.237,6.237,0,0,0,.5,1.259,5.525,5.525,0,0,0,.88,1.147,17.428,17.428,0,0,1,2.133,1.977,4.388,4.388,0,0,1,.824,2.228,4.116,4.116,0,0,1-.184,1.6,1.631,1.631,0,0,1-.251.557,5.569,5.569,0,0,0,.228-2.116,4.227,4.227,0,0,0-.835-2.111,18.883,18.883,0,0,0-2.116-1.927,5.5,5.5,0,0,1-.924-1.225,5.947,5.947,0,0,1-.512-1.331,5.753,5.753,0,0,1-.072-2.389,4.846,4.846,0,0,1,.557-1.515,1.978,1.978,0,0,1,.323-.484Z" transform="translate(-347.835 -242.421)" fill="#263238"/>
      <path id="Path_6284" data-name="Path 6284" d="M424.83,269.39a7.551,7.551,0,0,0-.679,2.027,5.881,5.881,0,0,0,.128,2.294,6.124,6.124,0,0,0,.5,1.259,5.412,5.412,0,0,0,.88,1.153,16.972,16.972,0,0,1,2.133,1.977,4.355,4.355,0,0,1,.824,2.228,4.082,4.082,0,0,1-.184,1.6,1.631,1.631,0,0,1-.251.557,5.669,5.669,0,0,0,.228-2.116,4.283,4.283,0,0,0-.835-2.105,18.9,18.9,0,0,0-2.116-1.932,5.463,5.463,0,0,1-.924-1.22,5.948,5.948,0,0,1-.512-1.331,5.781,5.781,0,0,1-.089-2.378,4.812,4.812,0,0,1,.557-1.515,1.732,1.732,0,0,1,.34-.5Z" transform="translate(-345.746 -242.594)" fill="#263238"/>
      <path id="Path_6285" data-name="Path 6285" d="M430.036,238.318a2.372,2.372,0,0,1,1.459,1.559,3.514,3.514,0,0,1-.078,2.177,3.375,3.375,0,0,1-.98,1.52,2.228,2.228,0,0,1-1.671.557,2.7,2.7,0,0,1-1.877-1.348,3.508,3.508,0,0,1-.122-3.659,2.49,2.49,0,0,1,3.341-.824" transform="translate(-346.837 -228.663)" fill="#f5f5f5"/>
      <path id="Path_6286" data-name="Path 6286" d="M436.489,293.06l1.76,15.777a2.311,2.311,0,0,1-1.921,2.539l-9.618,1.6a2.322,2.322,0,0,1-2.662-1.866l-2.818-15.226Z" transform="translate(-344.585 -253.082)" fill="#455a64"/>
      <path id="Path_6287" data-name="Path 6287" d="M435.15,300.258l.557-.078.5,3.592-.557.084Z" transform="translate(-350.753 -256.237)" fill="#263238"/>
      <path id="Path_6288" data-name="Path 6288" d="M436.184,318.756l-.557.067-.178-.64-.691.084v.663l-.518.061.145-3.67.824-.1Zm-1.426-.991.557-.061-.49-1.793Z" transform="translate(-350.35 -262.901)" fill="#263238"/>
      <path id="Path_6289" data-name="Path 6289" d="M439.054,318.4a1.147,1.147,0,0,1-.106-.44l-.067-.557c-.039-.334-.167-.445-.423-.418l-.2.028.178,1.465-.557.067-.429-3.6.852-.1a.73.73,0,0,1,.941.73l.033.278a.73.73,0,0,1-.284.78c.3.084.423.345.468.718l.067.557a1.08,1.08,0,0,0,.111.429Zm-.986-3.018.128,1.114.223-.028c.212,0,.329-.128.3-.418l-.045-.356c-.028-.256-.128-.362-.329-.334Z" transform="translate(-351.772 -262.721)" fill="#263238"/>
      <path id="Path_6290" data-name="Path 6290" d="M440.85,314.466l1.749-.206.061.512-.59.072.368,3.085-.557.067-.368-3.085-.59.072Z" transform="translate(-353.279 -262.476)" fill="#263238"/>
      <path id="Path_6291" data-name="Path 6291" d="M435.688,308.66a3.219,3.219,0,0,0-.98-.885.813.813,0,0,0-1.053.212.8.8,0,0,0,0,.752,1.866,1.866,0,0,0,.507.6,9.692,9.692,0,0,0,1.938,1.27,4.879,4.879,0,0,0,1.175-2,1.376,1.376,0,0,0,.061-.7.557.557,0,0,0-.484-.457,1.008,1.008,0,0,0-.64.256,2.038,2.038,0,0,0-.518.963" transform="translate(-350.049 -259.454)" fill="#9672fb"/>
      <path id="Path_6292" data-name="Path 6292" d="M445.539,295.757s-5.012,5.424-4.166,7.162c.49,1.008,1.827.913,2.59-.045s1.76-2.116,2.439-2.929C447.293,298.87,447.165,295.629,445.539,295.757Z" transform="translate(-353.468 -254.275)" fill="#ffbe9d"/>
      <path id="Path_6293" data-name="Path 6293" d="M447.589,302.53s-4.561,4.455-3.815,5.925,2.088.6,2.751-.234,1.114-1.537,1.671-2.228C448.987,305.052,449.154,301.989,447.589,302.53Z" transform="translate(-354.538 -257.25)" fill="#ffbe9d"/>
      <path id="Path_6294" data-name="Path 6294" d="M449.126,308.983s-3.247,3.531-2.679,4.661,1.259.88,1.76.251,1.153-1.387,1.6-1.921C450.4,311.255,450.173,308.7,449.126,308.983Z" transform="translate(-355.729 -260.128)" fill="#ffbe9d"/>
      <path id="Path_6295" data-name="Path 6295" d="M421.855,312.6l-2.6-6.076,6.065-6.878a2.265,2.265,0,0,1,.618,2.985,13.263,13.263,0,0,1-3.2,3.9l.167,6.081Z" transform="translate(-343.712 -256.002)" fill="#ffbe9d"/>
      <path id="Path_6296" data-name="Path 6296" d="M422.051,301.692a11.584,11.584,0,0,0-2.874.59,5.831,5.831,0,0,0-2.389,1.888,5.5,5.5,0,0,0,.5,6.867,5.8,5.8,0,0,0,2.645,1.526,12.808,12.808,0,0,0,2.924.167c0,.045-.239.217-.763.356a5.407,5.407,0,0,1-2.294.078,5.924,5.924,0,0,1-.819-11.455,5.285,5.285,0,0,1,2.283-.262C421.784,301.508,422.062,301.642,422.051,301.692Z" transform="translate(-341.809 -256.785)" fill="#455a64"/>
      <path id="Path_6297" data-name="Path 6297" d="M448.018,302.16a30.764,30.764,0,0,1-3.748,4.522,15.071,15.071,0,0,1,1.76-2.356A14.7,14.7,0,0,1,448.018,302.16Z" transform="translate(-354.794 -257.114)" fill="#eb996e"/>
      <path id="Path_6298" data-name="Path 6298" d="M449.714,308.67a7.8,7.8,0,0,1-1.275,1.916,7.552,7.552,0,0,1-1.6,1.671,11.467,11.467,0,0,1,1.37-1.838,11.694,11.694,0,0,1,1.5-1.749Z" transform="translate(-355.933 -259.999)" fill="#eb996e"/>
      <path id="Path_6299" data-name="Path 6299" d="M442.383,328.6A12.091,12.091,0,0,1,440,329.653a11.946,11.946,0,0,1-2.489.78,11.7,11.7,0,0,1,2.384-1.053,11.946,11.946,0,0,1,2.489-.78Z" transform="translate(-351.799 -268.83)" fill="#eb996e"/>
      <path id="Path_6300" data-name="Path 6300" d="M429.95,368.1s1.671-19.759.757-22.276-3.6-11.957-3.6-11.957l14.513-4.333s7.412,19.547,9.957,36.694Z" transform="translate(-347.191 -269.242)" fill="#263238"/>
      <path id="Path_6301" data-name="Path 6301" d="M366.905,374.227,349,354.179l-.178,24.364,5.012,12.965H300.01l-1.626-30.3-3.854-32.451a8.81,8.81,0,0,1,5.519-9.239l14.763-5.8,20.761,3.8,8.354,3.174a22.905,22.905,0,0,1,9.1,6.332l25.139,28.747" transform="translate(-288.417 -262.236)" fill="#263238"/>
      <path id="Path_6302" data-name="Path 6302" d="M390.14,367.831a27.6,27.6,0,0,0,3.024-.212,12.28,12.28,0,0,0,10.063-9.284,27.18,27.18,0,0,0,.457-3,2.644,2.644,0,0,1,.078.824,10.583,10.583,0,0,1-.234,2.228,12,12,0,0,1-10.319,9.517,10.646,10.646,0,0,1-2.228.056,2.456,2.456,0,0,1-.841-.134Z" transform="translate(-330.809 -280.678)" fill="#fff"/>
      <path id="Path_6303" data-name="Path 6303" d="M392.244,398.272c.122,0,.312-8.437.418-18.846s.089-18.857-.039-18.857-.312,8.437-.418,18.851S392.116,398.272,392.244,398.272Z" transform="translate(-331.693 -282.995)" fill="#455a64"/>
      <path id="Path_6304" data-name="Path 6304" d="M342.538,388.327,310.176,375.3a7.379,7.379,0,0,1-4.633-6.293L303.2,337.989s.278-13.2-7.964-13.839l-4.689,1.843c-6.059,3.219-7.563,12.046-6.733,18.857,1.169,9.679,1.671,23.39,2.968,31.777,1.075,6.867,5.012,12.915,11.734,14.685l39.39,5.012Z" transform="translate(-283.603 -266.858)" fill="#263238"/>
      <path id="Path_6305" data-name="Path 6305" d="M319.611,357.48a4.12,4.12,0,0,1,.1.713c.05.507.123,1.186.212,2.044.161,1.821.4,4.377.679,7.524s.6,6.972.963,11.166c.089,1.047.178,2.127.267,3.224a24.912,24.912,0,0,0,.418,3.341,5.491,5.491,0,0,0,1.6,2.907,11.048,11.048,0,0,0,2.991,1.86c8.91,3.859,17.147,7.045,23.111,9.284l7.089,2.612,1.927.707a3.9,3.9,0,0,1,.663.278,5.507,5.507,0,0,1-.691-.195l-1.955-.635c-1.671-.557-4.132-1.4-7.139-2.478-6-2.189-14.24-5.307-23.189-9.206a11.267,11.267,0,0,1-3.1-1.938,5.987,5.987,0,0,1-1.726-3.124,25.071,25.071,0,0,1-.412-3.38c-.084-1.114-.173-2.172-.256-3.224-.323-4.2-.618-7.98-.863-11.177s-.418-5.714-.557-7.535c-.05-.858-.095-1.543-.123-2.049a3.9,3.9,0,0,1-.011-.718Z" transform="translate(-299.553 -281.626)" fill="#455a64"/>
      <path id="Path_6306" data-name="Path 6306" d="M311.18,420.67a4.661,4.661,0,0,1,.585-1.721,11.138,11.138,0,0,1,6.555-5.608,4.818,4.818,0,0,1,1.8-.312c0,.072-.668.206-1.7.6a12.553,12.553,0,0,0-6.393,5.463C311.486,420.046,311.247,420.7,311.18,420.67Z" transform="translate(-295.822 -306.24)" fill="#263238"/>
      <path id="Path_6307" data-name="Path 6307" d="M322.6,358.859a.411.411,0,0,1,.206.089l.557.3a20.455,20.455,0,0,0,2.311.98,18.261,18.261,0,0,0,9.072.774,17.893,17.893,0,0,0,11.272-7A14.9,14.9,0,0,0,349,346.668a10.024,10.024,0,0,0-.429-4.149,8.448,8.448,0,0,0-2.333-3.564,7.067,7.067,0,0,0-3.8-1.843,4.522,4.522,0,0,0-3.809,1.069,2.411,2.411,0,0,0-.741,1.721,2.946,2.946,0,0,0,.624,1.776A4.856,4.856,0,0,0,341.8,343.4a13.365,13.365,0,0,0,7.073-1.014,13.132,13.132,0,0,0,7.451-8.354,14.011,14.011,0,0,0,.618-3.9,15.408,15.408,0,0,0-.184-2.495c-.05-.262-.089-.473-.117-.646s-.039-.217-.028-.223a10.536,10.536,0,0,1,.5,3.341,14.056,14.056,0,0,1-.557,3.965,13.689,13.689,0,0,1-14.8,9.718,5.279,5.279,0,0,1-3.564-1.866,3.442,3.442,0,0,1-.713-2.027,2.868,2.868,0,0,1,.863-2.022,4.929,4.929,0,0,1,4.166-1.2,7.451,7.451,0,0,1,4.032,1.955,8.849,8.849,0,0,1,2.45,3.748,10.43,10.43,0,0,1,.445,4.322,15.259,15.259,0,0,1-3.052,7.529,17.871,17.871,0,0,1-20.722,6.154A13.2,13.2,0,0,1,322.6,358.859Z" transform="translate(-300.882 -268.019)" fill="#fff"/>
      <path id="Path_6308" data-name="Path 6308" d="M284.54,365.7a2.869,2.869,0,0,1,.557-.663,11.641,11.641,0,0,1,1.749-1.52A14.68,14.68,0,0,1,294,360.982a13.844,13.844,0,0,1,4.221.178,12.809,12.809,0,0,1,3.247,1.142,14.48,14.48,0,0,1,1.977,1.2,2.979,2.979,0,0,1,.652.557c-.045.072-1.014-.663-2.757-1.47a13.55,13.55,0,0,0-7.3-1.169,15.359,15.359,0,0,0-7.023,2.35C285.392,364.853,284.6,365.766,284.54,365.7Z" transform="translate(-284.018 -283.14)" fill="#fff"/>
      <path id="Path_6309" data-name="Path 6309" d="M293.84,324.532a13.155,13.155,0,0,0,2.617,1.9,9.545,9.545,0,0,0,3.341.98,8.353,8.353,0,0,0,7.54-3.119,9.412,9.412,0,0,0,1.671-3.052,12.809,12.809,0,0,0,.507-3.2,2.819,2.819,0,0,1,.111.88,7.986,7.986,0,0,1-.323,2.406,9.184,9.184,0,0,1-1.671,3.208,8.521,8.521,0,0,1-7.891,3.269,9.245,9.245,0,0,1-3.436-1.114,8.182,8.182,0,0,1-1.927-1.476A2.684,2.684,0,0,1,293.84,324.532Z" transform="translate(-288.139 -264.155)" fill="#fff"/>
      <path id="Path_6310" data-name="Path 6310" d="M344.47,411.49a3.343,3.343,0,0,1,.067-.613,6.989,6.989,0,0,1,.557-1.671,9.228,9.228,0,0,1,4.845-4.2,14.279,14.279,0,0,1,9.512-.34c1.71.507,3.676,1.114,4.962,2.784a3.007,3.007,0,0,1,.362,3.041,4.834,4.834,0,0,1-2.306,2.177,7.239,7.239,0,0,1-3.063.757,4.455,4.455,0,0,1-2.94-.913,3.753,3.753,0,0,1-1.32-2.662,6.744,6.744,0,0,1,.44-2.785,12.608,12.608,0,0,1,6.683-6.75,13.037,13.037,0,0,1,6.365-1.114,8.91,8.91,0,0,1,2.328.49c0,.056-.824-.223-2.339-.323a13.293,13.293,0,0,0-6.226,1.2,13.026,13.026,0,0,0-3.637,2.467,11.634,11.634,0,0,0-2.784,4.143,6.277,6.277,0,0,0-.407,2.634,3.341,3.341,0,0,0,1.175,2.372,4.065,4.065,0,0,0,2.668.807,6.911,6.911,0,0,0,2.874-.718,4.455,4.455,0,0,0,2.111-1.966,2.584,2.584,0,0,0-.317-2.617,6.026,6.026,0,0,0-2.166-1.715,14.774,14.774,0,0,0-2.556-.952,13.955,13.955,0,0,0-9.289.239,9.228,9.228,0,0,0-4.812,4A9.466,9.466,0,0,0,344.47,411.49Z" transform="translate(-310.573 -300.095)" fill="#fff"/>
      <path id="Path_6311" data-name="Path 6311" d="M305.78,430.33c0-.083,1.236-.189,3.107-.858a15.448,15.448,0,0,0,9.924-10.993c.473-1.927.457-3.174.557-3.169a2.786,2.786,0,0,1,.05.874,13.592,13.592,0,0,1-.284,2.367A14.9,14.9,0,0,1,309,429.75a12.808,12.808,0,0,1-2.328.523A3.262,3.262,0,0,1,305.78,430.33Z" transform="translate(-293.429 -307.251)" fill="#fff"/>
      <path id="Path_6312" data-name="Path 6312" d="M287,397.336a1.818,1.818,0,0,1,.39-.156c.262-.083.652-.206,1.158-.334a13.85,13.85,0,0,1,4.405-.446,9.044,9.044,0,0,1,3,.741,6.844,6.844,0,0,1,2.785,2.194,5.747,5.747,0,0,1,1.114,3.77,4.661,4.661,0,0,1-.646,2.027,3.208,3.208,0,0,1-1.671,1.415,2.228,2.228,0,0,1-2.189-.429,2.924,2.924,0,0,1-.752-2.016,8.643,8.643,0,0,1,.763-3.854,8.42,8.42,0,0,1,4.717-4.455,8.543,8.543,0,0,1,4.405-.434,7.568,7.568,0,0,1,1.169.3,1.465,1.465,0,0,1,.384.173c0,.039-.557-.173-1.582-.3a8.772,8.772,0,0,0-4.266.557,8.192,8.192,0,0,0-4.455,4.355,8.293,8.293,0,0,0-.7,3.67,2.534,2.534,0,0,0,.624,1.721,1.81,1.81,0,0,0,1.76.334,2.784,2.784,0,0,0,1.459-1.231,4.177,4.177,0,0,0,.59-1.832,5.4,5.4,0,0,0-.991-3.508,6.633,6.633,0,0,0-2.617-2.1,9.2,9.2,0,0,0-2.874-.763,14.83,14.83,0,0,0-4.344.312C287.557,397.2,287,397.336,287,397.336Z" transform="translate(-285.108 -298.36)" fill="#fff"/>
      <g id="Group_7269" data-name="Group 7269" transform="translate(21.111 85.082)" opacity="0.3">
        <path id="Path_6313" data-name="Path 6313" d="M350.034,406.74c-3.464-1.955-6.844-3.453-10.464-5.1s-7.162-3.753-9.529-6.945c-4.455-6.02-3.96-14.708-8.532-20.644q.451,5.992.9,11.979c.273,3.664-.29,7.284,2.072,9.768,1.983,2.1,5.859,3.7,8.6,4.611,5.513,1.815,11.444,4.516,16.958,6.332" transform="translate(-321.51 -374.05)"/>
      </g>
      <path id="Path_6314" data-name="Path 6314" d="M448.249,346.1a2.609,2.609,0,0,1-.4.251c-.273.15-.663.4-1.153.718a17.382,17.382,0,0,0-3.659,3.341,16.6,16.6,0,0,0-3.28,6.51,8.159,8.159,0,0,0-.033,4.255,4.633,4.633,0,0,0,1.114,1.916A4.026,4.026,0,0,0,442.8,364.2a2.935,2.935,0,0,0,2.189-.356,3.62,3.62,0,0,0,1.431-1.671,3.542,3.542,0,0,0,.273-2.105,4.233,4.233,0,0,0-.846-1.866,5.073,5.073,0,0,0-3.269-1.882,6.71,6.71,0,0,0-3.341.373,8.838,8.838,0,0,0-2.439,1.387,12.706,12.706,0,0,0-1.554,1.459c-.4.434-.679.8-.874,1.036a2.783,2.783,0,0,1-.3.368s0-.039.061-.106.106-.167.195-.3c.178-.256.451-.624.835-1.075a11.7,11.7,0,0,1,1.537-1.515,8.777,8.777,0,0,1,2.467-1.453,6.977,6.977,0,0,1,3.447-.418,5.335,5.335,0,0,1,3.442,1.955,4.488,4.488,0,0,1,.908,1.988,3.832,3.832,0,0,1-.284,2.261,3.943,3.943,0,0,1-1.543,1.793,3.247,3.247,0,0,1-2.4.39,4.266,4.266,0,0,1-2.111-1.214,4.862,4.862,0,0,1-1.192-2.038,8.354,8.354,0,0,1,.05-4.394,16.651,16.651,0,0,1,7.134-9.885,13.494,13.494,0,0,1,1.186-.674,3.653,3.653,0,0,1,.446-.167Z" transform="translate(-350.275 -276.584)" fill="#fff"/>
      <path id="Path_6315" data-name="Path 6315" d="M322.145,433.378a3.061,3.061,0,0,1-.479-.089l-1.359-.29-5.012-.991c-2.122-.412-4.656-.9-7.457-1.481-1.4-.29-2.868-.607-4.388-.969a29.067,29.067,0,0,1-4.633-1.4,15.537,15.537,0,0,1-7.112-5.92,23.528,23.528,0,0,1-2.784-7.078,33.516,33.516,0,0,1-.78-5.079c-.039-.6-.067-1.075-.067-1.392a3.565,3.565,0,0,1,0-.484,3.08,3.08,0,0,1,.056.484c0,.317.067.785.123,1.387a38.653,38.653,0,0,0,.863,5.012,24.024,24.024,0,0,0,2.812,7.011,15.387,15.387,0,0,0,7,5.8,29.728,29.728,0,0,0,4.583,1.387c1.515.368,2.979.691,4.377.986l7.429,1.543c2.116.44,3.831.8,5.012,1.08.59.139,1.047.251,1.353.345A2.457,2.457,0,0,1,322.145,433.378Z" transform="translate(-285.58 -304.1)" fill="#455a64"/>
      <path id="Path_6316" data-name="Path 6316" d="M390.693,436.878l1.932-.88,2.979-3.525a4.589,4.589,0,0,1,4.372-1.548l6.933,1.314-1.871,9.144H390.08Z" transform="translate(-330.783 -314.133)" fill="#ffbe9d"/>
      <path id="Path_6317" data-name="Path 6317" d="M371.842,229.213c-2.935-1.715-6.906.34-10.024-1.064-1.882-.858-3-2.785-4.516-4.177a10.388,10.388,0,0,0-8.91-2.478c-2.974.724-5.073,1.771-6.126,4.672-2.105-1.977-6.9.128-8.988,2.785s-2.462,5.781-2.428,9.139a44.357,44.357,0,0,0,3.547,16.885c.2.468.557,1.025,1.069.919a1.077,1.077,0,0,0,.674-.763,36.933,36.933,0,0,0,1.927-8.832,22.465,22.465,0,0,1,2.617-8.61c1.582-2.573,4.372-4.606,7.4-4.489a9.677,9.677,0,0,1,5.92,2.785c1.643,1.487,2.968,3.341,4.489,4.968a12.423,12.423,0,0,0,5.447,3.742,5.9,5.9,0,0,0,6.126-1.609c1.409-1.743,1.014-4.784-1.008-5.742a4.388,4.388,0,0,0,2.829-8.131Z" transform="translate(-304.536 -221.273)" fill="#263238"/>
      <path id="Path_6318" data-name="Path 6318" d="M334.872,243.368l-4.617,33.564a10.08,10.08,0,0,0,9.105,11.416h0a10.086,10.086,0,0,0,10.865-8.682c.345-2.528.64-4.633.691-4.9,0,0,8.66.373,10.436-8,.863-4.049,1.955-12.525,2.857-20.2a15.944,15.944,0,0,0-12.72-17.487l-.813-.195C341.85,227.674,335.863,234.491,334.872,243.368Z" transform="translate(-304.232 -224.585)" fill="#ffbe9d"/>
      <path id="Path_6319" data-name="Path 6319" d="M359.3,306.946a19.9,19.9,0,0,1-10.3-5.3s1.381,6.56,9.907,7.474Z" transform="translate(-312.58 -256.888)" fill="#eb996e"/>
      <path id="Path_6320" data-name="Path 6320" d="M382.958,268.872a1.22,1.22,0,0,1-1.4.98,1.175,1.175,0,0,1-1.019-1.325,1.22,1.22,0,0,1,1.4-.98,1.164,1.164,0,0,1,1.019,1.325Z" transform="translate(-326.551 -241.77)" fill="#263238"/>
      <path id="Path_6321" data-name="Path 6321" d="M382.834,266.032c-.178.123-.952-.73-2.228-.986s-2.361.206-2.473,0c-.05-.084.156-.334.629-.557a3.342,3.342,0,0,1,2.016-.206,3.252,3.252,0,0,1,1.749.975C382.846,265.665,382.923,265.977,382.834,266.032Z" transform="translate(-325.486 -240.3)" fill="#263238"/>
      <path id="Path_6322" data-name="Path 6322" d="M360.067,265.122a1.225,1.225,0,0,1-1.4.98,1.17,1.17,0,0,1-1.019-1.331,1.22,1.22,0,0,1,1.4-.975,1.164,1.164,0,0,1,1.019,1.325Z" transform="translate(-316.408 -240.108)" fill="#263238"/>
      <path id="Path_6323" data-name="Path 6323" d="M359.983,261.918c-.178.128-.952-.73-2.228-.98s-2.361.2-2.473,0c-.056-.084.15-.34.624-.557a3.391,3.391,0,0,1,2.022-.206,3.252,3.252,0,0,1,1.749.975C359.994,261.55,360.072,261.862,359.983,261.918Z" transform="translate(-315.36 -238.48)" fill="#263238"/>
      <path id="Path_6324" data-name="Path 6324" d="M368.71,273.569a8.87,8.87,0,0,1,2.166.045c.34,0,.663,0,.763-.189a1.766,1.766,0,0,0,0-1.019c-.15-.858-.312-1.76-.473-2.7a43.9,43.9,0,0,1-.88-6.995,43.473,43.473,0,0,1,1.437,6.906c.15.947.3,1.849.429,2.712a1.932,1.932,0,0,1-.084,1.325.841.841,0,0,1-.64.373,2.308,2.308,0,0,1-.557-.033A8.263,8.263,0,0,1,368.71,273.569Z" transform="translate(-321.314 -239.634)" fill="#263238"/>
      <path id="Path_6325" data-name="Path 6325" d="M361.256,282.449c.212.033-.067,1.431.936,2.668s2.517,1.376,2.489,1.57c0,.095-.384.206-1.019.1a3.57,3.57,0,0,1-2.094-1.236,3.091,3.091,0,0,1-.7-2.228C360.938,282.755,361.161,282.427,361.256,282.449Z" transform="translate(-317.835 -248.38)" fill="#263238"/>
      <path id="Path_6326" data-name="Path 6326" d="M361.366,253.152c-.195.329-1.448-.095-3-.217s-2.851.05-2.991-.306c-.061-.167.217-.457.78-.7a5.213,5.213,0,0,1,4.567.4C361.232,252.668,361.455,253,361.366,253.152Z" transform="translate(-315.4 -234.704)" fill="#263238"/>
      <path id="Path_6327" data-name="Path 6327" d="M383.61,259.124c-.284.251-1.114-.234-2.177-.462s-2.01-.195-2.161-.557c-.061-.167.139-.429.59-.629a3.241,3.241,0,0,1,3.5.813C383.677,258.679,383.738,259,383.61,259.124Z" transform="translate(-325.989 -237.223)" fill="#263238"/>
      <path id="Path_6328" data-name="Path 6328" d="M332.454,265.791c-.128-.089-5.424-2.857-6.388,2.918s5.012,5.569,5.073,5.385S332.454,265.791,332.454,265.791Z" transform="translate(-302.372 -240.671)" fill="#ffbe9d"/>
      <path id="Path_6329" data-name="Path 6329" d="M330.929,273.052a2.2,2.2,0,0,1-.3.1.986.986,0,0,1-.752-.111,2.552,2.552,0,0,1-.78-2.423,3.341,3.341,0,0,1,.523-1.392,1.158,1.158,0,0,1,.885-.646.526.526,0,0,1,.557.674c0,.017.139-.078.134-.323a.652.652,0,0,0-.167-.4.741.741,0,0,0-.529-.239,1.442,1.442,0,0,0-1.2.718,3.464,3.464,0,0,0-.618,1.554,2.649,2.649,0,0,0,1.053,2.734,1.114,1.114,0,0,0,.947,0C330.9,273.185,330.951,273.063,330.929,273.052Z" transform="translate(-303.564 -242.106)" fill="#eb996e"/>
      <path id="Path_6330" data-name="Path 6330" d="M369.111,244.24a12.358,12.358,0,0,1-10.286-4.583c-1.671-2.138-2.784-4.94-5.174-6.237a6.956,6.956,0,0,0-5.357-.329,13.444,13.444,0,0,0-4.678,2.84c.769,4.589-1.27,9.133-3.258,13.366a2.322,2.322,0,0,1-.936,1.186c-.785.39-1.715-.223-2.183-.958a7.212,7.212,0,0,1-.813-4.054,24.136,24.136,0,0,1,1.916-9.295,16.351,16.351,0,0,1,6.037-7.24,15.532,15.532,0,0,1,11.489-1.9,19.074,19.074,0,0,1,10.063,6.042,11.138,11.138,0,0,1,2.718,4.767" transform="translate(-307.007 -223.659)" fill="#263238"/>
      <path id="Path_6331" data-name="Path 6331" d="M383.112,234.289a1.214,1.214,0,0,1-.15.484,2.35,2.35,0,0,1-1.036,1.025,3.742,3.742,0,0,1-2.289.29,6.415,6.415,0,0,1-1.4-.373,3.174,3.174,0,0,1-1.331-.969,2.066,2.066,0,0,1-.39-1.765,1.8,1.8,0,0,1,1.509-1.22,2.228,2.228,0,0,1,1.058.072,1.877,1.877,0,0,1,.9.64,2.656,2.656,0,0,1,.457,2.177,3.09,3.09,0,0,1-1.325,1.921,4.7,4.7,0,0,1-2.317.769A7.724,7.724,0,0,1,372,235.826a22.412,22.412,0,0,1-3.737-3.4,28.4,28.4,0,0,0-3.341-3.23,8.693,8.693,0,0,0-3.754-1.743,8.237,8.237,0,0,0-3.609.195,10.364,10.364,0,0,0-4.5,2.7,13.919,13.919,0,0,0-.975,1.069c-.206.256-.317.4-.323.39s0-.039.061-.111.117-.178.217-.312a11.2,11.2,0,0,1,.941-1.114,10.247,10.247,0,0,1,4.522-2.818,8.454,8.454,0,0,1,3.7-.234,8.944,8.944,0,0,1,3.9,1.771,28.1,28.1,0,0,1,3.4,3.247,21.952,21.952,0,0,0,3.687,3.341,7.485,7.485,0,0,0,4.617,1.47,4.455,4.455,0,0,0,2.177-.713,2.785,2.785,0,0,0,1.22-1.749,2.417,2.417,0,0,0-.4-1.966,1.76,1.76,0,0,0-1.715-.635,1.6,1.6,0,0,0-1.337,1.047,1.86,1.86,0,0,0,.345,1.582,2.941,2.941,0,0,0,1.231.919,6,6,0,0,0,1.364.384,3.647,3.647,0,0,0,2.228-.228,2.384,2.384,0,0,0,1.036-.947A4.193,4.193,0,0,0,383.112,234.289Z" transform="translate(-313.802 -223.86)" fill="#455a64"/>
      <path id="Path_6332" data-name="Path 6332" d="M331.56,240.167a9.7,9.7,0,0,0,1.671.807,5.145,5.145,0,0,0,1.96.184,8.492,8.492,0,0,0,2.361-.607,6.856,6.856,0,0,0,3.236-2.907,14.523,14.523,0,0,0,.741-1.7,1.566,1.566,0,0,1-.072.507,5.669,5.669,0,0,1-.484,1.292,6.683,6.683,0,0,1-3.308,3.08,8.309,8.309,0,0,1-2.45.607,5.073,5.073,0,0,1-2.049-.256,4.889,4.889,0,0,1-1.225-.657A1.571,1.571,0,0,1,331.56,240.167Z" transform="translate(-304.852 -227.772)" fill="#455a64"/>
      <path id="Path_6333" data-name="Path 6333" d="M330.52,247.734c0-.05.657.228,1.754.384a8,8,0,0,0,7.579-3.085c.674-.88.936-1.526.986-1.5a1.493,1.493,0,0,1-.156.462,7.24,7.24,0,0,1-.663,1.164,7.758,7.758,0,0,1-7.8,3.169,6.883,6.883,0,0,1-1.281-.368A1.516,1.516,0,0,1,330.52,247.734Z" transform="translate(-304.392 -231.135)" fill="#455a64"/>
      <path id="Path_6334" data-name="Path 6334" d="M353.928,271.414a.161.161,0,1,1,.145-.161A.156.156,0,0,1,353.928,271.414Z" transform="translate(-314.685 -243.348)" fill="#eb996e"/>
      <path id="Path_6335" data-name="Path 6335" d="M358.508,271.252a.189.189,0,1,1,.15-.184A.173.173,0,0,1,358.508,271.252Z" transform="translate(-316.692 -243.253)" fill="#eb996e"/>
      <path id="Path_6336" data-name="Path 6336" d="M361.587,271.693c-.078,0-.139-.117-.128-.245s.084-.234.162-.228.139.117.128.245S361.665,271.7,361.587,271.693Z" transform="translate(-318.1 -243.404)" fill="#eb996e"/>
      <path id="Path_6337" data-name="Path 6337" d="M355.591,274.732c-.078,0-.134-.067-.123-.117s.078-.078.161-.067.134.072.123.123S355.669,274.749,355.591,274.732Z" transform="translate(-315.446 -244.878)" fill="#eb996e"/>
      <path id="Path_6338" data-name="Path 6338" d="M359.837,274.5a.156.156,0,0,1-.128-.178.145.145,0,1,1,.29.028.156.156,0,0,1-.161.15Z" transform="translate(-317.324 -244.722)" fill="#eb996e"/>
      <ellipse id="Ellipse_171" data-name="Ellipse 171" cx="0.145" cy="0.162" rx="0.145" ry="0.162" transform="translate(54.408 30.399)" fill="#eb996e"/>
      <path id="Path_6339" data-name="Path 6339" d="M384.519,276.482a.184.184,0,0,1,.039-.362.167.167,0,0,1,.122.195C384.67,276.415,384.6,276.493,384.519,276.482Z" transform="translate(-328.257 -245.576)" fill="#eb996e"/>
      <path id="Path_6340" data-name="Path 6340" d="M378.765,275.8a.129.129,0,1,1,.145-.128.134.134,0,0,1-.145.128Z" transform="translate(-325.705 -245.319)" fill="#eb996e"/>
      <path id="Path_6341" data-name="Path 6341" d="M380.372,279.222a.15.15,0,0,1-.173-.128.145.145,0,1,1,.173.128Z" transform="translate(-326.404 -246.823)" fill="#eb996e"/>
      <path id="Path_6342" data-name="Path 6342" d="M383.123,279.262a.128.128,0,0,1-.072-.173.134.134,0,0,1,.184-.044.123.123,0,1,1-.111.217Z" transform="translate(-327.663 -246.863)" fill="#eb996e"/>
      <path id="Path_6343" data-name="Path 6343" d="M327.514,278.7a3.637,3.637,0,0,0-.418,1.27,1.927,1.927,0,0,0,.384,1.325,1.765,1.765,0,0,0,1.465.718,1.615,1.615,0,0,0,1.342-.891,2.088,2.088,0,0,0,0-1.387,2.929,2.929,0,0,0-.635-1.169c0-.045.557.251.835,1.114a2.228,2.228,0,0,1,0,1.554,1.849,1.849,0,0,1-1.565,1.069,1.988,1.988,0,0,1-1.7-.846,2.111,2.111,0,0,1-.379-1.5,2.334,2.334,0,0,1,.362-.975C327.392,278.773,327.481,278.689,327.514,278.7Z" transform="translate(-302.756 -246.658)" fill="#263238"/>
      <path id="Path_6344" data-name="Path 6344" d="M327.364,277.07a.619.619,0,0,1,.239.457.835.835,0,0,1-.145.557.863.863,0,0,1-.635.373.785.785,0,0,1-.679-.317.663.663,0,0,1-.1-.6c.117-.34.379-.384.379-.351a.939.939,0,0,0-.178.4.473.473,0,0,0,.111.39.557.557,0,0,0,.446.189.64.64,0,0,0,.445-.245.707.707,0,0,0,.15-.407C327.414,277.265,327.325,277.092,327.364,277.07Z" transform="translate(-302.394 -245.997)" fill="#263238"/>
      <path id="Path_6345" data-name="Path 6345" d="M442.912,388.43,426.6,424.617H355.54l.29-1.838,24.621-.418,12.419-33.77Z" transform="translate(-315.478 -295.34)" fill="#455a64"/>
      <path id="Path_6346" data-name="Path 6346" d="M453.06,417.6a2.784,2.784,0,0,1,4.032,1.743,2.712,2.712,0,0,1-2.573,3.241,2.6,2.6,0,0,1-2.606-1.721,2.909,2.909,0,0,1,1.147-3.258" transform="translate(-358.132 -308.113)" fill="#ebebeb"/>
    </g>
    <g id="freepik--Books--inject-41" transform="translate(82.572 240.129)">
      <rect id="Rectangle_3371" data-name="Rectangle 3371" width="9.818" height="11.673" transform="translate(46.713 0.769)" fill="#f5f5f5"/>
      <rect id="Rectangle_3372" data-name="Rectangle 3372" width="44.374" height="13.171" transform="translate(2.673 0.006)" fill="#9672fb"/>
      <path id="Path_6347" data-name="Path 6347" d="M198.061,378.334H187.09V377.22h10.971a.557.557,0,0,1,.557.557h0A.557.557,0,0,1,198.061,378.334Z" transform="translate(-141.229 -377.22)" fill="#9672fb"/>
      <path id="Path_6348" data-name="Path 6348" d="M198.061,399.994H187.09V398.88h10.971a.557.557,0,0,1,.557.557h0A.557.557,0,0,1,198.061,399.994Z" transform="translate(-141.229 -386.818)" fill="#9672fb"/>
      <g id="Group_7270" data-name="Group 7270" transform="translate(38.32 0.006)" opacity="0.4">
        <rect id="Rectangle_3373" data-name="Rectangle 3373" width="5.24" height="13.171"/>
      </g>
      <g id="Group_7271" data-name="Group 7271" transform="translate(6.61 0.006)" opacity="0.4">
        <rect id="Rectangle_3374" data-name="Rectangle 3374" width="5.24" height="13.171"/>
      </g>
      <path id="Path_6349" data-name="Path 6349" d="M198.7,382.021c0,.028-2.127.056-4.745.056s-4.75-.028-4.75-.056,2.127-.061,4.75-.061S198.7,381.982,198.7,382.021Z" transform="translate(-142.164 -379.32)" fill="#e0e0e0"/>
      <path id="Path_6350" data-name="Path 6350" d="M198.7,385.161c0,.033-2.127.056-4.745.056s-4.75,0-4.75-.056,2.127-.061,4.75-.061S198.7,385.128,198.7,385.161Z" transform="translate(-142.164 -380.712)" fill="#e0e0e0"/>
      <path id="Path_6351" data-name="Path 6351" d="M198.7,389.036c0,.033-2.127.056-4.745.056s-4.75,0-4.75-.056,2.127-.056,4.75-.056S198.7,388.991,198.7,389.036Z" transform="translate(-142.164 -382.431)" fill="#e0e0e0"/>
      <path id="Path_6352" data-name="Path 6352" d="M198.7,392.956c0,.033-2.127.061-4.745.061s-4.75-.028-4.75-.061,2.127-.056,4.75-.056S198.7,392.894,198.7,392.956Z" transform="translate(-142.164 -384.168)" fill="#e0e0e0"/>
      <path id="Path_6353" data-name="Path 6353" d="M198.7,396.776c0,.033-2.127.061-4.745.061s-4.75-.028-4.75-.061,2.127-.056,4.75-.056S198.7,396.742,198.7,396.776Z" transform="translate(-142.164 -385.86)" fill="#e0e0e0"/>
      <g id="Group_7272" data-name="Group 7272" transform="translate(15.538 5.419)" opacity="0.2">
        <rect id="Rectangle_3375" data-name="Rectangle 3375" width="19.965" height="2.372"/>
      </g>
      <rect id="Rectangle_3376" data-name="Rectangle 3376" width="9.969" height="7.112" transform="translate(46.462 13.432)" fill="#fafafa"/>
      <rect id="Rectangle_3377" data-name="Rectangle 3377" width="42.43" height="7.63" transform="translate(4.143 13.176)" fill="#455a64"/>
      <path id="Path_6354" data-name="Path 6354" d="M187.82,401.4h10.715a.262.262,0,0,0,.256-.262h0a.262.262,0,0,0-.256-.256H187.82Z" transform="translate(-141.553 -387.704)" fill="#455a64"/>
      <path id="Path_6355" data-name="Path 6355" d="M187.82,413.65h10.737a.234.234,0,0,1,.234.234v.05a.234.234,0,0,1-.234.234H187.82v-.518Z" transform="translate(-141.553 -393.362)" fill="#455a64"/>
      <path id="Path_6356" data-name="Path 6356" d="M198.227,403.721c0,.033-2.228.056-4.929.056s-4.929,0-4.929-.056,2.228-.061,4.929-.061S198.227,403.688,198.227,403.721Z" transform="translate(-141.796 -388.936)" fill="#e0e0e0"/>
      <path id="Path_6357" data-name="Path 6357" d="M198.227,406.141c0,.028-2.228.056-4.929.056s-4.929-.028-4.929-.056,2.228-.061,4.929-.061S198.227,406.108,198.227,406.141Z" transform="translate(-141.796 -390.008)" fill="#e0e0e0"/>
      <path id="Path_6358" data-name="Path 6358" d="M198.227,408.556c0,.033-2.228.061-4.929.061s-4.929,0-4.929-.061,2.228-.056,4.929-.056S198.227,408.522,198.227,408.556Z" transform="translate(-141.796 -391.08)" fill="#e0e0e0"/>
      <path id="Path_6359" data-name="Path 6359" d="M198.227,410.951c0,.033-2.228.056-4.929.056s-4.929,0-4.929-.056,2.228-.061,4.929-.061S198.227,410.951,198.227,410.951Z" transform="translate(-141.796 -392.139)" fill="#e0e0e0"/>
      <rect id="Rectangle_3378" data-name="Rectangle 3378" width="10.175" height="19.28" transform="translate(47.765 21.485)" fill="#ebebeb"/>
      <rect id="Rectangle_3379" data-name="Rectangle 3379" width="47.765" height="20.906" transform="translate(0 20.806)" fill="#9672fb"/>
      <path id="Path_6360" data-name="Path 6360" d="M200.45,451.043H188.17V449.69h12.28a.674.674,0,0,1,.674.674h0a.679.679,0,0,1-.674.679Z" transform="translate(-141.708 -409.331)" fill="#9672fb"/>
      <path id="Path_6361" data-name="Path 6361" d="M188.17,414.58h12.341a.613.613,0,0,1,.613.613v.128a.613.613,0,0,1-.613.613H188.17V414.58Z" transform="translate(-141.708 -393.774)" fill="#9672fb"/>
      <path id="Path_6362" data-name="Path 6362" d="M200.69,420.391c0,.033-2.278.056-5.09.056s-5.09,0-5.09-.056,2.278-.061,5.09-.061S200.69,420.358,200.69,420.391Z" transform="translate(-142.745 -396.322)" fill="#e0e0e0"/>
      <path id="Path_6363" data-name="Path 6363" d="M200.69,424.831c0,.033-2.278.056-5.09.056s-5.09,0-5.09-.056,2.278-.061,5.09-.061S200.69,424.8,200.69,424.831Z" transform="translate(-142.745 -398.289)" fill="#e0e0e0"/>
      <path id="Path_6364" data-name="Path 6364" d="M200.69,429.271c0,.033-2.278.056-5.09.056s-5.09,0-5.09-.056,2.278-.061,5.09-.061S200.69,429.238,200.69,429.271Z" transform="translate(-142.745 -400.257)" fill="#e0e0e0"/>
      <path id="Path_6365" data-name="Path 6365" d="M200.69,433.711c0,.033-2.278.056-5.09.056s-5.09,0-5.09-.056,2.278-.061,5.09-.061S200.69,433.678,200.69,433.711Z" transform="translate(-142.745 -402.224)" fill="#e0e0e0"/>
      <path id="Path_6366" data-name="Path 6366" d="M200.69,438.156c0,.033-2.278.056-5.09.056s-5.09,0-5.09-.056,2.278-.056,5.09-.056S200.69,438.122,200.69,438.156Z" transform="translate(-142.745 -404.196)" fill="#e0e0e0"/>
      <path id="Path_6367" data-name="Path 6367" d="M200.69,442.6c0,.033-2.278.061-5.09.061s-5.09-.028-5.09-.061,2.278-.056,5.09-.056S200.69,442.562,200.69,442.6Z" transform="translate(-142.745 -406.163)" fill="#e0e0e0"/>
      <path id="Path_6368" data-name="Path 6368" d="M200.69,447.036c0,.033-2.278.061-5.09.061s-5.09-.028-5.09-.061,2.278-.056,5.09-.056S200.69,446.991,200.69,447.036Z" transform="translate(-142.745 -408.131)" fill="#e0e0e0"/>
      <path id="Path_6369" data-name="Path 6369" d="M130.824,430.934V432.1c0,1.4-.7,2.228-2.049,2.228s-2.055-.8-2.055-2.228v-4.55c0-1.4.7-2.228,2.055-2.228s2.049.8,2.049,2.228v.846h-1.3v-.936c0-.624-.273-.863-.713-.863s-.713.239-.713.863v4.728c0,.624.278.852.713.852s.713-.228.713-.852v-1.253Z" transform="translate(-114.479 -398.533)" fill="#ebebeb"/>
      <path id="Path_6370" data-name="Path 6370" d="M135.39,427.548a2.093,2.093,0,1,1,4.177,0v4.55a2.093,2.093,0,1,1-4.177,0Zm1.376,4.639c0,.624.278.863.713.863s.713-.239.713-.863v-4.728c0-.624-.273-.863-.713-.863s-.713.239-.713.863Z" transform="translate(-118.321 -398.533)" fill="#ebebeb"/>
      <path id="Path_6371" data-name="Path 6371" d="M144.481,425.54h1.4v7.5h2.228v1.253H144.47Z" transform="translate(-122.344 -398.631)" fill="#ebebeb"/>
      <path id="Path_6372" data-name="Path 6372" d="M151.9,427.548a2.093,2.093,0,1,1,4.177,0v4.55a2.093,2.093,0,1,1-4.177,0Zm1.376,4.639c0,.624.273.863.713.863s.713-.239.713-.863v-4.728c0-.624-.278-.863-.713-.863s-.713.239-.713.863Z" transform="translate(-125.637 -398.533)" fill="#ebebeb"/>
      <path id="Path_6373" data-name="Path 6373" d="M162.256,425.54V432.3c0,.629.273.852.713.852s.713-.223.713-.852V425.54h1.3v6.683c0,1.4-.7,2.228-2.055,2.228s-2.049-.8-2.049-2.228V425.54Z" transform="translate(-129.616 -398.631)" fill="#ebebeb"/>
      <path id="Path_6374" data-name="Path 6374" d="M172.8,434.3a2.785,2.785,0,0,1-.123-1.08v-1.376c0-.813-.273-1.114-.9-1.114h-.473v3.57H169.93v-8.76h2.077c1.426,0,2.038.663,2.038,2.016v.685a1.743,1.743,0,0,1-.9,1.777c.691.29.913.952.913,1.866v1.353a2.568,2.568,0,0,0,.15,1.064Zm-1.5-7.507v2.69h.557c.512,0,.824-.228.824-.924V427.7c0-.629-.212-.9-.7-.9Z" transform="translate(-133.626 -398.631)" fill="#ebebeb"/>
      <path id="Path_6375" data-name="Path 6375" d="M132.758,406.066H131.75l.056-.256h2.311l-.056.256h-1l-.518,2.584h-.3Z" transform="translate(-116.708 -389.888)" fill="#263238"/>
      <path id="Path_6376" data-name="Path 6376" d="M137.195,407.08l-1.559,2.411c-.262.407-.462.529-.769.529a.685.685,0,0,1-.507-.189l.15-.212a.5.5,0,0,0,.379.156c.184,0,.329-.084.49-.345l.15-.228-.557-2.122h.3l.446,1.816,1.164-1.816Z" transform="translate(-117.865 -390.451)" fill="#263238"/>
      <path id="Path_6377" data-name="Path 6377" d="M141.686,407.948a1.2,1.2,0,0,1-1.208,1.27.8.8,0,0,1-.813-.468l-.245,1.236h-.29l.557-2.924h.278l-.067.34a1.069,1.069,0,0,1,.83-.356.863.863,0,0,1,.958.9Zm-.3,0a.624.624,0,0,0-.7-.668.93.93,0,0,0-.919,1,.624.624,0,0,0,.7.663.93.93,0,0,0,.919-.98Z" transform="translate(-119.978 -390.433)" fill="#263238"/>
      <path id="Path_6378" data-name="Path 6378" d="M144.319,408.31a1.214,1.214,0,0,1,1.236-1.264.874.874,0,0,1,.969.9,1.208,1.208,0,0,1-1.231,1.27.88.88,0,0,1-.975-.908Zm1.921-.345a.629.629,0,0,0-.707-.668.941.941,0,0,0-.924,1,.624.624,0,0,0,.7.663.936.936,0,0,0,.93-1Z" transform="translate(-122.277 -390.434)" fill="#263238"/>
      <path id="Path_6379" data-name="Path 6379" d="M151.207,407.063l-.373,1.877A1.114,1.114,0,0,1,149.587,410a1.348,1.348,0,0,1-.947-.317l.167-.223a1.114,1.114,0,0,0,.8.29.835.835,0,0,0,.924-.769l.05-.234a1.114,1.114,0,0,1-.852.368.846.846,0,0,1-.941-.863,1.181,1.181,0,0,1,1.22-1.208.819.819,0,0,1,.83.484l.089-.468Zm-.49.858c0-.39-.262-.624-.707-.624a.908.908,0,0,0-.93.941c0,.39.262.624.707.624a.908.908,0,0,0,.93-.941Z" transform="translate(-124.192 -390.434)" fill="#263238"/>
      <path id="Path_6380" data-name="Path 6380" d="M155.434,407.047l-.056.278H155.3a.841.841,0,0,0-.863.8l-.217,1.08h-.29l.423-2.133h.278l-.078.39A.964.964,0,0,1,155.434,407.047Z" transform="translate(-126.536 -390.434)" fill="#263238"/>
      <path id="Path_6381" data-name="Path 6381" d="M159.089,407.063l-.429,2.133h-.278l.072-.334a1.114,1.114,0,0,1-.835.356.863.863,0,0,1-.93-.908,1.2,1.2,0,0,1,1.208-1.264.808.808,0,0,1,.813.462l.089-.445Zm-.479.9a.629.629,0,0,0-.707-.668.941.941,0,0,0-.924,1,.624.624,0,0,0,.7.663.936.936,0,0,0,.947-1Z" transform="translate(-127.758 -390.434)" fill="#263238"/>
      <path id="Path_6382" data-name="Path 6382" d="M163.966,407.948a1.2,1.2,0,0,1-1.214,1.27.8.8,0,0,1-.813-.468l-.239,1.236h-.29l.557-2.924h.278l-.072.34a1.114,1.114,0,0,1,.835-.356.863.863,0,0,1,.958.9Zm-.3,0a.624.624,0,0,0-.7-.668.93.93,0,0,0-.924,1,.624.624,0,0,0,.7.663.93.93,0,0,0,.93-.98Z" transform="translate(-129.85 -390.433)" fill="#263238"/>
      <path id="Path_6383" data-name="Path 6383" d="M168.873,407.059a1.923,1.923,0,0,1,0,.239l-.245,1.214h-.29l.245-1.22a1.192,1.192,0,0,0,0-.189c0-.306-.178-.485-.557-.485a.835.835,0,0,0-.869.752l-.228,1.142h-.29l.6-3.013h.29l-.239,1.2a1.058,1.058,0,0,1,.819-.334.668.668,0,0,1,.763.7Z" transform="translate(-132.168 -389.751)" fill="#263238"/>
      <path id="Path_6384" data-name="Path 6384" d="M173.24,407.08l-1.559,2.411c-.267.407-.468.529-.774.529a.685.685,0,0,1-.507-.189l.156-.212a.473.473,0,0,0,.373.156c.184,0,.329-.084.5-.345l.15-.228-.557-2.122h.3l.44,1.816,1.164-1.816Z" transform="translate(-133.834 -390.451)" fill="#263238"/>
      <g id="Group_7273" data-name="Group 7273" transform="translate(0 20.806)" opacity="0.3">
        <path id="Path_6385" data-name="Path 6385" d="M116.6,414.58l-6.577,20.906H104.74V414.58Z" transform="translate(-104.74 -414.58)"/>
      </g>
    </g>
    <g id="freepik--Plant--inject-41" transform="translate(102.759 209.143)">
      <path id="Path_6386" data-name="Path 6386" d="M148.267,343.554c-3.091-1.793-4.75-5.964-4.873-9.384a10.481,10.481,0,0,1,4.1-8.938,9.389,9.389,0,0,1,10.186-.083,10.581,10.581,0,0,1,4.672,9.206,12.191,12.191,0,0,1-5.012,9.167" transform="translate(-142.052 -322.514)" fill="#9672fb"/>
      <path id="Path_6387" data-name="Path 6387" d="M160.3,344.19a4.455,4.455,0,0,1-.056-.785c0-.557-.033-1.27-.061-2.127-.045-1.8-.117-4.283-.234-7.028s-.273-5.224-.384-7.017c-.05-.858-.095-1.57-.128-2.127a4.956,4.956,0,0,1,0-.785,3.659,3.659,0,0,1,.128.774c.061.5.134,1.225.217,2.122.167,1.793.345,4.277.468,7.023s.156,5.235.15,7.034c0,.9,0,1.632-.033,2.133a3.847,3.847,0,0,1-.067.785Z" transform="translate(-149.157 -322.794)" fill="#fff"/>
      <path id="Path_6388" data-name="Path 6388" d="M143.3,340.914c0,.084-.5.106-1.114.056s-1.086-.156-1.08-.234.5-.106,1.114-.056A2.348,2.348,0,0,1,143.3,340.914Z" transform="translate(-141.043 -330.032)" fill="#263238"/>
      <path id="Path_6389" data-name="Path 6389" d="M143.93,334.974c-.033.072-.457-.045-.952-.262s-.863-.457-.83-.529.457.045.947.262S143.964,334.9,143.93,334.974Z" transform="translate(-141.502 -327.155)" fill="#263238"/>
      <path id="Path_6390" data-name="Path 6390" d="M146.766,330.36c-.039.067-.518-.156-1.019-.557s-.808-.852-.752-.908.457.273.941.674S146.81,330.293,146.766,330.36Z" transform="translate(-142.761 -324.818)" fill="#263238"/>
      <path id="Path_6391" data-name="Path 6391" d="M150.378,326.309c-.072.033-.3-.329-.512-.8s-.323-.885-.245-.919.3.329.512.8S150.467,326.276,150.378,326.309Z" transform="translate(-144.803 -322.912)" fill="#263238"/>
      <path id="Path_6392" data-name="Path 6392" d="M155,323.451c-.072.033-.317-.345-.484-.874s-.178-.986-.1-1,.217.4.379.908S155.07,323.418,155,323.451Z" transform="translate(-146.917 -321.58)" fill="#263238"/>
      <path id="Path_6393" data-name="Path 6393" d="M162.59,321.858c.078.028.033.351-.1.73s-.3.657-.379.629-.028-.351.106-.73S162.489,321.831,162.59,321.858Z" transform="translate(-150.332 -321.702)" fill="#263238"/>
      <path id="Path_6394" data-name="Path 6394" d="M167.624,324.222c.05.061-.145.334-.446.607s-.585.451-.635.4.139-.329.44-.607S167.568,324.166,167.624,324.222Z" transform="translate(-152.309 -322.746)" fill="#263238"/>
      <path id="Path_6395" data-name="Path 6395" d="M172.344,327.366c.05.067-.195.306-.557.557s-.657.362-.7.3.195-.312.557-.557S172.3,327.3,172.344,327.366Z" transform="translate(-154.323 -324.135)" fill="#263238"/>
      <path id="Path_6396" data-name="Path 6396" d="M175.368,332.051c.033.072-.345.306-.846.518s-.93.329-.963.251.351-.306.846-.518S175.34,331.973,175.368,332.051Z" transform="translate(-155.42 -326.209)" fill="#263238"/>
      <path id="Path_6397" data-name="Path 6397" d="M176.77,337.118c0,.078-.373.195-.863.251s-.885.045-.9-.033.379-.189.863-.251S176.764,337.018,176.77,337.118Z" transform="translate(-156.064 -328.43)" fill="#263238"/>
      <path id="Path_6398" data-name="Path 6398" d="M177.509,342.858c-.033.078-.44-.033-.919-.239s-.835-.434-.8-.507.44.033.919.239S177.543,342.786,177.509,342.858Z" transform="translate(-156.408 -330.667)" fill="#263238"/>
      <path id="Path_6399" data-name="Path 6399" d="M176.722,347.877c0,.078-.557-.05-1.114-.407s-.869-.78-.813-.835.457.262.975.6S176.75,347.8,176.722,347.877Z" transform="translate(-155.966 -332.679)" fill="#263238"/>
      <path id="Path_6400" data-name="Path 6400" d="M174.314,352.587c-.05.061-.462-.178-.863-.607a1.8,1.8,0,0,1-.557-.9c.05-.039.379.3.757.7S174.364,352.525,174.314,352.587Z" transform="translate(-155.123 -334.649)" fill="#263238"/>
      <path id="Path_6401" data-name="Path 6401" d="M147.08,354.357c.039.072-.4.373-.969.668s-1.069.485-1.114.412.4-.368.975-.668S147.047,354.285,147.08,354.357Z" transform="translate(-142.764 -336.096)" fill="#263238"/>
      <path id="Path_6402" data-name="Path 6402" d="M144.965,349.9c.033.072-.312.306-.774.512s-.869.323-.9.251.317-.3.78-.512S144.937,349.83,144.965,349.9Z" transform="translate(-142.007 -334.12)" fill="#263238"/>
      <path id="Path_6403" data-name="Path 6403" d="M142.95,345.95c0,.084-.418.206-.958.284s-.991.072-1,0,.423-.206.963-.284S142.939,345.861,142.95,345.95Z" transform="translate(-140.99 -332.35)" fill="#263238"/>
      <path id="Path_6404" data-name="Path 6404" d="M148.835,343.781c.028.078-.4.273-.952.334s-1.008-.033-1-.111.44-.117.969-.178S148.812,343.7,148.835,343.781Z" transform="translate(-143.6 -331.401)" fill="#263238"/>
      <path id="Path_6405" data-name="Path 6405" d="M154.039,338.955c0,.078-.312.245-.763.29s-.808-.056-.8-.134.351-.117.769-.156S154.017,338.849,154.039,338.955Z" transform="translate(-146.081 -329.253)" fill="#263238"/>
      <path id="Path_6406" data-name="Path 6406" d="M155,334.621c-.028.072-.384,0-.808-.128s-.735-.323-.707-.4.384,0,.8.122S155.031,334.543,155,334.621Z" transform="translate(-146.527 -327.113)" fill="#263238"/>
      <path id="Path_6407" data-name="Path 6407" d="M157.491,330.29c-.056.056-.3-.106-.479-.418s-.195-.6-.117-.624.212.206.368.479S157.552,330.223,157.491,330.29Z" transform="translate(-148.018 -324.977)" fill="#263238"/>
      <path id="Path_6408" data-name="Path 6408" d="M154.772,347.2c0,.078-.29.223-.7.323a2.746,2.746,0,0,1-.585.084l-.061-.167h.189c.017,0-.028.084-.117.145l-.056-.167a2.484,2.484,0,0,1,.557-.195C154.41,347.139,154.755,347.122,154.772,347.2Z" transform="translate(-146.502 -332.91)" fill="#263238"/>
      <path id="Path_6409" data-name="Path 6409" d="M155.346,354.128c.028.072-.368.3-.891.5s-.963.312-1,.24.373-.3.891-.507S155.319,354.044,155.346,354.128Z" transform="translate(-146.514 -335.989)" fill="#263238"/>
      <path id="Path_6410" data-name="Path 6410" d="M150.309,351.047c0,.072-.239.234-.59.356s-.663.156-.691.078.239-.234.6-.356S150.281,350.969,150.309,351.047Z" transform="translate(-144.551 -334.618)" fill="#263238"/>
      <path id="Path_6411" data-name="Path 6411" d="M150.233,336.443c0,.072-.479.028-1.014-.161s-.924-.445-.891-.518.468.061.986.245S150.255,336.377,150.233,336.443Z" transform="translate(-144.241 -327.856)" fill="#263238"/>
      <path id="Path_6412" data-name="Path 6412" d="M164.051,335.486c.045.067-.217.317-.585.557s-.7.379-.741.312.217-.312.585-.557S163.99,335.42,164.051,335.486Z" transform="translate(-150.619 -327.734)" fill="#263238"/>
      <path id="Path_6413" data-name="Path 6413" d="M164.81,342.381c0,.078-.256.2-.607.273s-.657.072-.674,0,.256-.2.613-.278S164.8,342.3,164.81,342.381Z" transform="translate(-150.977 -330.77)" fill="#263238"/>
      <path id="Path_6414" data-name="Path 6414" d="M165.375,349.605c-.033.072-.429-.039-.88-.251s-.8-.44-.757-.512.423.039.88.251S165.408,349.533,165.375,349.605Z" transform="translate(-151.068 -333.65)" fill="#263238"/>
      <path id="Path_6415" data-name="Path 6415" d="M164.158,356.923c-.061.05-.317-.161-.557-.468s-.412-.6-.351-.652.317.156.557.468S164.219,356.868,164.158,356.923Z" transform="translate(-150.848 -336.741)" fill="#263238"/>
      <path id="Path_6416" data-name="Path 6416" d="M163.759,330.374c.045.061-.123.278-.412.423s-.557.15-.557.078.189-.206.451-.34S163.709,330.313,163.759,330.374Z" transform="translate(-150.649 -325.468)" fill="#263238"/>
      <path id="Path_6417" data-name="Path 6417" d="M169.794,337.358c.028.072-.312.256-.769.323s-.841,0-.835-.1.362-.128.791-.189S169.755,337.28,169.794,337.358Z" transform="translate(-153.042 -328.553)" fill="#263238"/>
      <path id="Path_6418" data-name="Path 6418" d="M168.436,331.1c.033.067-.3.306-.774.462s-.891.15-.9.072.356-.206.813-.351S168.4,331.034,168.436,331.1Z" transform="translate(-152.408 -325.788)" fill="#263238"/>
      <path id="Path_6419" data-name="Path 6419" d="M170.555,346.754a3.52,3.52,0,0,1-2.445-.445,3.954,3.954,0,0,1,1.231.161,3.849,3.849,0,0,1,1.214.284Z" transform="translate(-153.007 -332.536)" fill="#263238"/>
      <path id="Path_6420" data-name="Path 6420" d="M168.871,355.03c-.05.061-.473-.189-.891-.613s-.668-.846-.607-.891.407.278.813.685S168.921,354.964,168.871,355.03Z" transform="translate(-152.676 -335.734)" fill="#263238"/>
      <path id="Path_6421" data-name="Path 6421" d="M154.549,323.688a13.042,13.042,0,0,0-2.539,2.01,12.408,12.408,0,0,0-3.169,7,15.676,15.676,0,0,0,.195,4.288,31.583,31.583,0,0,0,.8,3.442c.278.969.557,1.743.707,2.283a5.275,5.275,0,0,1,.239.841,4.8,4.8,0,0,1-.351-.8c-.2-.529-.49-1.3-.791-2.267a28.679,28.679,0,0,1-.874-3.453,15.548,15.548,0,0,1-.212-4.372,12.213,12.213,0,0,1,3.3-7.128,9.026,9.026,0,0,1,1.9-1.481,6.067,6.067,0,0,1,.557-.3A1.093,1.093,0,0,1,154.549,323.688Z" transform="translate(-144.313 -322.513)" fill="#fff"/>
      <path id="Path_6422" data-name="Path 6422" d="M163.157,343.833a33.252,33.252,0,0,0,1.3-3.113,17.709,17.709,0,0,0,.78-8.014A15.221,15.221,0,0,0,164,328.44a10.131,10.131,0,0,0-2.105-2.935,7.686,7.686,0,0,0-2.066-1.3c-.557-.223-.858-.278-.852-.3a.651.651,0,0,1,.239,0,4.317,4.317,0,0,1,.657.178,7.189,7.189,0,0,1,2.155,1.253,9.9,9.9,0,0,1,2.228,2.974,14.83,14.83,0,0,1,1.281,4.344,17.013,17.013,0,0,1-.874,8.12c-.161.5-.373.93-.529,1.314a7.979,7.979,0,0,1-.484.958A5.936,5.936,0,0,1,163.157,343.833Z" transform="translate(-148.961 -322.603)" fill="#fff"/>
      <path id="Path_6423" data-name="Path 6423" d="M146.31,358.47h15.983l.1,3.2H146.31Z" transform="translate(-143.347 -337.926)" fill="#263238"/>
      <path id="Path_6424" data-name="Path 6424" d="M148.74,361.34l.919,9.768h11.689l.936-9.662Z" transform="translate(-144.424 -339.197)" fill="#263238"/>
      <path id="Path_6425" data-name="Path 6425" d="M162.393,364.165c0,.084-3.6.145-8.042.145s-8.042-.061-8.042-.145,3.6-.145,8.042-.145S162.393,364.087,162.393,364.165Z" transform="translate(-143.347 -340.385)" fill="#455a64"/>
      <path id="Path_6426" data-name="Path 6426" d="M162.447,368.849a2.433,2.433,0,0,1-.345.613,8.755,8.755,0,0,1-1.236,1.465l-.072.072-.072-.078a23.607,23.607,0,0,0-3.135-2.746h.178l-1.392,1.22-1.637,1.431-.095.078-.089-.078-2.668-2.228h.15c-.557.674-1.014,1.236-1.376,1.671a3.9,3.9,0,0,1-.557.59,4.291,4.291,0,0,1,.445-.668l1.309-1.743.067-.089.089.072,2.707,2.194h-.184l1.637-1.453,1.392-1.214.089-.078.089.067a20.764,20.764,0,0,1,3.119,2.835h-.145a16,16,0,0,0,1.732-1.932Z" transform="translate(-145.026 -342.095)" fill="#455a64"/>
    </g>
    <g id="freepik--Window--inject-41" transform="translate(329.697 228.729)">
      <rect id="Rectangle_3380" data-name="Rectangle 3380" width="55.612" height="40.609" transform="translate(0.089 0.212)" fill="#fff"/>
      <rect id="Rectangle_3381" data-name="Rectangle 3381" width="55.612" height="5.073" transform="translate(0.089 0.212)" fill="#9672fb"/>
      <path id="Path_6427" data-name="Path 6427" d="M553.188,361.495a.557.557,0,1,1-.557-.635A.607.607,0,0,1,553.188,361.495Z" transform="translate(-550.081 -358.571)" fill="#fff"/>
      <path id="Path_6428" data-name="Path 6428" d="M557.418,361.495a.557.557,0,1,1-.557-.635A.613.613,0,0,1,557.418,361.495Z" transform="translate(-551.955 -358.571)" fill="#fff"/>
      <path id="Path_6429" data-name="Path 6429" d="M561.638,361.495a.557.557,0,1,1-.557-.635.607.607,0,0,1,.557.635Z" transform="translate(-553.825 -358.571)" fill="#fff"/>
      <rect id="Rectangle_3382" data-name="Rectangle 3382" width="7.925" height="19.937" transform="translate(5.38 10.258)" fill="#9672fb"/>
      <rect id="Rectangle_3383" data-name="Rectangle 3383" width="7.925" height="19.937" transform="translate(17.598 10.258)" fill="#ebebeb"/>
      <rect id="Rectangle_3384" data-name="Rectangle 3384" width="7.925" height="19.937" transform="translate(29.817 10.258)" fill="#fafafa"/>
      <rect id="Rectangle_3385" data-name="Rectangle 3385" width="7.925" height="19.937" transform="translate(42.04 10.42)" fill="#e0e0e0"/>
      <rect id="Rectangle_3386" data-name="Rectangle 3386" width="48.038" height="4.555" transform="translate(4.461 32.401)" fill="#9672fb"/>
      <path id="Path_6431" data-name="Path 6431" d="M604.191,397.571v-2.9c0-1.893,0-4.661-.028-8.2,0-7.073-.033-17.214-.056-29.516l.106.106H548.607l.128-.128v40.609l-.117-.111,40.1.056,11.411.028h.05l-11.389.033L548.6,397.6h-.111V356.75h.134l55.607.028h.1v.1c0,12.324-.039,22.488-.05,29.571,0,3.531,0,6.293-.028,8.175v2.138A5.043,5.043,0,0,1,604.191,397.571Z" transform="translate(-548.49 -356.75)" fill="#263238"/>
    </g>
    <g id="freepik--design-tool--inject-41" transform="translate(325.275 161.873)">
      <path id="Path_6432" data-name="Path 6432" d="M606.392,261.871c0,.195-14.29.351-31.91.351s-31.922-.156-31.922-.351,14.29-.351,31.922-.351S606.392,261.676,606.392,261.871Z" transform="translate(-541.441 -247.698)" fill="#9672fb"/>
      <rect id="Rectangle_3387" data-name="Rectangle 3387" width="3.77" height="3.77" transform="translate(32.306 12.809)" fill="#9672fb"/>
      <path id="Path_6433" data-name="Path 6433" d="M656.7,261.264a1.114,1.114,0,1,1-1.114-1.114A1.114,1.114,0,0,1,656.7,261.264Z" transform="translate(-591.028 -247.091)" fill="#9672fb"/>
      <circle id="Ellipse_172" data-name="Ellipse 172" cx="1.119" cy="1.119" r="1.119" transform="translate(0 13.054)" fill="#9672fb"/>
      <path id="Path_6434" data-name="Path 6434" d="M592.23,240.548l4.773,8.91h.613l-.167-7.139a.809.809,0,1,1,.3-.011l.167,7.139h.557l4.505-9.323a4.006,4.006,0,0,1-3.9-3.425l-3.341.05C595.839,240.075,592.23,240.548,592.23,240.548Z" transform="translate(-563.449 -236.7)" fill="#9672fb"/>
      <path id="Path_6435" data-name="Path 6435" d="M606.875,294.179a1.248,1.248,0,0,1,0-.234v-.679c0-.6-.056-1.481-.139-2.617a40.348,40.348,0,0,0-1.788-9.439,28.04,28.04,0,0,0-2.734-6.026,21.6,21.6,0,0,0-8.4-7.969,25.2,25.2,0,0,0-3.948-1.671,30.2,30.2,0,0,0-4.327-1,38.243,38.243,0,0,0-4.567-.379,25.758,25.758,0,0,0-16.378,4.878,21.608,21.608,0,0,0-5.151,5.541,25.694,25.694,0,0,0-2.857,5.964c-.184.473-.3.952-.434,1.42s-.267.913-.373,1.359c-.173.9-.39,1.738-.507,2.534s-.234,1.543-.323,2.228-.111,1.32-.161,1.888-.078,1.069-.089,1.509-.033.8-.045,1.114a5.225,5.225,0,0,1-.033.685,1.219,1.219,0,0,1,0,.228,1.031,1.031,0,0,1,0-.228q0-.251,0-.685v-1.114a13.635,13.635,0,0,1,.061-1.515c.061-.568.095-1.2.145-1.893s.189-1.431.3-2.228.317-1.643.49-2.551c.1-.446.24-.9.362-1.37a13.053,13.053,0,0,1,.429-1.431,25.83,25.83,0,0,1,2.851-6.031,21.757,21.757,0,0,1,5.19-5.619,25.971,25.971,0,0,1,16.551-4.956,37.957,37.957,0,0,1,4.6.384,29.547,29.547,0,0,1,4.372,1.014,25.474,25.474,0,0,1,3.993,1.671,22.75,22.75,0,0,1,3.458,2.3,22.332,22.332,0,0,1,5.012,5.786,27.73,27.73,0,0,1,2.729,6.093,39.43,39.43,0,0,1,1.671,9.5c.061,1.114.084,2.022.078,2.623v.679a1.061,1.061,0,0,1-.028.239Z" transform="translate(-546.779 -248.741)" fill="#9672fb"/>
    </g>
    <g id="freepik--Clock--inject-41" transform="translate(304.191 94.725)">
      <rect id="Rectangle_3388" data-name="Rectangle 3388" width="2.428" height="3.787" transform="matrix(0.758, -0.652, 0.652, 0.758, 7.619, 11.633)" fill="#263238"/>
      <path id="Path_6436" data-name="Path 6436" d="M517.669,131.766l-3.787,3.263-2.662-3.1a9.5,9.5,0,0,1,3.793-3.263Z" transform="translate(-506.47 -121.683)" fill="#455a64"/>
      <path id="Path_6437" data-name="Path 6437" d="M514.906,136.575a7.888,7.888,0,0,1-1.5-1.515,8.2,8.2,0,0,1-1.292-1.671,8.064,8.064,0,0,1,1.509,1.509A7.845,7.845,0,0,1,514.906,136.575Z" transform="translate(-506.864 -123.775)" fill="#263238"/>
      <path id="Path_6438" data-name="Path 6438" d="M516.21,135.333a8.6,8.6,0,0,1-1.492-1.593,11.844,11.844,0,0,1-1.3-1.754c.078-.072.757.64,1.52,1.565a8.074,8.074,0,0,1,1.27,1.782Z" transform="translate(-507.445 -123.15)" fill="#263238"/>
      <path id="Path_6439" data-name="Path 6439" d="M517.935,133.793a8.554,8.554,0,0,1-1.493-1.615,10.028,10.028,0,0,1-1.292-1.788,7.445,7.445,0,0,1,1.515,1.6,8,8,0,0,1,1.27,1.8Z" transform="translate(-508.211 -122.445)" fill="#263238"/>
      <path id="Path_6440" data-name="Path 6440" d="M519.523,132.527a15.854,15.854,0,0,1-2.773-3.247,7.986,7.986,0,0,1,1.5,1.531,8.136,8.136,0,0,1,1.275,1.715Z" transform="translate(-508.92 -121.954)" fill="#263238"/>
      <rect id="Rectangle_3389" data-name="Rectangle 3389" width="2.428" height="3.787" transform="matrix(0.691, 0.723, -0.723, 0.691, 40.419, 10.511)" fill="#263238"/>
      <path id="Path_6441" data-name="Path 6441" d="M575.673,136.128l-3.453-3.614,2.952-2.824a9.589,9.589,0,0,1,3.458,3.62Z" transform="translate(-533.499 -122.135)" fill="#455a64"/>
      <path id="Path_6442" data-name="Path 6442" d="M573.26,133.5a15.593,15.593,0,0,1,3.057-2.957,8.133,8.133,0,0,1-1.426,1.582A7.993,7.993,0,0,1,573.26,133.5Z" transform="translate(-533.96 -122.512)" fill="#263238"/>
      <path id="Path_6443" data-name="Path 6443" d="M574.44,134.733a8.454,8.454,0,0,1,1.515-1.576,11.868,11.868,0,0,1,1.671-1.387,6.449,6.449,0,0,1-1.487,1.6A8.125,8.125,0,0,1,574.44,134.733Z" transform="translate(-534.483 -123.057)" fill="#263238"/>
      <path id="Path_6444" data-name="Path 6444" d="M576,136.373a8.7,8.7,0,0,1,1.537-1.582,10.361,10.361,0,0,1,1.715-1.381,7.229,7.229,0,0,1-1.52,1.6A8.477,8.477,0,0,1,576,136.373Z" transform="translate(-535.174 -123.784)" fill="#263238"/>
      <path id="Path_6445" data-name="Path 6445" d="M577.49,137.895a15.9,15.9,0,0,1,3.1-2.935,15.9,15.9,0,0,1-3.1,2.935Z" transform="translate(-535.834 -124.47)" fill="#263238"/>
      <rect id="Rectangle_3390" data-name="Rectangle 3390" width="2.874" height="4.483" transform="translate(23.74 3.885)" fill="#263238"/>
      <path id="Path_6446" data-name="Path 6446" d="M548.54,121.351h-5.92v-4.834a11.344,11.344,0,0,1,5.92,0Z" transform="translate(-520.383 -116.124)" fill="#9672fb"/>
      <path id="Path_6447" data-name="Path 6447" d="M548.585,116.87a6.41,6.41,0,0,1-6.015,0,10.074,10.074,0,0,0,6.014,0Z" transform="translate(-520.361 -116.455)" fill="#263238"/>
      <path id="Path_6448" data-name="Path 6448" d="M546,122.189a14.938,14.938,0,0,1,0-4.149,14.932,14.932,0,0,1,0,4.149Z" transform="translate(-521.81 -116.973)" fill="#263238"/>
      <path id="Path_6449" data-name="Path 6449" d="M548.021,122.226a15.048,15.048,0,0,1,0-4.166,15.045,15.045,0,0,1,0,4.166Z" transform="translate(-522.705 -116.982)" fill="#263238"/>
      <path id="Path_6450" data-name="Path 6450" d="M550.05,122.2a15.048,15.048,0,0,1,0-4.166,15.061,15.061,0,0,1,0,4.166Z" transform="translate(-523.603 -116.969)" fill="#263238"/>
      <path id="Path_6451" data-name="Path 6451" d="M551.732,121.965a17.21,17.21,0,0,1,0-4.455,17.2,17.2,0,0,1,0,4.455Z" transform="translate(-524.35 -116.738)" fill="#263238"/>
      <path id="Path_6452" data-name="Path 6452" d="M544.09,121.905a17.2,17.2,0,0,1,0-4.455,17.2,17.2,0,0,1,0,4.455Z" transform="translate(-520.963 -116.712)" fill="#263238"/>
      <circle id="Ellipse_173" data-name="Ellipse 173" cx="20.912" cy="20.912" r="20.912" transform="translate(3.92 6.987)" fill="#9672fb"/>
      <circle id="Ellipse_174" data-name="Ellipse 174" cx="17.559" cy="17.559" r="17.559" transform="translate(0 27.729) rotate(-45)" fill="#fafafa"/>
      <path id="Path_6453" data-name="Path 6453" d="M550.737,151.874a2.79,2.79,0,0,1,0-.284c0-.2-.033-.479-.056-.835a3.45,3.45,0,0,0-.039-.613c-.039-.223-.072-.468-.111-.735a13.038,13.038,0,0,0-.367-1.81,16.8,16.8,0,0,0-1.949-4.65,17.548,17.548,0,0,0-11.79-8.2,16.007,16.007,0,0,0-2.228-.256c-.379,0-.757-.05-1.114-.045l-1.158.061a2.6,2.6,0,0,0-.557.039l-.585.089c-.384.061-.78.111-1.169.189a18.7,18.7,0,0,0-2.322.685,17.823,17.823,0,0,0-2.272,1c-.367.2-.724.434-1.086.652a8.4,8.4,0,0,0-1.052.724,15.683,15.683,0,0,0-3.681,3.7,16.808,16.808,0,0,0-2.489,4.8,17.231,17.231,0,0,0,0,10.988,16.815,16.815,0,0,0,2.495,4.8,18.676,18.676,0,0,0,1.7,2.022,20,20,0,0,0,1.977,1.671,8.408,8.408,0,0,0,1.053.724c.362.217.718.451,1.086.652a17.819,17.819,0,0,0,2.272,1,18.692,18.692,0,0,0,2.322.685c.39.078.785.123,1.175.189l.557.089c.195.028.39,0,.557.039l1.153.061c.379,0,.757-.033,1.114-.045a16.8,16.8,0,0,0,2.228-.256,17.514,17.514,0,0,0,11.784-8.164,16.831,16.831,0,0,0,1.949-4.656,13.047,13.047,0,0,0,.368-1.81c.039-.262.089-.507.111-.73s0-.429.039-.618c0-.356.039-.629.056-.83a2.755,2.755,0,0,1,0-.284v1.738a6.589,6.589,0,0,1-.1.735,12.9,12.9,0,0,1-.345,1.827,16.532,16.532,0,0,1-1.916,4.706,17.659,17.659,0,0,1-11.884,8.354,16.286,16.286,0,0,1-2.228.262c-.379,0-.763.056-1.153.05l-1.169-.061a3.5,3.5,0,0,1-.59-.033l-.59-.089c-.4-.067-.8-.111-1.192-.189a19.585,19.585,0,0,1-2.361-.691,18.268,18.268,0,0,1-2.345-1c-.373-.206-.73-.44-1.114-.657a10.426,10.426,0,0,1-1.069-.735,16.2,16.2,0,0,1-3.748-3.753,17.632,17.632,0,0,1-2.534-16.055,16.978,16.978,0,0,1,2.534-4.873,16.324,16.324,0,0,1,3.742-3.753,9.6,9.6,0,0,1,1.069-.735c.373-.217.73-.457,1.114-.657a17.856,17.856,0,0,1,2.306-1.008,18.617,18.617,0,0,1,2.361-.691c.4-.078.8-.128,1.192-.189l.59-.089c.195-.028.4,0,.59-.039l1.169-.056c.39,0,.774.033,1.153.045a17.313,17.313,0,0,1,2.228.267,17.676,17.676,0,0,1,11.884,8.354,16.662,16.662,0,0,1,1.916,4.706,13.05,13.05,0,0,1,.345,1.827c.033.267.078.512.1.741a5.709,5.709,0,0,1,0,.618v.835C550.665,151.812,550.737,151.874,550.737,151.874Z" transform="translate(-508.346 -124.143)" fill="#263238"/>
      <path id="Path_6454" data-name="Path 6454" d="M571.893,164.959a11.245,11.245,0,0,1-2.913-.173,9.948,9.948,0,0,1,2.89-.384,6.891,6.891,0,0,1,2.907.167A6.788,6.788,0,0,1,571.893,164.959Z" transform="translate(-532.063 -137.501)" fill="#263238"/>
      <path id="Path_6455" data-name="Path 6455" d="M565.215,182.771a10.151,10.151,0,0,1-1.949-2.166,10.316,10.316,0,0,1,2.328,1.76c1.214,1.058,2.072,2.027,1.944,2.166S566.368,183.879,565.215,182.771Z" transform="translate(-529.529 -144.692)" fill="#263238"/>
      <path id="Path_6456" data-name="Path 6456" d="M548.057,190.527a9.106,9.106,0,0,1,.139-2.907,9.19,9.19,0,0,1,.418,2.879c.111,1.6.045,2.907-.139,2.913S548.1,192.125,548.057,190.527Z" transform="translate(-522.785 -147.804)" fill="#263238"/>
      <path id="Path_6457" data-name="Path 6457" d="M527.519,184.043a10.648,10.648,0,0,1,2.144-1.977,10.336,10.336,0,0,1-1.732,2.345c-1.047,1.231-2,2.1-2.144,1.971S526.422,185.207,527.519,184.043Z" transform="translate(-512.917 -145.341)" fill="#263238"/>
      <path id="Path_6458" data-name="Path 6458" d="M518.075,166.981a10.505,10.505,0,0,1,2.907.106,10.613,10.613,0,0,1-2.879.446c-1.6.128-2.9.084-2.913-.106S516.471,167.042,518.075,166.981Z" transform="translate(-508.229 -138.648)" fill="#263238"/>
      <path id="Path_6459" data-name="Path 6459" d="M525.491,146.4a9.943,9.943,0,0,1,1.994,2.122,10.559,10.559,0,0,1-2.361-1.7c-1.247-1.03-2.122-1.983-1.994-2.122S524.311,145.315,525.491,146.4Z" transform="translate(-511.742 -128.778)" fill="#263238"/>
      <path id="Path_6460" data-name="Path 6460" d="M545.38,136.714a10.137,10.137,0,0,1-.072,2.913,9.985,9.985,0,0,1-.479-2.874c-.145-1.6-.111-2.9.072-2.913S545.307,135.126,545.38,136.714Z" transform="translate(-521.322 -123.974)" fill="#263238"/>
      <path id="Path_6461" data-name="Path 6461" d="M563.529,143.919a9.906,9.906,0,0,1-2.105,2.022,9.953,9.953,0,0,1,1.671-2.384c1.008-1.236,1.96-2.138,2.1-2.016S564.6,142.727,563.529,143.919Z" transform="translate(-528.712 -127.382)" fill="#263238"/>
      <path id="Path_6462" data-name="Path 6462" d="M571.843,163.709a10.041,10.041,0,0,1-2.913-.045,10.244,10.244,0,0,1,2.868-.512c1.593-.167,2.9-.139,2.913.045S573.424,163.614,571.843,163.709Z" transform="translate(-532.041 -136.913)" fill="#263238"/>
      <path id="Path_6463" data-name="Path 6463" d="M524.316,131.8a7.648,7.648,0,0,1-.908.412A20.321,20.321,0,0,0,511.257,147.7a21.782,21.782,0,0,0-.278,2.7,7.961,7.961,0,0,1-.028,1.008.82.82,0,0,1-.033-.262c0-.167-.033-.418-.028-.741a18.277,18.277,0,0,1,.184-2.718,19.675,19.675,0,0,1,9.846-14.4,17.544,17.544,0,0,1,2.467-1.164c.3-.123.557-.189.7-.239A.963.963,0,0,1,524.316,131.8Z" transform="translate(-506.323 -123.07)" fill="#fff"/>
      <path id="Path_6464" data-name="Path 6464" d="M542.227,129.719a9.607,9.607,0,0,1-2.055.34,9.841,9.841,0,0,1-2.072.195,10.263,10.263,0,0,1,4.127-.535Z" transform="translate(-518.38 -122.12)" fill="#fff"/>
      <g id="Group_7274" data-name="Group 7274" transform="translate(10.792 20.013)" opacity="0.4">
        <path id="Path_6465" data-name="Path 6465" d="M522.07,170.332s9.1,14.362,23.223,7.006c14.73-7.674,6.594-25.278,6.594-25.278s6.933,14.028-7.435,23.173c-3.575,2.278-7.468,2.278-10.442,1.983C526.414,176.452,522.07,170.332,522.07,170.332Z" transform="translate(-522.07 -152.06)"/>
      </g>
      <path id="Path_6466" data-name="Path 6466" d="M551.945,149.16a61.572,61.572,0,0,1-.234,7.719,9.632,9.632,0,0,1-.557,2.729,3.653,3.653,0,0,1-1.832,2.022,2.267,2.267,0,0,1-2.562-.5Z" transform="translate(-522.218 -130.762)" fill="#e0e0e0"/>
      <path id="Path_6467" data-name="Path 6467" d="M546.59,154.878l6.382-10.748-3.854,12.135-1.966.59Z" transform="translate(-522.142 -128.534)" fill="#9672fb"/>
      <g id="Group_7275" data-name="Group 7275" transform="translate(26.096 15.596)" opacity="0.4">
        <path id="Path_6468" data-name="Path 6468" d="M554.284,144.13l-4.734,10.982.88,1.153Z" transform="translate(-549.55 -144.13)"/>
      </g>
      <path id="Path_6469" data-name="Path 6469" d="M548.02,165.365a2.055,2.055,0,1,1-2.055-2.055A2.055,2.055,0,0,1,548.02,165.365Z" transform="translate(-520.955 -137.032)" fill="#fafafa"/>
      <path id="Path_6470" data-name="Path 6470" d="M547.911,165.265a1.532,1.532,0,0,0-.117-.49,2.088,2.088,0,0,0-.757-1.064,1.932,1.932,0,1,0,0,3.1,2.088,2.088,0,0,0,.757-1.064,4.68,4.68,0,0,1,.117-.484,1.043,1.043,0,0,1,0,.512,2.038,2.038,0,0,1-.741,1.2,2.138,2.138,0,0,1-2.049.345,2.177,2.177,0,0,1,0-4.11,2.127,2.127,0,0,1,2.049.34,2.038,2.038,0,0,1,.741,1.2,1.068,1.068,0,0,1,0,.518Z" transform="translate(-520.845 -136.932)" fill="#263238"/>
      <circle id="Ellipse_175" data-name="Ellipse 175" cx="1.531" cy="1.531" r="1.531" transform="translate(23.479 26.79)" fill="#455a64"/>
    </g>
    <g id="freepik--light-bulb--inject-41" transform="translate(242.575 67.829)">
      <path id="Path_6471" data-name="Path 6471" d="M423.209,82.448a15.593,15.593,0,1,0-21.251,15.493c.117,1.838.251,3.9.251,3.9l13.622-.88s-.061-2.228-.156-4.171A15.593,15.593,0,0,0,423.209,82.448Z" transform="translate(-392.051 -67.829)" fill="#9672fb"/>
      <path id="Path_6472" data-name="Path 6472" d="M416.955,113.833v-.746c.028-.5.067-1.225.145-2.166s.189-2.094.4-3.419a23.023,23.023,0,0,1,1.114-4.416,15.034,15.034,0,0,1,1.114-2.406,2.891,2.891,0,0,1,1-1.025,1.615,1.615,0,0,1,1.481-.045,1.058,1.058,0,0,1,.529.557,1.081,1.081,0,0,1,0,.8,2.228,2.228,0,0,1-1.114,1.114,4.26,4.26,0,0,1-3.247,0,4.316,4.316,0,0,1-2.361-2.45,3.28,3.28,0,0,1-.206-1.782,1.4,1.4,0,0,1,1.37-1.175,1.008,1.008,0,0,1,.824.5,1.381,1.381,0,0,1,.189.947,3.046,3.046,0,0,1-.991,1.615,4.65,4.65,0,0,1-3.553,1.286,4.043,4.043,0,0,1-3.152-2.049,2.345,2.345,0,0,1-.228-1.871,1.214,1.214,0,0,1,.64-.735,1.186,1.186,0,0,1,.963,0,1.554,1.554,0,0,1,.679.657,2.422,2.422,0,0,1,.3.88,4.417,4.417,0,0,1-.123,1.793,4.639,4.639,0,0,1-2.022,2.746,4.711,4.711,0,0,1-3.185.652,2.506,2.506,0,0,1-1.448-.652,1.214,1.214,0,0,1-.184-1.492,1.041,1.041,0,0,1,.679-.39,1.443,1.443,0,0,1,.752.1,2.227,2.227,0,0,1,1.019,1c.446.819.808,1.615,1.181,2.378,1.442,3.052,2.489,5.569,3.2,7.323.351.88.618,1.559.791,2.027.089.223.15.4.2.557l.061.184s-.033-.061-.084-.178l-.212-.523c-.195-.468-.468-1.142-.824-2.01-.73-1.738-1.793-4.255-3.252-7.29-.373-.757-.746-1.565-1.186-2.361a2.105,2.105,0,0,0-.952-.941,1.058,1.058,0,0,0-1.242.245,1.041,1.041,0,0,0,.178,1.281,2.294,2.294,0,0,0,1.353.6,4.572,4.572,0,0,0,3.069-.635,4.483,4.483,0,0,0,1.938-2.645,4.239,4.239,0,0,0,.111-1.715,1.671,1.671,0,0,0-.885-1.376.986.986,0,0,0-.813-.028,1.03,1.03,0,0,0-.557.624,2.183,2.183,0,0,0,.217,1.721,3.854,3.854,0,0,0,3,1.949,4.455,4.455,0,0,0,3.4-1.236,2.851,2.851,0,0,0,.936-1.5,1.242,1.242,0,0,0-.156-.824.824.824,0,0,0-.674-.407,1.114,1.114,0,0,0-.757.3,1.314,1.314,0,0,0-.4.724,3.063,3.063,0,0,0,.195,1.671,4.115,4.115,0,0,0,5.363,2.384,2.066,2.066,0,0,0,1.053-1.019.919.919,0,0,0-.434-1.186,1.47,1.47,0,0,0-1.337.039,2.785,2.785,0,0,0-.947.969,14.133,14.133,0,0,0-1.114,2.378,23.13,23.13,0,0,0-1.153,4.383c-.223,1.32-.345,2.467-.434,3.408s-.139,1.671-.178,2.166c0,.239-.039.429-.045.557A1.359,1.359,0,0,0,416.955,113.833Z" transform="translate(-398.105 -80.429)" fill="#263238"/>
      <path id="Path_6473" data-name="Path 6473" d="M423.119,130.6l-11.695.752a.88.88,0,0,1-.936-.819h0a.886.886,0,0,1,.824-.936l11.695-.757a.885.885,0,0,1,.936.824h0a.88.88,0,0,1-.824.936Z" transform="translate(-400.22 -94.862)" fill="#263238"/>
      <path id="Path_6474" data-name="Path 6474" d="M423.266,133.38l-11.695.757a.88.88,0,1,0,.111,1.754l1.286-.084,1.91,3.13a1.114,1.114,0,0,0,1.036.557l4.182-.267a1.142,1.142,0,0,0,.963-.679l1.442-3.341.874-.056a.88.88,0,0,0-.111-1.754Z" transform="translate(-400.316 -96.874)" fill="#263238"/>
      <g id="Group_7276" data-name="Group 7276" transform="translate(1.696 3.19)" opacity="0.2">
        <path id="Path_6475" data-name="Path 6475" d="M398.384,76.733a11.423,11.423,0,0,1,2.979-2.267,8.382,8.382,0,0,1,2.35-.852c.557-.1.919-.061.958.061.084.273-1.064.769-2.584,1.932a12.809,12.809,0,0,0-5.012,12.926c.334,1.882.852,3.024.6,3.169-.111.067-.384-.134-.746-.6a8.286,8.286,0,0,1-1.164-2.228,11.378,11.378,0,0,1-.668-3.681,12.174,12.174,0,0,1,.8-4.561" transform="translate(-395.096 -73.558)" fill="#fff"/>
      </g>
      <g id="Group_7277" data-name="Group 7277" transform="translate(13.048 1.817)" opacity="0.2">
        <path id="Path_6476" data-name="Path 6476" d="M417.5,73.012c-.986.05-1.877-.162-2.01-.674a.814.814,0,0,1,.446-.785,2.929,2.929,0,0,1,1.448-.451,2.868,2.868,0,0,1,1.492.278.885.885,0,0,1,.557.724" transform="translate(-415.481 -71.092)" fill="#fff"/>
      </g>
      <path id="Path_6477" data-name="Path 6477" d="M424.54,142.727a8.13,8.13,0,0,1-.819-.195,6.682,6.682,0,0,0-2-.123,6.839,6.839,0,0,0-1.938.49,7.8,7.8,0,0,1-.769.345,2.328,2.328,0,0,1,.707-.468,5.736,5.736,0,0,1,1.983-.557,5.8,5.8,0,0,1,2.049.178,2.567,2.567,0,0,1,.791.329Z" transform="translate(-403.996 -100.781)" fill="#455a64"/>
      <path id="Path_6478" data-name="Path 6478" d="M424.429,136.689c0,.056-2.105.234-4.717.4s-4.723.262-4.723.212,2.105-.234,4.711-.4S424.429,136.639,424.429,136.689Z" transform="translate(-402.215 -98.335)" fill="#455a64"/>
      <path id="Path_6479" data-name="Path 6479" d="M424.525,139.279a7.1,7.1,0,0,1-1.147.189c-.707.095-1.671.195-2.784.284s-2.077.134-2.785.156a6.2,6.2,0,0,1-1.158,0,8.4,8.4,0,0,1,1.153-.123l2.785-.212,2.784-.228A7.162,7.162,0,0,1,424.525,139.279Z" transform="translate(-402.951 -99.487)" fill="#455a64"/>
    </g>
    <g id="freepik--Photos--inject-41" transform="translate(143.018 68.804)">
      <rect id="Rectangle_3391" data-name="Rectangle 3391" width="23.139" height="28.942" transform="translate(0.091 42.476) rotate(-82.33)" fill="#ebebeb"/>
      <path id="Path_6480" data-name="Path 6480" d="M245.146,108.477h-.139l-.4-.05-1.565-.2-5.875-.769-20.7-2.768.089-.067c-.919,6.828-1.971,14.652-3.08,22.933h0l-.072-.095,28.68,3.9-.078.061c.947-6.9,1.726-12.625,2.278-16.629.273-2,.5-3.57.64-4.645.078-.557.134-.941.173-1.225l.067-.423a2.568,2.568,0,0,1-.05.412c-.05.273-.084.685-.15,1.214-.145,1.069-.345,2.64-.607,4.633-.557,4.015-1.292,9.757-2.228,16.707v.067h-.067l-28.7-3.9h-.084v-.084h0c1.114-8.281,2.172-16.106,3.1-22.933v-.072h.072l20.756,2.835,5.853.808,1.543.217.4.056Z" transform="translate(-213.28 -85.071)" fill="#263238"/>
      <rect id="Rectangle_3392" data-name="Rectangle 3392" width="20.227" height="26.909" transform="translate(1.282 41.166) rotate(-82.33)" fill="#9672fb"/>
      <path id="Path_6481" data-name="Path 6481" d="M215.57,134.585l10.993-11.2,4.723,8.571,4.472-3.642,6.482,9.868Z" transform="translate(-214.295 -93.419)" fill="#9672fb"/>
      <path id="Path_6482" data-name="Path 6482" d="M247.087,120.713a2.116,2.116,0,1,1-1.815-2.378A2.116,2.116,0,0,1,247.087,120.713Z" transform="translate(-226.393 -91.175)" fill="#9672fb"/>
      <g id="Group_7278" data-name="Group 7278" transform="translate(1.275 29.961)" opacity="0.2">
        <path id="Path_6483" data-name="Path 6483" d="M215.57,134.585l10.993-11.2,4.723,8.571,4.472-3.642,6.482,9.868Z" transform="translate(-215.57 -123.38)"/>
      </g>
      <g id="Group_7279" data-name="Group 7279" transform="translate(16.48 27.141)" opacity="0.2">
        <path id="Path_6484" data-name="Path 6484" d="M247.087,120.713a2.116,2.116,0,1,1-1.815-2.378A2.116,2.116,0,0,1,247.087,120.713Z" transform="translate(-242.873 -118.316)"/>
      </g>
      <rect id="Rectangle_3393" data-name="Rectangle 3393" width="34.968" height="43.733" transform="matrix(0.148, -0.989, 0.989, 0.148, 18.208, 34.679)" fill="#ebebeb"/>
      <path id="Path_6485" data-name="Path 6485" d="M294.319,76.146l-.212-.028-.607-.084-2.35-.34L282.29,74.4l-31.242-4.589.128-.1c-1.531,10.3-3.291,22.1-5.151,34.584h0l-.106-.139,43.249,6.477-.117.089c1.576-10.408,2.885-19.035,3.8-25.061.462-3.018.83-5.385,1.075-7.006.128-.8.223-1.42.29-1.849s.106-.635.106-.635a3.752,3.752,0,0,1-.078.618c-.078.412-.15,1.036-.262,1.832-.239,1.615-.557,3.976-1.019,6.989l-3.7,25.155v.106h-.106L245.9,104.392h-.123v-.123h0c1.871-12.486,3.637-24.281,5.179-34.578V69.58h.111l31.3,4.734,8.827,1.348,2.322.362.6.095Z" transform="translate(-227.681 -69.58)" fill="#263238"/>
      <rect id="Rectangle_3394" data-name="Rectangle 3394" width="30.563" height="40.665" transform="matrix(0.148, -0.989, 0.989, 0.148, 20.026, 32.724)" fill="#9672fb"/>
      <path id="Path_6486" data-name="Path 6486" d="M249.26,115.07l16.852-16.69,6.945,13.054,6.839-5.4,9.579,15.047Z" transform="translate(-229.223 -82.341)" fill="#9672fb"/>
      <path id="Path_6487" data-name="Path 6487" d="M297.324,94.63a3.2,3.2,0,1,1-.584-2.389A3.2,3.2,0,0,1,297.324,94.63Z" transform="translate(-247.699 -79.043)" fill="#9672fb"/>
      <g id="Group_7280" data-name="Group 7280" transform="translate(20.037 16.039)" opacity="0.2">
        <path id="Path_6488" data-name="Path 6488" d="M249.26,115.07l16.852-16.69,6.945,13.054,6.839-5.4,9.579,15.047Z" transform="translate(-249.26 -98.38)"/>
      </g>
      <g id="Group_7281" data-name="Group 7281" transform="translate(43.259 11.893)" opacity="0.2">
        <path id="Path_6489" data-name="Path 6489" d="M297.324,94.63a3.2,3.2,0,1,1-.584-2.389A3.2,3.2,0,0,1,297.324,94.63Z" transform="translate(-290.957 -90.936)"/>
      </g>
    </g>
    <g id="freepik--color-palette--inject-41" transform="translate(77.973 135.991)">
      <path id="Path_6490" data-name="Path 6490" d="M116.267,229.7l9.534,9.924a1.671,1.671,0,0,0,2.345.072l37.931-36.438a1.671,1.671,0,0,0,0-2.345l-9.512-9.924a1.671,1.671,0,0,0-2.345-.072l-37.931,36.438A1.671,1.671,0,0,0,116.267,229.7Z" transform="translate(-105.041 -190.334)" fill="#f5f5f5"/>
      <path id="Path_6491" data-name="Path 6491" d="M116.241,229.589a1.231,1.231,0,0,1-.234-.284,1.671,1.671,0,0,1-.262-1.047,1.626,1.626,0,0,1,.262-.763,5.218,5.218,0,0,1,.668-.707l1.726-1.671,11.027-10.659,16.384-15.783,4.739-4.555L153,191.765c.423-.4.808-.791,1.264-1.192a1.8,1.8,0,0,1,1.793-.195,2.228,2.228,0,0,1,.735.557l.607.635,1.225,1.275,2.484,2.578,5.068,5.279a1.832,1.832,0,0,1,.418,1.86,1.882,1.882,0,0,1-.557.8l-.657.657-2.623,2.517-5.1,4.9-9.718,9.289c-6.187,5.92-11.751,11.255-16.429,15.738l-3.341,3.191a1.738,1.738,0,0,1-2.077.2,4.178,4.178,0,0,1-.757-.7l-.679-.707-4.55-4.778-2.874-3.024c-.317-.345-.557-.607-.741-.791l-.245-.278s.095.084.267.256l.763.774,2.907,2.985,4.589,4.745.679.7a3.9,3.9,0,0,0,.73.668,1.548,1.548,0,0,0,1.86-.184l3.341-3.208,16.384-15.783,9.668-9.272,5.124-4.923,2.623-2.517.657-.64a1.515,1.515,0,0,0,.128-2.228l-5.068-5.279-2.478-2.578-1.225-1.281-.607-.635a1.882,1.882,0,0,0-.646-.5,1.515,1.515,0,0,0-1.5.156c-.412.356-.83.785-1.242,1.175l-2.45,2.35L146,198.915,129.573,214.6,118.48,225.184l-1.743,1.671a5.1,5.1,0,0,0-.668.685,1.637,1.637,0,0,0-.262.73,1.671,1.671,0,0,0,.223,1.025C116.157,229.495,116.252,229.584,116.241,229.589Z" transform="translate(-105.016 -190.225)" fill="#263238"/>
      <rect id="Rectangle_3395" data-name="Rectangle 3395" width="9.612" height="14.017" transform="matrix(0.717, -0.697, 0.697, 0.717, 42.975, 8.612)" fill="#9672fb"/>
      <rect id="Rectangle_3396" data-name="Rectangle 3396" width="9.612" height="14.017" transform="matrix(0.717, -0.697, 0.697, 0.717, 20.536, 30.448)" fill="#9672fb"/>
      <rect id="Rectangle_3397" data-name="Rectangle 3397" width="9.612" height="14.017" transform="matrix(0.717, -0.697, 0.697, 0.717, 28.024, 23.161)" fill="#9672fb"/>
      <rect id="Rectangle_3398" data-name="Rectangle 3398" width="9.612" height="14.017" transform="matrix(0.717, -0.697, 0.697, 0.717, 35.519, 15.867)" fill="#9672fb"/>
      <g id="Group_7282" data-name="Group 7282" transform="translate(42.975 1.908)" opacity="0.8">
        <rect id="Rectangle_3399" data-name="Rectangle 3399" width="9.612" height="14.017" transform="matrix(0.717, -0.697, 0.697, 0.717, 0, 6.704)"/>
      </g>
      <g id="Group_7283" data-name="Group 7283" transform="translate(20.536 23.744)" opacity="0.5">
        <rect id="Rectangle_3400" data-name="Rectangle 3400" width="9.612" height="14.017" transform="matrix(0.717, -0.697, 0.697, 0.717, 0, 6.704)"/>
      </g>
      <g id="Group_7284" data-name="Group 7284" transform="translate(28.024 16.457)" opacity="0.6">
        <rect id="Rectangle_3401" data-name="Rectangle 3401" width="9.612" height="14.017" transform="matrix(0.717, -0.697, 0.697, 0.717, 0, 6.704)"/>
      </g>
      <g id="Group_7285" data-name="Group 7285" transform="translate(35.519 9.163)" opacity="0.7">
        <rect id="Rectangle_3402" data-name="Rectangle 3402" width="9.612" height="14.017" transform="matrix(0.717, -0.697, 0.697, 0.717, 0, 6.704)"/>
      </g>
      <path id="Path_6492" data-name="Path 6492" d="M117.618,235.98l6.683,12.046a1.671,1.671,0,0,0,2.228.685L171.9,223.623a1.671,1.671,0,0,0,.6-2.228l-6.683-12.04a1.671,1.671,0,0,0-2.228-.691l-45.376,25.061A1.671,1.671,0,0,0,117.618,235.98Z" transform="translate(-105.752 -198.314)" fill="#f5f5f5"/>
      <path id="Path_6493" data-name="Path 6493" d="M117.6,235.846a1.483,1.483,0,0,1-.156-.329,1.671,1.671,0,0,1,0-1.069,1.57,1.57,0,0,1,.434-.668,4.81,4.81,0,0,1,.813-.507l2.077-1.164,13.254-7.379,19.67-10.915,5.692-3.152,2.935-1.626.746-.412a3.9,3.9,0,0,1,.8-.384,1.782,1.782,0,0,1,1.721.451,2.885,2.885,0,0,1,.507.752l.423.757c.278.512.557,1.019.846,1.531.557,1.025,1.114,2.061,1.715,3.1q1.721,3.124,3.5,6.332a1.849,1.849,0,0,1-.056,1.888,1.815,1.815,0,0,1-.735.629l-.791.44-3.158,1.738-6.126,3.38-11.628,6.421-19.709,10.86c-1.409.769-2.723,1.515-4.015,2.194a1.732,1.732,0,0,1-1.994-.557c-.39-.59-.663-1.17-.98-1.726-1.225-2.228-2.278-4.149-3.135-5.725s-1.52-2.785-1.971-3.62l-.507-.947c-.117-.212-.167-.329-.167-.329s.072.106.189.312.306.529.557.936c.468.83,1.147,2.038,2.016,3.592l3.18,5.7c.317.557.618,1.153.975,1.671a1.559,1.559,0,0,0,1.788.49c1.253-.674,2.6-1.437,3.987-2.228l19.675-10.915,11.628-6.438,6.126-3.4,3.146-1.738.791-.44a1.531,1.531,0,0,0,.629-.557,1.559,1.559,0,0,0,.045-1.587l-3.5-6.332-1.71-3.1-.846-1.531-.423-.757a2.784,2.784,0,0,0-.451-.685,1.5,1.5,0,0,0-1.453-.384,4.214,4.214,0,0,0-.735.356l-.741.412-2.94,1.626-5.692,3.141-19.7,10.86-13.3,7.4-2.088,1.114a4.69,4.69,0,0,0-.807.49,1.5,1.5,0,0,0-.429.629,1.671,1.671,0,0,0-.039,1.041C117.54,235.734,117.607,235.846,117.6,235.846Z" transform="translate(-105.73 -198.179)" fill="#263238"/>
      <rect id="Rectangle_3403" data-name="Rectangle 3403" width="9.612" height="14.017" transform="matrix(0.872, -0.489, 0.489, 0.872, 49.173, 17.226)" fill="#9672fb"/>
      <rect id="Rectangle_3404" data-name="Rectangle 3404" width="9.612" height="14.017" transform="matrix(0.872, -0.489, 0.489, 0.872, 21.868, 32.534)" fill="#9672fb"/>
      <rect id="Rectangle_3405" data-name="Rectangle 3405" width="9.612" height="14.017" transform="matrix(0.872, -0.489, 0.489, 0.872, 30.976, 27.428)" fill="#9672fb"/>
      <rect id="Rectangle_3406" data-name="Rectangle 3406" width="9.612" height="14.017" transform="matrix(0.872, -0.489, 0.489, 0.872, 40.094, 22.314)" fill="#9672fb"/>
      <g id="Group_7286" data-name="Group 7286" transform="translate(49.173 12.525)" opacity="0.5">
        <rect id="Rectangle_3407" data-name="Rectangle 3407" width="9.612" height="14.017" transform="matrix(0.872, -0.489, 0.489, 0.872, 0, 4.701)"/>
      </g>
      <g id="Group_7287" data-name="Group 7287" transform="translate(21.868 27.833)" opacity="0.2">
        <rect id="Rectangle_3408" data-name="Rectangle 3408" width="9.612" height="14.017" transform="matrix(0.872, -0.489, 0.489, 0.872, 0, 4.701)"/>
      </g>
      <g id="Group_7288" data-name="Group 7288" transform="translate(30.976 22.726)" opacity="0.3">
        <rect id="Rectangle_3409" data-name="Rectangle 3409" width="9.612" height="14.017" transform="matrix(0.872, -0.489, 0.489, 0.872, 0, 4.701)"/>
      </g>
      <g id="Group_7289" data-name="Group 7289" transform="translate(40.094 17.613)" opacity="0.4">
        <rect id="Rectangle_3410" data-name="Rectangle 3410" width="9.612" height="14.017" transform="matrix(0.872, -0.489, 0.489, 0.872, 0, 4.701)"/>
      </g>
      <path id="Path_6494" data-name="Path 6494" d="M114.759,246.788l2.94,13.444a1.671,1.671,0,0,0,2.016,1.275l53.212-11.628a1.671,1.671,0,0,0,1.3-2l-2.935-13.438a1.671,1.671,0,0,0-2.016-1.281l-53.212,11.634a1.671,1.671,0,0,0-1.3,2Z" transform="translate(-104.563 -209.228)" fill="#f5f5f5"/>
      <path id="Path_6495" data-name="Path 6495" d="M114.75,246.679a1.309,1.309,0,0,1-.05-.379,1.671,1.671,0,0,1,.362-1.047,1.771,1.771,0,0,1,.657-.507,6.386,6.386,0,0,1,.963-.251l2.411-.557,15.387-3.408,22.833-5.012,6.6-1.448,3.408-.746,1.732-.379a2.105,2.105,0,0,1,.936-.05,1.827,1.827,0,0,1,.863.423,1.782,1.782,0,0,1,.557.8c.089.317.139.6.206.891.128.59.262,1.186.39,1.777q.4,1.788.785,3.6l1.6,7.34a1.821,1.821,0,0,1-.674,1.832,2.094,2.094,0,0,1-.919.39l-.919.2-3.648.8L161.09,252.5l-13.488,2.94L124.769,260.4l-4.639,1.008c-.184.033-.362.084-.557.106a1.782,1.782,0,0,1-1.537-.59,1.916,1.916,0,0,1-.44-.975c-.067-.334-.139-.663-.212-.986-.557-2.584-1.03-4.806-1.42-6.627s-.685-3.224-.891-4.193l-.223-1.114c-.056-.278-.067-.373-.067-.373s.039.123.095.368l.256,1.086c.217.963.557,2.372.941,4.177s.9,4.043,1.47,6.622c.072.317.145.646.217.98a1.737,1.737,0,0,0,.4.9,1.6,1.6,0,0,0,.869.5,2.228,2.228,0,0,0,1.058-.084l4.633-1.025,22.833-5.012,13.483-2.957,7.134-1.559,3.648-.8.919-.2a1.743,1.743,0,0,0,.807-.334,1.543,1.543,0,0,0,.557-1.543q-.819-3.72-1.6-7.34-.4-1.815-.785-3.6c-.134-.59-.262-1.186-.39-1.777-.067-.284-.123-.6-.195-.863a1.52,1.52,0,0,0-.451-.679,1.6,1.6,0,0,0-1.554-.306l-1.726.373-3.408.746-6.6,1.437-22.833,4.956-15.4,3.341-2.423.512a7.242,7.242,0,0,0-.952.234,1.743,1.743,0,0,0-.64.479,1.7,1.7,0,0,0-.379,1.008A1.765,1.765,0,0,0,114.75,246.679Z" transform="translate(-104.555 -209.119)" fill="#263238"/>
      <path id="Path_6496" data-name="Path 6496" d="M106.567,257.713c0,.05-.668,0-1.838.223a9.924,9.924,0,0,0-4.455,2.122,9.517,9.517,0,0,0-3.3,6.354,9.334,9.334,0,0,0,17.392,5.424,9.674,9.674,0,0,0,1.292-4.762v-.791a3.827,3.827,0,0,0-.061-.557,1.542,1.542,0,0,1,0-.484,1.888,1.888,0,0,1,.134.468c.033.156.084.345.117.557s.05.5.078.8a9.467,9.467,0,0,1-1.164,4.968,9.75,9.75,0,0,1-14.8,2.773,10.085,10.085,0,0,1-1.671-1.821,9.768,9.768,0,0,1,1.793-13.249,9.656,9.656,0,0,1,4.689-2.027,8.4,8.4,0,0,1,1.392-.067,1.22,1.22,0,0,1,.4.067Z" transform="translate(-96.483 -220.097)" fill="#263238"/>
      <path id="Path_6497" data-name="Path 6497" d="M130.216,266.15a2.094,2.094,0,1,1-2.495-1.6,2.094,2.094,0,0,1,2.495,1.6Z" transform="translate(-109.596 -223.138)" fill="#263238"/>
      <rect id="Rectangle_3411" data-name="Rectangle 3411" width="9.612" height="14.017" transform="translate(55.708 27.773) rotate(-12.33)" fill="#9672fb"/>
      <rect id="Rectangle_3412" data-name="Rectangle 3412" width="9.612" height="14.017" transform="translate(45.546 29.992) rotate(-12.33)" fill="#9672fb"/>
      <rect id="Rectangle_3413" data-name="Rectangle 3413" width="9.612" height="14.017" transform="translate(35.332 32.228) rotate(-12.33)" fill="#9672fb"/>
      <rect id="Rectangle_3414" data-name="Rectangle 3414" width="9.612" height="14.017" transform="translate(25.128 34.456) rotate(-12.33)" fill="#9672fb"/>
      <g id="Group_7290" data-name="Group 7290" transform="translate(25.128 32.404)" opacity="0.8">
        <rect id="Rectangle_3415" data-name="Rectangle 3415" width="9.612" height="14.017" transform="translate(0 2.053) rotate(-12.33)" fill="#fff"/>
      </g>
      <g id="Group_7291" data-name="Group 7291" transform="translate(35.332 30.175)" opacity="0.6">
        <rect id="Rectangle_3416" data-name="Rectangle 3416" width="9.612" height="14.017" transform="translate(0 2.053) rotate(-12.33)" fill="#fff"/>
      </g>
      <g id="Group_7292" data-name="Group 7292" transform="translate(45.546 27.94)" opacity="0.4">
        <rect id="Rectangle_3417" data-name="Rectangle 3417" width="9.612" height="14.017" transform="translate(0 2.053) rotate(-12.33)" fill="#fff"/>
      </g>
    </g>
    <g id="freepik--Day--inject-41" transform="translate(159.758 135.829)">
      <circle id="Ellipse_176" data-name="Ellipse 176" cx="7.758" cy="7.758" r="7.758" transform="translate(7.82 40.242) rotate(-76.64)" fill="#9672fb"/>
      <path id="Path_6498" data-name="Path 6498" d="M274.031,228.908a42.113,42.113,0,0,1,0-6.978,42.113,42.113,0,0,1,0,6.978Z" transform="translate(-256.867 -204.111)" fill="#9672fb"/>
      <path id="Path_6499" data-name="Path 6499" d="M273.321,277.772a58.726,58.726,0,0,1,0-8.242,58.7,58.7,0,0,1,0,8.242Z" transform="translate(-256.553 -225.203)" fill="#9672fb"/>
      <path id="Path_6500" data-name="Path 6500" d="M248.781,251.985a25.618,25.618,0,0,1-5.441,0A25.618,25.618,0,0,1,248.781,251.985Z" transform="translate(-243.34 -217.364)" fill="#9672fb"/>
      <path id="Path_6501" data-name="Path 6501" d="M299.766,250.121a39.594,39.594,0,0,1-6.766,0,39.594,39.594,0,0,1,6.766,0Z" transform="translate(-265.344 -216.531)" fill="#9672fb"/>
      <path id="Path_6502" data-name="Path 6502" d="M292.276,235.46a18.038,18.038,0,0,1-3.236,3.236,8.75,8.75,0,0,1,1.515-1.721A9.227,9.227,0,0,1,292.276,235.46Z" transform="translate(-263.59 -210.106)" fill="#9672fb"/>
      <path id="Path_6503" data-name="Path 6503" d="M290.776,267.31a6.532,6.532,0,0,1-1.5-1.292,6.977,6.977,0,0,1-1.3-1.5,6.684,6.684,0,0,1,1.5,1.292A6.979,6.979,0,0,1,290.776,267.31Z" transform="translate(-263.12 -222.983)" fill="#9672fb"/>
      <path id="Path_6504" data-name="Path 6504" d="M258.206,264.53a8.815,8.815,0,0,1-1.515,1.671,8.626,8.626,0,0,1-1.721,1.437,8.737,8.737,0,0,1,1.52-1.671A8.515,8.515,0,0,1,258.206,264.53Z" transform="translate(-248.493 -222.987)" fill="#9672fb"/>
      <path id="Path_6505" data-name="Path 6505" d="M258.854,236.715c-.078.039-.557-.707-1.275-1.465s-1.465-1.242-1.42-1.32a3.7,3.7,0,0,1,1.632,1.114A3.664,3.664,0,0,1,258.854,236.715Z" transform="translate(-249.019 -209.428)" fill="#9672fb"/>
      <path id="Path_6506" data-name="Path 6506" d="M471.167,243.248a10.849,10.849,0,0,1,9.329-10.743,11.512,11.512,0,0,0-1.527-.106,10.86,10.86,0,1,0,0,21.719,11.511,11.511,0,0,0,1.526-.106,10.848,10.848,0,0,1-9.328-10.765Z" transform="translate(-342.935 -208.75)" fill="#9672fb"/>
      <path id="Path_6507" data-name="Path 6507" d="M492.945,249.8l.29.485a3.342,3.342,0,0,0,1.376,1.27l.507.251-.484.29a3.308,3.308,0,0,0-1.264,1.376l-.256.512-.29-.49a3.342,3.342,0,0,0-1.376-1.264l-.507-.251.484-.3a3.275,3.275,0,0,0,1.264-1.376Z" transform="translate(-353.051 -216.46)" fill="#9672fb"/>
      <path id="Path_6508" data-name="Path 6508" d="M455.869,261.13l.145.251a1.732,1.732,0,0,0,.7.64l.256.128-.245.15a1.671,1.671,0,0,0-.646.7l-.128.256-.145-.245a1.671,1.671,0,0,0-.7-.64l-.256-.128.245-.15a1.671,1.671,0,0,0,.646-.7Z" transform="translate(-337.06 -221.481)" fill="#9672fb"/>
      <path id="Path_6509" data-name="Path 6509" d="M446.831,252.61l.078.123a.864.864,0,0,0,.345.317l.128.061-.123.078a.763.763,0,0,0-.317.345l-.067.128-.072-.123a.791.791,0,0,0-.345-.317l-.128-.067.122-.072a.9.9,0,0,0,.317-.345Z" transform="translate(-333.285 -217.705)" fill="#9672fb"/>
      <path id="Path_6510" data-name="Path 6510" d="M512.047,263.27l.072.123a.842.842,0,0,0,.345.323l.128.061-.122.072a.841.841,0,0,0-.317.351l-.067.128-.072-.123a.841.841,0,0,0-.345-.323l-.128-.061.123-.072a.841.841,0,0,0,.317-.351Z" transform="translate(-362.179 -222.429)" fill="#9672fb"/>
      <path id="Path_6511" data-name="Path 6511" d="M501.471,246.45l.078.123a.79.79,0,0,0,.345.317l.128.067-.123.072a.791.791,0,0,0-.317.345l-.067.128-.072-.123a.863.863,0,0,0-.345-.317L500.97,247l.122-.078a.863.863,0,0,0,.317-.345Z" transform="translate(-357.496 -214.976)" fill="#9672fb"/>
      <path id="Path_6512" data-name="Path 6512" d="M281.813,241.318a3.491,3.491,0,0,1-.624,1.259,4.423,4.423,0,0,1-.869,1.114,3.536,3.536,0,0,1,.624-1.253C281.334,241.769,281.723,241.273,281.813,241.318Z" transform="translate(-259.726 -212.701)" fill="#9672fb"/>
      <path id="Path_6513" data-name="Path 6513" d="M287.507,233.257c.067.05-.262.585-.73,1.192s-.9,1.064-.963,1.019a3.791,3.791,0,0,1,.73-1.192C287.011,233.641,287.446,233.207,287.507,233.257Z" transform="translate(-262.157 -209.128)" fill="#9672fb"/>
      <path id="Path_6514" data-name="Path 6514" d="M293.963,225.766c.056.056-.317.557-.835,1.114s-.991.98-1.053.924.317-.557.835-1.114S293.907,225.71,293.963,225.766Z" transform="translate(-264.931 -205.809)" fill="#9672fb"/>
      <path id="Path_6515" data-name="Path 6515" d="M301.082,218.875c.05.061-.368.557-.93,1.041a4.345,4.345,0,0,1-1.114.83,3.68,3.68,0,0,1,.936-1.041C300.547,219.187,301.026,218.814,301.082,218.875Z" transform="translate(-268.019 -202.754)" fill="#9672fb"/>
      <path id="Path_6516" data-name="Path 6516" d="M308.757,212.623c.045.067-.412.5-1.019.963a3.436,3.436,0,0,1-1.192.73c-.056-.061.4-.49,1.014-.963S308.707,212.556,308.757,212.623Z" transform="translate(-271.345 -199.983)" fill="#9672fb"/>
      <path id="Path_6517" data-name="Path 6517" d="M316.945,207.06c.039.072-.451.462-1.114.874a3.514,3.514,0,0,1-1.253.629c-.045-.067.445-.457,1.114-.874A3.609,3.609,0,0,1,316.945,207.06Z" transform="translate(-274.904 -197.522)" fill="#9672fb"/>
      <path id="Path_6518" data-name="Path 6518" d="M325.62,202.22c.039.072-.484.418-1.164.774a3.5,3.5,0,0,1-1.3.523c-.039-.072.479-.418,1.164-.78a3.492,3.492,0,0,1,1.3-.518Z" transform="translate(-278.707 -195.378)" fill="#9672fb"/>
      <path id="Path_6519" data-name="Path 6519" d="M334.677,198.13a3.43,3.43,0,0,1-1.231.674,3.492,3.492,0,0,1-1.337.412,3.341,3.341,0,0,1,1.225-.674A3.531,3.531,0,0,1,334.677,198.13Z" transform="translate(-282.674 -193.565)" fill="#9672fb"/>
      <path id="Path_6520" data-name="Path 6520" d="M344.051,194.84a3.425,3.425,0,0,1-1.281.557,3.537,3.537,0,0,1-1.37.3,3.341,3.341,0,0,1,1.281-.557,3.564,3.564,0,0,1,1.37-.3Z" transform="translate(-286.79 -192.108)" fill="#9672fb"/>
      <path id="Path_6521" data-name="Path 6521" d="M353.692,192.381a6.616,6.616,0,0,1-2.712.624,3.442,3.442,0,0,1,1.32-.451,3.5,3.5,0,0,1,1.392-.173Z" transform="translate(-291.035 -191.013)" fill="#9672fb"/>
      <path id="Path_6522" data-name="Path 6522" d="M363.522,190.779a3.509,3.509,0,0,1-1.359.329,3.369,3.369,0,0,1-1.4.045,3.548,3.548,0,0,1,1.359-.329,3.475,3.475,0,0,1,1.4-.045Z" transform="translate(-295.369 -190.286)" fill="#9672fb"/>
      <path id="Path_6523" data-name="Path 6523" d="M373.479,190.06a3.509,3.509,0,0,1-1.387.195,3.7,3.7,0,0,1-1.392-.078,3.3,3.3,0,0,1,1.381-.212A3.492,3.492,0,0,1,373.479,190.06Z" transform="translate(-299.773 -189.934)" fill="#9672fb"/>
      <path id="Path_6524" data-name="Path 6524" d="M383.475,190.251a3.553,3.553,0,0,1-1.4.072,3.6,3.6,0,0,1-1.387-.212A6.655,6.655,0,0,1,383.475,190.251Z" transform="translate(-304.2 -189.974)" fill="#9672fb"/>
      <path id="Path_6525" data-name="Path 6525" d="M393.417,191.252a3.525,3.525,0,0,1-1.4-.05,3.481,3.481,0,0,1-1.359-.34,3.514,3.514,0,0,1,1.4.05A3.342,3.342,0,0,1,393.417,191.252Z" transform="translate(-308.617 -190.324)" fill="#9672fb"/>
      <path id="Path_6526" data-name="Path 6526" d="M403.232,193.125a3.408,3.408,0,0,1-1.387-.167,3.492,3.492,0,0,1-1.325-.457,3.5,3.5,0,0,1,1.392.173,3.442,3.442,0,0,1,1.32.451Z" transform="translate(-312.986 -191.067)" fill="#9672fb"/>
      <path id="Path_6527" data-name="Path 6527" d="M412.891,195.836a3.587,3.587,0,0,1-1.37-.29,3.531,3.531,0,0,1-1.281-.557,6.941,6.941,0,0,1,2.651.847Z" transform="translate(-317.293 -192.174)" fill="#9672fb"/>
      <path id="Path_6528" data-name="Path 6528" d="M422.227,199.33a6.722,6.722,0,0,1-2.567-1.08,6.72,6.72,0,0,1,2.567,1.08Z" transform="translate(-321.467 -193.619)" fill="#9672fb"/>
      <path id="Path_6529" data-name="Path 6529" d="M431.267,203.612a6.844,6.844,0,0,1-2.467-1.292,3.391,3.391,0,0,1,1.3.518C430.788,203.194,431.306,203.54,431.267,203.612Z" transform="translate(-325.517 -195.422)" fill="#9672fb"/>
      <path id="Path_6530" data-name="Path 6530" d="M439.906,208.638a3.514,3.514,0,0,1-1.253-.629,3.885,3.885,0,0,1-1.114-.869,3.537,3.537,0,0,1,1.253.624C439.466,208.176,439.951,208.571,439.906,208.638Z" transform="translate(-329.389 -197.558)" fill="#9672fb"/>
      <path id="Path_6531" data-name="Path 6531" d="M448.1,214.383a3.547,3.547,0,0,1-1.192-.73c-.613-.468-1.069-.9-1.019-.963a3.442,3.442,0,0,1,1.175.73C447.691,213.887,448.176,214.322,448.1,214.383Z" transform="translate(-333.087 -200.017)" fill="#9672fb"/>
      <path id="Path_6532" data-name="Path 6532" d="M455.76,220.8c-.056.061-.557-.312-1.114-.83s-.986-.986-.93-1.047.557.312,1.114.835S455.816,220.746,455.76,220.8Z" transform="translate(-336.555 -202.777)" fill="#9672fb"/>
      <path id="Path_6533" data-name="Path 6533" d="M462.8,227.89c-.061.056-.529-.362-1.047-.93a3.51,3.51,0,0,1-.835-1.114c.061-.056.529.362,1.047.93S462.864,227.84,462.8,227.89Z" transform="translate(-339.749 -205.844)" fill="#9672fb"/>
      <path id="Path_6534" data-name="Path 6534" d="M468.661,234.882c-.067.05-.379-.256-.7-.674s-.557-.8-.473-.852.379.251.7.674S468.723,234.826,468.661,234.882Z" transform="translate(-342.652 -209.171)" fill="#9672fb"/>
    </g>
  </g>
</svg>
