<svg xmlns="http://www.w3.org/2000/svg" width="245.215" height="211.718" viewBox="0 0 245.215 211.718">
  <g id="_232_designer_flatline" data-name="#232_designer_flatline" transform="translate(-63.71 -32.312)">
    <path id="Path_600" data-name="Path 600" d="M282.642,193.331s29.624-77.275,14.277-89.06-79.713-7.026-83.239-2.816-24.289,97.228-24.289,97.228Z" transform="translate(-12.619 -6.479)" fill="#231f20"/>
    <path id="Path_601" data-name="Path 601" d="M189.29,199.1a.468.468,0,0,1-.342-.153.432.432,0,0,1-.09-.387c.846-3.805,20.862-93.18,24.424-97.426,1.952-2.33,19.134-4.5,37.522-4.741,10.8-.144,36.964.3,46.338,7.485,6.522,5,6.108,21.59-1.223,49.406-5.4,20.574-12.837,39.96-12.909,40.149a.441.441,0,0,1-.4.288l-93.3,5.4ZM254.205,97.27h-3.382c-18.891.252-35.309,2.582-36.883,4.426-2.7,3.248-16.876,64.168-24.109,96.464l92.415-5.326c1.9-5.029,28.787-77.167,14.322-88.259C290.477,99.906,275.121,97.27,254.205,97.27Zm28.382,96.014Z" transform="translate(-12.564 -6.433)" fill="#231f20"/>
    <path id="Path_602" data-name="Path 602" d="M157.85,129.661,144.5,174.47s27.537,3.553,27.537,2.537,5.4-49.307,5.4-49.307Z" transform="translate(-8.112 -9.578)" fill="#fff"/>
    <path id="Path_603" data-name="Path 603" d="M170.6,177.538c-4.651,0-17.848-1.6-26.205-2.7a.459.459,0,0,1-.378-.576l13.35-44.809a.45.45,0,0,1,.387-.324l19.593-1.961a.441.441,0,0,1,.36.135.414.414,0,0,1,.126.36c-1.862,16.642-5.4,48.353-5.4,49.262a.576.576,0,0,1-.18.387A3.715,3.715,0,0,1,170.6,177.538Zm.9-.6Zm-26.5-2.9c9.572,1.223,24.433,2.924,26.52,2.627.342-3.886,4.723-43.109,5.326-48.515l-18.73,1.88Z" transform="translate(-8.062 -9.524)" fill="#231f20"/>
    <path id="Path_604" data-name="Path 604" d="M130.729,117.491c.117.126,4.858-1.142,7.3,1.8s-.729,5.568-8.456,4.048S130.729,117.491,130.729,117.491Z" transform="translate(-6.296 -8.536)" fill="#fff"/>
    <path id="Path_605" data-name="Path 605" d="M133.6,124.186a21.978,21.978,0,0,1-4.165-.441c-2.231-.441-3.382-1.16-3.517-2.213-.261-2.033,3.751-4.093,4.561-4.5a.45.45,0,0,1,.288,0h.3c1.259-.153,5.092-.639,7.269,1.97a2.8,2.8,0,0,1,.6,3.32C138.189,123.5,136.255,124.186,133.6,124.186Zm-2.825-6.3c-1.754.9-4.066,2.483-3.94,3.481,0,.333.468.963,2.78,1.421,5.227,1.026,7.853.072,8.519-1.053a1.988,1.988,0,0,0-.513-2.249c-1.853-2.213-5.191-1.8-6.441-1.637A1.8,1.8,0,0,1,130.776,117.889Z" transform="translate(-6.245 -8.493)" fill="#231f20"/>
    <path id="Path_606" data-name="Path 606" d="M117.937,106.8s-.972-1.115-.36-1.9a1.322,1.322,0,0,1,2.141.2S118.189,105.646,117.937,106.8Z" transform="translate(-5.388 -7.242)" fill="#fff"/>
    <path id="Path_607" data-name="Path 607" d="M117.886,107.2a.468.468,0,0,1-.351-.153c-.45-.522-1.044-1.637-.369-2.483a1.619,1.619,0,0,1,1.286-.639,1.97,1.97,0,0,1,1.565.819.45.45,0,0,1,.09.423.459.459,0,0,1-.288.315c-.36.126-1.322.63-1.484,1.358a.459.459,0,0,1-.333.351Zm.585-2.348h0a.738.738,0,0,0-.567.279.693.693,0,0,0,0,.639,3.535,3.535,0,0,1,.972-.828.729.729,0,0,0-.4-.054Z" transform="translate(-5.337 -7.191)" fill="#231f20"/>
    <path id="Path_608" data-name="Path 608" d="M120.115,105.12a2.429,2.429,0,0,0-2.2,2l19.3,25.108a5.4,5.4,0,0,1,4.615-4.813Z" transform="translate(-5.443 -7.31)" fill="#fff"/>
    <path id="Path_609" data-name="Path 609" d="M137.155,132.631a.459.459,0,0,1-.36-.18l-19.3-25.108a.468.468,0,0,1-.081-.4,2.933,2.933,0,0,1,2.645-2.339.468.468,0,0,1,.333.144l21.716,22.292a.45.45,0,0,1,.108.468.459.459,0,0,1-.36.315,4.93,4.93,0,0,0-4.237,4.39.459.459,0,0,1-.333.4Zm-18.775-25.656,18.541,24.118a5.757,5.757,0,0,1,3.949-4l-20.979-21.536a1.979,1.979,0,0,0-1.511,1.421Z" transform="translate(-5.391 -7.258)" fill="#231f20"/>
    <path id="Path_610" data-name="Path 610" d="M139.366,134.711l6.585,3.418.819-.765-2.789-7.467S138.853,129.386,139.366,134.711Z" transform="translate(-7.593 -9.797)" fill="#fff"/>
    <path id="Path_611" data-name="Path 611" d="M145.895,138.536a.432.432,0,0,1-.216-.054l-6.585-3.418a.459.459,0,0,1-.252-.369,4.786,4.786,0,0,1,1.16-4.03,5.4,5.4,0,0,1,3.967-1.286.468.468,0,0,1,.4.306l2.78,7.467a.459.459,0,0,1-.117.5l-.819.765A.477.477,0,0,1,145.895,138.536Zm-6.144-4.174,6.063,3.149.36-.324L143.6,130.3a4.4,4.4,0,0,0-2.951,1.026,3.778,3.778,0,0,0-.9,3.041Z" transform="translate(-7.536 -9.744)" fill="#231f20"/>
    <path id="Path_612" data-name="Path 612" d="M146.69,138.965l1.259,1.349.594-.675-1.035-1.439Z" transform="translate(-8.332 -10.632)" fill="#fff"/>
    <path id="Path_613" data-name="Path 613" d="M147.9,140.73a.432.432,0,0,1-.333-.153l-1.268-1.349a.5.5,0,0,1-.126-.333.477.477,0,0,1,.153-.324l.819-.765a.468.468,0,0,1,.693.072l1.035,1.439a.459.459,0,0,1,0,.576l-.594.675a.441.441,0,0,1-.342.162Zm-.6-1.8.594.639h0l-.513-.711Z" transform="translate(-8.279 -10.58)" fill="#231f20"/>
    <path id="Path_614" data-name="Path 614" d="M130.675,135.3c1.062-2.15,3.724-6.711,4.336-8.69,1.691-5.4-8.213-10.453-11.416-10.453s-9.9,11.191-9.9,17.173,22.175,51.79,22.175,51.79l21.275-9.734Z" transform="translate(-5.019 -8.419)" fill="#fff"/>
    <path id="Path_615" data-name="Path 615" d="M135.853,185.538a.459.459,0,0,1-.414-.261c-.9-1.871-22.229-45.987-22.229-52s6.765-17.641,10.336-17.641c2.465,0,8.2,2.627,10.8,6.117a5.4,5.4,0,0,1,1.107,4.948,49.42,49.42,0,0,1-3,6.162c-.477.9-.9,1.709-1.241,2.348l26.349,39.852a.486.486,0,0,1,.063.387.468.468,0,0,1-.252.288l-21.284,9.752a.342.342,0,0,1-.225.045Zm-12.306-68.972c-2.816,0-9.4,10.8-9.4,16.714,0,5.506,19.728,46.608,21.923,51.187l20.376-9.338-26.205-39.582a.486.486,0,0,1,0-.468c.342-.684.837-1.61,1.376-2.618a49.129,49.129,0,0,0,2.933-6,4.5,4.5,0,0,0-.963-4.12C131.076,118.933,125.615,116.567,123.546,116.567Z" transform="translate(-4.97 -8.367)" fill="#231f20"/>
    <path id="Path_616" data-name="Path 616" d="M248.118,141.2l26.223-6.684c-.9-1.268-11.479-34.85-22.634-40.347-9.761-6.477-32.907-10.8-53.355-9.329,0,0-5.4-.2-14.861,3.553C160.444,97.549,156,129.44,156,129.44l17.992,6.216s-3.436,41.246-6.684,62.81c0,0,39.78,7.781,97.7-1.8C265.049,196.649,248.226,147.3,248.118,141.2Z" transform="translate(-9.266 -5.245)" fill="#9672fb"/>
    <path id="Path_617" data-name="Path 617" d="M248.317,92.743c-3.472,3.6-6.18,7.916-10.012,11.308-8.258,7.3-19.062,13.089-30.388,12.387-13.35-.828-24.892-9.95-27.788-23.237-1.8-8.33.072-16.067,6.513-21.95,4.453-4.066,10.156-6.549,15.986-8.1,15.482-4.147,32.853-1.943,46.068,7.143a16.445,16.445,0,0,1,5.326,5.29c3.3,5.982-.495,12.136-4.777,16.247C248.956,92.113,248.65,92.428,248.317,92.743Z" transform="translate(-11.624 -2.895)" fill="#9672fb"/>
    <path id="Path_618" data-name="Path 618" d="M205.064,106.015c-.135,0-2.618,3.023-2.744,3.068,1.412,5.326,2.906,12.261,8.933,12.945,12.225,1.394,14.079-14.906,16.382-22.6C219.169,101.8,213.2,102.758,205.064,106.015Z" transform="translate(-13.917 -6.739)" fill="#231f20"/>
    <path id="Path_619" data-name="Path 619" d="M212.633,122.515a13.955,13.955,0,0,1-1.475-.09c-6.018-.684-7.719-7.2-9.095-12.405l-.234-.9a.45.45,0,0,1,.18-.477c.144-.135.8-.9,1.277-1.457,1.394-1.6,1.412-1.61,1.556-1.673h0a111.916,111.916,0,0,1,15.293-4.687c2.294-.576,4.66-1.169,7.287-1.907a.45.45,0,0,1,.441.117.468.468,0,0,1,.108.441c-.342,1.142-.675,2.492-1.035,3.922C225.074,111.1,222.222,122.506,212.633,122.515Zm-9.9-13.341.162.621c1.376,5.218,2.924,11.128,8.33,11.695,10.012,1.142,12.81-10.111,14.861-18.334.279-1.124.549-2.2.819-3.176-2.33.639-4.5,1.178-6.54,1.7A108.553,108.553,0,0,0,205.22,106.3c-.18.18-.81.9-1.277,1.448-.63.81-.981,1.205-1.178,1.421Zm-.495-.135ZM205.148,106.34Z" transform="translate(-13.867 -6.686)" fill="#231f20"/>
    <path id="Path_620" data-name="Path 620" d="M213.38,36.579c-1.8-.072-2.951.711-4.5,1.268-3.014,1.062-4.417-1.457-7.008-2.8a19.908,19.908,0,0,0-24.685,5.173,14.87,14.87,0,0,0-3.355,7.467c-.378,3.113.495,6.3-.045,9.374a10.588,10.588,0,0,1-6.549,7.916,25.233,25.233,0,0,0,8.564-.81,8.717,8.717,0,0,1-6.513,3.1A16.193,16.193,0,0,0,179.3,70.628l-6.342,1.484c5.4,3.463,11.974,4.5,18.334,4.21,12.666-.657,33.879-5.838,33.51-22.247C224.6,47.788,221.144,36.939,213.38,36.579Z" transform="translate(-10.395 -0.049)" fill="#fff"/>
    <path id="Path_621" data-name="Path 621" d="M189.064,76.8c-4.849,0-11.056-.9-16.436-4.336a.459.459,0,0,1-.2-.459.477.477,0,0,1,.342-.36l3.526-.819a16.732,16.732,0,0,1-7.377-3.221.45.45,0,0,1,.27-.81,8.249,8.249,0,0,0,5.065-1.844,25.36,25.36,0,0,1-7.143.45.45.45,0,0,1-.4-.387.441.441,0,0,1,.288-.486,10.093,10.093,0,0,0,6.3-7.566,20.042,20.042,0,0,0,.054-4.876,24.036,24.036,0,0,1,0-4.5,15.347,15.347,0,0,1,3.454-7.7,20.349,20.349,0,0,1,25.243-5.281,15.006,15.006,0,0,1,2.177,1.448c1.457,1.106,2.609,1.979,4.5,1.322.4-.144.783-.306,1.151-.459a7.718,7.718,0,0,1,3.544-.837h0c7.79.342,11.695,10.9,11.821,17.938.162,7.458-3.913,13.332-12.118,17.443s-17.992,5.065-21.815,5.263C190.549,76.786,189.82,76.8,189.064,76.8Zm-15.023-4.5c5.811,3.373,12.477,3.823,17.146,3.6,3.742-.2,13.314-1.089,21.455-5.173,7.871-3.94,11.776-9.527,11.623-16.616-.153-6.693-3.742-16.741-10.957-17.092a7.107,7.107,0,0,0-3.158.765c-.387.162-.783.333-1.205.477-2.33.819-3.787-.288-5.326-1.457a13.881,13.881,0,0,0-2.042-1.358A19.431,19.431,0,0,0,177.451,40.5a14.457,14.457,0,0,0-3.266,7.2,22.993,22.993,0,0,0,0,4.309,20.978,20.978,0,0,1-.072,5.092,11,11,0,0,1-5.191,7.458,25.188,25.188,0,0,0,6.639-.9.45.45,0,0,1,.5.189.459.459,0,0,1,0,.531,9.2,9.2,0,0,1-5.6,3.167,15.743,15.743,0,0,0,8.753,2.555.441.441,0,0,1,.45.4.45.45,0,0,1-.342.495Z" transform="translate(-10.341 0)" fill="#231f20"/>
    <path id="Path_622" data-name="Path 622" d="M199.657,88.305l.9,15.491s7.08,8.1,16.193,3.122,8.762-12.864,8.762-12.864L219.529,64.97s-8.267-1.907-10.372-18.19a49.982,49.982,0,0,1-24.4,10.354s.162,18.217,3.373,25.459S199.657,88.305,199.657,88.305Z" transform="translate(-12.154 -1.453)" fill="#fff"/>
    <path id="Path_623" data-name="Path 623" d="M210.714,108.925c-6.189,0-10.5-4.813-10.552-4.885a.423.423,0,0,1-.108-.27l-.9-15.014c-1.9.189-8.663.369-11.515-6.063-3.212-7.2-3.4-24.892-3.409-25.638a.459.459,0,0,1,.387-.45A50.053,50.053,0,0,0,208.78,46.368a.45.45,0,0,1,.459-.081.459.459,0,0,1,.288.36c1.062,8.24,3.742,12.639,5.8,14.888a9.446,9.446,0,0,0,4.228,2.915.459.459,0,0,1,.333.351l5.991,29.111c0,.153.27,8.294-9,13.35a12.774,12.774,0,0,1-6.171,1.664Zm-9.779-5.4c.9.981,7.341,7.4,15.554,2.915,8.744-4.786,8.528-12.387,8.528-12.459L219.089,65.2c-1.493-.495-8.258-3.481-10.318-17.7a51.736,51.736,0,0,1-23.605,9.9c0,2.7.45,18.406,3.32,24.892,3.032,6.819,10.714,5.533,11.038,5.479a.459.459,0,0,1,.36.081.486.486,0,0,1,.171.333Z" transform="translate(-12.101 -1.4)" fill="#231f20"/>
    <path id="Path_624" data-name="Path 624" d="M219.577,74.455a8.1,8.1,0,0,0,5.991-1.475,8.663,8.663,0,0,0,3.221-7.844,7.2,7.2,0,0,0-.9-3.14,3.823,3.823,0,0,0-2.546-1.907,6.153,6.153,0,0,0-3.76,1c-1.745.9-1.8,1.9-2.753,3.373.108-.135.189-.513.3-.648" transform="translate(-15.575 -2.788)" fill="#fff"/>
    <path id="Path_625" data-name="Path 625" d="M220.733,74.954a8.728,8.728,0,0,1-1.277-.1.459.459,0,0,1-.378-.522.441.441,0,0,1,.513-.369,7.62,7.62,0,0,0,5.64-1.412,8.2,8.2,0,0,0,3.032-7.449,6.7,6.7,0,0,0-.8-2.951,3.391,3.391,0,0,0-2.231-1.673,5.707,5.707,0,0,0-3.472.954,3.805,3.805,0,0,0-1.871,2.015c-.189.342-.4.729-.675,1.151a.4.4,0,0,1-.072.1.451.451,0,0,1-.72-.54h0a.291.291,0,0,1,.063-.18,1.8,1.8,0,0,1,.225-.459.468.468,0,0,1,.171-.126l.171-.324a4.732,4.732,0,0,1,2.267-2.393,6.618,6.618,0,0,1,4.03-1.044,4.291,4.291,0,0,1,2.915,2.123,7.62,7.62,0,0,1,.9,3.337,9.059,9.059,0,0,1-3.4,8.231,8.5,8.5,0,0,1-5.029,1.628Z" transform="translate(-15.526 -2.738)" fill="#231f20"/>
    <path id="Path_626" data-name="Path 626" d="M201.788,100.428a10.9,10.9,0,0,0,8.645-5.4c3.176-5.3,1.907-8.69,1.907-8.69s-4.282,5.461-11.02,5.9Z" transform="translate(-13.817 -5.425)" fill="#231f20"/>
    <path id="Path_627" data-name="Path 627" d="M201.737,100.828a.441.441,0,0,1-.441-.423l-.477-8.1a.45.45,0,0,1,.423-.477c6.45-.414,10.651-5.667,10.7-5.721a.45.45,0,0,1,.423-.171.459.459,0,0,1,.351.288c.054.144,1.3,3.652-1.952,9.077a11.236,11.236,0,0,1-9,5.568Zm0-8.186.423,7.26a10.6,10.6,0,0,0,7.817-5.11c2.15-3.6,2.2-6.225,2.042-7.485a16.93,16.93,0,0,1-10.282,5.335Z" transform="translate(-13.766 -5.384)" fill="#231f20"/>
    <path id="Path_628" data-name="Path 628" d="M199.75,65.57s-3.373,8.888-1.844,9.95,4.759-.63,4.759-.63" transform="translate(-13.434 -3.339)" fill="#fff"/>
    <path id="Path_629" data-name="Path 629" d="M199.19,76.27a2.7,2.7,0,0,1-1.592-.432c-1.691-1.169.9-8.312,1.673-10.48a.449.449,0,1,1,.837.324c-1.565,4.129-2.7,8.906-2,9.41,1.071.738,3.463-.216,4.291-.648a.459.459,0,0,1,.612.189.45.45,0,0,1-.2.6,8.888,8.888,0,0,1-3.625,1.035Z" transform="translate(-13.387 -3.289)" fill="#231f20"/>
    <ellipse id="Ellipse_8" data-name="Ellipse 8" cx="1.304" cy="1.844" rx="1.304" ry="1.844" transform="matrix(0.952, -0.308, 0.308, 0.952, 190.576, 58.898)" fill="#231f20"/>
    <ellipse id="Ellipse_9" data-name="Ellipse 9" cx="1.304" cy="1.844" rx="1.304" ry="1.844" transform="translate(179.011 61.279) rotate(-0.78)" fill="#231f20"/>
    <path id="Path_630" data-name="Path 630" d="M200.579,88.162a4.138,4.138,0,0,1-2.429-.711c-2.834-2.069-3.041-6.639-3.05-6.837a.459.459,0,0,1,.36-.459c11.641-2.546,11.767-2.456,11.974-2.3a.486.486,0,0,1,.189.324h0a11.605,11.605,0,0,1-.729,5.344,7.359,7.359,0,0,1-4.687,4.408A5.946,5.946,0,0,1,200.579,88.162Zm-4.543-7.2c.108,1.089.594,4.273,2.627,5.748a3.85,3.85,0,0,0,3.266.36,6.5,6.5,0,0,0,4.138-3.877,10.409,10.409,0,0,0,.684-4.5c-1.547.279-7.008,1.448-10.714,2.258Z" transform="translate(-13.192 -4.566)" fill="#231f20"/>
    <path id="Path_631" data-name="Path 631" d="M206.846,83.941c-1.727,4.174-6.054,5.173-8.1,3.724.459-1.592,1.3-3.248,2.852-3.85A7.593,7.593,0,0,1,206.846,83.941Z" transform="translate(-13.559 -5.13)" fill="#231f20"/>
    <path id="Path_632" data-name="Path 632" d="M200.9,88.667a4.156,4.156,0,0,1-2.429-.7.441.441,0,0,1-.162-.486c.612-2.2,1.664-3.6,3.113-4.147a8.1,8.1,0,0,1,5.533.117.459.459,0,0,1,.261.243.477.477,0,0,1,0,.351,7.377,7.377,0,0,1-4.687,4.4A5.973,5.973,0,0,1,200.9,88.667ZM199.261,87.4a4.021,4.021,0,0,0,2.987.18,6.405,6.405,0,0,0,3.94-3.436,7.044,7.044,0,0,0-4.444,0C200.638,84.591,199.828,85.689,199.261,87.4Z" transform="translate(-13.512 -5.079)" fill="#231f20"/>
    <path id="Path_633" data-name="Path 633" d="M183.883,72.223a2.7,2.7,0,0,1-2.636-2.123l-.945-4.291a2.7,2.7,0,0,1,2.06-3.212l10.03-2.2a2.7,2.7,0,0,1,3.221,2.06l.9,4.291a2.7,2.7,0,0,1-2.024,3.185h0l-10.03,2.2a2.51,2.51,0,0,1-.576.1Zm9.095-10.957a1.88,1.88,0,0,0-.387,0l-10.021,2.2a1.8,1.8,0,0,0-1.358,2.114l.945,4.354a1.8,1.8,0,0,0,2.105,1.349l10.03-2.249a1.8,1.8,0,0,0,1.349-2.105l-.9-4.291a1.8,1.8,0,0,0-1.727-1.394Zm1.439,8.249Z" transform="translate(-11.7 -2.813)" fill="#231f20"/>
    <path id="Path_634" data-name="Path 634" d="M203.758,67.873a2.711,2.711,0,0,1-2.636-2.123l-.9-4.291a2.7,2.7,0,0,1,2.06-3.221l10.021-2.2a2.7,2.7,0,0,1,3.221,2.06l.9,4.291a2.7,2.7,0,0,1-2.015,3.221l-10.021,2.2a3.319,3.319,0,0,1-.63.063ZM212.853,56.9a1.889,1.889,0,0,0-.387.045l-10.021,2.2a1.745,1.745,0,0,0-1.116.774,1.8,1.8,0,0,0-.243,1.34l.945,4.291a1.8,1.8,0,0,0,2.105,1.349l10.03-2.2h0a1.762,1.762,0,0,0,1.349-2.114l-.9-4.291A1.8,1.8,0,0,0,212.853,56.9Z" transform="translate(-13.7 -2.376)" fill="#231f20"/>
    <path id="Path_635" data-name="Path 635" d="M196.768,63.1a.432.432,0,0,1-.234-.063.468.468,0,0,1-.171-.63c.423-.729,1.8-1.871,4.057-.963a.481.481,0,1,1-.342.9c-2.015-.81-2.825.423-2.906.567A.477.477,0,0,1,196.768,63.1Z" transform="translate(-13.313 -2.891)" fill="#231f20"/>
    <path id="Path_636" data-name="Path 636" d="M93.888,196.44H278.844l29.678,54.2H64.21Z" transform="translate(-0.05 -16.479)" fill="#fff"/>
    <path id="Path_637" data-name="Path 637" d="M308.472,251.04H64.16a.459.459,0,0,1-.387-.216.468.468,0,0,1,0-.45l29.687-54.2a.441.441,0,0,1,.4-.234h184.93a.441.441,0,0,1,.4.234l29.687,54.2a.468.468,0,0,1,0,.45A.459.459,0,0,1,308.472,251.04Zm-243.547-.9H307.708l-29.183-53.3H94.108Z" transform="translate(-0.001 -16.429)" fill="#d1d3d4"/>
    <path id="Path_638" data-name="Path 638" d="M100.39,157.06l.4-1.709c.9-1.709,1.9-2.861,4.219-2.861h88.043a4.93,4.93,0,0,1,4.723,3.544l14.313,49.172a4.39,4.39,0,0,1-2.438,5.5l-1.556.369Z" transform="translate(-3.683 -12.067)" fill="#fff"/>
    <path id="Path_639" data-name="Path 639" d="M208.04,211.469a.531.531,0,0,1-.2-.045l-107.7-54.03a.441.441,0,0,1-.234-.5l.4-1.709a.586.586,0,0,1,0-.117c.9-1.628,1.934-3.095,4.615-3.095h88.043a5.4,5.4,0,0,1,5.155,3.868l14.322,49.235a4.84,4.84,0,0,1-2.7,6.045l-1.61.387Zm-107.151-54.7L208.13,210.543l1.394-.324a3.921,3.921,0,0,0,2.105-4.939l-14.313-49.172a4.5,4.5,0,0,0-4.291-3.221h-88.07c-1.988,0-2.843.9-3.8,2.573Z" transform="translate(-3.633 -12.014)" fill="#231f20"/>
    <path id="Path_640" data-name="Path 640" d="M208.088,211.391H118.245a2.843,2.843,0,0,1-2.7-2.051l-15.122-51.961a1.34,1.34,0,0,1,1.286-1.709h92.244L209.581,209.4a1.547,1.547,0,0,1-1.493,1.988Z" transform="translate(-3.681 -12.386)" fill="#231f20"/>
    <path id="Path_641" data-name="Path 641" d="M208.034,211.791H118.192a3.32,3.32,0,0,1-3.167-2.375L99.9,157.456a1.8,1.8,0,0,1,1.718-2.276H193.9a.432.432,0,0,1,.423.315l15.635,53.733a2.006,2.006,0,0,1-1.925,2.564ZM101.621,156.071a.9.9,0,0,0-.855,1.133l15.113,51.961a2.42,2.42,0,0,0,2.312,1.727h89.843a1.125,1.125,0,0,0,.9-.441,1.107,1.107,0,0,0,.171-.972l-15.563-53.409Z" transform="translate(-3.627 -12.337)" fill="#231f20"/>
    <path id="Path_642" data-name="Path 642" d="M194.648,193l-5.461,23.219a5.641,5.641,0,0,1-5.506,4.363H126.854a5.658,5.658,0,0,1-5.506-6.954L126.161,193h-4.7l-4.606,19.566a10.282,10.282,0,0,0,10.012,12.594h56.863a10.255,10.255,0,0,0,9.968-7.871L199.4,193Z" transform="translate(-5.309 -16.134)" fill="#fff"/>
    <path id="Path_643" data-name="Path 643" d="M183.63,225.625H126.8a10.732,10.732,0,0,1-10.444-13.188l4.6-19.575a.45.45,0,0,1,.441-.342h4.75a.459.459,0,0,1,.351.171.441.441,0,0,1,.081.378L121.729,213.7A5.218,5.218,0,0,0,126.8,220.1h56.863a5.2,5.2,0,0,0,5.074-4.021l5.461-23.219a.441.441,0,0,1,.432-.342h4.75a.459.459,0,0,1,.441.549l-5.712,24.289a10.687,10.687,0,0,1-10.48,8.267ZM121.711,193.42l-4.5,19.224a9.824,9.824,0,0,0,9.59,12.082h56.863a9.8,9.8,0,0,0,9.572-7.584l5.577-23.722h-3.823l-5.4,22.868A6.072,6.072,0,0,1,183.648,221H126.8a6.108,6.108,0,0,1-5.946-7.512l4.714-20.07Z" transform="translate(-5.258 -16.086)" fill="#231f20"/>
    <path id="Path_644" data-name="Path 644" d="M277.19,140.37s8.042,35.714,1.457,44.836-52.572,7.683-52.572,7.683-7.458,8.951-13.935,8.357-2.7-12.846,4.921-17.947l-1.053-4.255,40.545-6.5-5.4-25.665" transform="translate(-14.571 -10.85)" fill="#fff"/>
    <path id="Path_645" data-name="Path 645" d="M212.681,201.676h-.675a3.8,3.8,0,0,1-3.526-3.014c-1.017-3.985,2.24-11.587,7.97-15.581l-.972-3.949a.439.439,0,0,1,.36-.549l40.077-6.432-5.308-25.189a.45.45,0,0,1,.351-.531.441.441,0,0,1,.531.342l5.4,25.665a.455.455,0,0,1-.369.54l-40.059,6.432.9,3.778a.441.441,0,0,1-.18.477c-5.506,3.688-8.807,11.11-7.862,14.8a2.87,2.87,0,0,0,2.7,2.33c6.162.576,13.494-8.1,13.548-8.2a.45.45,0,0,1,.36-.162c.459,0,45.879,1.322,52.23-7.5s-1.439-44.08-1.52-44.467a.461.461,0,0,1,.9-.2c.333,1.466,8.006,35.984,1.376,45.2-6.477,9-48.929,7.988-52.77,7.871C225.122,194.524,218.708,201.676,212.681,201.676Z" transform="translate(-14.517 -10.803)" fill="#231f20"/>
    <path id="Path_646" data-name="Path 646" d="M231.138,118.1a.414.414,0,0,1-.2-.054.45.45,0,0,1-.216-.612c6.531-13.494,23.3-22.571,23.47-22.661a.45.45,0,0,1,.621.189.459.459,0,0,1-.189.63c-.162.09-16.669,9-23.066,22.247A.477.477,0,0,1,231.138,118.1Z" transform="translate(-16.764 -6.266)" fill="#231f20"/>
    <path id="Path_647" data-name="Path 647" d="M198.385,117.357a.486.486,0,0,1-.2,0c-15.671-7.2-17.569-23.012-17.587-23.165a.468.468,0,0,1,.414-.513.459.459,0,0,1,.513.4,30,30,0,0,0,17.092,22.346.468.468,0,0,1,.234.612A.477.477,0,0,1,198.385,117.357Z" transform="translate(-11.736 -6.161)" fill="#231f20"/>
    <path id="Path_648" data-name="Path 648" d="M120.962,142.1a.468.468,0,0,1,0-.9c6.783-.207,10.075-4.039,10.111-4.075a.459.459,0,0,1,.648-.063.468.468,0,0,1,.063.657c-.144.171-3.6,4.192-10.8,4.408Z" transform="translate(-5.714 -10.507)" fill="#231f20"/>
    <path id="Path_649" data-name="Path 649" d="M255.232,145.038a.459.459,0,0,1-.45-.351c0-.162-4.237-16.741-4.822-26.682a.459.459,0,0,1,.432-.486.468.468,0,0,1,.495.432c.585,9.851,4.759,26.34,4.795,26.511a.468.468,0,0,1-.333.567Z" transform="translate(-18.7 -8.555)" fill="#231f20"/>
    <path id="Path_650" data-name="Path 650" d="M175.172,147.4h0a.459.459,0,0,1-.432-.495l2.231-34.949a.459.459,0,0,1,.495-.432.45.45,0,0,1,.432.486l-2.267,34.949a.459.459,0,0,1-.459.441Z" transform="translate(-11.148 -7.953)" fill="#231f20"/>
    <path id="Path_651" data-name="Path 651" d="M263.225,127.95a.45.45,0,0,1-.4-.243l-4.354-8.1a.486.486,0,0,1,0-.369.5.5,0,0,1,.243-.279l13.494-6.378a.459.459,0,0,1,.621.216.468.468,0,0,1-.216.621l-13.08,6.171,3.94,7.3,13.251-4.048a.47.47,0,1,1,.27.9l-13.629,4.21Z" transform="translate(-19.551 -8.055)" fill="#231f20"/>
    <ellipse id="Ellipse_10" data-name="Ellipse 10" cx="22.211" cy="6.684" rx="22.211" ry="6.684" transform="translate(233.149 209.179)" fill="#fff"/>
    <path id="Path_652" data-name="Path 652" d="M274.221,242.688c-12.7,0-22.661-3.131-22.661-7.134s9.959-7.134,22.661-7.134,22.661,3.131,22.661,7.134S286.923,242.688,274.221,242.688Zm0-13.368c-13.017,0-21.761,3.221-21.761,6.234s8.744,6.234,21.761,6.234,21.761-3.221,21.761-6.234S287.238,229.32,274.221,229.32Z" transform="translate(-18.861 -19.69)" fill="#d1d3d4"/>
    <path id="Path_653" data-name="Path 653" d="M257.519,215.117l-.531.1a6.594,6.594,0,0,0-4.1,2.312,5.677,5.677,0,0,0-.135,6c2.357,4.246,8.1,5.4,12.522,5.838a3.976,3.976,0,0,0,1.871-.144,1.529,1.529,0,0,0,1.035-1.421,1.565,1.565,0,0,0-.9-1.2,4.813,4.813,0,0,0-1.466-.414c-2.753-.45-5.649-.783-8.168-2.051-1.466-.747-3.517-2.447-2.447-4.282a3.5,3.5,0,0,1,1.547-1.313c2.528-1.205,4.93-.288,7.422.45a1.377,1.377,0,0,0,.567.081,1.007,1.007,0,0,0,.729-1.124c-.081-1.089-1.169-1.8-2.2-2.2A11.515,11.515,0,0,0,257.519,215.117Z" transform="translate(-18.901 -18.343)" fill="#fff"/>
    <path id="Path_654" data-name="Path 654" d="M265.97,229.811a7.318,7.318,0,0,1-.783-.045c-6.756-.639-10.966-2.618-12.882-6.072a6.108,6.108,0,0,1,.171-6.486,7.062,7.062,0,0,1,4.372-2.483l.558-.1h0a11.893,11.893,0,0,1,6.009.657c.9.333,2.366,1.116,2.483,2.582a1.466,1.466,0,0,1-1.115,1.61,1.953,1.953,0,0,1-.756-.1l-.648-.2c-2.213-.675-4.3-1.3-6.45-.279a3.014,3.014,0,0,0-1.358,1.143,1.529,1.529,0,0,0-.171,1.259,4.831,4.831,0,0,0,2.429,2.384,23.9,23.9,0,0,0,7.026,1.853l1.017.162a5,5,0,0,1,1.61.459,1.8,1.8,0,0,1-.225,3.436A3.6,3.6,0,0,1,265.97,229.811Zm-8.429-14.295-.513.09a6.225,6.225,0,0,0-3.832,2.132,5.227,5.227,0,0,0-.1,5.524c1.754,3.167,5.739,5,12.172,5.6a3.661,3.661,0,0,0,1.655-.108.939.939,0,0,0,.126-1.808,4.228,4.228,0,0,0-1.322-.36l-1.017-.162a24.488,24.488,0,0,1-7.287-1.943,5.65,5.65,0,0,1-2.888-2.924,2.438,2.438,0,0,1,.261-1.979,3.859,3.859,0,0,1,1.745-1.493c2.465-1.178,4.822-.468,7.1.225l.648.2a1.035,1.035,0,0,0,.378.063c.216,0,.351-.369.333-.639-.072-1.008-1.358-1.6-1.907-1.8a10.993,10.993,0,0,0-5.551-.6Z" transform="translate(-18.851 -18.292)" fill="#231f20"/>
    <path id="Path_655" data-name="Path 655" d="M260.45,210.07s4.156,20.745,4.5,22,10.165,6.387,17.992,1.34l6.846-21.2Z" transform="translate(-19.754 -17.848)" fill="#fff"/>
    <path id="Path_656" data-name="Path 656" d="M275.234,235.992a19.476,19.476,0,0,1-6.873-1.313c-1.727-.666-3.688-1.745-3.9-2.546-.333-1.25-4.327-21.167-4.5-22.022a.432.432,0,0,1,.468-.531l29.336,2.177a.441.441,0,0,1,.4.585l-6.846,21.2a.441.441,0,0,1-.189.234A14.3,14.3,0,0,1,275.234,235.992Zm-14.277-25.477c.675,3.373,4.075,20.277,4.372,21.383.126.3,1.745,1.5,4.615,2.375,2.7.819,7.862,1.745,12.594-1.205l6.621-20.5Z" transform="translate(-19.703 -17.798)" fill="#231f20"/>
    <ellipse id="Ellipse_11" data-name="Ellipse 11" cx="6.369" cy="14.708" rx="6.369" ry="14.708" transform="translate(240.449 198.588) rotate(-87.65)" fill="#231f20"/>
    <path id="Path_657" data-name="Path 657" d="M276.25,216.827h-1.43c-8.5-.342-15.032-3.6-14.87-7.431s6.936-6.531,15.428-6.18,15.023,3.6,14.861,7.431c-.072,1.889-1.8,3.6-4.777,4.714A26.088,26.088,0,0,1,276.25,216.827Zm-2.258-12.783c-7.134,0-13.026,2.339-13.152,5.4-.126,3.2,6.3,6.18,14.016,6.5a26.565,26.565,0,0,0,10.327-1.448c2.609-1,4.138-2.429,4.2-3.913.135-3.212-6.3-6.189-14.007-6.5Z" transform="translate(-19.703 -17.157)" fill="#231f20"/>
    <path id="Path_658" data-name="Path 658" d="M232.307,144.331h-47.6a.45.45,0,0,1-.45-.45V129.83a.459.459,0,0,1,.45-.45h47.6a.45.45,0,0,1,.45.45v14.079A.45.45,0,0,1,232.307,144.331Zm-47.148-.9h46.7V130.28h-46.7Z" transform="translate(-12.104 -9.746)" fill="#fff"/>
    <rect id="Rectangle_56" data-name="Rectangle 56" width="244.303" height="9.419" transform="translate(64.16 234.161)" fill="#fff"/>
    <path id="Path_659" data-name="Path 659" d="M308.472,266.508H64.16a.45.45,0,0,1-.45-.45V256.64a.459.459,0,0,1,.45-.45H308.472a.459.459,0,0,1,.45.45v9.419A.45.45,0,0,1,308.472,266.508Zm-243.862-.9H308.022V257.09H64.61Z" transform="translate(0 -22.479)" fill="#d1d3d4"/>
    <path id="Path_660" data-name="Path 660" d="M293,153.719h0a.459.459,0,0,1-.441-.459c0-1.035.657-25.423,3.347-33.87s7.737-11.965,7.943-12.1a.45.45,0,1,1,.5.747c-.054,0-4.975,3.409-7.593,11.623s-3.293,33.366-3.3,33.618A.45.45,0,0,1,293,153.719Z" transform="translate(-22.978 -7.521)" fill="#fff"/>
  </g>
</svg>
