<svg xmlns="http://www.w3.org/2000/svg" width="16.635" height="18" viewBox="0 0 16.635 18">
  <path id="Path_6006" data-name="Path 6006" d="M97.331,6.063h2.85a.488.488,0,0,1,.488.488v9.515a.488.488,0,0,1-.488.488h-2.85a.488.488,0,0,1-.487-.488V6.55A.489.489,0,0,1,97.331,6.063Zm9.7,0c1.468-.023,2.173.645,3.673,2.906l2.319,3.5c1.286,1.939-.362,4.169-2.57,4.152l-2.96-.024c.5,1.951,1.175,4.558,1.39,5.356.011,1.816-1.529,2.643-2.295,1.751,0,0-1.893-3.158-4.19-7.148V6.063h4.633Z" transform="translate(-96.844 -6.063)" fill="#fbfbfb" fill-rule="evenodd"/>
</svg>
