<svg xmlns="http://www.w3.org/2000/svg" width="35" height="35" viewBox="0 0 35 35">
  <g id="downloiad" transform="translate(14130 6004)">
    <circle id="Ellipse_1" data-name="Ellipse 1" cx="17.5" cy="17.5" r="17.5" transform="translate(-14130 -6004)" fill="#fff" opacity="0"/>
    <path id="Path_671" data-name="Path 671" d="M193.15,35.281l-6.025,5.991a.44.44,0,0,1-.594,0l-6.025-5.991a.355.355,0,0,1,.3-.6h2.949V28.349a.364.364,0,0,1,.382-.346h5.346a.363.363,0,0,1,.382.346v6.337h2.949c.382,0,.552.365.339.6ZM193.235,45v-1.92a.312.312,0,0,0-.318-.288H180.739a.312.312,0,0,0-.318.288V45a.312.312,0,0,0,.318.288h12.2a.281.281,0,0,0,.3-.288Z" transform="translate(-14299.402 -6023.003)" fill="#433f4d"/>
  </g>
</svg>
