<svg xmlns="http://www.w3.org/2000/svg" width="12.84" height="17.283" viewBox="0 0 12.84 17.283">
  <path id="download" d="M193.15,35.281l-6.025,5.991a.44.44,0,0,1-.594,0l-6.025-5.991a.355.355,0,0,1,.3-.6h2.949V28.349a.364.364,0,0,1,.382-.346h5.346a.363.363,0,0,1,.382.346v6.337h2.949c.382,0,.552.365.339.6ZM193.235,45v-1.92a.312.312,0,0,0-.318-.288H180.739a.312.312,0,0,0-.318.288V45a.312.312,0,0,0,.318.288h12.2a.281.281,0,0,0,.3-.288Z" transform="translate(-180.402 -28.003)" fill="#9672fb"/>
</svg>
