<svg xmlns="http://www.w3.org/2000/svg" width="14.192" height="13.465" viewBox="0 0 14.192 13.465">
  <g id="download" transform="translate(-185.631 -1348)">
    <path id="Path_661" data-name="Path 661" d="M136.2,25.528a.556.556,0,0,0-.508-.334h-2.527V21.272a.552.552,0,0,0-.552-.552h-3.835a.552.552,0,0,0-.552.552v3.922h-2.818a.553.553,0,0,0-.392.944l5.273,5.52a.527.527,0,0,0,.407.174.54.54,0,0,0,.407-.189l5.026-5.52a.582.582,0,0,0,.073-.6Z" transform="translate(62.039 1327.28)" fill="#9672fb"/>
    <path id="Path_662" data-name="Path 662" d="M89.787,485.293H76.743a.744.744,0,0,1,0-1.453h13.03a.663.663,0,0,1,.581.726.653.653,0,0,1-.566.726Z" transform="translate(109.469 876.173)" fill="#9672fb"/>
  </g>
</svg>
