<svg xmlns="http://www.w3.org/2000/svg" width="12.348" height="20.58" viewBox="0 0 12.348 20.58">
  <path id="help" d="M4.916-3.909v-.536q0-1.945,2.509-3.721.085-.056.493-.366t.507-.381q.1-.07.423-.324a2.1,2.1,0,0,0,.409-.381q.085-.127.282-.381a1.4,1.4,0,0,0,.254-.451q.056-.2.127-.465a2.151,2.151,0,0,0,.07-.55,2.7,2.7,0,0,0-.818-2.03,2.88,2.88,0,0,0-2.086-.789,3.246,3.246,0,0,0-2.312.874,2.989,2.989,0,0,0-.93,2.284H.744A5.952,5.952,0,0,1,2.576-15.51a6.155,6.155,0,0,1,4.511-1.818A5.842,5.842,0,0,1,11.4-15.636a5.537,5.537,0,0,1,1.692,4.06,6.169,6.169,0,0,1-2.763,4.99,11.227,11.227,0,0,0-2,1.72,1.393,1.393,0,0,0-.31.818v.141ZM6.439,3.252a2.33,2.33,0,0,1-1.706-.719A2.363,2.363,0,0,1,4.014.8,2.377,2.377,0,0,1,4.733-.92a2.309,2.309,0,0,1,1.706-.733A2.34,2.34,0,0,1,8.173-.92,2.377,2.377,0,0,1,8.891.8a2.363,2.363,0,0,1-.719,1.734A2.363,2.363,0,0,1,6.439,3.252Z" transform="translate(-0.744 17.328)" fill="#433f4d"/>
</svg>
