<svg xmlns="http://www.w3.org/2000/svg" width="132.794" height="132.794" viewBox="0 0 132.794 132.794">
  <g id="info" transform="translate(-70)">
    <path id="Path_5743" data-name="Path 5743" d="M136.4,0C99.985,0,70,29.985,70,66.4s29.985,66.4,66.4,66.4,66.4-29.985,66.4-66.4S172.273,0,136.4,0Zm0,124.228c-31.594,0-57.831-26.237-57.831-57.831S104.8,8.566,136.4,8.566,194.228,34.8,194.228,66.4,167.991,124.228,136.4,124.228Z" fill="#ec5b62"/>
    <path id="Path_5744" data-name="Path 5744" d="M336.238,251.577a5.366,5.366,0,0,1-5.355,5.355h-1.606a5.366,5.366,0,0,1-5.355-5.355V207.133a5.366,5.366,0,0,1,5.355-5.355h1.606a5.366,5.366,0,0,1,5.355,5.355Z" transform="translate(-193.95 -154.122)" fill="#ec5b62"/>
    <path id="Path_5745" data-name="Path 5745" d="M337.971,132.852a5.89,5.89,0,1,1-5.891-5.89,5.891,5.891,0,0,1,5.891,5.89" transform="translate(-195.684 -96.976)" fill="#ec5b62"/>
  </g>
</svg>
