<svg xmlns="http://www.w3.org/2000/svg" width="17.811" height="17.811" viewBox="0 0 17.811 17.811">
  <path id="open" d="M70.735,0A.734.734,0,0,0,70,.735V16.776a.734.734,0,0,0,.735.735H86.776a.734.734,0,0,0,.735-.735V8.815a.735.735,0,1,0-1.469,0v7.227H71.469V1.47h7.225a.735.735,0,1,0,0-1.469ZM82.424,0a.735.735,0,0,0,0,1.469H85l-5.64,5.64A.735.735,0,1,0,80.4,8.151l5.64-5.641v2.58a.735.735,0,1,0,1.469,0V.738A.734.734,0,0,0,86.776,0H82.423Z" transform="translate(-69.85 0.15)" fill="#433f4d" stroke="#433f4d" stroke-width="0.3"/>
</svg>
