<svg xmlns="http://www.w3.org/2000/svg" width="19.582" height="15.563" viewBox="0 0 19.582 15.563">
  <path id="mail" d="M109.865,123.2a.756.756,0,0,0-.666.807v13.449a.756.756,0,0,0,.666.807h17.751a.756.756,0,0,0,.666-.807V124.007a.756.756,0,0,0-.666-.807Zm.222,1.076h17.307v.277l-8.654,8.187-8.654-8.187Zm0,1.631,5.069,4.8-5.069,5.75Zm17.307,0v10.549l-5.069-5.75,5.069-4.8Zm-11.531,5.464,2.607,2.471h0a.384.384,0,0,0,.541,0l2.607-2.471,5.131,5.817H110.732l5.131-5.817Z" transform="translate(-108.949 -122.95)" fill="#433f4d" stroke="#433f4d" stroke-width="0.5"/>
</svg>
