<svg xmlns="http://www.w3.org/2000/svg" width="18.124" height="18.089" viewBox="0 0 18.124 18.089">
  <g id="donwload" transform="translate(15368.458 -10019.5)">
    <path id="Path_5752" data-name="Path 5752" d="M145.806,360.8v4.012a.917.917,0,0,1-.029.223.862.862,0,0,1-.839.691H128.544a.859.859,0,0,1-.85-.765.673.673,0,0,1-.011-.154v-4.012a.856.856,0,0,1,1.712,0V364H144.1v-3.213a.855.855,0,0,1,1.461-.6.9.9,0,0,1,.245.611Z" transform="translate(-15496.141 9671.868)" fill="#433f4d"/>
    <path id="Path_5753" data-name="Path 5753" d="M232.062,67.25l-4.206,4.206c-.006.011-.017.017-.023.023a.991.991,0,0,1-.553.28c-.017,0-.034.006-.051.006a.617.617,0,0,1-.1.006l-.1-.006c-.017,0-.034-.006-.051-.006a.972.972,0,0,1-.553-.28l-.023-.023L222.2,67.25a1,1,0,0,1,1.415-1.415l2.528,2.528V59.1a1,1,0,0,1,1-1,1.021,1.021,0,0,1,.708.291.986.986,0,0,1,.291.708v9.262l2.528-2.528a1.006,1.006,0,0,1,1.415,0,1.022,1.022,0,0,1-.017,1.415Z" transform="translate(-15586.521 9961.398)" fill="#433f4d"/>
  </g>
</svg>
