<svg xmlns="http://www.w3.org/2000/svg" width="141" height="29.918" viewBox="0 0 141 29.918">
  <g id="logo" transform="translate(-25 -23)">
    <g id="Group_2" data-name="Group 2">
      <path id="Path_508" data-name="Path 508" d="M0,29.478H6.145a8.906,8.906,0,0,1,4.54,1.166,8.124,8.124,0,0,1,3.155,3.319,10.144,10.144,0,0,1,1.153,4.787v.892a10.237,10.237,0,0,1-1.111,4.814,8.2,8.2,0,0,1-3.114,3.319A8.662,8.662,0,0,1,6.282,49H5.1A4.86,4.86,0,0,1,1.5,47.467a5.094,5.094,0,0,1-1.5-3.7Zm4.6,15.9H6.2a3.531,3.531,0,0,0,3.031-1.44,7.16,7.16,0,0,0,1.07-4.293v-.837a7.1,7.1,0,0,0-1.07-4.266,3.6,3.6,0,0,0-3.086-1.427H4.6Z" transform="translate(25 -0.687)" fill="#fff"/>
      <path id="Path_509" data-name="Path 509" d="M82.719,69.071a6.426,6.426,0,0,1-1.934-4.842v-.357a8.359,8.359,0,0,1,.768-3.676,5.646,5.646,0,0,1,2.263-2.469,6.764,6.764,0,0,1,3.511-.878,5.883,5.883,0,0,1,4.526,1.783,5.047,5.047,0,0,1,1.173,1.913,12.391,12.391,0,0,1,.487,3.038,1.639,1.639,0,0,1-1.646,1.646H85.092a3.135,3.135,0,0,0,.988,1.8,2.989,2.989,0,0,0,1.989.645,3.6,3.6,0,0,0,1.674-.35,7.62,7.62,0,0,0,1.468-1.049l1.934,2.277a5.3,5.3,0,0,1-2.236,1.742,7.624,7.624,0,0,1-3.127.645,6.985,6.985,0,0,1-5.061-1.865m2.373-6.488h4.28v-.329a2.154,2.154,0,0,0-.521-1.577,2.039,2.039,0,0,0-1.55-.562q-1.852,0-2.208,2.469" transform="translate(-39.915 -22.681)" fill="#fff"/>
      <path id="Path_510" data-name="Path 510" d="M156.5,66.629a8.451,8.451,0,0,0-2.085-.658,9.672,9.672,0,0,1-2.537-.919,4.426,4.426,0,0,1-1.523-1.358,3.343,3.343,0,0,1-.521-1.852,3.716,3.716,0,0,1,1.5-3.032,6.135,6.135,0,0,1,3.923-1.193,6.769,6.769,0,0,1,4.2,1.207,3.753,3.753,0,0,1,1.577,3.141h-2.154a2.961,2.961,0,0,1-2.373-1.193,1.747,1.747,0,0,0-1.262-.412,1.623,1.623,0,0,0-1.084.37,1.116,1.116,0,0,0-.439.905,1.036,1.036,0,0,0,.535.905,5.173,5.173,0,0,0,1.715.562,16.489,16.489,0,0,1,2.071.535Q161,64.681,161,67.356a3.537,3.537,0,0,1-1.591,2.99,7.954,7.954,0,0,1-7.174.521,5.058,5.058,0,0,1-2.071-1.673,3.874,3.874,0,0,1-.741-2.236h3.841a1.575,1.575,0,0,0,.6,1.344,2.492,2.492,0,0,0,1.495.425,1.978,1.978,0,0,0,1.262-.343,1.105,1.105,0,0,0,.425-.905.974.974,0,0,0-.548-.851" transform="translate(-95.067 -23.299)" fill="#fff"/>
      <path id="Path_511" data-name="Path 511" d="M214.776,29.3a2.345,2.345,0,0,1,1.646-.59,2.315,2.315,0,0,1,1.646.59,2.153,2.153,0,0,1,0,3.045,2.314,2.314,0,0,1-1.646.59,2.344,2.344,0,0,1-1.646-.59,2.153,2.153,0,0,1,0-3.045m-.384,19V38.751a4.287,4.287,0,0,1,1.207-3.066,3.869,3.869,0,0,1,2.908-1.269v9.547a4.287,4.287,0,0,1-1.207,3.065,3.869,3.869,0,0,1-2.908,1.269" transform="translate(-147.078 -0.07)" fill="#fff"/>
      <path id="Path_512" data-name="Path 512" d="M243.638,60.813a5.316,5.316,0,0,1,1.893-2.359,4.923,4.923,0,0,1,2.853-.837A3.986,3.986,0,0,1,251.608,59l.137-1.139a3.723,3.723,0,0,1,3.731,3.717v8.943a5.584,5.584,0,0,1-.809,3.031,5.2,5.2,0,0,1-2.346,1.961,8.492,8.492,0,0,1-3.552.7,7.444,7.444,0,0,1-2.812-.549,5.027,5.027,0,0,1-2.071-1.427l1.715-2.414a3.742,3.742,0,0,0,3.018,1.358q2.729,0,2.729-2.8v-.412a3.876,3.876,0,0,1-2.99,1.289,4.784,4.784,0,0,1-3.9-1.838,7.641,7.641,0,0,1-1.481-4.938v-.137a8.918,8.918,0,0,1,.658-3.539m4.06,6.351a1.94,1.94,0,0,0,1.714.946,2.188,2.188,0,0,0,1.934-.892V61.677a2.152,2.152,0,0,0-1.92-.892,1.949,1.949,0,0,0-1.714.974A5.387,5.387,0,0,0,247.1,64.6a4.729,4.729,0,0,0,.6,2.565" transform="translate(-170.248 -23.299)" fill="#fff"/>
      <path id="Path_513" data-name="Path 513" d="M316.221,58.994a4.39,4.39,0,0,1,3.759-1.865,3.688,3.688,0,0,1,3.072,1.276,6.235,6.235,0,0,1,1.056,3.868v5.281A3.537,3.537,0,0,1,323.1,70.1a3.238,3.238,0,0,1-2.421,1.049h-.686v-8.7a2.376,2.376,0,0,0-.4-1.523,1.806,1.806,0,0,0-1.468-.494,1.922,1.922,0,0,0-1.784.988V67.5a3.6,3.6,0,0,1-1.022,2.579,3.3,3.3,0,0,1-2.476,1.07h-.6V61.395a3.969,3.969,0,0,1,1.125-2.839,3.617,3.617,0,0,1,2.716-1.18Z" transform="translate(-225.905 -22.906)" fill="#fff"/>
      <path id="Path_514" data-name="Path 514" d="M385.372,66.629a8.451,8.451,0,0,0-2.085-.658,9.672,9.672,0,0,1-2.537-.919,4.431,4.431,0,0,1-1.523-1.358,3.343,3.343,0,0,1-.521-1.852A3.717,3.717,0,0,1,380.2,58.81a6.136,6.136,0,0,1,3.923-1.193,6.769,6.769,0,0,1,4.2,1.207,3.753,3.753,0,0,1,1.577,3.141h-2.154a2.961,2.961,0,0,1-2.373-1.193,1.748,1.748,0,0,0-1.262-.412,1.622,1.622,0,0,0-1.083.37,1.117,1.117,0,0,0-.439.905,1.036,1.036,0,0,0,.535.905,5.174,5.174,0,0,0,1.715.562,16.486,16.486,0,0,1,2.071.535q2.963,1.043,2.963,3.717a3.537,3.537,0,0,1-1.591,2.99,7.954,7.954,0,0,1-7.174.521,5.059,5.059,0,0,1-2.071-1.673,3.874,3.874,0,0,1-.741-2.236h3.841a1.576,1.576,0,0,0,.6,1.344,2.492,2.492,0,0,0,1.495.425,1.977,1.977,0,0,0,1.262-.343,1.1,1.1,0,0,0,.425-.905.974.974,0,0,0-.548-.851" transform="translate(-278.981 -23.299)" fill="#fff"/>
    </g>
    <g id="Group_3" data-name="Group 3">
      <path id="Path_515" data-name="Path 515" d="M614.864,61.23a4.981,4.981,0,0,1,1.6-2.956,4.358,4.358,0,0,1,3-1.145l-2.318,10.356a4.7,4.7,0,0,1-1.563,2.579,4.092,4.092,0,0,1-2.7.988l-2.181-8.257-1.248,4.719q-1.33,3.539-4.4,3.539l-3.114-13.922a4.316,4.316,0,0,1,2.977,1.145A5,5,0,0,1,606.5,61.23l.672,4.293,2.1-8.395a3.469,3.469,0,0,1,2.249.8,4,4,0,0,1,1.344,2.119l1.331,5.281Z" transform="translate(-458.684 -22.906)" fill="#fff"/>
      <path id="Path_516" data-name="Path 516" d="M700.248,48.7a3.23,3.23,0,0,1-2.428-1.049,3.516,3.516,0,0,1-1-2.517V29.2h.247a3.644,3.644,0,0,1,2.737,1.187,4,4,0,0,1,1.131,2.86V48.7Z" transform="translate(-534.934 -0.463)" fill="#fff"/>
    </g>
    <g id="Group_1" data-name="Group 1">
      <path id="Path_517" data-name="Path 517" d="M477.226,26.166a10.059,10.059,0,0,1-3.647-4.908,11.527,11.527,0,0,0,2.5-5.693C477.118,8.661,473.693,1.1,464.07.017A13.632,13.632,0,0,0,453.613,4.4a4.23,4.23,0,0,1-4.384-1.933,4.092,4.092,0,0,0,2.263,4.912c-.123.223-.243.451-.36.688,0,0-.38,1.414.87-.054,0,0,1.522-1.033,2.283,1.631s1.033,6.415,2.283,5.763,1.9-4.947,1.9-4.947,1.522-6.9,8.7-5.926c0,0,.652.381-1.359.544a4.568,4.568,0,0,0-2.881,1.087s5.654-.815,6.633,2.664.652,11.851-7.5,14.678a5.558,5.558,0,0,0,3.805-1.033c1.577-1.3.6,2.61-8.589,1.9a12.047,12.047,0,0,0,7.557,1.74,14.945,14.945,0,0,0,5.28-1.912c1.535.964,4.442,2.456,7.115,1.966" transform="translate(-335.823 23)" fill="#9672fb"/>
      <path id="Path_518" data-name="Path 518" d="M506.969,51.591c0-1.546-.913-2.8-2.039-2.8s-2.039,1.253-2.039,2.8.913,2.8,2.039,2.8,2.039-1.254,2.039-2.8" transform="translate(-379.102 -16.206)" fill="#9672fb"/>
      <path id="Path_519" data-name="Path 519" d="M461.924,55.433c-.912,0-1.651,1.015-1.651,2.268s.739,2.268,1.651,2.268,1.652-1.016,1.652-2.268-.739-2.268-1.652-2.268" transform="translate(-344.856 -21.544)" fill="#9672fb"/>
    </g>
  </g>
</svg>
