<svg xmlns="http://www.w3.org/2000/svg" width="24" height="24" viewBox="0 0 24 24">
  <g id="logout" transform="translate(-1621 -241)">
    <rect id="Rectangle_25" data-name="Rectangle 25" width="24" height="24" transform="translate(1621 241)" fill="#fff" opacity="0"/>
    <path id="noun-arrow-63454" d="M89.409,9.7a9.7,9.7,0,1,0-9.7,9.7A9.706,9.706,0,0,0,89.409,9.7ZM78.816,14.227a1.157,1.157,0,0,1,0-1.637l1.694-1.673H76.028a1.175,1.175,0,0,1-1.175-1.175V9.667a1.175,1.175,0,0,1,1.175-1.175h4.466L78.816,6.833a1.157,1.157,0,0,1,0-1.637,1.18,1.18,0,0,1,1.654,0l3.734,3.7a1.156,1.156,0,0,1,0,1.636l-3.734,3.7a1.178,1.178,0,0,1-1.654,0Z" transform="translate(1553 243)" fill="#3a3a3a"/>
  </g>
</svg>
