<svg xmlns="http://www.w3.org/2000/svg" width="133" height="94.07" viewBox="0 0 133 94.07">
  <path id="mail" d="M133.375,117.6A13.191,13.191,0,0,0,120.4,130.93v67.36a13.235,13.235,0,0,0,12.976,13.381H240.423A13.236,13.236,0,0,0,253.4,198.29V130.93a13.191,13.191,0,0,0-12.976-13.33Zm0,6.487H240.423a6.368,6.368,0,0,1,2.686.658L190.9,174.316a5.433,5.433,0,0,1-7.907,0l-52.308-49.571a6.376,6.376,0,0,1,2.686-.658Zm-6.387,6.082,36.948,35.025-36.343,36.291a7.337,7.337,0,0,1-.709-3.193v-67.36a7.541,7.541,0,0,1,.1-.76Zm119.821,0a7.228,7.228,0,0,1,.1.76v67.36a7.316,7.316,0,0,1-.709,3.143l-36.239-36.291Zm-41.562,39.483,35.48,35.532H133.121l35.532-35.48,9.884,9.326a12.244,12.244,0,0,0,16.828,0Z" transform="translate(-120.399 -117.6)" fill="#9672fb"/>
</svg>
