<svg id="myrequest" xmlns="http://www.w3.org/2000/svg" width="24" height="24" viewBox="0 0 24 24">
  <rect id="Rectangle_25" data-name="Rectangle 25" width="24" height="24" fill="#fff" opacity="0"/>
  <path id="noun-request-4462576" d="M136.654,52.5H124.346a1.846,1.846,0,0,0-1.846,1.846V66.654a1.846,1.846,0,0,0,1.846,1.846h3.286c1.764-.654,1.945-2.3,1.945-4.308v-3.31l-.886.886a.923.923,0,1,1-1.306-1.306L129.847,58a.923.923,0,0,1,1.306,0l2.462,2.462a.923.923,0,1,1-1.306,1.306l-.886-.886v3.31a7.853,7.853,0,0,1-.948,4.308h6.178a1.846,1.846,0,0,0,1.846-1.846V54.346a1.846,1.846,0,0,0-1.846-1.846Z" transform="translate(-118.5 -48.5)" fill="#3a3a3a"/>
</svg>
