<svg xmlns="http://www.w3.org/2000/svg" width="162.69" height="102.102" viewBox="0 0 162.69 102.102">
  <g id="Group_6769" data-name="Group 6769" transform="translate(0)">
    <path id="Path_5739" data-name="Path 5739" d="M150.988,181.013H92.662a2.542,2.542,0,0,1,0-5.084h58.326a2.542,2.542,0,1,1,0,5.084Zm69.763,4.587a2.545,2.545,0,0,0,2.542-2.542v-12.9h6.493a8.806,8.806,0,0,0,8.8-8.8V116.771a8.806,8.806,0,0,0-8.8-8.8h-74.25a8.806,8.806,0,0,0-8.794,8.8v15.682H84.689a8.806,8.806,0,0,0-8.8,8.8v44.586a8.8,8.8,0,0,0,8.8,8.8h6.493v12.9a2.542,2.542,0,0,0,4.339,1.8l14.695-14.695h48.723a8.806,8.806,0,0,0,8.794-8.8V170.156h36.523l14.695,14.695a2.538,2.538,0,0,0,1.8.745Zm-53.017-20.525H205.31a2.543,2.543,0,0,1,1.8.743l11.1,11.1v-9.305a2.54,2.54,0,0,1,2.541-2.541h9.035a3.717,3.717,0,0,0,3.713-3.712V116.771a3.716,3.716,0,0,0-3.713-3.712h-74.25a3.716,3.716,0,0,0-3.721,3.712v15.682h7.118a8.808,8.808,0,0,1,8.8,8.8Zm-16.75,1.013H92.665a2.542,2.542,0,0,1,0-5.084H150.99a2.542,2.542,0,0,1,0,5.084Zm0-14.925H92.665a2.542,2.542,0,1,1,0-5.083H150.99a2.542,2.542,0,1,1,0,5.083Zm-66.3-13.622h0a3.716,3.716,0,0,0-3.712,3.713v44.586a3.714,3.714,0,0,0,3.712,3.712H93.72a2.543,2.543,0,0,1,2.547,2.539V201.4l11.1-11.1a2.543,2.543,0,0,1,1.8-.745H158.94a3.714,3.714,0,0,0,3.721-3.708V141.253a3.717,3.717,0,0,0-3.712-3.713Z" transform="translate(-75.893 -107.975)" fill="#433f4d" fill-rule="evenodd"/>
    <line id="Line_45" data-name="Line 45" x2="63" transform="translate(14.5 40.5)" fill="none" stroke="#9672fb" stroke-linecap="round" stroke-width="5.5"/>
    <line id="Line_46" data-name="Line 46" x2="63" transform="translate(14.5 55.5)" fill="none" stroke="#9672fb" stroke-linecap="round" stroke-width="5.5"/>
    <line id="Line_47" data-name="Line 47" x2="63" transform="translate(14.5 70.5)" fill="none" stroke="#9672fb" stroke-linecap="round" stroke-width="5.5"/>
  </g>
</svg>
