<svg xmlns="http://www.w3.org/2000/svg" width="244.901" height="250.488" viewBox="0 0 244.901 250.488">
  <g id="Designer_life-rafiki" data-name="Designer life-rafiki" transform="translate(-75.605 -69.276)">
    <g id="freepik--Character--inject-107" transform="translate(162.465 100.225)">
      <path id="Path_5908" data-name="Path 5908" d="M222.651,396.991l-5.581-1.559,2.137-13.341,5.581,1.567Z" transform="translate(-201.801 -187.205)" fill="#cf7a64"/>
      <path id="Path_5909" data-name="Path 5909" d="M275.734,402.871h-5.8l-.4-13.421h5.8Z" transform="translate(-216.391 -189.252)" fill="#cf7a64"/>
      <path id="Path_5910" data-name="Path 5910" d="M265.062,407.11h6.75a.484.484,0,0,1,.477.4l.931,5.155a.888.888,0,0,1-.888,1.025c-2.274-.036-3.61-.173-6.5-.173-1.762,0-7.082.188-9.515.188s-2.65-2.4-1.646-2.628c4.5-.975,7.941-2.317,9.385-3.61a1.444,1.444,0,0,1,1-.354Z" transform="translate(-212.1 -194.162)" fill="#263238"/>
      <path id="Path_5911" data-name="Path 5911" d="M212.194,399.539l6.151,1.5a.505.505,0,0,1,.383.505l-.108,5.27a.845.845,0,0,1-1.054.809c-2.209-.585-5.386-1.494-8.172-2.166-3.256-.8-3.371-.946-7.219-1.877-2.31-.563-2.382-3.061-1.364-3.032,4.642.108,5.523.52,9.905-.9A2.715,2.715,0,0,1,212.194,399.539Z" transform="translate(-197.106 -192.042)" fill="#263238"/>
      <path id="Path_5912" data-name="Path 5912" d="M242.643,166.3c-3.682,2.274-7.357,4.332-11.19,6.223-1.906.96-3.848,1.863-5.812,2.736-.982.44-1.985.859-2.989,1.263-.5.209-1.018.4-1.523.592l-.765.3a9.983,9.983,0,0,1-1.372.412,7.94,7.94,0,0,1-3.054.058,8.771,8.771,0,0,1-2.628-.953,12.367,12.367,0,0,1-3.371-2.888,26.033,26.033,0,0,1-3.646-6.18,55.047,55.047,0,0,1-3.653-12.62l4.195-1.133c.78,1.827,1.6,3.732,2.491,5.53s1.8,3.61,2.8,5.227a22.091,22.091,0,0,0,3.22,4.274,4.57,4.57,0,0,0,1.444,1.032.57.57,0,0,0,.325.051c.043,0,0-.036.058-.065a1.357,1.357,0,0,1,.116-.072l.679-.325c.448-.217.9-.426,1.35-.657l2.7-1.372q2.7-1.444,5.378-2.888c3.559-1.978,7.176-4.028,10.67-6.043Z" transform="translate(-197.789 -123.814)" fill="#cf7a64"/>
      <path id="Path_5913" data-name="Path 5913" d="M256.079,165.606c-2.224,5.054-12.194,7.66-12.194,7.66l-5.776-9.133a24.21,24.21,0,0,1,10.179-6.028C255.357,156.308,258.469,160.069,256.079,165.606Z" transform="translate(-207.651 -124.798)" fill="#9672fb"/>
      <path id="Path_5914" data-name="Path 5914" d="M252.68,166.98a10.244,10.244,0,0,0-6.62,8.837s7.819-2.029,11.147-6.014a4.05,4.05,0,0,0-4.527-2.823Z" transform="translate(-209.862 -127.377)" opacity="0.2"/>
      <path id="Path_5915" data-name="Path 5915" d="M203.657,156.509,199,153.715l2.931-4.895s5.5,1.588,4.527,5.7Z" transform="translate(-196.776 -122.343)" fill="#cf7a64"/>
      <path id="Path_5916" data-name="Path 5916" d="M195.92,149.124l.556-3.624,4.57,2.4-2.931,4.895Z" transform="translate(-195.92 -121.419)" fill="#cf7a64"/>
      <path id="Path_5917" data-name="Path 5917" d="M219.607,382.1l-1.1,6.873,5.581,1.567,1.1-6.88Z" transform="translate(-202.201 -187.208)" opacity="0.2"/>
      <path id="Path_5918" data-name="Path 5918" d="M275.337,389.46h-5.8l.209,6.916h5.8Z" transform="translate(-216.391 -189.254)" opacity="0.2"/>
      <path id="Path_5919" data-name="Path 5919" d="M282.909,164.862c-6.5,20.669-6.613,42.039-7.414,46.493-4.5-.592-21.471-2.888-30.719-4.1-1.841-28.748,4.75-44.934,6.541-48.731a1.7,1.7,0,0,1,1.379-.982c.845-.087,2.166-.209,3.776-.282.852-.036,1.769-.058,2.722-.051h1.6a113.109,113.109,0,0,1,13.06,1.747c.816.144,1.646.318,2.447.5s1.444.354,2.166.534,1.523.411,2.166.6a3.357,3.357,0,0,1,2.274,4.274Z" transform="translate(-209.416 -124.675)" fill="#9672fb"/>
      <path id="Path_5920" data-name="Path 5920" d="M264.736,193.294l-2.57-.274a1.09,1.09,0,0,0-1.141.967l-.072.469a1,1,0,0,0,.83,1.177l2.577.274a1.09,1.09,0,0,0,1.141-.967l.065-.462a1,1,0,0,0-.83-1.184Z" transform="translate(-213.998 -134.632)" fill="#fff"/>
      <path id="Path_5921" data-name="Path 5921" d="M267.111,183.209c-1.1-2.512-1.444-7.342-1.444-7.342l-.787-.087s-1.711,4.613-3.5,6.815a.9.9,0,0,0-.18.4l-.253,1.747a.722.722,0,0,0,.195.635,3.819,3.819,0,0,1,1.061,1.747.671.671,0,0,0,.563.592l.772.087.78.079a.722.722,0,0,0,.722-.455,4.187,4.187,0,0,1,1.523-1.444.823.823,0,0,0,.368-.57l.253-1.747A.78.78,0,0,0,267.111,183.209Z" transform="translate(-213.998 -129.839)" fill="#fff"/>
      <path id="Path_5922" data-name="Path 5922" d="M272.977,173.06a.491.491,0,0,0-.469.274l-8.476-.874.051-.318-.917-.094-.043.31-8.476-.939a.44.44,0,0,0-.375-.361.513.513,0,0,0-.534.448.469.469,0,0,0,.39.549.484.484,0,0,0,.462-.267l6.7.722a8.663,8.663,0,0,0-6.36,6.808h-.31l-.144.989.9.094.144-1h-.26a7.988,7.988,0,0,1,7.8-6.627l-.043.289.917.094.036-.289c3.61.635,6.021,4.1,5.674,8.071H269.4l-.144,1,.91.094.144-1-.339-.036a7.862,7.862,0,0,0-4.231-7.941l6.736.722a.448.448,0,0,0,.375.354.5.5,0,0,0,.527-.448.462.462,0,0,0-.4-.628Z" transform="translate(-211.994 -128.526)" fill="#fff"/>
      <path id="Path_5923" data-name="Path 5923" d="M293.531,175.311c-.881,3.371-1.617,6.721-2.216,9.97-3.87-2.837-2.888-10.2-2.888-10.2Z" transform="translate(-221.611 -129.644)" opacity="0.2"/>
      <path id="Path_5924" data-name="Path 5924" d="M280.168,139.19c-1.386,4.093-3.242,11.681-.671,14.879-2.592,1.964-5.927,4.187-10.937,3.7s-3.682-3.8-2.122-5.436c4.837-.5,5.176-3.985,4.8-7.364Z" transform="translate(-215.135 -119.665)" fill="#cf7a64"/>
      <path id="Path_5925" data-name="Path 5925" d="M278.965,142.46l-5.285,3.415a13.1,13.1,0,0,1,.094,2.368c1.827,0,4.548-1.653,4.989-3.5A6.412,6.412,0,0,0,278.965,142.46Z" transform="translate(-217.542 -120.574)" opacity="0.2"/>
      <path id="Path_5926" data-name="Path 5926" d="M270.523,117.926c-2.888,1.884-2.115,9.717,0,10.3S275.4,114.706,270.523,117.926Z" transform="translate(-216.139 -113.619)" fill="#263238"/>
      <path id="Path_5927" data-name="Path 5927" d="M283.47,128.393c-2.058,5.371-3,8.613-6.642,10.555-5.494,2.888-11.464-1.718-11.046-7.595.375-5.292,3.682-13.183,9.725-13.674a7.847,7.847,0,0,1,7.963,10.714Z" transform="translate(-215.34 -113.676)" fill="#cf7a64"/>
      <path id="Path_5928" data-name="Path 5928" d="M281.643,130.977c-2.267.859-4.981.065-3.978-1.1,2.281-2.664,1.523-5.689,4.57-6.5-2.447,0-4.216-.946-7.255-3.718-2.469-2.252-7.436.809-8.223-3.068a4.043,4.043,0,0,0-2.086-2.787,2.664,2.664,0,0,1,3.61.9c.657,1,2.585-1.263,4.779-2.079,2.512-.924,4.895-.527,6.317,1.3,1.863,2.375,4.137,4.144,6.44,3.906,3.22-.332,5.443,1.985,3.364,4.49C292.551,124.732,286.942,131.468,281.643,130.977Z" transform="translate(-215.036 -112.145)" fill="#263238"/>
      <path id="Path_5929" data-name="Path 5929" d="M297.22,124.821s4.772.2,3.328-3.971C301.956,123.377,302.317,125.579,297.22,124.821Z" transform="translate(-224.087 -114.565)" fill="#263238"/>
      <path id="Path_5930" data-name="Path 5930" d="M289.284,138.744a5.053,5.053,0,0,1-3.422,1.711c-1.725.108-2.166-1.567-1.314-3.032.722-1.328,2.556-2.974,4.108-2.39S290.367,137.5,289.284,138.744Z" transform="translate(-220.446 -118.475)" fill="#cf7a64"/>
      <path id="Path_5931" data-name="Path 5931" d="M216.11,343.818l9.45,2.65s7.977-34,10.829-51.843c.859-5.422,3.566-12.432,5.891-20.453,2.938-10.107,6.5-21.008,9.385-29.535,3.061-8.981,5.321-15.442,5.321-15.442l-20.092-2.686s-12.923,44.674-14.836,62.26C220.081,307.05,216.11,343.818,216.11,343.818Z" transform="translate(-201.534 -143.945)" fill="#263238"/>
      <path id="Path_5932" data-name="Path 5932" d="M252.308,279.376c2.938-10.107,6.5-21.009,9.385-29.535l-1.819-4.671C254.5,250.823,251.969,269.254,252.308,279.376Z" transform="translate(-211.591 -149.133)" opacity="0.2"/>
      <path id="Path_5933" data-name="Path 5933" d="M258.16,228.31s.318,49.922,1.7,66.845c1.516,18.532,4.065,55.07,4.065,55.07h10.613s.881-33.707.4-51.835c-.549-20.64,4.368-67.263,4.368-67.263Z" transform="translate(-213.226 -144.445)" fill="#263238"/>
      <path id="Path_5934" data-name="Path 5934" d="M264.9,395.971h12.5l.433-3.732L263.88,392Z" transform="translate(-214.817 -189.961)" fill="#9672fb"/>
      <path id="Path_5935" data-name="Path 5935" d="M214.283,387.252l11.262,3.155,1.018-3.639L214.03,383.05Z" transform="translate(-200.956 -187.472)" fill="#9672fb"/>
      <path id="Path_5936" data-name="Path 5936" d="M277.691,130.619c-.144.44-.491.722-.78.635s-.419-.527-.274-.967.491-.722.78-.643S277.828,130.194,277.691,130.619Z" transform="translate(-218.348 -117.007)" fill="#263238"/>
      <path id="Path_5937" data-name="Path 5937" d="M270.711,128.449c-.144.448-.491.722-.78.643s-.419-.534-.274-.975.491-.722.78-.643S270.848,128,270.711,128.449Z" transform="translate(-216.407 -116.404)" fill="#263238"/>
      <path id="Path_5938" data-name="Path 5938" d="M271.978,129.83a16.763,16.763,0,0,1-3.328,3.148,2.693,2.693,0,0,0,2,1.068Z" transform="translate(-216.143 -117.062)" fill="#ba4d3c"/>
      <path id="Path_5939" data-name="Path 5939" d="M273.244,137.789a3.862,3.862,0,0,0,2.974-.664.139.139,0,0,0-.173-.217,3.7,3.7,0,0,1-3.314.476.137.137,0,0,0-.173.087.144.144,0,0,0,.094.173A3.72,3.72,0,0,0,273.244,137.789Z" transform="translate(-217.229 -119.022)" fill="#263238"/>
      <path id="Path_5940" data-name="Path 5940" d="M280.776,128.388a.224.224,0,0,0,.137,0,.267.267,0,0,0,.166-.347,2.729,2.729,0,0,0-1.79-1.754.275.275,0,0,0-.13.534h0a2.166,2.166,0,0,1,1.408,1.4.267.267,0,0,0,.209.166Z" transform="translate(-219.007 -116.075)" fill="#263238"/>
      <path id="Path_5941" data-name="Path 5941" d="M268.8,124.956a.289.289,0,0,0,.245-.079,2.166,2.166,0,0,1,1.848-.722.275.275,0,1,0,.094-.541,2.736,2.736,0,0,0-2.339.881.274.274,0,0,0,0,.39.3.3,0,0,0,.152.072Z" transform="translate(-216.12 -115.329)" fill="#263238"/>
      <path id="Path_5942" data-name="Path 5942" d="M266.043,407.953a7.119,7.119,0,0,0,1.523-.209.137.137,0,0,0,.108-.116.123.123,0,0,0-.058-.137c-.2-.13-2.029-1.278-2.678-.953a.469.469,0,0,0-.253.39.809.809,0,0,0,.253.722,1.725,1.725,0,0,0,1.1.3Zm1.133-.4a2.764,2.764,0,0,1-2.05-.108.52.52,0,0,1-.166-.491.181.181,0,0,1,.094-.166c.339-.173,1.386.325,2.123.794Z" transform="translate(-215.038 -193.987)" fill="#9672fb"/>
      <path id="Path_5943" data-name="Path 5943" d="M268.017,407.229a.137.137,0,0,0,.072,0,.152.152,0,0,0,.072-.123c0-.072-.072-1.747-.722-2.3a.722.722,0,0,0-.578-.173h0a.469.469,0,0,0-.448.354c-.152.65.96,1.92,1.545,2.245Zm-1.076-2.332a.433.433,0,0,1,.31.123,3.162,3.162,0,0,1,.614,1.812c-.578-.455-1.278-1.444-1.191-1.79,0-.036,0-.123.209-.144Z" transform="translate(-215.518 -193.473)" fill="#9672fb"/>
      <path id="Path_5944" data-name="Path 5944" d="M214.547,399.7a.144.144,0,0,0,.116-.087.137.137,0,0,0,0-.152c-.224-.195-2.209-1.9-2.982-1.682a.44.44,0,0,0-.31.3h0a.765.765,0,0,0,.094.722c.484.722,2.166.873,3.1.91Zm-2.779-1.668a5.616,5.616,0,0,1,2.361,1.372,3.7,3.7,0,0,1-2.476-.772.5.5,0,0,1-.058-.462.152.152,0,0,1,.123-.123Z" transform="translate(-200.202 -191.563)" fill="#9672fb"/>
      <path id="Path_5945" data-name="Path 5945" d="M215.2,399.329h.036a.13.13,0,0,0,.087-.108,3.963,3.963,0,0,0-.347-2.382,1.025,1.025,0,0,0-.679-.412h0c-.375-.051-.527.108-.592.253-.253.614.794,2.166,1.4,2.628a.115.115,0,0,0,.094.022Zm-1.083-2.642h.144a.722.722,0,0,1,.5.3,3.213,3.213,0,0,1,.318,1.913c-.592-.585-1.271-1.762-1.119-2.13A.173.173,0,0,1,214.117,396.686ZM214.275,396.556Z" transform="translate(-200.855 -191.189)" fill="#9672fb"/>
      <path id="Path_5946" data-name="Path 5946" d="M297.8,177.82c.96,3.09,1.711,6.137,2.382,9.284.318,1.574.635,3.155.866,4.794a38.613,38.613,0,0,1,.484,5.169c0,.484,0,1-.036,1.559a6.073,6.073,0,0,1-.116.96,8.816,8.816,0,0,1-.274,1.126,8.093,8.093,0,0,1-2.361,3.545,13.081,13.081,0,0,1-5.6,2.765,25.426,25.426,0,0,1-5.184.722,29.651,29.651,0,0,1-5.054-.209l-.094-4.332a43.379,43.379,0,0,0,8.144-2.556,7,7,0,0,0,2.505-1.74c.166-.253.13-.368.094-.375h0v-.2a3.5,3.5,0,0,0-.065-.78c-.152-1.206-.426-2.664-.722-4.079s-.671-2.888-1.047-4.332l-2.3-8.808Z" transform="translate(-220.083 -130.406)" fill="#cf7a64"/>
      <path id="Path_5947" data-name="Path 5947" d="M293.438,162.363c2.931,1.747,6.238,12.179,6.238,12.179l-9.3,4.685s-1.906-4.685-3.278-8.526C284.457,163.352,287.677,158.919,293.438,162.363Z" transform="translate(-221.013 -125.778)" fill="#9672fb"/>
      <path id="Path_5948" data-name="Path 5948" d="M283.006,212.982,277.7,212l.5,4.895s5.3,1.5,5.487-1.22Z" transform="translate(-218.66 -139.91)" fill="#cf7a64"/>
      <path id="Path_5949" data-name="Path 5949" d="M271.5,214.339l2.209,3.559,2.765-1-.5-4.895Z" transform="translate(-216.936 -139.91)" fill="#cf7a64"/>
    </g>
    <g id="freepik--Icons--inject-107" transform="translate(75.605 69.276)">
      <g id="Group_6802" data-name="Group 6802" transform="translate(19.07 12.385)" opacity="0.3">
        <path id="Path_5950" data-name="Path 5950" d="M102.381,207.927h-.065a.354.354,0,0,1-.289-.419c.159-.837.325-1.66.505-2.491a.369.369,0,0,1,.722.152q-.26,1.235-.5,2.469A.361.361,0,0,1,102.381,207.927Z" transform="translate(-102.02 -119.323)" fill="#9672fb"/>
        <path id="Path_5951" data-name="Path 5951" d="M104.722,167.6h-.087a.361.361,0,0,1-.26-.44c.433-1.646.917-3.3,1.444-4.924a.377.377,0,1,1,.722.217c-.513,1.61-.989,3.256-1.444,4.895A.361.361,0,0,1,104.722,167.6Zm3.09-9.739a.282.282,0,0,1-.13,0,.354.354,0,0,1-.209-.462c.585-1.6,1.22-3.2,1.891-4.765a.354.354,0,0,1,.469-.188.361.361,0,0,1,.195.469c-.664,1.559-1.292,3.155-1.884,4.736a.354.354,0,0,1-.332.209Zm3.985-9.385a.3.3,0,0,1-.152-.036.347.347,0,0,1-.166-.476c.722-1.531,1.516-3.068,2.332-4.563a.359.359,0,1,1,.628.347c-.8,1.48-1.581,3-2.31,4.527a.368.368,0,0,1-.332.18ZM300.47,136.424a.368.368,0,0,1-.3-.166c-.917-1.444-1.884-2.823-2.888-4.194a.354.354,0,0,1,.087-.5.368.368,0,0,1,.505.079c.989,1.379,1.964,2.794,2.888,4.223a.361.361,0,0,1-.108.5A.383.383,0,0,1,300.47,136.424Zm-164.523-20.59a.375.375,0,0,1-.26-.116.361.361,0,0,1,0-.513c1.249-1.148,2.541-2.289,3.841-3.386a.361.361,0,1,1,.462.556c-1.292,1.083-2.57,2.216-3.812,3.357A.346.346,0,0,1,135.946,115.835Zm7.8-6.562a.361.361,0,0,1-.217-.65c1.35-1.04,2.743-2.05,4.137-3.01a.361.361,0,1,1,.4.592c-1.379.96-2.758,1.964-4.108,2.989A.346.346,0,0,1,143.75,109.272Zm8.382-5.776a.361.361,0,0,1-.31-.173.368.368,0,0,1,.115-.5c1.444-.9,2.924-1.776,4.4-2.606a.361.361,0,1,1,.354.628c-1.444.83-2.946,1.7-4.375,2.592a.361.361,0,0,1-.188.007Zm111.656-1.863a.325.325,0,0,1-.181-.051c-1.444-.845-2.96-1.668-4.462-2.44a.368.368,0,0,1-.152-.491.361.361,0,0,1,.484-.152c1.509.78,3.025,1.61,4.49,2.462a.361.361,0,0,1-.18.671Zm-9.06-4.685a.39.39,0,0,1-.152,0c-1.53-.722-3.1-1.379-4.671-2.014a.361.361,0,0,1-.2-.469.368.368,0,0,1,.477-.2c1.574.643,3.155,1.321,4.7,2.029a.361.361,0,0,1,.173.484A.354.354,0,0,1,254.727,96.949Zm-9.465-3.819a.325.325,0,0,1-.115,0c-1.588-.556-3.22-1.083-4.844-1.567a.354.354,0,0,1-.245-.448.368.368,0,0,1,.448-.245c1.639.491,3.278,1.018,4.88,1.581a.366.366,0,1,1-.123.722Zm-9.79-2.888h-.087c-1.632-.4-3.307-.772-4.967-1.1a.361.361,0,0,1-.282-.426.354.354,0,0,1,.419-.282c1.675.325,3.357.722,5,1.1a.354.354,0,0,1,.267.433.361.361,0,0,1-.332.209Zm-45.555-1.364a.362.362,0,0,1-.065-.722c1.668-.3,3.364-.578,5.054-.8a.347.347,0,0,1,.4.31.361.361,0,0,1-.3.4c-1.682.224-3.371.491-5.054.794Zm35.541-.6h-.072c-1.66-.245-3.357-.455-5.054-.628a.363.363,0,1,1,.072-.722c1.7.166,3.408.375,5.054.628a.361.361,0,0,1,.3.4.368.368,0,0,1-.3.26Zm-25.434-.722a.361.361,0,1,1,0-.722c1.682-.144,3.4-.253,5.1-.318a.375.375,0,0,1,.375.347.368.368,0,0,1-.347.375c-1.7.065-3.4.173-5.054.318Zm15.291-.253h0c-1.682-.094-3.393-.144-5.054-.152a.361.361,0,0,1,0-.722h0c1.7,0,3.415.058,5.111.152a.361.361,0,0,1,.347.375.368.368,0,0,1-.4.253Z" transform="translate(-102.672 -86.43)" fill="#9672fb"/>
        <path id="Path_5952" data-name="Path 5952" d="M380.8,163.655a.361.361,0,0,1-.318-.18c-.4-.722-.823-1.444-1.249-2.166a.364.364,0,1,1,.628-.368c.426.722.845,1.444,1.249,2.2a.354.354,0,0,1-.137.491A.383.383,0,0,1,380.8,163.655Z" transform="translate(-179.087 -107.098)" fill="#9672fb"/>
      </g>
      <path id="Path_5953" data-name="Path 5953" d="M190.731,92.992c.563.585,1.112,1.754,1.444,4.007-1.776-.722-3.61-2.772-3.675-3.913,0-.267.051-.635.787-.686h.137a1.762,1.762,0,0,1,1.307.592Z" transform="translate(-106.996 -75.705)" fill="#9672fb"/>
      <path id="Path_5954" data-name="Path 5954" d="M197.105,95.465a5.054,5.054,0,0,1-.57-1.776c-.267-2,.354-3.963.643-4.079,0,0,.339.209.433,2.209a7.638,7.638,0,0,1-.505,3.646Z" transform="translate(-109.212 -74.93)" fill="#9672fb"/>
      <path id="Path_5955" data-name="Path 5955" d="M199.295,113.341H193.75v-.18a67.146,67.146,0,0,0,.476-13.616,2.65,2.65,0,0,0,.671.043,2.086,2.086,0,0,0,1.444-.628,3.205,3.205,0,0,0,2.209.989,3.7,3.7,0,0,0,.722,0C198.305,104.62,198.1,110.655,199.295,113.341Z" transform="translate(-108.456 -77.53)" fill="#9672fb"/>
      <path id="Path_5956" data-name="Path 5956" d="M204.915,94.778a3.566,3.566,0,0,1-2.585,2.794,14.966,14.966,0,0,1,1.444-4.1c.346-.6.635-.8.8-.8h.065C204.915,92.793,205.167,93.674,204.915,94.778Z" transform="translate(-110.842 -75.781)" fill="#9672fb"/>
      <path id="Path_5957" data-name="Path 5957" d="M206.56,83.248a21.521,21.521,0,0,1-4.014,11.818,21.312,21.312,0,0,0-3.48,8.165,2.325,2.325,0,0,1-2.3,1.848h-1.263c-1.271-2.426-1.04-8.728-.058-13.457a4.072,4.072,0,0,0,3.234-3.234c.282-1.292,0-2.455-.614-2.715-.339-.13-.881-.065-1.516,1.011A15.919,15.919,0,0,0,195,91.146a3.951,3.951,0,0,1-.78,0,2.678,2.678,0,0,1-1.906-.881,7.294,7.294,0,0,0,.722-4.151c-.087-1.848-.383-2.707-.946-2.707-.8,0-1.22,2.014-1.249,3.364a5.949,5.949,0,0,0,.83,3.494,1.61,1.61,0,0,1-1.126.52,3,3,0,0,1-.722-.065c-.282-2.2-.823-3.725-1.61-4.548a2.289,2.289,0,0,0-1.877-.722c-1.213.079-1.3.9-1.278,1.242.087,1.4,2.166,3.79,4.281,4.469a65.4,65.4,0,0,1-.455,13.717v.238h-1.068a2.325,2.325,0,0,1-2.3-1.848,21.3,21.3,0,0,0-3.516-8.2,21.521,21.521,0,0,1-4-11.818,14.294,14.294,0,0,1,28.582,0Z" transform="translate(-104.077 -69.276)" fill="#9672fb"/>
      <rect id="Rectangle_3305" data-name="Rectangle 3305" width="10.021" height="2.808" rx="0.8" transform="translate(83.179 36.635)" fill="#9672fb" opacity="0.6"/>
      <rect id="Rectangle_3306" data-name="Rectangle 3306" width="10.021" height="2.808" rx="0.8" transform="translate(83.179 40.396)" fill="#9672fb" opacity="0.3"/>
      <rect id="Rectangle_3307" data-name="Rectangle 3307" width="31.542" height="27.001" rx="3.83" transform="translate(183.251 26.722) rotate(7.21)" fill="#9672fb"/>
      <rect id="Rectangle_3308" data-name="Rectangle 3308" width="31.542" height="27.001" rx="3.83" transform="translate(183.742 26.346) rotate(7.21)" fill="#fff" opacity="0.8"/>
      <path id="Path_5958" data-name="Path 5958" d="M358.383,109.522l-25.809-3.27a2.765,2.765,0,0,0-3.09,2.4l-.375,2.967a.722.722,0,0,0,.614.794l29.888,3.783a.722.722,0,0,0,.794-.614l.375-2.967a2.765,2.765,0,0,0-2.4-3.09Z" transform="translate(-146.092 -79.551)" fill="#9672fb"/>
      <rect id="Rectangle_3309" data-name="Rectangle 3309" width="3.826" height="3.826" transform="translate(190.672 36.377) rotate(7.21)" fill="#9672fb" opacity="0.6"/>
      <rect id="Rectangle_3310" data-name="Rectangle 3310" width="3.821" height="3.821" transform="translate(195.221 38.013) rotate(7.481)" fill="#9672fb" opacity="0.6"/>
      <rect id="Rectangle_3311" data-name="Rectangle 3311" width="3.826" height="3.826" transform="translate(201.595 37.758) rotate(7.21)" fill="#9672fb" opacity="0.6"/>
      <rect id="Rectangle_3312" data-name="Rectangle 3312" width="3.826" height="3.826" transform="translate(207.06 38.453) rotate(7.21)" fill="#9672fb" opacity="0.6"/>
      <rect id="Rectangle_3313" data-name="Rectangle 3313" width="3.826" height="3.826" transform="translate(184.551 40.9) rotate(7.21)" fill="#9672fb" opacity="0.6"/>
      <rect id="Rectangle_3314" data-name="Rectangle 3314" width="3.826" height="3.826" transform="translate(190.016 41.595) rotate(7.21)" fill="#9672fb" opacity="0.6"/>
      <rect id="Rectangle_3315" data-name="Rectangle 3315" width="3.826" height="3.826" transform="translate(195.473 42.282) rotate(7.21)" fill="#9672fb" opacity="0.6"/>
      <rect id="Rectangle_3316" data-name="Rectangle 3316" width="3.826" height="3.826" transform="translate(200.939 42.97) rotate(7.21)" fill="#9672fb" opacity="0.6"/>
      <rect id="Rectangle_3317" data-name="Rectangle 3317" width="3.826" height="3.826" transform="translate(206.404 43.665) rotate(7.21)" fill="#9672fb" opacity="0.6"/>
      <rect id="Rectangle_3318" data-name="Rectangle 3318" width="3.821" height="3.821" transform="translate(182.964 46.98) rotate(7.481)" fill="#9672fb" opacity="0.6"/>
      <rect id="Rectangle_3319" data-name="Rectangle 3319" width="3.826" height="3.826" transform="translate(189.352 46.806) rotate(7.21)" fill="#9672fb" opacity="0.6"/>
      <rect id="Rectangle_3320" data-name="Rectangle 3320" width="3.826" height="3.826" transform="translate(194.81 47.501) rotate(7.21)" fill="#9672fb" opacity="0.6"/>
      <path id="Path_5959" data-name="Path 5959" d="M366.881,113.44h0a.866.866,0,0,1-.722-.917l.181-2.4a.765.765,0,0,1,.874-.722h0a.873.873,0,0,1,.722.917l-.18,2.4a.773.773,0,0,1-.874.722Z" transform="translate(-156.395 -80.429)" fill="#fff"/>
      <path id="Path_5960" data-name="Path 5960" d="M360.861,112.66h0a.873.873,0,0,1-.722-.917l.18-2.4a.772.772,0,0,1,.874-.722h0a.866.866,0,0,1,.722.917l-.18,2.4a.773.773,0,0,1-.874.722Z" transform="translate(-154.721 -80.213)" fill="#fff"/>
      <path id="Path_5961" data-name="Path 5961" d="M354.837,111.9h0a.881.881,0,0,1-.758-.924l.18-2.4a.78.78,0,0,1,.874-.722h0a.888.888,0,0,1,.722.924l-.181,2.4a.78.78,0,0,1-.837.722Z" transform="translate(-153.036 -79.999)" fill="#fff"/>
      <path id="Path_5962" data-name="Path 5962" d="M348.831,111.137h0a.874.874,0,0,1-.722-.924l.18-2.4a.773.773,0,0,1,.874-.722h0a.874.874,0,0,1,.722.924l-.18,2.4a.772.772,0,0,1-.874.722Z" transform="translate(-151.376 -79.788)" fill="#fff"/>
      <path id="Path_5963" data-name="Path 5963" d="M342.811,110.377h0a.874.874,0,0,1-.722-.924l.181-2.4a.772.772,0,0,1,.874-.722h0a.874.874,0,0,1,.722.924l-.18,2.447a.773.773,0,0,1-.874.679Z" transform="translate(-149.702 -79.576)" fill="#fff"/>
      <path id="Path_5964" data-name="Path 5964" d="M336.779,109.618h0a.888.888,0,0,1-.78-.924l.18-2.4a.78.78,0,0,1,.874-.722h0a.881.881,0,0,1,.758.924l-.181,2.4a.78.78,0,0,1-.852.729Z" transform="translate(-148.009 -79.365)" fill="#fff"/>
      <path id="Path_5965" data-name="Path 5965" d="M403.93,226.327,401.75,226l.13-.874,1.307.2.2-1.314.874.137Z" transform="translate(-166.292 -112.301)" fill="#9672fb"/>
      <path id="Path_5966" data-name="Path 5966" d="M388.564,224.413l-3.227-.491.137-.874,3.227.5Zm-6.454-.982-3.234-.5.137-.874,3.227.5Zm-6.461-.989-3.227-.5.13-.866,3.227.491Zm-6.461-.967-3.227-.5.13-.866,3.234.491Z" transform="translate(-156.34 -111.216)" fill="#9672fb"/>
      <path id="Path_5967" data-name="Path 5967" d="M360.647,219.632l-2.187-.332.339-2.18.866.13-.195,1.314,1.307.195Z" transform="translate(-154.255 -110.385)" fill="#9672fb"/>
      <path id="Path_5968" data-name="Path 5968" d="M360.484,204.057l-.874-.137.5-3.227.866.137Zm.989-6.5-.859-.094.491-3.234.874.137Zm.989-6.461-.874-.13.491-3.227.874.13Zm.982-6.454-.866-.137.491-3.227.874.13Z" transform="translate(-154.575 -100.419)" fill="#9672fb"/>
      <path id="Path_5969" data-name="Path 5969" d="M365.956,176.15l-.866-.137.332-2.173,2.18.332-.137.874-1.307-.2Z" transform="translate(-156.098 -98.35)" fill="#9672fb"/>
      <path id="Path_5970" data-name="Path 5970" d="M395.464,179.332l-3.227-.491.13-.874,3.234.491ZM389,178.343l-3.227-.491.137-.874,3.227.491Zm-6.454-.989-3.234-.491.137-.874,3.227.5Zm-6.461-.982-3.227-.5.1-.874,3.227.5Z" transform="translate(-158.259 -98.673)" fill="#9672fb"/>
      <path id="Path_5971" data-name="Path 5971" d="M410.625,182.972l-.874-.137.2-1.307-1.314-.2.137-.866,2.18.332Z" transform="translate(-168.208 -100.191)" fill="#9672fb"/>
      <path id="Path_5972" data-name="Path 5972" d="M405.576,210.971l-.866-.137.491-3.227.874.13Zm.989-6.461-.874-.137.5-3.227.874.137Zm.989-6.461-.874-.13.5-3.234.866.137Zm.989-6.454-.874-.137.5-3.227.866.13Z" transform="translate(-167.115 -102.352)" fill="#9672fb"/>
      <rect id="Rectangle_3321" data-name="Rectangle 3321" width="3.725" height="3.725" transform="translate(208.116 73.88) rotate(8.7)" fill="#fff"/>
      <path id="Path_5973" data-name="Path 5973" d="M366.975,176.14l-4.555-.722.722-4.548,4.555.722Zm-3.545-1.444,2.808.433.426-2.816-2.808-.426Z" transform="translate(-155.356 -97.525)" fill="#9672fb"/>
      <rect id="Rectangle_3322" data-name="Rectangle 3322" width="3.725" height="3.725" transform="translate(240.674 78.862) rotate(8.7)" fill="#fff"/>
      <path id="Path_5974" data-name="Path 5974" d="M412.068,183.037l-4.548-.722.722-4.555,4.555.722Zm-3.545-1.444,2.808.426.433-2.808-2.816-.426Z" transform="translate(-167.896 -99.44)" fill="#9672fb"/>
      <rect id="Rectangle_3323" data-name="Rectangle 3323" width="3.725" height="3.725" transform="translate(203.133 106.438) rotate(8.7)" fill="#fff"/>
      <path id="Path_5975" data-name="Path 5975" d="M360.078,221.227l-4.548-.722.722-4.555,4.555.722Zm-3.545-1.444,2.808.433.433-2.808-2.816-.433Z" transform="translate(-153.44 -110.059)" fill="#9672fb"/>
      <rect id="Rectangle_3324" data-name="Rectangle 3324" width="3.725" height="3.725" transform="translate(235.699 111.414) rotate(8.7)" fill="#fff"/>
      <path id="Path_5976" data-name="Path 5976" d="M405.175,228.127l-4.555-.722.722-4.555,4.555.722Zm-3.552-1.444,2.808.433.433-2.808-2.808-.433Z" transform="translate(-165.978 -111.978)" fill="#9672fb"/>
      <rect id="Rectangle_3325" data-name="Rectangle 3325" width="3.725" height="3.725" transform="translate(205.632 90.159) rotate(8.7)" fill="#9672fb"/>
      <rect id="Rectangle_3326" data-name="Rectangle 3326" width="3.725" height="3.725" transform="translate(238.175 95.148) rotate(8.7)" fill="#9672fb"/>
      <rect id="Rectangle_3327" data-name="Rectangle 3327" width="3.725" height="3.725" transform="translate(228.071 76.909) rotate(98.7)" fill="#9672fb"/>
      <rect id="Rectangle_3328" data-name="Rectangle 3328" width="3.725" height="3.725" transform="translate(223.092 109.459) rotate(98.7)" fill="#9672fb"/>
      <path id="Path_5977" data-name="Path 5977" d="M381.135,194.31l-8.772,6.447a3.5,3.5,0,0,0-1.148,4.209l-.772.563a.811.811,0,1,0,.96,1.307l.772-.563a3.5,3.5,0,0,0,4.332.159l8.779-6.447Z" transform="translate(-157.495 -104.042)" fill="#9672fb"/>
      <path id="Path_5978" data-name="Path 5978" d="M381.135,194.31l-8.772,6.447a3.5,3.5,0,0,0-1.148,4.209l-.772.563a.811.811,0,1,0,.96,1.307l.772-.563a3.5,3.5,0,0,0,4.332.159l8.779-6.447Z" transform="translate(-157.495 -104.042)" fill="#fff" opacity="0.6"/>
      <path id="Path_5979" data-name="Path 5979" d="M390.668,197.719l-.26-.354,3.451-2.527a3.525,3.525,0,1,0-4.173-5.682l-3.444,2.534-.26-.347a1.35,1.35,0,0,0-2.166,1.6l4.678,6.375a1.357,1.357,0,0,0,2.166-1.6Z" transform="translate(-161.246 -102.419)" fill="#9672fb"/>
      <path id="Path_5980" data-name="Path 5980" d="M130.926,161.738h0a3.769,3.769,0,0,1-5.277.722L97.76,141.451l4.541-6.021,27.881,21.03a3.761,3.761,0,0,1,.744,5.277Z" transform="translate(-81.765 -87.67)" fill="#9672fb"/>
      <path id="Path_5981" data-name="Path 5981" d="M130.926,161.738h0a3.769,3.769,0,0,1-5.277.722L97.76,141.451l4.541-6.021,27.881,21.03a3.761,3.761,0,0,1,.744,5.277Z" transform="translate(-81.765 -87.67)" fill="#fff" opacity="0.8"/>
      <rect id="Rectangle_3329" data-name="Rectangle 3329" width="7.537" height="5.371" transform="matrix(0.602, -0.798, 0.798, 0.602, 17.581, 54.974)" fill="#9672fb"/>
      <rect id="Rectangle_3330" data-name="Rectangle 3330" width="7.537" height="5.371" transform="matrix(0.602, -0.798, 0.798, 0.602, 17.581, 54.974)" fill="#fff" opacity="0.3"/>
      <rect id="Rectangle_3331" data-name="Rectangle 3331" width="7.537" height="5.371" transform="matrix(0.602, -0.798, 0.798, 0.602, 22.48, 58.671)" fill="#9672fb" opacity="0.8"/>
      <rect id="Rectangle_3332" data-name="Rectangle 3332" width="7.537" height="5.371" transform="matrix(0.602, -0.798, 0.798, 0.602, 22.48, 58.671)" fill="#fff" opacity="0.3"/>
      <rect id="Rectangle_3333" data-name="Rectangle 3333" width="7.537" height="5.371" transform="matrix(0.602, -0.798, 0.798, 0.602, 27.379, 62.368)" fill="#9672fb" opacity="0.6"/>
      <rect id="Rectangle_3334" data-name="Rectangle 3334" width="7.537" height="5.371" transform="matrix(0.602, -0.798, 0.798, 0.602, 27.379, 62.368)" fill="#fff" opacity="0.3"/>
      <rect id="Rectangle_3335" data-name="Rectangle 3335" width="7.537" height="5.371" transform="matrix(0.602, -0.798, 0.798, 0.602, 32.286, 66.058)" fill="#9672fb" opacity="0.4"/>
      <rect id="Rectangle_3336" data-name="Rectangle 3336" width="7.537" height="5.371" transform="matrix(0.602, -0.798, 0.798, 0.602, 32.286, 66.058)" fill="#fff" opacity="0.3"/>
      <path id="Path_5982" data-name="Path 5982" d="M133.358,151.429h0a3.769,3.769,0,0,1-5.212-1.1l-19.016-29.3,6.324-4.1,19.016,29.3A3.769,3.769,0,0,1,133.358,151.429Z" transform="translate(-84.927 -82.523)" fill="#9672fb"/>
      <path id="Path_5983" data-name="Path 5983" d="M133.358,151.429h0a3.769,3.769,0,0,1-5.212-1.1l-19.016-29.3,6.324-4.1,19.016,29.3A3.769,3.769,0,0,1,133.358,151.429Z" transform="translate(-84.927 -82.523)" fill="#fff" opacity="0.7"/>
      <rect id="Rectangle_3337" data-name="Rectangle 3337" width="7.537" height="5.371" transform="matrix(0.839, -0.544, 0.544, 0.839, 25.283, 40.167)" fill="#9672fb"/>
      <rect id="Rectangle_3338" data-name="Rectangle 3338" width="7.537" height="5.371" transform="matrix(0.839, -0.544, 0.544, 0.839, 28.622, 45.315)" fill="#9672fb" opacity="0.8"/>
      <rect id="Rectangle_3339" data-name="Rectangle 3339" width="7.537" height="5.371" transform="matrix(0.839, -0.544, 0.544, 0.839, 31.972, 50.469)" fill="#9672fb" opacity="0.6"/>
      <rect id="Rectangle_3340" data-name="Rectangle 3340" width="7.537" height="5.371" transform="matrix(0.839, -0.544, 0.544, 0.839, 35.311, 55.617)" fill="#9672fb" opacity="0.4"/>
      <path id="Path_5984" data-name="Path 5984" d="M140.89,147.429h0a3.776,3.776,0,0,1-4.519-2.83l-7.84-34.032,7.342-1.7L143.72,142.9a3.776,3.776,0,0,1-2.83,4.534Z" transform="translate(-90.321 -80.285)" fill="#9672fb"/>
      <path id="Path_5985" data-name="Path 5985" d="M140.89,147.429h0a3.776,3.776,0,0,1-4.519-2.83l-7.84-34.032,7.342-1.7L143.72,142.9a3.776,3.776,0,0,1-2.83,4.534Z" transform="translate(-90.321 -80.285)" fill="#fff" opacity="0.6"/>
      <rect id="Rectangle_3341" data-name="Rectangle 3341" width="7.537" height="5.371" transform="translate(38.657 32.214) rotate(-12.98)" fill="#9672fb"/>
      <rect id="Rectangle_3342" data-name="Rectangle 3342" width="7.537" height="5.371" transform="translate(38.657 32.214) rotate(-12.98)" fill="#263238" opacity="0.4"/>
      <rect id="Rectangle_3343" data-name="Rectangle 3343" width="7.537" height="5.371" transform="translate(40.031 38.198) rotate(-12.98)" fill="#9672fb" opacity="0.8"/>
      <rect id="Rectangle_3344" data-name="Rectangle 3344" width="7.537" height="5.371" transform="translate(40.031 38.198) rotate(-12.98)" fill="#263238" opacity="0.4"/>
      <rect id="Rectangle_3345" data-name="Rectangle 3345" width="7.537" height="5.371" transform="translate(41.412 44.183) rotate(-12.98)" fill="#9672fb" opacity="0.6"/>
      <rect id="Rectangle_3346" data-name="Rectangle 3346" width="7.537" height="5.371" transform="translate(41.412 44.183) rotate(-12.98)" fill="#263238" opacity="0.4"/>
      <rect id="Rectangle_3347" data-name="Rectangle 3347" width="7.537" height="5.371" transform="translate(42.791 50.16) rotate(-12.98)" fill="#9672fb" opacity="0.4"/>
      <rect id="Rectangle_3348" data-name="Rectangle 3348" width="7.537" height="5.371" transform="translate(42.791 50.16) rotate(-12.98)" fill="#263238" opacity="0.4"/>
      <path id="Path_5986" data-name="Path 5986" d="M86.738,219.328l-3.234.354a1.126,1.126,0,0,0-1,1.235h0a1.126,1.126,0,0,0,1.235.989l3.242-.347a1.133,1.133,0,0,0,.989-1.235h0A1.126,1.126,0,0,0,86.738,219.328Z" transform="translate(-77.523 -110.997)" fill="#263238"/>
      <path id="Path_5987" data-name="Path 5987" d="M104.346,215.129l-8.158.888a.953.953,0,0,0-.845.8l-.484,3.27,11.623-1.263-1.177-3.1A.967.967,0,0,0,104.346,215.129Z" transform="translate(-80.959 -109.831)" fill="#9672fb"/>
      <rect id="Rectangle_3349" data-name="Rectangle 3349" width="31.354" height="20.518" rx="4.83" transform="translate(0 110.595) rotate(-6.2)" fill="#9672fb"/>
      <rect id="Rectangle_3350" data-name="Rectangle 3350" width="4.991" height="11.901" transform="translate(3.367 113.755) rotate(-6.34)" opacity="0.1"/>
      <g id="Group_6803" data-name="Group 6803" transform="translate(0.346 107.578)" opacity="0.8">
        <path id="Path_5988" data-name="Path 5988" d="M103.457,218.3,79.2,220.968a3.509,3.509,0,0,0-3.1,3.848l31.173-3.386a3.5,3.5,0,0,0-3.819-3.126Z" transform="translate(-76.084 -218.287)" fill="#fff"/>
        <path id="Path_5989" data-name="Path 5989" d="M81.98,247.716l24.207-2.628a3.5,3.5,0,0,0,3.09-3.848L78.11,244.626A3.5,3.5,0,0,0,81.98,247.716Z" transform="translate(-76.647 -224.669)" fill="#fff"/>
      </g>
      <path id="Path_5990" data-name="Path 5990" d="M109.177,229.884a7.573,7.573,0,1,1-2.782-5.093,7.58,7.58,0,0,1,2.782,5.093Z" transform="translate(-80.737 -112.053)" fill="#263238"/>
      <path id="Path_5991" data-name="Path 5991" d="M108.785,230.222a6.895,6.895,0,1,1-7.595-6.108A6.895,6.895,0,0,1,108.785,230.222Z" transform="translate(-81.008 -112.318)" fill="#fff" opacity="0.4"/>
      <path id="Path_5992" data-name="Path 5992" d="M107.59,231.21a4.924,4.924,0,1,1-5.429-4.332,4.924,4.924,0,0,1,5.429,4.332Z" transform="translate(-81.769 -113.09)" fill="#263238"/>
      <path id="Path_5993" data-name="Path 5993" d="M107.443,230.355a1.083,1.083,0,1,1-.4-.734A1.09,1.09,0,0,1,107.443,230.355Z" transform="translate(-83.853 -113.794)" fill="#fff"/>
      <path id="Path_5994" data-name="Path 5994" d="M109.447,227.763a.722.722,0,1,1-.765-.614A.722.722,0,0,1,109.447,227.763Z" transform="translate(-84.616 -113.173)" fill="#fff"/>
    </g>
  </g>
</svg>
