<svg xmlns="http://www.w3.org/2000/svg" width="140.667" height="105.5" viewBox="0 0 140.667 105.5">
  <g id="media" transform="translate(278 -5536)">
    <path id="Path_6276" data-name="Path 6276" d="M75.862,181.25V99.2H193.085v11.722h5.861V96.265a2.931,2.931,0,0,0-2.93-2.931H72.933A2.931,2.931,0,0,0,70,96.265v87.917a2.931,2.931,0,0,0,2.931,2.931H87.585v-5.862Z" transform="translate(-348.002 5442.666)" fill="#433f4d"/>
    <path id="Path_6277" data-name="Path 6277" d="M213.529,320.1l4.483-3.775-49.356-58.61a2.929,2.929,0,0,0-4.368-.129l-44.421,46.89,4.255,4.031L166.287,264Z" transform="translate(-385.341 5320.359)" fill="#9672fb"/>
    <path id="Path_6278" data-name="Path 6278" d="M408.388,233.442a11.722,11.722,0,1,1,11.723-11.722A11.721,11.721,0,0,1,408.388,233.442Zm0-5.861a5.861,5.861,0,1,0-5.861-5.861A5.861,5.861,0,0,0,408.388,227.581Z" transform="translate(-592.611 5355.307)" fill="#9672fb"/>
    <path id="Path_6279" data-name="Path 6279" d="M470.125,366.638l4.5-3.752L445.322,327.72a2.931,2.931,0,0,0-4.323-.2l-17.583,17.583,4.145,4.145,15.314-15.314Z" transform="translate(-612.641 5267.945)" fill="#9672fb"/>
    <path id="Path_6275" data-name="Path 6275" d="M116.67,142.933A2.93,2.93,0,0,1,119.6,140H242.683a2.93,2.93,0,0,1,2.931,2.931V230.85a2.93,2.93,0,0,1-2.931,2.93H119.6a2.93,2.93,0,0,1-2.93-2.93Zm5.861,2.93v82.056H239.754V145.863Z" transform="translate(-382.947 5407.721)" fill="#9672fb"/>
  </g>
</svg>
