<svg xmlns="http://www.w3.org/2000/svg" xmlns:xlink="http://www.w3.org/1999/xlink" width="250.159" height="210.99" viewBox="0 0 250.159 210.99">
  <defs>
    <clipPath id="clip-path">
      <path id="Path_5751" data-name="Path 5751" d="M260.316,359.38,253,370.35l15.153,4.7,6.274-10.97Z" transform="translate(-253 -359.38)" fill="#9672fb" stroke="#263238" stroke-linecap="round" stroke-linejoin="round" stroke-width="1"/>
    </clipPath>
    <clipPath id="clip-path-2">
      <path id="Path_5757" data-name="Path 5757" d="M361.52,357.933c-1.857-1.2-4.677-1.089-5.806,1.122-1.67,3.22-.474,9.187-1.076,10.022a1.891,1.891,0,0,1-3.22-.715c-.835-1.791-.835-4.176-1.911-4.3s-2.505.361-2.746,3.107.241,5.846,2.151,7.276,4.055.955,4.677,1.557,0,1.537,0,2.151c0,2.672,3.494,4.009,5.706,3.341,3.22-.955,2.866-4.182,3.341-5.492s3.107-1.436,4.062-3.461,2.385-6.093.354-7.643-3.581-.835-3.815.835a15.648,15.648,0,0,1-1.336,3.822C363.331,366.732,364.734,360,361.52,357.933Z" transform="translate(-346.704 -357.174)" fill="#9672fb" stroke="#263238" stroke-linecap="round" stroke-linejoin="round" stroke-width="1"/>
    </clipPath>
    <clipPath id="clip-path-3">
      <path id="Path_5866" data-name="Path 5866" d="M292.5,247.66c1.243,3.234,2.739,10.189,1.744,14.164a99.821,99.821,0,0,1-3.768,10.1l38,19.856c-.04-7.91.06-20.4,1.069-22.716,1.49-3.481,13.422-36.285,12.694-43.741s-15.159-18.146-15.159-18.146L329.291,189l-13.168,7.957s-1.5,7.2-2.987,8.946-13.67,4.222-17.15,8.685-2.238,18.146-2.238,18.888S291.262,244.453,292.5,247.66Z" transform="translate(-290.48 -189)" fill="#fff" stroke="#263238" stroke-linecap="round" stroke-linejoin="round" stroke-width="1"/>
    </clipPath>
    <clipPath id="clip-path-4">
      <path id="Path_5872" data-name="Path 5872" d="M299.888,136.746s1.744,8.953,1.49,15.166-2.733,8.685-2,11.431,9.694,12.928,15.16,13.917,18.393-7.456,22.121-11.184a13.877,13.877,0,0,0,3.728-11.431c-.494-2.238-2.485-20.13-9.941-27.339S303.369,120.845,299.888,136.746Z" transform="translate(-299.24 -122.928)" fill="#fff" stroke="#263238" stroke-linecap="round" stroke-linejoin="round" stroke-width="1"/>
    </clipPath>
    <clipPath id="clip-path-5">
      <path id="Path_5894" data-name="Path 5894" d="M301.6,250.182l-17.15,39.024s-46.728,8.685-50.95,8.685-12.694,2.98-14.418,4.009-18.62,8.786-15.367,9.267c2,.3,7.189-2.552,7.189-2.552s-8.2,4.009-7.463,5.218,10.69-3.728,10.69-3.728-9.093,5.345-7.229,5.646c1.7.3,3.748-.668,5.492-1.918a20.207,20.207,0,0,1,4.871-2.165s-4.009,2.673-4.483,3.888,1,.494,2.485,0a61.619,61.619,0,0,0,8.064-4.209c.989-.748,3.975-2.238,5.966-3.975l3.975-3.481s26.591.742,38.75.247,18.146-1.737,22.622-6.213,17.15-32.811,20.13-40.514,1-12.18-2-17.371" transform="translate(-203.299 -240.04)" fill="#fff" stroke="#263238" stroke-width="1"/>
    </clipPath>
    <clipPath id="clip-path-6">
      <path id="Path_5899" data-name="Path 5899" d="M272.121,280.62c-5.044,1.477-24.967,7.309-26.818,7.743a28.45,28.45,0,0,1-3.481.621S234.861,286,233,284.635s-4.1-.5-5.218,0-2,3.975.127,3.975,2.485-.127,4.844,1.864,2.365,2.986,4.1,3.728,4.6.247,6.093,0c1.336-.22,24.44-1.757,30.125-2.058C273.812,289.018,273.07,284.134,272.121,280.62Z" transform="translate(-226.608 -280.62)" fill="#fff" stroke="#263238" stroke-linecap="round" stroke-linejoin="round" stroke-width="1"/>
    </clipPath>
  </defs>
  <g id="Designer_girl-bro" data-name="Designer girl-bro" transform="translate(-51.402 -105.119)">
    <g id="freepik--Shadows--inject-1--inject-92" transform="translate(74.936 234.372)">
      <path id="Path_5742" data-name="Path 5742" d="M182.538,351.751,138,369.569,86.33,317.9l33.853-4.9,62.355,38.75" transform="translate(-86.33 -303.199)" fill="#9672fb"/>
      <path id="Path_5743" data-name="Path 5743" d="M182.538,351.751,138,369.569,86.33,317.9l33.853-4.9,62.355,38.75" transform="translate(-86.33 -303.199)" fill="#fff" opacity="0.5"/>
      <ellipse id="Ellipse_160" data-name="Ellipse 160" cx="10.69" cy="7.129" rx="10.69" ry="7.129" transform="translate(140.304 57.905)" fill="#9672fb"/>
      <ellipse id="Ellipse_161" data-name="Ellipse 161" cx="10.69" cy="7.129" rx="10.69" ry="7.129" transform="translate(140.304 57.905)" fill="#fff" opacity="0.5"/>
      <path id="Path_5744" data-name="Path 5744" d="M249.67,333.955l65.261,5.171-14.485-7.456-50.777,2.285" transform="translate(-140.541 -309.395)" fill="#9672fb"/>
      <path id="Path_5745" data-name="Path 5745" d="M249.67,333.955l65.261,5.171-14.485-7.456-50.777,2.285" transform="translate(-140.541 -309.395)" fill="#fff" opacity="0.5"/>
      <path id="Path_5746" data-name="Path 5746" d="M262.052,302.786,242.69,301.2l2.432-2.873h11.137l5.793,4.456" transform="translate(-138.224 -298.33)" fill="#9672fb"/>
      <path id="Path_5747" data-name="Path 5747" d="M262.052,302.786,242.69,301.2l2.432-2.873h11.137l5.793,4.456" transform="translate(-138.224 -298.33)" fill="#fff" opacity="0.5"/>
      <ellipse id="Ellipse_162" data-name="Ellipse 162" cx="13.583" cy="8.238" rx="13.583" ry="8.238" transform="translate(173.028 65.261)" fill="#9672fb"/>
      <ellipse id="Ellipse_163" data-name="Ellipse 163" cx="13.583" cy="8.238" rx="13.583" ry="8.238" transform="translate(173.028 65.261)" fill="#fff" opacity="0.5"/>
    </g>
    <g id="freepik--Post-it--inject-1--inject-92" transform="translate(173.743 275.16)">
      <path id="Path_5748" data-name="Path 5748" d="M241.536,379.71l-7.316,12.019,16.2,3.14L256.7,382.85Z" transform="translate(-234.22 -366.127)" fill="#fff" stroke="#263238" stroke-linecap="round" stroke-linejoin="round" stroke-width="1"/>
      <path id="Path_5749" data-name="Path 5749" d="M260.316,359.38,253,370.35l15.153,4.7,6.274-10.97Z" transform="translate(-240.453 -359.38)" fill="#9672fb"/>
      <g id="Group_6794" data-name="Group 6794" transform="translate(12.547)" clip-path="url(#clip-path)">
        <path id="Path_5750" data-name="Path 5750" d="M260.316,359.38,253,370.35l15.153,4.7,6.274-10.97Z" transform="translate(-253 -359.38)" fill="#fff" stroke="#263238" stroke-width="1" opacity="0.5"/>
      </g>
      <path id="Path_5752" data-name="Path 5752" d="M260.316,359.38,253,370.35l15.153,4.7,6.274-10.97Z" transform="translate(-240.453 -359.38)" fill="none" stroke="#263238" stroke-linecap="round" stroke-linejoin="round" stroke-width="1"/>
      <path id="Path_5753" data-name="Path 5753" d="M281.708,390.67l-13.068,3.655,5.225,8.365,15.159-3.661Z" transform="translate(-245.644 -369.765)" fill="#9672fb" stroke="#263238" stroke-linecap="round" stroke-linejoin="round" stroke-width="1"/>
    </g>
    <g id="freepik--Plant--inject-1--inject-92" transform="translate(247.062 273.687)">
      <path id="Path_5754" data-name="Path 5754" d="M344,387.46l1.336,10.149c0,4.2,5.111,7.616,11.418,7.616s11.425-3.414,11.425-7.616l1.376-10.149Z" transform="translate(-343.973 -367.226)" fill="#9672fb" stroke="#263238" stroke-linecap="round" stroke-linejoin="round" stroke-width="1"/>
      <ellipse id="Ellipse_164" data-name="Ellipse 164" cx="12.794" cy="8.532" rx="12.794" ry="8.532" transform="translate(0 11.702)" fill="#9672fb" stroke="#263238" stroke-linecap="round" stroke-linejoin="round" stroke-width="1"/>
      <ellipse id="Ellipse_165" data-name="Ellipse 165" cx="10.884" cy="7.256" rx="10.884" ry="7.256" transform="translate(1.911 12.979)" fill="#9672fb" stroke="#263238" stroke-linecap="round" stroke-linejoin="round" stroke-width="1"/>
      <ellipse id="Ellipse_166" data-name="Ellipse 166" cx="10.696" cy="5.946" rx="10.696" ry="5.946" transform="translate(2.098 15.604)" fill="#263238" stroke="#263238" stroke-linecap="round" stroke-linejoin="round" stroke-width="1"/>
      <path id="Path_5755" data-name="Path 5755" d="M361.52,357.933c-1.857-1.2-4.677-1.089-5.806,1.122-1.67,3.22-.474,9.187-1.076,10.022a1.891,1.891,0,0,1-3.22-.715c-.835-1.791-.835-4.176-1.911-4.3s-2.505.361-2.746,3.107.241,5.846,2.151,7.276,4.055.955,4.677,1.557,0,1.537,0,2.151c0,2.672,3.494,4.009,5.706,3.341,3.22-.955,2.866-4.182,3.341-5.492s3.107-1.436,4.062-3.461,2.385-6.093.354-7.643-3.581-.835-3.815.835a15.648,15.648,0,0,1-1.336,3.822C363.331,366.732,364.734,360,361.52,357.933Z" transform="translate(-344.871 -357.174)" fill="#9672fb"/>
      <g id="Group_6795" data-name="Group 6795" transform="translate(1.834 0)" clip-path="url(#clip-path-2)">
        <path id="Path_5756" data-name="Path 5756" d="M361.52,357.933c-1.857-1.2-4.677-1.089-5.806,1.122-1.67,3.22-.474,9.187-1.076,10.022a1.891,1.891,0,0,1-3.22-.715c-.835-1.791-.835-4.176-1.911-4.3s-2.505.361-2.746,3.107.241,5.846,2.151,7.276,4.055.955,4.677,1.557,0,1.537,0,2.151c0,2.672,3.494,4.009,5.706,3.341,3.22-.955,2.866-4.182,3.341-5.492s3.107-1.436,4.062-3.461,2.385-6.093.354-7.643-3.581-.835-3.815.835a15.648,15.648,0,0,1-1.336,3.822C363.331,366.732,364.734,360,361.52,357.933Z" transform="translate(-346.704 -357.174)" opacity="0.2"/>
      </g>
      <path id="Path_5758" data-name="Path 5758" d="M361.52,357.933c-1.857-1.2-4.677-1.089-5.806,1.122-1.67,3.22-.474,9.187-1.076,10.022a1.891,1.891,0,0,1-3.22-.715c-.835-1.791-.835-4.176-1.911-4.3s-2.505.361-2.746,3.107.241,5.846,2.151,7.276,4.055.955,4.677,1.557,0,1.537,0,2.151c0,2.672,3.494,4.009,5.706,3.341,3.22-.955,2.866-4.182,3.341-5.492s3.107-1.436,4.062-3.461,2.385-6.093.354-7.643-3.581-.835-3.815.835a15.648,15.648,0,0,1-1.336,3.822C363.331,366.732,364.734,360,361.52,357.933Z" transform="translate(-344.871 -357.174)" fill="none" stroke="#263238" stroke-linecap="round" stroke-linejoin="round" stroke-width="1"/>
      <path id="Path_5759" data-name="Path 5759" d="M359.887,359.63a4.276,4.276,0,0,0-1.911,3.22c-.12,2.151,0,8.953-.835,9.908s-3.581.715-5.345-.955-.982-5.245-.982-5.245" transform="translate(-346.178 -357.989)" fill="none" stroke="#263238" stroke-linecap="round" stroke-linejoin="round" stroke-width="0.5"/>
      <path id="Path_5760" data-name="Path 5760" d="M351.69,381a5.433,5.433,0,0,0,2.1,1c2.151.474,3.7-.595,4.062.474s-.361,4.9-.361,4.9" transform="translate(-346.526 -365.082)" fill="none" stroke="#263238" stroke-linecap="round" stroke-linejoin="round" stroke-width="0.5"/>
      <path id="Path_5761" data-name="Path 5761" d="M349.83,379.1a5.4,5.4,0,0,0,.762.862" transform="translate(-345.908 -364.451)" fill="none" stroke="#263238" stroke-linecap="round" stroke-linejoin="round" stroke-width="0.5"/>
      <path id="Path_5762" data-name="Path 5762" d="M364.42,380.046a44.473,44.473,0,0,0,.04-5.345c-.214-2.672,1.029-7.636,1.336-9.881" transform="translate(-350.75 -359.712)" fill="none" stroke="#263238" stroke-linecap="round" stroke-linejoin="round" stroke-width="0.5"/>
      <path id="Path_5763" data-name="Path 5763" d="M364.12,390.9s.067-.728.14-1.8" transform="translate(-350.651 -367.77)" fill="none" stroke="#263238" stroke-linecap="round" stroke-linejoin="round" stroke-width="0.5"/>
      <path id="Path_5764" data-name="Path 5764" d="M376.49,373.425c.06-.581.094-.935.094-.935" transform="translate(-354.756 -362.257)" fill="none" stroke="#263238" stroke-linecap="round" stroke-linejoin="round" stroke-width="0.5"/>
      <path id="Path_5765" data-name="Path 5765" d="M368.05,384.368s.481-3.935,1.436-4.677,3.695-1.2,3.935-2.986c.04-.281.074-.548.107-.8" transform="translate(-351.955 -363.393)" fill="none" stroke="#263238" stroke-linecap="round" stroke-linejoin="round" stroke-width="0.5"/>
      <path id="Path_5766" data-name="Path 5766" d="M372.826,370.17a1.65,1.65,0,0,0-.722,1.55,3.835,3.835,0,0,1-1.9,3.581" transform="translate(-352.669 -361.487)" fill="none" stroke="#263238" stroke-linecap="round" stroke-linejoin="round" stroke-width="0.5"/>
      <path id="Path_5767" data-name="Path 5767" d="M366.66,361.784a13.627,13.627,0,0,0-.04-2" transform="translate(-351.481 -358.039)" fill="none" stroke="#263238" stroke-linecap="round" stroke-linejoin="round" stroke-width="0.5"/>
    </g>
    <g id="freepik--Cup--inject-1--inject-92" transform="translate(215.567 262.773)">
      <path id="Path_5768" data-name="Path 5768" d="M298.58,358.764l1.77,18.64v1.971c0,2.672,3.755,4.79,8.391,4.79s8.391-2.145,8.391-4.79V377.4l1.61-18.834Z" transform="translate(-297.404 -346.724)" fill="#fff" stroke="#263238" stroke-linecap="round" stroke-linejoin="round" stroke-width="1"/>
      <path id="Path_5769" data-name="Path 5769" d="M317.519,379.694l.929-10.857c-1.249,1.944-4.977,3.341-9.387,3.341-4.643,0-8.525-1.563-9.561-3.668l1.056,11.117c1.71,1.423,4.871,2.385,8.505,2.385S315.809,381.1,317.519,379.694Z" transform="translate(-297.709 -350.023)" fill="#9672fb" stroke="#263238" stroke-linecap="round" stroke-linejoin="round" stroke-width="1"/>
      <path id="Path_5770" data-name="Path 5770" d="M299.037,363.685v-.127l-.087-.748Z" transform="translate(-297.527 -348.132)" fill="#fff" stroke="#263238" stroke-linecap="round" stroke-linejoin="round" stroke-width="1"/>
      <path id="Path_5771" data-name="Path 5771" d="M318.48,352.825c-1.777-2.245-5.726-3.815-10.322-3.815s-8.545,1.57-10.329,3.815H296.82V355.5c0,3.581,5.078,6.481,11.358,6.481s11.358-2.9,11.358-6.481v-2.672Z" transform="translate(-296.82 -343.552)" fill="#9672fb" stroke="#263238" stroke-linecap="round" stroke-linejoin="round" stroke-width="1"/>
      <path id="Path_5772" data-name="Path 5772" d="M318.48,352.825c-1.777-2.245-5.726-3.815-10.322-3.815s-8.545,1.57-10.329,3.815H296.82V355.5c0,3.581,5.078,6.481,11.358,6.481s11.358-2.9,11.358-6.481v-2.672Z" transform="translate(-296.82 -343.552)" opacity="0.2"/>
      <ellipse id="Ellipse_167" data-name="Ellipse 167" cx="11.338" cy="6.481" rx="11.338" ry="6.481" transform="translate(0 2.793)" fill="#fff" stroke="#263238" stroke-linecap="round" stroke-linejoin="round" stroke-width="1"/>
      <path id="Path_5773" data-name="Path 5773" d="M317.9,347.651c-1.557-1.964-5-3.341-9.02-3.341s-7.463,1.37-9.019,3.341H299v2.325c0,3.127,4.43,5.659,9.9,5.659s9.9-2.532,9.9-5.659v-2.325Z" transform="translate(-297.544 -341.992)" fill="#9672fb" stroke="#263238" stroke-linecap="round" stroke-linejoin="round" stroke-width="1"/>
      <ellipse id="Ellipse_168" data-name="Ellipse 168" cx="9.901" cy="5.659" rx="9.901" ry="5.659" transform="translate(1.436 0)" fill="#fff" stroke="#263238" stroke-linecap="round" stroke-linejoin="round" stroke-width="1"/>
    </g>
    <g id="freepik--Cat--inject-1--inject-92" transform="translate(101.002 165.889)">
      <path id="Path_5774" data-name="Path 5774" d="M164.21,267.032s.775-.514,5.692,1.55,6.848,1.617,11.632.775c5.746-1,10.516-2,11.091.321,1,4.009-3.027,3.962-10.262,4.737a23.684,23.684,0,0,1-13.756-2.472,23.427,23.427,0,0,1-3.1-1.55Z" transform="translate(-138.243 -219.44)" fill="#fff" stroke="#263238" stroke-linecap="round" stroke-linejoin="round" stroke-width="1"/>
      <path id="Path_5775" data-name="Path 5775" d="M147.557,267.174s6.467,7.5,9.307,5.425,2.586-8.786,0-10.857S147.043,263.553,147.557,267.174Z" transform="translate(-132.707 -217.512)" fill="#fff" stroke="#263238" stroke-linecap="round" stroke-linejoin="round" stroke-width="1"/>
      <path id="Path_5776" data-name="Path 5776" d="M159.856,235.216s.261,6.982-1.55,11.632-5.171,7.757-5.686,10.342-.261,6.207-2.846,7.242-2.586-.775-2.325-2.846.775-9.821.775-9.821l-8.545,5.165s2.325,6.467-2.586,7.242-10.857-6.721-11.632-12.387,2.325-18.36,7.757-21.72,12.407-2.839,16.035-2.839A11.513,11.513,0,0,1,159.856,235.216Z" transform="translate(-125.344 -206.238)" fill="#fff" stroke="#263238" stroke-linecap="round" stroke-linejoin="round" stroke-width="1"/>
      <path id="Path_5777" data-name="Path 5777" d="M144.013,228.045s-1.336.668-3.668,4.336,2.332,6.828,4.837,5.165.327-5.165,2.165-6.835a5.926,5.926,0,0,0,2-3.5Z" transform="translate(-130.112 -206.243)" fill="#263238"/>
      <path id="Path_5778" data-name="Path 5778" d="M133.849,235.618a5.271,5.271,0,0,0-2.171,3.668c-.167,2.332,4.009-2,4.5-4.009S133.849,235.618,133.849,235.618Z" transform="translate(-127.444 -208.652)" fill="#263238"/>
      <path id="Path_5779" data-name="Path 5779" d="M156.832,228.13a6.781,6.781,0,0,0,.261,6.975c2.325,3.621,7.5,5.171,9.561,2.586s2.846-3.875,2.071-5.165S160.454,226.059,156.832,228.13Z" transform="translate(-135.515 -206.388)" fill="#9672fb" stroke="#263238" stroke-linecap="round" stroke-linejoin="round" stroke-width="1"/>
      <path id="Path_5780" data-name="Path 5780" d="M174.539,204.908a6.855,6.855,0,0,1-5.425-1.811c-2.586-2.325-4.917-7.5-5.946-7.242s-4.677,7.757-4.677,7.757-6.207.521-6.721,2.325,2.325,10.342,4.677,13.964a12.46,12.46,0,0,0,9.821,5.445c3.1,0,12.407.775,13.7-2.332s.254-12.407.254-12.407,4.142-4.136,2.332-4.911S174.539,204.908,174.539,204.908Z" transform="translate(-134.094 -195.834)" fill="#fff" stroke="#263238" stroke-linecap="round" stroke-linejoin="round" stroke-width="1"/>
      <path id="Path_5781" data-name="Path 5781" d="M179.823,227.48c-.314-.408-.615-.822-.909-1.249a3.142,3.142,0,0,0-3.868-1.122c-3.167,1-5.345,4.009-1.831,6.5C176.522,233.981,183.163,231.843,179.823,227.48Z" transform="translate(-140.634 -205.471)" fill="#263238"/>
      <path id="Path_5782" data-name="Path 5782" d="M161.882,203.606s3.621,2.071,5.686,1.3.775-9.567-1.029-9.053S161.622,200.245,161.882,203.606Z" transform="translate(-137.465 -195.827)" fill="#fff" stroke="#263238" stroke-linecap="round" stroke-linejoin="round" stroke-width="1"/>
      <path id="Path_5783" data-name="Path 5783" d="M194.673,210.566a7.2,7.2,0,0,0-5.432,2.064c-2.091,2.325-.775,4.677,2.071,5.171S195.7,210.566,194.673,210.566Z" transform="translate(-146.21 -200.716)" fill="#fff" stroke="#263238" stroke-linecap="round" stroke-linejoin="round" stroke-width="1"/>
      <path id="Path_5784" data-name="Path 5784" d="M166.36,231.584s-3.341-2.586-2.586-.521,2.064,2.332,3.341,1.811S166.36,231.584,166.36,231.584Z" transform="translate(-138.062 -207.256)" fill="#9672fb" stroke="#263238" stroke-linecap="round" stroke-linejoin="round" stroke-width="1"/>
      <path id="Path_5785" data-name="Path 5785" d="M164.04,221.788c-.194.668-.742,1.136-1.223,1s-.715-.8-.521-1.49.742-1.136,1.223-1S164.234,221.107,164.04,221.788Z" transform="translate(-137.585 -203.941)" fill="#263238"/>
      <path id="Path_5786" data-name="Path 5786" d="M176.044,230.771c-.621.361-1.336.307-1.577-.127s.04-1.069.668-1.43a1.163,1.163,0,0,1,1.577.12C176.953,229.769,176.659,230.41,176.044,230.771Z" transform="translate(-141.619 -206.824)" fill="#fff"/>
      <path id="Path_5787" data-name="Path 5787" d="M142.021,255.709s-.775,5.686.254,8.017,2.071,11.117,4.142,11.358,1.289-4.677,1.289-5.432.261-9.046.261-9.046,1.811-3.882,2.839-5.946" transform="translate(-130.786 -215.353)" fill="#fff" stroke="#263238" stroke-linecap="round" stroke-linejoin="round" stroke-width="1"/>
      <path id="Path_5788" data-name="Path 5788" d="M129.39,255.715s6.982-2.071,7.757,5.686" transform="translate(-126.687 -215.62)" fill="none" stroke="#263238" stroke-linecap="round" stroke-linejoin="round" stroke-width="1"/>
      <path id="Path_5789" data-name="Path 5789" d="M159.57,259.118s5.946-3.107,6.207-9.828" transform="translate(-136.703 -213.571)" fill="none" stroke="#263238" stroke-linecap="round" stroke-linejoin="round" stroke-width="1"/>
    </g>
    <g id="freepik--Character--inject-1--inject-92" transform="translate(52 105.621)">
      <line id="Line_49" data-name="Line 49" y1="0.995" x2="4.403" transform="translate(0 115.396)" fill="none" stroke="#263238" stroke-linecap="round" stroke-linejoin="round" stroke-width="1"/>
      <path id="Path_5790" data-name="Path 5790" d="M107,313.7l35.5-10.068a4.924,4.924,0,0,1,3.214.775l57.772,36.913a1.43,1.43,0,0,1-.595,2.619l-48.585,15.133Z" transform="translate(-70.254 -171.331)" fill="#9672fb" stroke="#263238" stroke-linecap="round" stroke-linejoin="round" stroke-width="1"/>
      <path id="Path_5791" data-name="Path 5791" d="M138.07,321.087l5.031,3.467,5.813-1.643-5.024-3.461Z" transform="translate(-80.566 -176.588)" fill="#263238"/>
      <path id="Path_5792" data-name="Path 5792" d="M137.373,334.688l-5.024-3.467-5.819,1.644,5.031,3.467Z" transform="translate(-76.736 -180.494)" fill="#263238"/>
      <path id="Path_5793" data-name="Path 5793" d="M156.99,324.264l5.024,3.461,5.813-1.644L162.8,322.62Z" transform="translate(-86.845 -177.64)" fill="#263238"/>
      <path id="Path_5794" data-name="Path 5794" d="M165.76,330.3l5.024,3.461,5.813-1.644-5.024-3.461Z" transform="translate(-89.756 -179.645)" fill="#263238"/>
      <path id="Path_5795" data-name="Path 5795" d="M146.84,327.127l5.024,3.468,5.813-1.644-5.024-3.461Z" transform="translate(-83.476 -178.593)" fill="#263238"/>
      <path id="Path_5796" data-name="Path 5796" d="M127.92,323.954l5.024,3.467,5.819-1.644-5.031-3.468Z" transform="translate(-77.197 -177.537)" fill="#263238"/>
      <path id="Path_5797" data-name="Path 5797" d="M182.587,355.978l-5.031-3.468-5.806,1.644,5.024,3.468Z" transform="translate(-91.744 -187.56)" fill="#263238"/>
      <path id="Path_5798" data-name="Path 5798" d="M172.427,358.848,167.4,355.38l-5.813,1.644,5.031,3.461Z" transform="translate(-88.372 -188.513)" fill="#263238"/>
      <path id="Path_5799" data-name="Path 5799" d="M146.137,340.728l-5.024-3.468L135.3,338.9l5.024,3.461Z" transform="translate(-79.646 -182.499)" fill="#263238"/>
      <path id="Path_5800" data-name="Path 5800" d="M191.347,362.021l-5.024-3.461L180.51,360.2l5.024,3.467Z" transform="translate(-94.651 -189.568)" fill="#263238"/>
      <path id="Path_5801" data-name="Path 5801" d="M154.9,346.768l-5.031-3.467-5.813,1.644,5.031,3.461Z" transform="translate(-82.554 -184.504)" fill="#263238"/>
      <path id="Path_5802" data-name="Path 5802" d="M163.667,352.807l-5.024-3.467-5.813,1.643,5.024,3.468Z" transform="translate(-85.464 -186.508)" fill="#263238"/>
      <path id="Path_5803" data-name="Path 5803" d="M174.52,336.344l5.024,3.461,5.813-1.644-5.024-3.461Z" transform="translate(-92.663 -181.649)" fill="#263238"/>
      <path id="Path_5804" data-name="Path 5804" d="M136.69,330l5.024,3.467,5.813-1.644L142.5,328.36Z" transform="translate(-80.108 -179.545)" fill="#263238"/>
      <path id="Path_5805" data-name="Path 5805" d="M201.5,359.151l-5.024-3.461-5.813,1.644,5.024,3.461Z" transform="translate(-98.02 -188.616)" fill="#263238"/>
      <path id="Path_5806" data-name="Path 5806" d="M175.207,341.031l-5.024-3.461-5.813,1.637,5.024,3.467Z" transform="translate(-89.294 -182.602)" fill="#263238"/>
      <path id="Path_5807" data-name="Path 5807" d="M156.287,337.858l-5.024-3.467-5.813,1.644,5.024,3.467Z" transform="translate(-83.015 -181.546)" fill="#263238"/>
      <path id="Path_5808" data-name="Path 5808" d="M121.795,323.321l-2.94-2.031-3.975,1.116,2.325,2.211Z" transform="translate(-72.869 -177.199)" fill="#263238"/>
      <path id="Path_5809" data-name="Path 5809" d="M129.128,328.648,124.1,325.18l-4.764,1.35,3.935,3.728.04.027Z" transform="translate(-74.349 -178.49)" fill="#263238"/>
      <path id="Path_5810" data-name="Path 5810" d="M155.6,333.174l5.031,3.461,5.813-1.644-5.031-3.461Z" transform="translate(-86.384 -180.597)" fill="#263238"/>
      <path id="Path_5811" data-name="Path 5811" d="M165.057,343.9l-5.024-3.461-5.813,1.637,5.024,3.467Z" transform="translate(-85.926 -183.554)" fill="#263238"/>
      <path id="Path_5812" data-name="Path 5812" d="M202.887,350.241l-5.024-3.461-5.813,1.644,5.024,3.461Z" transform="translate(-98.481 -185.658)" fill="#263238"/>
      <path id="Path_5813" data-name="Path 5813" d="M183.28,342.384l5.031,3.461,5.813-1.644L189.1,340.74Z" transform="translate(-95.57 -183.654)" fill="#263238"/>
      <path id="Path_5814" data-name="Path 5814" d="M192.737,353.111l-5.024-3.461-5.813,1.644,5.024,3.461Z" transform="translate(-95.112 -186.611)" fill="#263238"/>
      <path id="Path_5815" data-name="Path 5815" d="M183.967,347.071l-5.024-3.461-5.813,1.637,5.031,3.467Z" transform="translate(-92.202 -184.606)" fill="#263238"/>
      <path id="Path_5816" data-name="Path 5816" d="M173.817,349.941l-5.024-3.461-5.813,1.637L168,351.584Z" transform="translate(-88.833 -185.559)" fill="#263238"/>
      <path id="Path_5817" data-name="Path 5817" d="M138.652,343.591l-5.024-3.461-.448.127,3.962,3.762Z" transform="translate(-78.943 -183.451)" fill="#263238"/>
      <path id="Path_5818" data-name="Path 5818" d="M205.243,361.73l-5.813,1.644,6.026,4.149,5.666-1.744Z" transform="translate(-100.93 -190.62)" fill="#263238"/>
      <path id="Path_5819" data-name="Path 5819" d="M195.083,364.6l-5.813,1.637,6.207,4.276,5.659-1.744Z" transform="translate(-97.558 -191.573)" fill="#263238"/>
      <path id="Path_5820" data-name="Path 5820" d="M154.954,355.671l-5.024-3.461-2.92.822,3.969,3.768Z" transform="translate(-83.533 -187.461)" fill="#263238"/>
      <path id="Path_5821" data-name="Path 5821" d="M211.653,356.281l-5.031-3.461-5.813,1.644,5.031,3.461Z" transform="translate(-101.388 -187.663)" fill="#263238"/>
      <path id="Path_5822" data-name="Path 5822" d="M163.1,361.718l-5.024-3.467-4.149,1.176,3.962,3.761Z" transform="translate(-85.829 -189.465)" fill="#263238"/>
      <path id="Path_5823" data-name="Path 5823" d="M171.256,367.758l-5.024-3.468-5.392,1.523,3.969,3.761Z" transform="translate(-88.123 -191.47)" fill="#263238"/>
      <path id="Path_5824" data-name="Path 5824" d="M181.2,364.888l-5.024-3.467-5.813,1.643,5.024,3.468Z" transform="translate(-91.282 -190.517)" fill="#263238"/>
      <path id="Path_5825" data-name="Path 5825" d="M230.41,357.431l-3.341-2.091-7.349,2.078,5.679,3.915L229.822,360a1.383,1.383,0,0,0,.588-2.566Z" transform="translate(-107.664 -188.499)" fill="#263238"/>
      <path id="Path_5826" data-name="Path 5826" d="M174.381,370.33,167.76,372.2l5.211,4.944,7.81-2.405Z" transform="translate(-90.419 -193.474)" fill="#263238"/>
      <path id="Path_5827" data-name="Path 5827" d="M217.965,349.45l-7,1.978,5.024,3.461,7.316-2.064Z" transform="translate(-104.76 -186.545)" fill="#263238"/>
      <path id="Path_5828" data-name="Path 5828" d="M215.393,358.86,209.58,360.5l5.853,4.035L221.1,362.8Z" transform="translate(-104.299 -189.668)" fill="#263238"/>
      <path id="Path_5829" data-name="Path 5829" d="M155.7,313.68l4.75-1.343-3.067-1.937-4.583,1.283Z" transform="translate(-85.454 -173.584)" fill="#263238"/>
      <path id="Path_5830" data-name="Path 5830" d="M191.159,371.756l-6.227-4.3L179.12,369.1l6.374,4.4Z" transform="translate(-94.19 -192.522)" fill="#263238"/>
      <path id="Path_5831" data-name="Path 5831" d="M158.38,315.5l5.024,3.461,5.124-1.443-5.345-3.374Z" transform="translate(-87.306 -174.826)" fill="#263238"/>
      <path id="Path_5832" data-name="Path 5832" d="M175.91,327.473l5.024,3.461,5.853-1.65-5.338-3.374Z" transform="translate(-93.124 -178.732)" fill="#263238"/>
      <path id="Path_5833" data-name="Path 5833" d="M167.14,321.483l5.031,3.461,5.485-1.55-5.345-3.374Z" transform="translate(-90.214 -176.777)" fill="#263238"/>
      <path id="Path_5834" data-name="Path 5834" d="M184.67,333.46l5.024,3.461,6.22-1.75-5.338-3.381Z" transform="translate(-96.032 -180.683)" fill="#263238"/>
      <path id="Path_5835" data-name="Path 5835" d="M193.44,339.451l5.024,3.461,6.581-1.857-5.338-3.374Z" transform="translate(-98.942 -182.638)" fill="#263238"/>
      <path id="Path_5836" data-name="Path 5836" d="M208.834,343.56l-6.634,1.877,5.024,3.461,6.948-1.958Z" transform="translate(-101.85 -184.59)" fill="#263238"/>
      <path id="Path_5837" data-name="Path 5837" d="M148.23,318.224l5.024,3.461,5.813-1.644-5.024-3.461Z" transform="translate(-83.938 -175.635)" fill="#263238"/>
      <path id="Path_5838" data-name="Path 5838" d="M130.66,337.94l1.029.969.267-.08Z" transform="translate(-78.106 -182.725)" fill="#263238"/>
      <path id="Path_5839" data-name="Path 5839" d="M125.22,322.1l5.813-1.644-2.926-2.018-5.826,1.63Z" transform="translate(-75.325 -176.253)" fill="#263238"/>
      <path id="Path_5840" data-name="Path 5840" d="M135.376,319.235l5.813-1.644-2.913-2.011-5.826,1.637Z" transform="translate(-78.7 -175.304)" fill="#263238"/>
      <path id="Path_5841" data-name="Path 5841" d="M142.63,314.367l2.913,2,5.813-1.644-2.906-2Z" transform="translate(-82.079 -174.358)" fill="#263238"/>
      <path id="Path_5842" data-name="Path 5842" d="M146.8,349.638l-5.024-3.467-1.684.474,3.969,3.761Z" transform="translate(-81.236 -185.456)" fill="#263238"/>
      <path id="Path_5843" data-name="Path 5843" d="M147.534,334.56l-15.367-62.208A7.5,7.5,0,0,0,130,268.665L88.573,230.041a1.122,1.122,0,0,0-1.857,1.076l13.543,58.072Z" transform="translate(-63.512 -146.815)" fill="#9672fb" stroke="#263238" stroke-linecap="round" stroke-linejoin="round" stroke-width="1"/>
      <path id="Path_5844" data-name="Path 5844" d="M143,284.19l4.737,4.142s1.477.294,2.953,7.69" transform="translate(-82.202 -164.886)" fill="none" stroke="#263238" stroke-linecap="round" stroke-linejoin="round" stroke-width="0.5"/>
      <line id="Line_50" data-name="Line 50" x2="8.732" y2="37.842" transform="translate(69.377 134.978)" fill="none" stroke="#263238" stroke-linecap="round" stroke-linejoin="round" stroke-width="0.5"/>
      <path id="Path_5845" data-name="Path 5845" d="M112.751,277.934c2.051,4.984,1.864,9.788-.421,10.73s-5.806-2.338-7.857-7.349-1.864-9.788.421-10.723S110.7,272.95,112.751,277.934Z" transform="translate(-68.943 -160.32)" fill="#9672fb"/>
      <path id="Path_5846" data-name="Path 5846" d="M112.751,277.934c2.051,4.984,1.864,9.788-.421,10.73s-5.806-2.338-7.857-7.349-1.864-9.788.421-10.723S110.7,272.95,112.751,277.934Z" transform="translate(-68.943 -160.32)" fill="#fff" opacity="0.6"/>
      <ellipse id="Ellipse_169" data-name="Ellipse 169" cx="3.18" cy="6.942" rx="3.18" ry="6.942" transform="translate(34.085 114.109) rotate(-22.38)" fill="none" stroke="#263238" stroke-width="1"/>
      <path id="Path_5847" data-name="Path 5847" d="M119.133,310.445c1.069,2.586.628,5.218-.975,5.879s-3.768-.9-4.837-3.481-.621-5.218.982-5.879S118.071,307.867,119.133,310.445Z" transform="translate(-72.159 -172.394)" fill="#263238"/>
      <path id="Path_5848" data-name="Path 5848" d="M117.493,315.642a3.3,3.3,0,0,1-2.672-2.345,4.363,4.363,0,0,1-.321-2.338,1.911,1.911,0,0,1,1.082-1.557c1.129-.468,2.572.514,3.28,2.231h0c.7,1.717.367,3.427-.762,3.9a1.617,1.617,0,0,1-.608.114Zm-1.336-5.686a.828.828,0,0,0-.334.067,1.269,1.269,0,0,0-.668,1.049,3.681,3.681,0,0,0,.281,2c.541,1.336,1.644,2.178,2.405,1.864s.942-1.7.394-3.02C117.733,310.752,116.825,309.957,116.156,309.957Z" transform="translate(-72.729 -173.215)" fill="#9672fb"/>
      <g id="Group_6796" data-name="Group 6796" transform="translate(41.729 136.071)" opacity="0.5">
        <path id="Path_5849" data-name="Path 5849" d="M117.493,315.642a3.3,3.3,0,0,1-2.672-2.345,4.363,4.363,0,0,1-.321-2.338,1.911,1.911,0,0,1,1.082-1.557c1.129-.468,2.572.514,3.28,2.231h0c.7,1.717.367,3.427-.762,3.9a1.617,1.617,0,0,1-.608.114Zm-1.336-5.686a.828.828,0,0,0-.334.067,1.269,1.269,0,0,0-.668,1.049,3.681,3.681,0,0,0,.281,2c.541,1.336,1.644,2.178,2.405,1.864s.942-1.7.394-3.02C117.733,310.752,116.825,309.957,116.156,309.957Z" transform="translate(-114.458 -309.286)" fill="#fff"/>
      </g>
      <path id="Path_5850" data-name="Path 5850" d="M138.177,313.282l-3.8,6.013a.889.889,0,0,0,0,.989l8.138,11.866a.909.909,0,0,0,1.336.187l4.216-3.441a.9.9,0,0,0,.207-1.156l-8.559-14.425a.9.9,0,0,0-1.537-.033Z" transform="translate(-79.29 -174.402)" fill="#263238"/>
      <path id="Path_5851" data-name="Path 5851" d="M129.828,324.023s10.529-1.75,17.765,13.082l1.8-2.211s-6.968-11.605-12.647-12.641A52.605,52.605,0,0,0,129,321.21Z" transform="translate(-77.555 -177.172)" fill="#9672fb"/>
      <path id="Path_5852" data-name="Path 5852" d="M129.828,324.023s10.529-1.75,17.765,13.082l1.8-2.211s-6.968-11.605-12.647-12.641A52.605,52.605,0,0,0,129,321.21Z" transform="translate(-77.555 -177.172)" fill="#fff" opacity="0.5"/>
      <line id="Line_51" data-name="Line 51" y1="3.882" x2="17.184" transform="translate(6.862 110.96)" fill="none" stroke="#263238" stroke-linecap="round" stroke-linejoin="round" stroke-width="1"/>
      <path id="Path_5853" data-name="Path 5853" d="M220.393,333.51a54.922,54.922,0,0,1-6.22.621c-3.227.127-4.6.127-4.1.875s4.356,1.49,5.719,1.737S220.393,333.51,220.393,333.51Z" transform="translate(-104.429 -181.254)" fill="#fff" stroke="#263238" stroke-width="1"/>
      <line id="Line_52" data-name="Line 52" x1="5.752" y1="3.007" transform="translate(231.381 176.274)" fill="none" stroke="#263238" stroke-linecap="round" stroke-linejoin="round" stroke-width="1"/>
      <path id="Path_5854" data-name="Path 5854" d="M234.94,268.459s1.209-2.118,1.717.508Z" transform="translate(-112.716 -159.397)" fill="#263238"/>
      <line id="Line_53" data-name="Line 53" x1="140.25" y1="73.272" transform="translate(87.569 101.138)" fill="none" stroke="#263238" stroke-linecap="round" stroke-linejoin="round" stroke-width="1"/>
      <path id="Path_5855" data-name="Path 5855" d="M188.59,296.233l29.47,19,24.239-9.888-32.651-16.6Z" transform="translate(-97.333 -166.399)" fill="#263238" stroke="#263238" stroke-linecap="round" stroke-linejoin="round" stroke-width="1"/>
      <line id="Line_54" data-name="Line 54" x1="11.745" y2="4.149" transform="translate(98.453 125.872)" fill="none" stroke="#fff" stroke-linecap="round" stroke-linejoin="round" stroke-width="0.5"/>
      <path id="Path_5856" data-name="Path 5856" d="M202.12,302.3l21.192,13.362,17.271-6.681" transform="translate(-101.823 -170.896)" fill="none" stroke="#fff" stroke-linecap="round" stroke-linejoin="round" stroke-width="0.5"/>
      <path id="Path_5857" data-name="Path 5857" d="M362.8,165.56s16.876,2.672,22.308,11.719,1.55,23.264-.26,28.174c-1.637,4.456,3.2,8.178,6.173,10.6,6.681,5.425,10.122,13.082,6.648,21.413-2.165,5.185-11.792,7.51-10.489,13.75s6.975,14.992-.261,21.46c-7.637,6.815-19.095,3.3-25.789-3.067-7.53-7.162-10.122-19.622-6.267-29.25,4.677-11.632,7.236-19.128,2.839-24.052s-10.082-8.017-10.082-14.992,6.207-9.046,8.792-16.035-1.036-14.217-1.036-14.217Z" transform="translate(-150.113 -125.514)" fill="#263238" stroke="#263238" stroke-linecap="round" stroke-linejoin="round" stroke-width="1"/>
      <path id="Path_5858" data-name="Path 5858" d="M392.69,183.62c3.26,2.465,6.227,6.614,5.2,13.362-2.084,13.7-12.206,14.592-5.659,23.224s12.507,4.757,11.311,15.473-5.058,14.585-5.058,14.585" transform="translate(-164.196 -131.508)" fill="none" stroke="#fff" stroke-width="1"/>
      <path id="Path_5859" data-name="Path 5859" d="M383.55,178.69a18.487,18.487,0,0,1,3.782,1.336" transform="translate(-162.037 -129.871)" fill="none" stroke="#fff" stroke-width="1"/>
      <path id="Path_5860" data-name="Path 5860" d="M378.65,184.49s8.632,2.378,11.311,9.521-8.017,13.1-8.632,17.565" transform="translate(-160.411 -131.796)" fill="none" stroke="#fff" stroke-width="1"/>
      <path id="Path_5861" data-name="Path 5861" d="M362.83,328.416c-.12-4.1-.174-9.561.074-15.326.521-11.892,14.739-27.667,15.253-30.506s-.775-3.341-.775-3.341L349.2,267.09c-13.1,8.605-16.289,33.633-17.07,45.311Z" transform="translate(-144.972 -159.21)" fill="#9672fb" stroke="#263238" stroke-linecap="round" stroke-linejoin="round" stroke-width="1"/>
      <path id="Path_5862" data-name="Path 5862" d="M389.545,286.41s2.365,1.477,0,3.842-8.873,12.42-11.545,18.333" transform="translate(-160.195 -165.622)" fill="none" stroke="#263238" stroke-linecap="round" stroke-linejoin="round" stroke-width="0.5"/>
      <path id="Path_5863" data-name="Path 5863" d="M375.356,324a23.376,23.376,0,0,0-1.77,9.46c.3,4.73.294,9.167.294,9.167" transform="translate(-158.72 -178.098)" fill="none" stroke="#263238" stroke-linecap="round" stroke-linejoin="round" stroke-width="0.5"/>
      <path id="Path_5864" data-name="Path 5864" d="M292.5,247.66c1.243,3.234,2.739,10.189,1.744,14.164a99.821,99.821,0,0,1-3.768,10.1l38,19.856c-.04-7.91.06-20.4,1.069-22.716,1.49-3.481,13.422-36.285,12.694-43.741s-15.159-18.146-15.159-18.146L329.291,189l-13.168,7.957s-1.5,7.2-2.987,8.946-13.67,4.222-17.15,8.685-2.238,18.146-2.238,18.888S291.262,244.453,292.5,247.66Z" transform="translate(-131.149 -133.293)" fill="#fff"/>
      <g id="Group_6797" data-name="Group 6797" transform="translate(159.331 55.707)" clip-path="url(#clip-path-3)">
        <path id="Path_5865" data-name="Path 5865" d="M354.429,225.292c-.748-7.456-15.159-18.146-15.159-18.146L341.5,189l-13.168,7.957s-.434,2.078-1.062,4.276c.848-.074,1.8-.194,2.86-.381a21.638,21.638,0,0,0,7.69-2.672l-2.673,11.238s13.6,8.017,17.15,17.745c.481,1.336,1,2.586,1.523,3.828A22.047,22.047,0,0,0,354.429,225.292Z" transform="translate(-302.69 -189)" fill="#9672fb" opacity="0.5"/>
      </g>
      <path id="Path_5867" data-name="Path 5867" d="M292.5,247.66c1.243,3.234,2.739,10.189,1.744,14.164a99.821,99.821,0,0,1-3.768,10.1l38,19.856c-.04-7.91.06-20.4,1.069-22.716,1.49-3.481,13.422-36.285,12.694-43.741s-15.159-18.146-15.159-18.146L329.291,189l-13.168,7.957s-1.5,7.2-2.987,8.946-13.67,4.222-17.15,8.685-2.238,18.146-2.238,18.888S291.262,244.453,292.5,247.66Z" transform="translate(-131.149 -133.293)" fill="none" stroke="#263238" stroke-linecap="round" stroke-linejoin="round" stroke-width="1"/>
      <path id="Path_5868" data-name="Path 5868" d="M292.5,257.424c1.243,3.234,2.739,10.189,1.744,14.164a99.823,99.823,0,0,1-3.768,10.1l38,19.856c-.04-7.91.06-20.4,1.069-22.716,1.49-3.481,13.422-36.285,12.694-43.741-.461-4.643-6.22-10.529-10.5-14.318-4.216,4.47-13.362,12.808-20.043,9.093-6.013-3.341-5.632-8.418-4.744-11.438-4.062,1.5-8.919,3.407-10.917,5.973-3.481,4.476-2.238,18.146-2.238,18.888S291.262,254.217,292.5,257.424Z" transform="translate(-131.149 -143.057)" fill="#263238" stroke="#263238" stroke-linecap="round" stroke-linejoin="round" stroke-width="1"/>
      <path id="Path_5869" data-name="Path 5869" d="M318.218,259.727l-8.271-3.882s-2.332-3.875-3.621-3.875-2.071,5.432-2.071,5.432-4.39,4.136-2.839,8.271,7.236,10.342,14.217,8.017,4.911-9.561,4.911-9.561,2.846-4.911,2.846-5.946S318.218,259.727,318.218,259.727Z" transform="translate(-134.668 -154.192)" fill="#fff" stroke="#263238" stroke-linecap="round" stroke-linejoin="round" stroke-width="1"/>
      <path id="Path_5870" data-name="Path 5870" d="M299.888,136.746s1.744,8.953,1.49,15.166-2.733,8.685-2,11.431,9.694,12.928,15.16,13.917,18.393-7.456,22.121-11.184a13.877,13.877,0,0,0,3.728-11.431c-.494-2.238-2.485-20.13-9.941-27.339S303.369,120.845,299.888,136.746Z" transform="translate(-134.056 -111.365)" fill="#fff"/>
      <g id="Group_6798" data-name="Group 6798" transform="translate(165.184 11.563)" clip-path="url(#clip-path-4)">
        <path id="Path_5871" data-name="Path 5871" d="M338.463,127.306c-2.786-2.672-7.276-4.276-11.986-4.376l-.307,9.273s-1.483,9.166,3.842,16.556,10.055,9.467,10.643,12.42-2.085,5.893-8.873,10.944a51.21,51.21,0,0,1-8.492,5.211c5.819.207,17.812-7.683,21.38-11.258a13.877,13.877,0,0,0,3.728-11.431C347.9,152.407,345.9,134.515,338.463,127.306Z" transform="translate(-307.222 -122.929)" fill="#9672fb" opacity="0.5"/>
      </g>
      <path id="Path_5873" data-name="Path 5873" d="M299.888,136.746s1.744,8.953,1.49,15.166-2.733,8.685-2,11.431,9.694,12.928,15.16,13.917,18.393-7.456,22.121-11.184a13.877,13.877,0,0,0,3.728-11.431c-.494-2.238-2.485-20.13-9.941-27.339S303.369,120.845,299.888,136.746Z" transform="translate(-134.056 -111.365)" fill="none" stroke="#263238" stroke-linecap="round" stroke-linejoin="round" stroke-width="1"/>
      <path id="Path_5874" data-name="Path 5874" d="M313.354,171.14s-.748,4.724-2,6.213a6.187,6.187,0,0,0,3.481,1.5" transform="translate(-138.075 -127.366)" fill="none" stroke="#263238" stroke-linecap="round" stroke-linejoin="round" stroke-width="1"/>
      <path id="Path_5875" data-name="Path 5875" d="M315.09,188.754a11.358,11.358,0,0,0,10.189-.494" transform="translate(-139.316 -133.048)" fill="none" stroke="#263238" stroke-linecap="round" stroke-linejoin="round" stroke-width="1"/>
      <path id="Path_5876" data-name="Path 5876" d="M327.617,166.68c0,.828-.387,1.5-.869,1.5s-.869-.668-.869-1.5.388-1.49.869-1.49S327.617,165.858,327.617,166.68Z" transform="translate(-142.898 -125.391)" fill="#263238"/>
      <path id="Path_5877" data-name="Path 5877" d="M309.207,163.71c0,.822-.388,1.49-.869,1.49s-.868-.668-.868-1.49.387-1.49.868-1.49S309.207,162.888,309.207,163.71Z" transform="translate(-136.787 -124.405)" fill="#263238"/>
      <path id="Path_5878" data-name="Path 5878" d="M305.05,154.318a6.126,6.126,0,0,1,4.724-.748" transform="translate(-135.984 -121.474)" fill="none" stroke="#263238" stroke-linecap="round" stroke-linejoin="round" stroke-width="1"/>
      <path id="Path_5879" data-name="Path 5879" d="M322.53,155.082s1.49-.748,4.724,1.243" transform="translate(-141.786 -121.99)" fill="none" stroke="#263238" stroke-linecap="round" stroke-linejoin="round" stroke-width="1"/>
      <path id="Path_5880" data-name="Path 5880" d="M311.631,125.607s-6.955,5.719-10.436,9.193-4.971,5.966-10.189,3.735-8.953-9.948-2-19.141,20.384-11.932,33.553-8.2,18.647,12.18,19.636,21.38-1,19.382-5.679,22.121-15.166-8.452-18.894-15.413A99.108,99.108,0,0,1,311.631,125.607Z" transform="translate(-129.397 -106.934)" fill="#263238" stroke="#263238" stroke-linecap="round" stroke-linejoin="round" stroke-width="1"/>
      <path id="Path_5881" data-name="Path 5881" d="M314.949,133.57s-18.767,2.766-19.656,6.928,4.764,2.98,4.764,2.98" transform="translate(-132.715 -114.897)" fill="none" stroke="#fff" stroke-width="1"/>
      <path id="Path_5882" data-name="Path 5882" d="M291.4,137.68a5.066,5.066,0,0,0-.261,4.483" transform="translate(-131.242 -116.261)" fill="none" stroke="#fff" stroke-width="1"/>
      <path id="Path_5883" data-name="Path 5883" d="M333.315,120.063s-18.159-2.973-18.159,5.058c0,0-11.011-3.868-18.153,1.49a18.233,18.233,0,0,0-2.933,2.672" transform="translate(-132.34 -110.235)" fill="none" stroke="#fff" stroke-width="1"/>
      <path id="Path_5884" data-name="Path 5884" d="M327,130.58s4.63,14.939,14.291,18.754" transform="translate(-143.269 -113.904)" fill="none" stroke="#fff" stroke-width="1"/>
      <path id="Path_5885" data-name="Path 5885" d="M341.42,136.59c3.721,3.073,9.046,6.107,15.367,5.806" transform="translate(-148.055 -115.899)" fill="none" stroke="#fff" stroke-width="1"/>
      <path id="Path_5886" data-name="Path 5886" d="M332.76,127.46a30.617,30.617,0,0,0,2.86,3.387" transform="translate(-145.181 -112.869)" fill="none" stroke="#fff" stroke-width="1"/>
      <path id="Path_5887" data-name="Path 5887" d="M297,156.636l29.076,4.971s0,4.423-1.243,6.681-2.733,2.285-5.966,2.285-7.73-2-7.951-2.733c-.514-1.764-.167-7.583-.167-7.583l-2.318-.374s.3,6.781-.942,7.53-9.447-.748-10.937-2.733S296.007,156.382,297,156.636Z" transform="translate(-132.907 -122.55)" fill="none" stroke="#263238" stroke-linecap="round" stroke-linejoin="round" stroke-width="1"/>
      <path id="Path_5888" data-name="Path 5888" d="M341.13,162.968l12.928-2.238v1.737L341.13,165.7Z" transform="translate(-147.959 -123.911)" fill="#9672fb" stroke="#263238" stroke-linecap="round" stroke-linejoin="round" stroke-width="1"/>
      <ellipse id="Ellipse_170" data-name="Ellipse 170" cx="11.525" cy="7.209" rx="11.525" ry="7.209" transform="translate(199.577 49.696) rotate(-80.87)" fill="#9672fb" stroke="#263238" stroke-linecap="round" stroke-linejoin="round" stroke-width="1"/>
      <path id="Path_5889" data-name="Path 5889" d="M372.757,161.6c-.848,5.291-3.795,9.213-6.568,8.766s-4.343-5.091-3.494-10.382,3.788-9.207,6.568-8.759S373.606,156.314,372.757,161.6Z" transform="translate(-155.04 -120.744)" fill="#9672fb" stroke="#263238" stroke-linecap="round" stroke-linejoin="round" stroke-width="1"/>
      <path id="Path_5890" data-name="Path 5890" d="M370.886,131.455a58.927,58.927,0,0,1-2.238,20.631s-.247,4.009,3.481,2.238,3.234-16.9,2.733-23.117S369.65,126.731,370.886,131.455Z" transform="translate(-157.091 -112.781)" fill="#fff" stroke="#263238" stroke-linecap="round" stroke-linejoin="round" stroke-width="1"/>
      <path id="Path_5891" data-name="Path 5891" d="M348.465,112.609s5.712-1.49,8.685,3.735,2.485,9.941,6.681,10.436,4.476-4.222,2.238-10.189-6.955-10.443-13.422-10.937A10.738,10.738,0,0,0,343,110.377,12.4,12.4,0,0,1,348.465,112.609Z" transform="translate(-148.579 -105.621)" fill="#9672fb" stroke="#263238" stroke-linecap="round" stroke-linejoin="round" stroke-width="1"/>
      <path id="Path_5892" data-name="Path 5892" d="M301.6,250.182l-17.15,39.024s-46.728,8.685-50.95,8.685-12.694,2.98-14.418,4.009-18.62,8.786-15.367,9.267c2,.3,7.189-2.552,7.189-2.552s-8.2,4.009-7.463,5.218,10.69-3.728,10.69-3.728-9.093,5.345-7.229,5.646c1.7.3,3.748-.668,5.492-1.918a20.207,20.207,0,0,1,4.871-2.165s-4.009,2.673-4.483,3.888,1,.494,2.485,0a61.619,61.619,0,0,0,8.064-4.209c.989-.748,3.975-2.238,5.966-3.975l3.975-3.481s26.591.742,38.75.247,18.146-1.737,22.622-6.213,17.15-32.811,20.13-40.514,1-12.18-2-17.371" transform="translate(-102.214 -150.233)" fill="#fff"/>
      <g id="Group_6799" data-name="Group 6799" transform="translate(101.085 89.807)" clip-path="url(#clip-path-5)">
        <path id="Path_5893" data-name="Path 5893" d="M317.684,279.9c-8.017,15.079-14.785,19.81-21.881,23.384s-46.133,4.436-46.133,4.436l1.644.394c7.049.174,26.27.581,36.078.18,12.18-.494,18.146-1.737,22.622-6.213s17.15-32.811,20.13-40.514a17.733,17.733,0,0,0,1.336-9.02l-1.69,1.062A239.62,239.62,0,0,1,317.684,279.9Z" transform="translate(-218.689 -244.192)" fill="#9672fb" opacity="0.5"/>
      </g>
      <path id="Path_5895" data-name="Path 5895" d="M301.6,250.182l-17.15,39.024s-46.728,8.685-50.95,8.685-12.694,2.98-14.418,4.009-18.62,8.786-15.367,9.267c2,.3,7.189-2.552,7.189-2.552s-8.2,4.009-7.463,5.218,10.69-3.728,10.69-3.728-9.093,5.345-7.229,5.646c1.7.3,3.748-.668,5.492-1.918a20.207,20.207,0,0,1,4.871-2.165s-4.009,2.673-4.483,3.888,1,.494,2.485,0a61.619,61.619,0,0,0,8.064-4.209c.989-.748,3.975-2.238,5.966-3.975l3.975-3.481s26.591.742,38.75.247,18.146-1.737,22.622-6.213,17.15-32.811,20.13-40.514,1-12.18-2-17.371" transform="translate(-102.214 -150.233)" fill="none" stroke="#263238" stroke-width="1"/>
      <path id="Path_5896" data-name="Path 5896" d="M347.408,249.2l-5.218,13.529c3.835-2.044,11.031-4.79,16.77-.668.808-1.9,1.47-3.5,1.911-4.643,2.986-7.7,1-12.18-2-17.371" transform="translate(-148.311 -150.236)" fill="#263238" stroke="#263238" stroke-linecap="round" stroke-linejoin="round" stroke-width="1"/>
      <path id="Path_5897" data-name="Path 5897" d="M272.121,280.62c-5.044,1.477-24.967,7.309-26.818,7.743a28.45,28.45,0,0,1-3.481.621S234.861,286,233,284.635s-4.1-.5-5.218,0-2,3.975.127,3.975,2.485-.127,4.844,1.864,2.365,2.986,4.1,3.728,4.6.247,6.093,0c1.336-.22,24.44-1.757,30.125-2.058C273.812,289.018,273.07,284.134,272.121,280.62Z" transform="translate(-109.95 -163.701)" fill="#fff"/>
      <g id="Group_6800" data-name="Group 6800" transform="translate(116.658 116.919)" clip-path="url(#clip-path-6)">
        <path id="Path_5898" data-name="Path 5898" d="M281.031,286,251.06,296.022c1.336-.22,24.44-1.757,30.125-2.058A21.91,21.91,0,0,0,281.031,286Z" transform="translate(-234.723 -282.406)" fill="#9672fb" opacity="0.5"/>
      </g>
      <path id="Path_5900" data-name="Path 5900" d="M272.121,280.62c-5.044,1.477-24.967,7.309-26.818,7.743a28.45,28.45,0,0,1-3.481.621S234.861,286,233,284.635s-4.1-.5-5.218,0-2,3.975.127,3.975,2.485-.127,4.844,1.864,2.365,2.986,4.1,3.728,4.6.247,6.093,0c1.336-.22,24.44-1.757,30.125-2.058C273.812,289.018,273.07,284.134,272.121,280.62Z" transform="translate(-109.95 -163.701)" fill="none" stroke="#263238" stroke-linecap="round" stroke-linejoin="round" stroke-width="1"/>
      <path id="Path_5901" data-name="Path 5901" d="M218.412,292.77s-2.612,1.49-3.341,3.227.742,1.243,1.243.875,2.612-2.118,2.612-2.118Z" transform="translate(-106.055 -167.733)" fill="#fff" stroke="#263238" stroke-linecap="round" stroke-linejoin="round" stroke-width="1"/>
      <path id="Path_5902" data-name="Path 5902" d="M220.607,290.9a2.986,2.986,0,0,0-1.336,2.986c.247,2.111,2.485,5.218,2.739,3.975S220.607,290.9,220.607,290.9Z" transform="translate(-107.503 -167.113)" fill="#fff" stroke="#263238" stroke-linecap="round" stroke-linejoin="round" stroke-width="1"/>
      <path id="Path_5903" data-name="Path 5903" d="M224.284,288.11s-2.365.621-3.107,1.864.494,6.594,1.37,6.962a1.336,1.336,0,0,0,1.864-.989C224.658,295.072,224.284,288.11,224.284,288.11Z" transform="translate(-108.072 -166.187)" fill="#fff" stroke="#263238" stroke-linecap="round" stroke-linejoin="round" stroke-width="1"/>
      <path id="Path_5904" data-name="Path 5904" d="M228.365,286.25s-3.113,0-3.481,1.5-1,7.95-.374,8.946,1.617.621,2.111-.621S228.365,286.25,228.365,286.25Z" transform="translate(-109.167 -165.569)" fill="#fff" stroke="#263238" stroke-linecap="round" stroke-linejoin="round" stroke-width="1"/>
      <path id="Path_5905" data-name="Path 5905" d="M232.1,268.92,227,292.164l.8,2.966a.267.267,0,0,0,.448.12l2.231-2.218,3.728-23.491Z" transform="translate(-110.08 -159.818)" fill="#263238"/>
      <path id="Path_5906" data-name="Path 5906" d="M237.488,297s-2.86,1.122-5.1,2.118-4.476,1.49-4.229,2.86,1.243.869,2.86.374a34.027,34.027,0,0,1,6.841-1.617c3.107-.374,5.592-3.234,5.592-3.234" transform="translate(-110.459 -169.137)" fill="#fff" stroke="#263238" stroke-linecap="round" stroke-linejoin="round" stroke-width="1"/>
      <path id="Path_5907" data-name="Path 5907" d="M227.1,304.25l.521,2.191a.621.621,0,0,0,1.029.307l1.223-1.163" transform="translate(-110.114 -171.543)" fill="none" stroke="#fff" stroke-linecap="round" stroke-linejoin="round" stroke-width="0.5"/>
      <line id="Line_55" data-name="Line 55" y1="11.772" x2="2.639" transform="translate(116.926 120.574)" fill="none" stroke="#fff" stroke-linecap="round" stroke-linejoin="round" stroke-width="0.5"/>
      <line id="Line_56" data-name="Line 56" x2="33.706" y2="31.348" transform="translate(25.615 86.186)" fill="none" stroke="#263238" stroke-linecap="round" stroke-linejoin="round" stroke-width="0.5"/>
    </g>
  </g>
</svg>
