<svg xmlns="http://www.w3.org/2000/svg" width="218.97" height="201.288" viewBox="0 0 218.97 201.288">
  <g id="sent" transform="translate(-48 -78.2)">
    <g id="freepik--Floor--inject-55" transform="translate(48 279.023)">
      <path id="Path_5756" data-name="Path 5756" d="M266.97,448.872c0,.081-49.019.146-109.485.146S48,448.958,48,448.872s49.013-.152,109.485-.152S266.97,448.8,266.97,448.872Z" transform="translate(-48 -448.72)" fill="#263238"/>
    </g>
    <g id="freepik--mail-sent--inject-55" transform="translate(75.034 78.2)">
      <path id="Path_5757" data-name="Path 5757" d="M220.263,80.617,214.9,84.7l.26,7.794-4.905-3.9-2.71,2.32L197.25,78.2Z" transform="translate(-143.39 -78.2)" fill="#9672fb"/>
      <path id="Path_5758" data-name="Path 5758" d="M223.879,93.25c0,.238,2.276,6.135,2.276,6.135l-4.905-3.9Z" transform="translate(-154.382 -85.093)" fill="#9672fb"/>
      <g id="Group_6832" data-name="Group 6832" transform="translate(66.868 8.157)" opacity="0.3">
        <path id="Path_5759" data-name="Path 5759" d="M223.879,93.25c0,.238,2.276,6.135,2.276,6.135l-4.905-3.9Z" transform="translate(-221.25 -93.25)"/>
      </g>
      <path id="Path_5760" data-name="Path 5760" d="M197.25,78.2l15.637,8.157,2.276,6.135L214.9,84.7Z" transform="translate(-143.39 -78.2)" fill="#9672fb"/>
      <path id="Path_5761" data-name="Path 5761" d="M197.25,78.2l15.637,8.157,2.276,6.135L214.9,84.7Z" transform="translate(-143.39 -78.2)" opacity="0.1"/>
      <path id="Path_5762" data-name="Path 5762" d="M274.9,271.648a7,7,0,0,1-2.78-.677A7,7,0,0,1,274.9,271.648Z" transform="translate(-177.68 -166.488)" fill="#263238"/>
      <path id="Path_5763" data-name="Path 5763" d="M284.028,273.837c0,.081-.406.054-.862-.054s-.813-.271-.8-.352.406-.054.867.06S284.05,273.756,284.028,273.837Z" transform="translate(-182.374 -167.593)" fill="#263238"/>
      <path id="Path_5764" data-name="Path 5764" d="M249.32,102.117a4.222,4.222,0,0,1-1.415-.222,3.962,3.962,0,0,1-1.366-.428,3.187,3.187,0,0,1,1.436.141A3.019,3.019,0,0,1,249.32,102.117Z" transform="translate(-165.965 -88.844)" fill="#263238"/>
      <path id="Path_5765" data-name="Path 5765" d="M259.193,105.759a9.718,9.718,0,0,1-2.553-1.279,3.084,3.084,0,0,1,1.36.466C258.71,105.3,259.236,105.689,259.193,105.759Z" transform="translate(-170.59 -90.236)" fill="#263238"/>
      <path id="Path_5766" data-name="Path 5766" d="M267.907,111.62c-.06.06-.542-.347-1.149-.856s-1.084-.943-1.014-1.014a3.144,3.144,0,0,1,1.22.786C267.554,111.056,267.966,111.566,267.907,111.62Z" transform="translate(-174.757 -92.65)" fill="#263238"/>
      <path id="Path_5767" data-name="Path 5767" d="M274.812,119.532c-.076.038-.434-.488-.867-1.138a4.255,4.255,0,0,1-.7-1.247c.06-.049.515.417.954,1.084A3.079,3.079,0,0,1,274.812,119.532Z" transform="translate(-178.193 -96.036)" fill="#263238"/>
      <path id="Path_5768" data-name="Path 5768" d="M279.115,129.093a4.335,4.335,0,0,1-.477-1.35,4.1,4.1,0,0,1-.3-1.4,3.159,3.159,0,0,1,.58,1.322A2.959,2.959,0,0,1,279.115,129.093Z" transform="translate(-180.529 -100.248)" fill="#263238"/>
      <path id="Path_5769" data-name="Path 5769" d="M280.233,139.506a4.466,4.466,0,0,1-.06-1.431,4.087,4.087,0,0,1,.13-1.425,3.16,3.16,0,0,1,.168,1.431A3.094,3.094,0,0,1,280.233,139.506Z" transform="translate(-181.354 -104.97)" fill="#263238"/>
      <path id="Path_5770" data-name="Path 5770" d="M277.58,149.788a4.411,4.411,0,0,1,.4-1.371,4.554,4.554,0,0,1,.542-1.317,2.867,2.867,0,0,1-.287,1.415A2.943,2.943,0,0,1,277.58,149.788Z" transform="translate(-180.181 -109.756)" fill="#263238"/>
      <path id="Path_5771" data-name="Path 5771" d="M271.466,158.778c-.054-.065.369-.542.883-1.127s.927-1.084,1-1.024a2.964,2.964,0,0,1-.775,1.22C272.046,158.452,271.52,158.837,271.466,158.778Z" transform="translate(-177.378 -114.116)" fill="#263238"/>
      <path id="Path_5772" data-name="Path 5772" d="M262.65,165.162a4.477,4.477,0,0,1,1.225-.737,4.379,4.379,0,0,1,1.306-.585,3,3,0,0,1-1.171.851A2.954,2.954,0,0,1,262.65,165.162Z" transform="translate(-173.343 -117.423)" fill="#263238"/>
      <path id="Path_5773" data-name="Path 5773" d="M252.39,168.17a4.336,4.336,0,0,1,1.415-.266,4.461,4.461,0,0,1,1.431-.092,2.965,2.965,0,0,1-1.393.385A2.894,2.894,0,0,1,252.39,168.17Z" transform="translate(-168.644 -119.232)" fill="#263238"/>
      <path id="Path_5774" data-name="Path 5774" d="M242.09,166.54a15.483,15.483,0,0,1,2.71.829,2.813,2.813,0,0,1-1.431-.2,2.759,2.759,0,0,1-1.279-.634Z" transform="translate(-163.926 -118.659)" fill="#263238"/>
      <path id="Path_5775" data-name="Path 5775" d="M234.79,159.3c.081-.027.331.542.775,1.182s.873,1.084.813,1.165-.591-.325-1.057-.992A2.168,2.168,0,0,1,234.79,159.3Z" transform="translate(-160.583 -115.343)" fill="#263238"/>
      <path id="Path_5776" data-name="Path 5776" d="M237.332,151.108c0,.087-.591.276-1.209.715s-.949.986-1.024.943.163-.694.851-1.182a1.984,1.984,0,0,1,1.382-.477Z" transform="translate(-160.718 -111.591)" fill="#263238"/>
      <path id="Path_5777" data-name="Path 5777" d="M246.517,153.28c-.076.043-.423-.488-.986-1.008s-1.138-.781-1.084-.862a1.978,1.978,0,0,1,1.312.645A2.1,2.1,0,0,1,246.517,153.28Z" transform="translate(-165.004 -111.73)" fill="#263238"/>
      <path id="Path_5778" data-name="Path 5778" d="M248.61,162.711a6.866,6.866,0,0,1,.266-1.393,6.962,6.962,0,0,1,.266-1.4,2.472,2.472,0,0,1,0,1.453A2.423,2.423,0,0,1,248.61,162.711Z" transform="translate(-166.913 -115.627)" fill="#263238"/>
      <path id="Path_5779" data-name="Path 5779" d="M241.757,171.341c-.049-.07.444-.477,1.035-.981a5.886,5.886,0,0,1,1.122-.883,2.824,2.824,0,0,1-.927,1.084A3.414,3.414,0,0,1,241.757,171.341Z" transform="translate(-163.773 -120.002)" fill="#263238"/>
      <path id="Path_5780" data-name="Path 5780" d="M232.41,176.772a3.6,3.6,0,0,1,1.236-.732,3.506,3.506,0,0,1,1.36-.461,6.915,6.915,0,0,1-2.6,1.192Z" transform="translate(-159.493 -122.8)" fill="#263238"/>
      <path id="Path_5781" data-name="Path 5781" d="M223,181.369c-.043-.07.472-.455,1.154-.867a3.252,3.252,0,0,1,1.333-.542c.043.081-.51.412-1.187.8A3.5,3.5,0,0,1,223,181.369Z" transform="translate(-155.181 -124.806)" fill="#263238"/>
      <path id="Path_5782" data-name="Path 5782" d="M214.995,187.745c-.06-.054.314-.585.883-1.144a3.181,3.181,0,0,1,1.154-.862c.054.065-.385.542-.943,1.084S215.081,187.8,214.995,187.745Z" transform="translate(-151.514 -127.453)" fill="#263238"/>
      <path id="Path_5783" data-name="Path 5783" d="M209,196a3.155,3.155,0,0,1,.585-1.317c.417-.677.846-1.165.911-1.117a4.022,4.022,0,0,1-.656,1.274C209.428,195.508,209.076,196.039,209,196Z" transform="translate(-148.771 -131.036)" fill="#263238"/>
      <path id="Path_5784" data-name="Path 5784" d="M205.156,205.565a3.041,3.041,0,0,1,.26-1.415,3.084,3.084,0,0,1,.623-1.3,9.647,9.647,0,0,1-.883,2.71Z" transform="translate(-147.009 -135.289)" fill="#263238"/>
      <path id="Path_5785" data-name="Path 5785" d="M203.687,215.891a5.312,5.312,0,0,1,.2-2.851,4.169,4.169,0,0,1,0,1.431A4.1,4.1,0,0,1,203.687,215.891Z" transform="translate(-146.288 -139.956)" fill="#263238"/>
      <path id="Path_5786" data-name="Path 5786" d="M204.645,226.362A3.485,3.485,0,0,1,204.2,225a2.916,2.916,0,0,1-.119-1.436,4.515,4.515,0,0,1,.412,1.377A3.5,3.5,0,0,1,204.645,226.362Z" transform="translate(-146.498 -144.774)" fill="#263238"/>
      <path id="Path_5787" data-name="Path 5787" d="M208.158,236.268c-.07.043-.455-.477-.808-1.192a3.024,3.024,0,0,1-.461-1.366,4.131,4.131,0,0,1,.726,1.236A4.087,4.087,0,0,1,208.158,236.268Z" transform="translate(-147.805 -149.423)" fill="#263238"/>
      <path id="Path_5788" data-name="Path 5788" d="M213.974,245.015c-.054.054-.542-.358-1.084-.965a3.208,3.208,0,0,1-.78-1.214c.07-.054.5.423,1.008,1.019S214.034,244.956,213.974,245.015Z" transform="translate(-150.196 -153.601)" fill="#263238"/>
      <path id="Path_5789" data-name="Path 5789" d="M221.716,252.136a3.1,3.1,0,0,1-1.268-.688c-.64-.466-1.084-.932-1.041-1a4.151,4.151,0,0,1,1.22.759C221.256,251.67,221.76,252.065,221.716,252.136Z" transform="translate(-153.537 -157.09)" fill="#263238"/>
      <path id="Path_5790" data-name="Path 5790" d="M230.93,257.2a3.03,3.03,0,0,1-1.4-.352,2.954,2.954,0,0,1-1.252-.715,4.336,4.336,0,0,1,1.36.439A4.532,4.532,0,0,1,230.93,257.2Z" transform="translate(-157.602 -159.691)" fill="#263238"/>
      <path id="Path_5791" data-name="Path 5791" d="M238.375,259.317c0,.076-.049.141-.076.135s-.038-.076,0-.157.049-.141.076-.135S238.391,259.236,238.375,259.317Z" transform="translate(-162.179 -161.079)" fill="#263238"/>
      <rect id="Rectangle_3268" data-name="Rectangle 3268" width="6.238" height="3.881" transform="matrix(0.95, 0.312, -0.312, 0.95, 66.125, 82.097)" fill="#9672fb"/>
      <g id="Group_6833" data-name="Group 6833" transform="translate(64.914 82.097)" opacity="0.3">
        <rect id="Rectangle_3269" data-name="Rectangle 3269" width="6.238" height="3.881" transform="matrix(0.95, 0.312, -0.312, 0.95, 1.211, 0)"/>
      </g>
      <path id="Path_5792" data-name="Path 5792" d="M225.784,231.631a24.6,24.6,0,0,1-3.436,1.409l-.1.038-.065-.087-.1-.13a24.345,24.345,0,0,1-2.217-3.182,25.511,25.511,0,0,1,2.455,3l.1.13-.168-.049A23.071,23.071,0,0,1,225.784,231.631Z" transform="translate(-153.745 -147.577)" fill="#9672fb"/>
      <g id="Group_6834" data-name="Group 6834" transform="translate(66.115 82.103)" opacity="0.1">
        <path id="Path_5793" data-name="Path 5793" d="M225.784,231.631a24.6,24.6,0,0,1-3.436,1.409l-.1.038-.065-.087-.1-.13a24.345,24.345,0,0,1-2.217-3.182,25.511,25.511,0,0,1,2.455,3l.1.13-.168-.049A23.071,23.071,0,0,1,225.784,231.631Z" transform="translate(-219.86 -229.68)"/>
      </g>
      <path id="Path_5794" data-name="Path 5794" d="M220.531,233.85a4.455,4.455,0,0,1-1.393.851,4.764,4.764,0,0,1-1.528.58,4.608,4.608,0,0,1,1.4-.851A4.807,4.807,0,0,1,220.531,233.85Z" transform="translate(-152.715 -149.487)" fill="#9672fb"/>
      <g id="Group_6835" data-name="Group 6835" transform="translate(64.895 84.363)" opacity="0.1">
        <path id="Path_5795" data-name="Path 5795" d="M220.531,233.85a4.455,4.455,0,0,1-1.393.851,4.764,4.764,0,0,1-1.528.58,4.608,4.608,0,0,1,1.4-.851A4.807,4.807,0,0,1,220.531,233.85Z" transform="translate(-217.61 -233.85)"/>
      </g>
      <path id="Path_5796" data-name="Path 5796" d="M227.674,237.722a4.466,4.466,0,0,1-.759-1.371c-.358-.808-.6-1.5-.488-1.491a4.531,4.531,0,0,1,.764,1.371A4.217,4.217,0,0,1,227.674,237.722Z" transform="translate(-156.741 -149.95)" fill="#9672fb"/>
      <g id="Group_6836" data-name="Group 6836" transform="translate(69.66 84.91)" opacity="0.1">
        <path id="Path_5797" data-name="Path 5797" d="M227.674,237.722a4.466,4.466,0,0,1-.759-1.371c-.358-.808-.6-1.5-.488-1.491a4.531,4.531,0,0,1,.764,1.371A4.217,4.217,0,0,1,227.674,237.722Z" transform="translate(-226.401 -234.86)"/>
      </g>
      <rect id="Rectangle_3270" data-name="Rectangle 3270" width="16.043" height="9.984" transform="matrix(0.95, 0.312, -0.312, 0.95, 80.979, 93.481)" fill="#9672fb"/>
      <path id="Path_5798" data-name="Path 5798" d="M262.478,255.7a3.891,3.891,0,0,1-.683.309l-1.9.742c-1.626.612-3.843,1.447-6.341,2.363l-.1.038-.065-.087-.255-.336c-1.659-2.168-3.154-4.19-4.222-5.648l-1.274-1.729a4.339,4.339,0,0,1-.428-.661,4.283,4.283,0,0,1,.542.591l1.328,1.675c1.111,1.42,2.629,3.4,4.293,5.594l.255.331-.168-.049c2.493-.911,4.743-1.713,6.369-2.276l1.93-.656A4,4,0,0,1,262.478,255.7Z" transform="translate(-166.271 -157.2)" fill="#9672fb"/>
      <g id="Group_6837" data-name="Group 6837" transform="translate(80.939 93.49)" opacity="0.2">
        <path id="Path_5799" data-name="Path 5799" d="M262.478,255.7a3.891,3.891,0,0,1-.683.309l-1.9.742c-1.626.612-3.843,1.447-6.341,2.363l-.1.038-.065-.087-.255-.336c-1.659-2.168-3.154-4.19-4.222-5.648l-1.274-1.729a4.339,4.339,0,0,1-.428-.661,4.283,4.283,0,0,1,.542.591l1.328,1.675c1.111,1.42,2.629,3.4,4.293,5.594l.255.331-.168-.049c2.493-.911,4.743-1.713,6.369-2.276l1.93-.656A4,4,0,0,1,262.478,255.7Z" transform="translate(-247.21 -250.69)"/>
      </g>
      <path id="Path_5800" data-name="Path 5800" d="M249.028,261.42a59.725,59.725,0,0,1-7.518,3.669,56.888,56.888,0,0,1,7.518-3.669Z" transform="translate(-163.661 -162.114)" fill="#9672fb"/>
      <g id="Group_6838" data-name="Group 6838" transform="translate(77.849 99.306)" opacity="0.2">
        <path id="Path_5801" data-name="Path 5801" d="M249.028,261.42a59.725,59.725,0,0,1-7.518,3.669,56.888,56.888,0,0,1,7.518-3.669Z" transform="translate(-241.51 -261.42)"/>
      </g>
      <path id="Path_5802" data-name="Path 5802" d="M267.433,271.366a27.651,27.651,0,0,1-1.74-3.621A27.347,27.347,0,0,1,264.23,264a27.521,27.521,0,0,1,1.74,3.626A27.144,27.144,0,0,1,267.433,271.366Z" transform="translate(-174.067 -163.296)" fill="#9672fb"/>
      <g id="Group_6839" data-name="Group 6839" transform="translate(90.163 100.704)" opacity="0.2">
        <path id="Path_5803" data-name="Path 5803" d="M267.433,271.366a27.651,27.651,0,0,1-1.74-3.621A27.347,27.347,0,0,1,264.23,264a27.521,27.521,0,0,1,1.74,3.626A27.144,27.144,0,0,1,267.433,271.366Z" transform="translate(-264.23 -264)"/>
      </g>
      <path id="Path_5804" data-name="Path 5804" d="M245.6,251.368a2.379,2.379,0,1,1,.944-1.558A2.379,2.379,0,0,1,245.6,251.368Z" transform="translate(-163.8 -155.542)" fill="#263238"/>
      <path id="Path_5805" data-name="Path 5805" d="M246.687,250.554a10.876,10.876,0,0,1-1.6.986l-.379.211-.07.038-.038-.065a7.692,7.692,0,0,1-.65-1.285,7.149,7.149,0,0,1,.786,1.209l-.1-.033.379-.217A10.764,10.764,0,0,1,246.687,250.554Z" transform="translate(-164.778 -157.085)" fill="#fff"/>
      <rect id="Rectangle_3271" data-name="Rectangle 3271" width="8.406" height="5.23" transform="matrix(0.95, 0.312, -0.312, 0.95, 78.444, 83.084)" fill="#9672fb"/>
      <g id="Group_6840" data-name="Group 6840" transform="translate(76.812 83.084)" opacity="0.2">
        <rect id="Rectangle_3272" data-name="Rectangle 3272" width="8.406" height="5.23" transform="matrix(0.95, 0.312, -0.312, 0.95, 1.632, 0)"/>
      </g>
      <path id="Path_5806" data-name="Path 5806" d="M250.568,234.123a1.813,1.813,0,0,1-.352.163l-1,.39c-.84.32-2.011.759-3.323,1.236h-.054l-.033-.049-.13-.173c-.873-1.149-1.626-2.2-2.217-2.959l-.65-.883a2.386,2.386,0,0,1-.222-.347,2.047,2.047,0,0,1,.271.309l.7.878c.58.743,1.377,1.778,2.244,2.927l.135.179h-.087c1.306-.477,2.482-.9,3.339-1.192l1.008-.341A1.745,1.745,0,0,1,250.568,234.123Z" transform="translate(-164.155 -148.411)" fill="#9672fb"/>
      <g id="Group_6841" data-name="Group 6841" transform="translate(78.435 83.089)" opacity="0.2">
        <path id="Path_5807" data-name="Path 5807" d="M250.568,234.123a1.813,1.813,0,0,1-.352.163l-1,.39c-.84.32-2.011.759-3.323,1.236h-.054l-.033-.049-.13-.173c-.873-1.149-1.626-2.2-2.217-2.959l-.65-.883a2.386,2.386,0,0,1-.222-.347,2.047,2.047,0,0,1,.271.309l.7.878c.58.743,1.377,1.778,2.244,2.927l.135.179h-.087c1.306-.477,2.482-.9,3.339-1.192l1.008-.341A1.745,1.745,0,0,1,250.568,234.123Z" transform="translate(-242.59 -231.5)" fill="#9672fb"/>
      </g>
      <path id="Path_5808" data-name="Path 5808" d="M243.51,237.12a16.333,16.333,0,0,1-1.935,1.03,16.125,16.125,0,0,1-2.005.894,14.914,14.914,0,0,1,1.935-1.035A15.21,15.21,0,0,1,243.51,237.12Z" transform="translate(-162.772 -150.985)" fill="#9672fb"/>
      <g id="Group_6842" data-name="Group 6842" transform="translate(76.798 86.135)" opacity="0.2">
        <path id="Path_5809" data-name="Path 5809" d="M243.51,237.12a16.333,16.333,0,0,1-1.935,1.03,16.125,16.125,0,0,1-2.005.894,14.914,14.914,0,0,1,1.935-1.035A15.21,15.21,0,0,1,243.51,237.12Z" transform="translate(-239.57 -237.12)" fill="#9672fb"/>
      </g>
      <path id="Path_5810" data-name="Path 5810" d="M253.15,242.329a14.305,14.305,0,0,1-.911-1.9,15.322,15.322,0,0,1-.77-1.962A27.589,27.589,0,0,1,253.15,242.329Z" transform="translate(-168.223 -151.603)" fill="#9672fb"/>
      <g id="Group_6843" data-name="Group 6843" transform="translate(83.248 86.867)" opacity="0.2">
        <path id="Path_5811" data-name="Path 5811" d="M253.15,242.329a14.305,14.305,0,0,1-.911-1.9,15.322,15.322,0,0,1-.77-1.962A27.589,27.589,0,0,1,253.15,242.329Z" transform="translate(-251.47 -238.47)" fill="#9672fb"/>
      </g>
      <path id="Path_5812" data-name="Path 5812" d="M120.166,109.65a11.317,11.317,0,1,1-8.184-13.756A11.317,11.317,0,0,1,120.166,109.65Z" transform="translate(-97.878 -86.143)" fill="#263238"/>
      <path id="Path_5813" data-name="Path 5813" d="M117.68,105.109c.2.081-1.084,3.87-2.873,8.466-.266.667-.542,1.306-.764,1.935l-.135.341-.341-.13c-3.669-1.415-6.352-2.58-6.287-2.748s2.851.71,6.547,2.049l-.477.217c.238-.629.488-1.274.743-1.94C115.875,108.7,117.485,105.05,117.68,105.109Z" transform="translate(-102.183 -90.524)" fill="#fff"/>
    </g>
    <g id="freepik--Plant--inject-55" transform="translate(214.622 235.175)">
      <path id="Path_5814" data-name="Path 5814" d="M393.633,416.25a10.477,10.477,0,0,1,6.5-.791,5.411,5.411,0,0,1,3.219,1.431,2.316,2.316,0,0,1,.033,3.214,3.127,3.127,0,0,1-2.027.515c-1.724,0-3.631-.325-5.008.71-.786.591-1.306,1.572-2.244,1.865a2.228,2.228,0,0,1-2.439-1.084,3.794,3.794,0,0,1-.276-2.8A4.26,4.26,0,0,1,393.633,416.25Z" transform="translate(-371.827 -389.545)" fill="#9672fb"/>
      <g id="Group_6844" data-name="Group 6844" transform="translate(19.419 25.711)" opacity="0.2">
        <path id="Path_5815" data-name="Path 5815" d="M393.633,416.25a10.477,10.477,0,0,1,6.5-.791,5.411,5.411,0,0,1,3.219,1.431,2.316,2.316,0,0,1,.033,3.214,3.127,3.127,0,0,1-2.027.515c-1.724,0-3.631-.325-5.008.71-.786.591-1.306,1.572-2.244,1.865a2.228,2.228,0,0,1-2.439-1.084,3.794,3.794,0,0,1-.276-2.8A4.26,4.26,0,0,1,393.633,416.25Z" transform="translate(-391.246 -415.256)" fill="#fff"/>
      </g>
      <path id="Path_5816" data-name="Path 5816" d="M386.314,385.766c1.214,1.729,3.566,1.154,4.656.1a8.8,8.8,0,0,0,1.973-4.043c.959-3.333,1.924-6.829,1.214-10.222a5.751,5.751,0,0,0-1.306-2.781,2.97,2.97,0,0,0-2.813-.938,4.341,4.341,0,0,0-2.455,2.585,24.422,24.422,0,0,0-2.412,10.461,8.528,8.528,0,0,0,1.144,4.846" transform="translate(-369.044 -367.82)" fill="#9672fb"/>
      <path id="Path_5817" data-name="Path 5817" d="M369.365,392.964a6.305,6.305,0,0,0,.976-5.794,11.193,11.193,0,0,0-3.425-4.976,18.525,18.525,0,0,0-6.141-3.6,6.57,6.57,0,0,0-2.764-.472,2.911,2.911,0,0,0-2.32,1.4c-.645,1.23-.027,2.71.645,3.946a47.06,47.06,0,0,0,4.032,6.146,10.892,10.892,0,0,0,4.439,3.794c1.843.7,3.756.623,4.732-.656" transform="translate(-355.418 -372.536)" fill="#9672fb"/>
      <g id="Group_6845" data-name="Group 6845" transform="translate(0 5.581)" opacity="0.1">
        <path id="Path_5818" data-name="Path 5818" d="M369.365,392.964a6.305,6.305,0,0,0,.976-5.794,11.193,11.193,0,0,0-3.425-4.976,18.525,18.525,0,0,0-6.141-3.6,6.57,6.57,0,0,0-2.764-.472,2.911,2.911,0,0,0-2.32,1.4c-.645,1.23-.027,2.71.645,3.946a47.06,47.06,0,0,0,4.032,6.146,10.892,10.892,0,0,0,4.439,3.794c1.843.7,3.756.623,4.732-.656" transform="translate(-355.418 -378.117)"/>
      </g>
      <path id="Path_5819" data-name="Path 5819" d="M387.106,435.6a3.875,3.875,0,0,0,.108-.786c.06-.575.125-1.29.211-2.168a30.6,30.6,0,0,1,.482-3.144,23.974,23.974,0,0,1,1.144-3.713,13.682,13.682,0,0,1,1.9-3.36,7.046,7.046,0,0,1,2.4-1.995,6.831,6.831,0,0,1,2.016-.629,3.793,3.793,0,0,0,.781-.108,3.25,3.25,0,0,0-.791,0,6.185,6.185,0,0,0-2.108.542,7.118,7.118,0,0,0-2.526,2.011,13.433,13.433,0,0,0-1.967,3.426,22.861,22.861,0,0,0-1.133,3.794,26.175,26.175,0,0,0-.417,3.182c-.07.911-.1,1.626-.108,2.168A3.853,3.853,0,0,0,387.106,435.6Z" transform="translate(-369.917 -391.569)" fill="#263238"/>
      <path id="Path_5820" data-name="Path 5820" d="M387.263,416.052a1.35,1.35,0,0,0,0-.363v-1.041c0-.905,0-2.217.043-3.832.081-3.252.358-7.7.9-12.607s1.257-9.323,1.913-12.466c.152-.791.309-1.507.455-2.13s.26-1.171.374-1.626.179-.748.244-1.014a1.467,1.467,0,0,0,.065-.363,1.532,1.532,0,0,0-.125.341l-.3,1c-.135.434-.271.97-.428,1.593s-.336,1.333-.51,2.13a118.855,118.855,0,0,0-1.989,12.488c-.542,4.916-.781,9.393-.8,12.634,0,1.626,0,2.932.054,3.837q.038.634.065,1.041A1.951,1.951,0,0,0,387.263,416.052Z" transform="translate(-369.928 -373.678)" fill="#263238"/>
      <path id="Path_5821" data-name="Path 5821" d="M377.68,409.653a6.7,6.7,0,0,0,0-1.084,28.585,28.585,0,0,0-.336-2.949,40.9,40.9,0,0,0-2.753-9.388,27.057,27.057,0,0,0-5.279-8.228,12.969,12.969,0,0,0-1.241-1.154c-.19-.163-.358-.32-.542-.45l-.477-.331a7.272,7.272,0,0,0-.921-.591,33.025,33.025,0,0,1,3.008,2.683,28.581,28.581,0,0,1,5.149,8.2,40.723,40.723,0,0,1,1.8,5.041c.471,1.577.786,3.03,1.024,4.255s.352,2.228.434,2.921a7.592,7.592,0,0,0,.13,1.079Z" transform="translate(-360.324 -375.908)" fill="#263238"/>
    </g>
    <g id="freepik--Device--inject-55" transform="translate(149.545 172.362)">
      <path id="Path_5822" data-name="Path 5822" d="M235.35,277.036h22.694l8.986-25.106h-1.257l-8.911,23.881-21.512.125Z" transform="translate(-235.35 -251.93)" fill="#455a64"/>
    </g>
    <g id="freepik--Desk--inject-55" transform="translate(118.13 197.468)">
      <path id="Path_5823" data-name="Path 5823" d="M216.85,303.61l.84,78.639H220l-.938-79.219Z" transform="translate(-195.463 -300.439)" fill="#263238"/>
      <path id="Path_5824" data-name="Path 5824" d="M306.447,302.69c-.309,1.5,2.081,79.582,2.081,79.582H310.7l-1.762-79.582Z" transform="translate(-236.485 -300.283)" fill="#263238"/>
      <path id="Path_5825" data-name="Path 5825" d="M273.883,298.25H177.39v3.978h7.962l-5.182,77.577,2.266.125,5.187-77.7h78.141l3.789,77.734h2.271l-3.789-77.734h5.848Z" transform="translate(-177.39 -298.25)" fill="#263238"/>
    </g>
    <g id="freepik--Character--inject-55" transform="translate(72.709 122.171)">
      <path id="Path_5826" data-name="Path 5826" d="M245.455,438.6v-5.962l-11.171-.114-.125,8.726.694.049c3.079.206,15.675.813,17.74.211C254.892,440.834,245.455,438.6,245.455,438.6Z" transform="translate(-157.97 -284.448)" fill="#9672fb"/>
      <path id="Path_5827" data-name="Path 5827" d="M238.212,445.791a3.865,3.865,0,0,0-1.4-2.4,3.794,3.794,0,0,0-2.6-.84l-.033,3.122Z" transform="translate(-157.979 -289.041)" fill="#f5f5f5"/>
      <path id="Path_5828" data-name="Path 5828" d="M250.047,446.05s3.317,1,2.894,1.539-13.171.407-18.791-.146v-.249l14.873.287S249.4,446.072,250.047,446.05Z" transform="translate(-157.965 -290.645)" fill="#f5f5f5"/>
      <path id="Path_5829" data-name="Path 5829" d="M233.87,448.14h.19l.542.043,2.027.108c1.713.081,4.081.157,6.7.19s4.992,0,6.7-.038l2.033-.06.542-.027h.19a.731.731,0,0,0-.19,0h-9.274c-2.612,0-4.986-.1-6.7-.152l-2.033-.065h-.732Z" transform="translate(-157.837 -291.602)" fill="#263238"/>
      <path id="Path_5830" data-name="Path 5830" d="M261.62,447.534a4.455,4.455,0,0,1,.39-.965,4.385,4.385,0,0,1,.7-.77,1.8,1.8,0,0,0-1.084,1.734Z" transform="translate(-170.546 -290.53)" fill="#263238"/>
      <path id="Path_5831" data-name="Path 5831" d="M255.57,445.075a1.42,1.42,0,0,0,.358-.428c.163-.255.276-.477.244-.5s-.19.173-.358.428A1.289,1.289,0,0,0,255.57,445.075Z" transform="translate(-167.775 -289.773)" fill="#263238"/>
      <path id="Path_5832" data-name="Path 5832" d="M253.908,444.474c.027.027.206-.087.4-.26s.331-.331.3-.358-.2.087-.4.255S253.886,444.426,253.908,444.474Z" transform="translate(-167.013 -289.638)" fill="#263238"/>
      <path id="Path_5833" data-name="Path 5833" d="M252.88,442.945a1.274,1.274,0,0,0,.58.081,1.332,1.332,0,0,0,.585-.054,1.274,1.274,0,0,0-.58-.081A1.35,1.35,0,0,0,252.88,442.945Z" transform="translate(-166.543 -289.193)" fill="#263238"/>
      <path id="Path_5834" data-name="Path 5834" d="M252.53,441.63a1.659,1.659,0,0,0,1.322.114Q253.191,441.692,252.53,441.63Z" transform="translate(-166.383 -288.62)" fill="#263238"/>
      <path id="Path_5835" data-name="Path 5835" d="M256.29,443.24a2.115,2.115,0,0,0,.721,0,4,4,0,0,0,.764-.157,2.077,2.077,0,0,0,.439-.179.363.363,0,0,0,.179-.217.293.293,0,0,0-.1-.293,1.322,1.322,0,0,0-1.626.369,1.274,1.274,0,0,0-.244.477v.2a1.881,1.881,0,0,1,.331-.607,1.274,1.274,0,0,1,.618-.4,1.122,1.122,0,0,1,.856.07c.114.087.065.217-.06.293a2.217,2.217,0,0,1-.406.168,4.933,4.933,0,0,1-.743.184A3.488,3.488,0,0,0,256.29,443.24Z" transform="translate(-168.105 -288.907)" fill="#263238"/>
      <path id="Path_5836" data-name="Path 5836" d="M255.852,442.945a.715.715,0,0,0,.092-.5,1.242,1.242,0,0,0-.19-.542.726.726,0,0,0-.6-.374.282.282,0,0,0-.222.331.8.8,0,0,0,.114.32,2.573,2.573,0,0,0,.336.439.993.993,0,0,0,.407.293,4.648,4.648,0,0,1-.336-.358,2.407,2.407,0,0,1-.293-.434c-.1-.152-.163-.428,0-.455s.363.163.472.309a1.246,1.246,0,0,1,.2.466A2.169,2.169,0,0,1,255.852,442.945Z" transform="translate(-167.482 -288.574)" fill="#263238"/>
      <path id="Path_5837" data-name="Path 5837" d="M234.35,442.463a4.289,4.289,0,0,1,.824.038,3.4,3.4,0,0,1,2.878,2.385c.163.477.179.8.2.8s0-.081,0-.222a3.25,3.25,0,0,0-.114-.607,3.409,3.409,0,0,0-2.981-2.428,2.767,2.767,0,0,0-.618,0A.51.51,0,0,0,234.35,442.463Z" transform="translate(-158.057 -288.977)" fill="#263238"/>
      <path id="Path_5838" data-name="Path 5838" d="M236.466,434a37.375,37.375,0,0,0-.108,4.585,19.01,19.01,0,0,0,.119-2.293A20.432,20.432,0,0,0,236.466,434Z" transform="translate(-158.964 -285.126)" fill="#263238"/>
      <path id="Path_5839" data-name="Path 5839" d="M244.24,446.543a6.136,6.136,0,0,0,1.626.179,6.066,6.066,0,0,0,1.626-.114c0-.038-.732,0-1.626,0S244.245,446.5,244.24,446.543Z" transform="translate(-162.586 -290.866)" fill="#263238"/>
      <path id="Path_5840" data-name="Path 5840" d="M240.2,446.5a2.778,2.778,0,0,0,.13.325c.07.168.114.314.152.314s.06-.179-.027-.369S240.227,446.469,240.2,446.5Z" transform="translate(-160.736 -290.847)" fill="#263238"/>
      <path id="Path_5841" data-name="Path 5841" d="M238.7,444.585a.559.559,0,0,0,.157.26c.114.119.228.2.255.168s-.043-.141-.157-.26S238.727,444.558,238.7,444.585Z" transform="translate(-160.049 -289.971)" fill="#263238"/>
      <path id="Path_5842" data-name="Path 5842" d="M236.53,443.65c0,.038.157.038.32.1s.282.152.309.125-.06-.179-.266-.249S236.519,443.618,236.53,443.65Z" transform="translate(-159.055 -289.519)" fill="#263238"/>
      <path id="Path_5843" data-name="Path 5843" d="M235,443.256c0,.032.049.092.141.13s.179.038.19,0-.049-.092-.141-.13S235,443.218,235,443.256Z" transform="translate(-158.354 -289.352)" fill="#263238"/>
      <path id="Path_5844" data-name="Path 5844" d="M284.807,428.027l-2.45-5.447-10.228,4.493,3.474,8,.65-.239c2.894-1.084,14.634-5.707,16.26-7.106C294.352,426.168,284.807,428.027,284.807,428.027Z" transform="translate(-175.36 -279.895)" fill="#9672fb"/>
      <path id="Path_5845" data-name="Path 5845" d="M281.146,441a3.875,3.875,0,0,0-2.266-1.626,3.794,3.794,0,0,0-2.71.309l1.252,2.856Z" transform="translate(-177.21 -287.533)" fill="#f5f5f5"/>
      <path id="Path_5846" data-name="Path 5846" d="M292.406,431.1s3.431-.461,3.252.211-11.837,5.789-17.187,7.588l-.081-.233,13.669-5.859S291.821,431.387,292.406,431.1Z" transform="translate(-178.227 -283.727)" fill="#f5f5f5"/>
      <path id="Path_5847" data-name="Path 5847" d="M278.11,438.9l.184-.06.542-.19,1.9-.737c1.594-.634,3.794-1.534,6.184-2.585s4.547-2.043,6.092-2.791l1.827-.889.493-.255a.791.791,0,0,0,.168-.092l-.179.07-.5.228-1.843.856c-1.556.716-3.713,1.7-6.108,2.748s-4.585,1.967-6.168,2.623l-1.875.775-.509.211Z" transform="translate(-178.098 -283.889)" fill="#263238"/>
      <path id="Path_5848" data-name="Path 5848" d="M303.594,432.973a4.269,4.269,0,0,1-.043-1.041,4.963,4.963,0,0,1,.32-.992,1.5,1.5,0,0,0-.455.97,1.517,1.517,0,0,0,.179,1.062Z" transform="translate(-189.675 -283.724)" fill="#263238"/>
      <path id="Path_5849" data-name="Path 5849" d="M296.972,433.384a1.237,1.237,0,0,0,.152-.542c.049-.309.054-.542,0-.542s-.1.233-.152.542A1.116,1.116,0,0,0,296.972,433.384Z" transform="translate(-186.722 -284.347)" fill="#263238"/>
      <path id="Path_5850" data-name="Path 5850" d="M295.069,433.445a1.078,1.078,0,0,0,.255-.4c.108-.233.163-.439.13-.455s-.146.163-.255.4S295.025,433.429,295.069,433.445Z" transform="translate(-185.859 -284.479)" fill="#263238"/>
      <path id="Path_5851" data-name="Path 5851" d="M293.329,432.419a1.4,1.4,0,0,0,.542-.168c.3-.125.542-.255.51-.287a1.165,1.165,0,0,0-.542.163C293.562,432.251,293.313,432.381,293.329,432.419Z" transform="translate(-185.069 -284.189)" fill="#263238"/>
      <path id="Path_5852" data-name="Path 5852" d="M292.45,431.329a1.155,1.155,0,0,0,.672-.092,1.128,1.128,0,0,0,.575-.347,3.629,3.629,0,0,0-.623.222A3.469,3.469,0,0,0,292.45,431.329Z" transform="translate(-184.666 -283.701)" fill="#263238"/>
      <path id="Path_5853" data-name="Path 5853" d="M296.88,431.037a2.169,2.169,0,0,0,.656-.293,4.335,4.335,0,0,0,.629-.461,2.209,2.209,0,0,0,.331-.341.4.4,0,0,0,.07-.276.271.271,0,0,0-.211-.217,1.322,1.322,0,0,0-1.36,1.534.476.476,0,0,0,.06.19,2.168,2.168,0,0,1,.054-.694,1.279,1.279,0,0,1,.4-.613,1.133,1.133,0,0,1,.808-.287c.141.027.152.168.065.293a2.343,2.343,0,0,1-.3.32,5.647,5.647,0,0,1-.6.471C297.118,430.907,296.869,431.015,296.88,431.037Z" transform="translate(-186.695 -283.041)" fill="#263238"/>
      <path id="Path_5854" data-name="Path 5854" d="M296.1,431.425a.737.737,0,0,0-.125-.488,1.252,1.252,0,0,0-.39-.406.726.726,0,0,0-.694-.092.282.282,0,0,0-.07.39.732.732,0,0,0,.239.244,2.322,2.322,0,0,0,.488.266,1.019,1.019,0,0,0,.493.1,4.053,4.053,0,0,1-.455-.19,2.3,2.3,0,0,1-.45-.271c-.152-.1-.32-.32-.168-.423a.64.64,0,0,1,.542.087,1.166,1.166,0,0,1,.374.347A2.915,2.915,0,0,1,296.1,431.425Z" transform="translate(-185.728 -283.472)" fill="#263238"/>
      <path id="Path_5855" data-name="Path 5855" d="M276.24,439.495a4.033,4.033,0,0,1,.764-.3,3.5,3.5,0,0,1,3.615.959c.347.374.493.661.515.645a.8.8,0,0,0-.092-.206,2.8,2.8,0,0,0-.352-.5,3.436,3.436,0,0,0-1.7-1.084,3.49,3.49,0,0,0-2.011.081,2.863,2.863,0,0,0-.542.266A.6.6,0,0,0,276.24,439.495Z" transform="translate(-177.242 -287.368)" fill="#263238"/>
      <path id="Path_5856" data-name="Path 5856" d="M274.75,431.27a18.173,18.173,0,0,0,.829,2.168,20.8,20.8,0,0,0,.959,2.087,19.339,19.339,0,0,0-.835-2.141A20.832,20.832,0,0,0,274.75,431.27Z" transform="translate(-176.56 -283.875)" fill="#263238"/>
      <path id="Path_5857" data-name="Path 5857" d="M286.91,438.513a6.5,6.5,0,0,0,1.561-.51,6.006,6.006,0,0,0,1.442-.775c0-.032-.667.3-1.5.65S286.9,438.475,286.91,438.513Z" transform="translate(-182.129 -286.603)" fill="#263238"/>
      <path id="Path_5858" data-name="Path 5858" d="M283.21,441.2c0,.038.119.119.255.244s.233.244.266.222,0-.184-.173-.325S283.221,441.168,283.21,441.2Z" transform="translate(-180.434 -288.418)" fill="#263238"/>
      <path id="Path_5859" data-name="Path 5859" d="M281.06,440.071c0,.038.1.114.249.173s.287.081.3.049-.1-.114-.249-.173S281.071,440.022,281.06,440.071Z" transform="translate(-179.45 -287.896)" fill="#263238"/>
      <path id="Path_5860" data-name="Path 5860" d="M278.717,440.035c0,.033.157-.027.331-.038a2.932,2.932,0,0,1,.331,0,.4.4,0,0,0-.341-.119C278.825,439.9,278.69,440.008,278.717,440.035Z" transform="translate(-178.375 -287.817)" fill="#263238"/>
      <path id="Path_5861" data-name="Path 5861" d="M277.13,440.355c0,.038.087.065.184.06s.179-.038.179-.076-.087-.065-.184-.06S277.13,440.317,277.13,440.355Z" transform="translate(-177.65 -288.001)" fill="#263238"/>
      <path id="Path_5862" data-name="Path 5862" d="M101.676,305.762,93.611,245.5a2.542,2.542,0,0,1,2.71-2.873l19.442,1.626a3.675,3.675,0,0,1,3.355,3.366l4.737,57.057Z" transform="translate(-93.588 -197.473)" fill="#9672fb"/>
      <g id="Group_6846" data-name="Group 6846" transform="translate(0 45.144)" opacity="0.2">
        <path id="Path_5863" data-name="Path 5863" d="M101.676,305.762,93.611,245.5a2.542,2.542,0,0,1,2.71-2.873l19.442,1.626a3.675,3.675,0,0,1,3.355,3.366l4.737,57.057Z" transform="translate(-93.588 -242.617)"/>
      </g>
      <path id="Path_5864" data-name="Path 5864" d="M142.011,179.046c-.163-2.3-.764-4.537-1.084-6.813a12.822,12.822,0,0,1,.515-6.791,9.9,9.9,0,0,1,5.6-5.127,17.17,17.17,0,0,1,7.686-.878,3.637,3.637,0,0,1,1.36.309,1.35,1.35,0,0,1,.775,1.084.84.84,0,0,1-.862.878,13.658,13.658,0,0,1,2.911.623,1.707,1.707,0,0,1,.943.678,1.3,1.3,0,0,1-.13,1.279,3.793,3.793,0,0,1-.981.921.9.9,0,0,1,1.057.71,1.713,1.713,0,0,1-.374,1.339c-.276.39-.634.71-.921,1.084-1.171,1.556-.943,3.718-.661,5.648" transform="translate(-115.171 -159.326)" fill="#263238"/>
      <path id="Path_5865" data-name="Path 5865" d="M143.3,196.86l10.954-.2c.146-1.268.358-6.2.358-6.2s4.58-.423,4.916-4.954.2-14.992.2-14.992h0a15.789,15.789,0,0,0-15.957,1.014l-.7.477Z" transform="translate(-116.246 -163.676)" fill="#b78876"/>
      <path id="Path_5866" data-name="Path 5866" d="M170.837,185.5a.656.656,0,1,1,.469.2A.661.661,0,0,1,170.837,185.5Z" transform="translate(-128.88 -170.796)" fill="#263238"/>
      <path id="Path_5867" data-name="Path 5867" d="M171.177,183.816c-.076.076-.5-.293-1.122-.336s-1.084.255-1.165.168.049-.173.255-.314a1.561,1.561,0,0,1,1.827.136C171.155,183.637,171.214,183.783,171.177,183.816Z" transform="translate(-128.065 -170.215)" fill="#263238"/>
      <path id="Path_5868" data-name="Path 5868" d="M158.911,184.508a.656.656,0,1,1-.491-.112.661.661,0,0,1,.491.112Z" transform="translate(-123.03 -170.804)" fill="#263238"/>
      <path id="Path_5869" data-name="Path 5869" d="M158.6,184.062c-.076.07-.5-.3-1.122-.341s-1.084.255-1.16.173.043-.179.255-.314a1.534,1.534,0,0,1,1.821.135C158.581,183.878,158.64,184.03,158.6,184.062Z" transform="translate(-122.309 -170.326)" fill="#263238"/>
      <path id="Path_5870" data-name="Path 5870" d="M164.55,189.852a3.025,3.025,0,0,1,1.019-.152c.168,0,.3-.038.314-.125a.927.927,0,0,0-.087-.477c-.135-.423-.276-.851-.417-1.3a17.168,17.168,0,0,1-.862-3.4,17.513,17.513,0,0,1,1.2,3.3c.135.45.26.883.39,1.306a1.084,1.084,0,0,1,.043.688.428.428,0,0,1-.3.244,1.289,1.289,0,0,1-.276,0A3.061,3.061,0,0,1,164.55,189.852Z" transform="translate(-126.067 -170.81)" fill="#263238"/>
      <path id="Path_5871" data-name="Path 5871" d="M160.673,195.435c-.623-.428,1.734,1.084,3.008,1.084a1.718,1.718,0,0,1-2.076.542C160.261,196.492,160.673,195.435,160.673,195.435Z" transform="translate(-124.266 -175.829)" fill="#fff"/>
      <path id="Path_5872" data-name="Path 5872" d="M159.49,206.9a10.542,10.542,0,0,1-5.81-2.043s1.2,3.35,5.745,3.22Z" transform="translate(-121.11 -180.181)" fill="#a36957"/>
      <path id="Path_5873" data-name="Path 5873" d="M141.883,173.268l.233,5.881s2.065-.629,2.2-.688-.038-7.2-.038-7.2-.287-2.71,1.469-3.333c1.848-.667,2.65.672,5.268,1.084,8.634,1.458,8.043-1.192,8.043-1.192s1.084-1.165-1.133-2.444-7.762-1.713-10.8-.667c-5.962,2.054-6.32,4.1-6.32,5.9C140.81,173.181,141.883,173.268,141.883,173.268Z" transform="translate(-115.216 -161.521)" fill="#263238"/>
      <path id="Path_5874" data-name="Path 5874" d="M142.064,182.093c-.1-.038-3.36-.461-3.051,3.393s4.1,2.271,4.1,2.168S142.064,182.093,142.064,182.093Z" transform="translate(-114.383 -169.739)" fill="#b78876"/>
      <path id="Path_5875" data-name="Path 5875" d="M142.65,187.482a1.193,1.193,0,0,1-.173.114.678.678,0,0,1-.5.049,1.626,1.626,0,0,1-.883-1.425,2.234,2.234,0,0,1,.108-.981.781.781,0,0,1,.466-.542.347.347,0,0,1,.412.152c.06.1.038.184.06.19s.076-.076.033-.228a.417.417,0,0,0-.168-.233.542.542,0,0,0-.379-.065.943.943,0,0,0-.656.65,2.266,2.266,0,0,0-.146,1.084,1.775,1.775,0,0,0,1.084,1.588.726.726,0,0,0,.607-.152C142.65,187.6,142.661,187.509,142.65,187.482Z" transform="translate(-115.213 -170.856)" fill="#a36957"/>
      <path id="Path_5876" data-name="Path 5876" d="M224.08,277.942s5.42-.26,6.5.233c1.875.818,7.458,9.572,7.176,9.572h-2.585l-8.672-3.29-2.043.515Z" transform="translate(-153.353 -213.62)" fill="#b78876"/>
      <path id="Path_5877" data-name="Path 5877" d="M260.224,324.37s16.217,56.168,16.255,55.891-14.537,7.008-14.537,7.008l-9.832-40.618Z" transform="translate(-166.191 -234.916)" fill="#263238"/>
      <path id="Path_5878" data-name="Path 5878" d="M269,432.98l15.36-7.5-.667-2.054-15.48,7.507Z" transform="translate(-173.564 -280.285)" fill="#455a64"/>
      <path id="Path_5879" data-name="Path 5879" d="M265.5,401.537c-.081,0-.249-.331-.385-.78s-.179-.846-.1-.867.249.325.385.781S265.574,401.51,265.5,401.537Z" transform="translate(-172.082 -269.503)" fill="#455a64"/>
      <path id="Path_5880" data-name="Path 5880" d="M267.33,407.611c-.081,0-.26-.325-.4-.775s-.19-.84-.114-.867.255.325.4.775S267.406,407.573,267.33,407.611Z" transform="translate(-172.912 -272.287)" fill="#455a64"/>
      <path id="Path_5881" data-name="Path 5881" d="M269.242,413.62c-.081.027-.26-.32-.406-.77s-.2-.835-.125-.862.26.32.406.77S269.318,413.62,269.242,413.62Z" transform="translate(-173.778 -275.044)" fill="#455a64"/>
      <path id="Path_5882" data-name="Path 5882" d="M271.243,419.625c-.081.027-.266-.314-.417-.764s-.217-.835-.135-.862.266.314.417.764S271.319,419.625,271.243,419.625Z" transform="translate(-174.684 -277.796)" fill="#455a64"/>
      <path id="Path_5883" data-name="Path 5883" d="M273.326,425.634c-.076,0-.271-.314-.428-.759s-.228-.829-.146-.856.266.309.428.759S273.412,425.591,273.326,425.634Z" transform="translate(-175.629 -280.554)" fill="#455a64"/>
      <path id="Path_5884" data-name="Path 5884" d="M275.467,431.548c-.081,0-.276-.309-.439-.753s-.239-.829-.163-.856.276.309.439.753S275.559,431.521,275.467,431.548Z" transform="translate(-176.599 -283.265)" fill="#455a64"/>
      <path id="Path_5885" data-name="Path 5885" d="M269.63,421.839a2.557,2.557,0,0,1-.325-.585c-.19-.39-.45-.959-.748-1.669-.6-1.42-1.344-3.42-2.092-5.648s-1.377-4.266-1.821-5.74c-.206-.694-.379-1.279-.542-1.751a2.626,2.626,0,0,1-.152-.656,3.525,3.525,0,0,1,.26.618c.152.406.358.992.607,1.724l1.9,5.707c.742,2.228,1.453,4.233,2.005,5.669l.661,1.7A3.193,3.193,0,0,1,269.63,421.839Z" transform="translate(-171.613 -272.206)" fill="#455a64"/>
      <path id="Path_5886" data-name="Path 5886" d="M127.49,313.277c.135-2.976-1.556,16.331,13.285,16.84s45.16.287,45.16.287l-3.55,48.959h17.8l3.718-52.087s1.9-15.089-8.428-17.013c-6.461-1.209-46.639-1.594-46.639-1.594Z" transform="translate(-109.115 -227.725)" fill="#263238"/>
      <path id="Path_5887" data-name="Path 5887" d="M228.02,436.826h18.748V433.91l-18.748.027Z" transform="translate(-155.157 -285.084)" fill="#455a64"/>
      <path id="Path_5888" data-name="Path 5888" d="M173.91,342.841a.753.753,0,0,1,.19,0l.542-.032,2.168-.1,8.049-.309,27.149-.932h.173v.173c-.244,1.995-.45,4.1-.623,6.244-.238,3.062-.466,6.049-.688,8.932s-.542,5.659-.818,8.3c-.542,5.279-1.052,10.038-1.474,14.043s-.775,7.214-1.019,9.463c-.125,1.084-.222,1.973-.293,2.575q-.049.423-.081.667a1.5,1.5,0,0,1-.038.228,1.032,1.032,0,0,1,0-.228c0-.168.033-.39.054-.672.054-.607.135-1.474.238-2.58.217-2.249.542-5.485.927-9.474s.878-8.764,1.409-14.054c.26-2.645.542-5.42.8-8.3s.45-5.87.683-8.927q.26-3.252.629-6.26l.152.168-27.154.829-8.049.222-2.168.043h-.542A.7.7,0,0,1,173.91,342.841Z" transform="translate(-130.375 -242.747)" fill="#455a64"/>
      <path id="Path_5889" data-name="Path 5889" d="M175.623,339.979c0,.081-.379.157-.856.168s-.856-.043-.856-.125.379-.163.851-.173S175.623,339.9,175.623,339.979Z" transform="translate(-130.375 -242.004)" fill="#455a64"/>
      <path id="Path_5890" data-name="Path 5890" d="M181.948,339.828c0,.081-.379.157-.856.168s-.856-.043-.862-.125.385-.157.856-.173S181.948,339.747,181.948,339.828Z" transform="translate(-133.27 -241.935)" fill="#455a64"/>
      <path id="Path_5891" data-name="Path 5891" d="M188.278,339.684c0,.087-.379.157-.856.173s-.856-.049-.862-.13.385-.157.856-.168S188.278,339.6,188.278,339.684Z" transform="translate(-136.169 -241.871)" fill="#455a64"/>
      <path id="Path_5892" data-name="Path 5892" d="M194.608,339.534c0,.087-.379.163-.856.173s-.856-.049-.862-.13.385-.157.856-.168S194.608,339.452,194.608,339.534Z" transform="translate(-139.068 -241.803)" fill="#455a64"/>
      <path id="Path_5893" data-name="Path 5893" d="M200.938,339.389c0,.081-.379.157-.856.168s-.856-.049-.862-.13.385-.157.856-.168S200.938,339.3,200.938,339.389Z" transform="translate(-141.967 -241.734)" fill="#455a64"/>
      <path id="Path_5894" data-name="Path 5894" d="M207.268,339.239c0,.081-.379.157-.856.168s-.856-.049-.862-.13.385-.157.856-.168S207.263,339.158,207.268,339.239Z" transform="translate(-144.866 -241.665)" fill="#455a64"/>
      <path id="Path_5895" data-name="Path 5895" d="M213.6,339.089c0,.081-.379.157-.856.168s-.856-.049-.862-.13.379-.157.856-.168S213.571,339.008,213.6,339.089Z" transform="translate(-147.765 -241.597)" fill="#455a64"/>
      <path id="Path_5896" data-name="Path 5896" d="M219.928,338.939c0,.081-.379.157-.856.168s-.856-.043-.862-.13.379-.157.856-.168S219.923,338.858,219.928,338.939Z" transform="translate(-150.664 -241.528)" fill="#455a64"/>
      <path id="Path_5897" data-name="Path 5897" d="M226.258,338.789c0,.081-.379.157-.856.168s-.856-.043-.862-.125.379-.163.856-.173S226.253,338.708,226.258,338.789Z" transform="translate(-153.564 -241.459)" fill="#455a64"/>
      <path id="Path_5898" data-name="Path 5898" d="M232.548,338.639c0,.081-.385.157-.856.168s-.856-.043-.862-.125.379-.163.856-.173S232.548,338.558,232.548,338.639Z" transform="translate(-156.444 -241.391)" fill="#455a64"/>
      <path id="Path_5899" data-name="Path 5899" d="M238.918,338.493c0,.081-.385.157-.856.168s-.856-.043-.862-.125.379-.157.856-.168S238.913,338.412,238.918,338.493Z" transform="translate(-159.362 -241.326)" fill="#455a64"/>
      <path id="Path_5900" data-name="Path 5900" d="M245.248,338.344c0,.087-.385.163-.856.173s-.862-.049-.862-.13.379-.157.856-.168S245.243,338.262,245.248,338.344Z" transform="translate(-162.261 -241.258)" fill="#455a64"/>
      <path id="Path_5901" data-name="Path 5901" d="M246.615,342.747c-.087,0-.114-.4-.065-.867s.146-.845.228-.84.114.4.065.867S246.7,342.758,246.615,342.747Z" transform="translate(-163.633 -242.55)" fill="#455a64"/>
      <path id="Path_5902" data-name="Path 5902" d="M246,349.047c-.081,0-.114-.4-.065-.867s.152-.846.233-.84.108.4.065.867S246.077,349.058,246,349.047Z" transform="translate(-163.35 -245.436)" fill="#455a64"/>
      <path id="Path_5903" data-name="Path 5903" d="M245.376,355.347c-.081,0-.114-.4-.065-.867s.152-.846.233-.84.108.4.065.873S245.457,355.358,245.376,355.347Z" transform="translate(-163.066 -248.321)" fill="#455a64"/>
      <path id="Path_5904" data-name="Path 5904" d="M244.758,361.647c-.081,0-.108-.4-.065-.867s.152-.845.233-.84.108.4.065.873S244.85,361.658,244.758,361.647Z" transform="translate(-162.784 -251.206)" fill="#455a64"/>
      <path id="Path_5905" data-name="Path 5905" d="M244.138,367.957c-.081,0-.108-.4-.065-.873s.152-.846.233-.835.114.4.065.867S244.219,367.963,244.138,367.957Z" transform="translate(-162.5 -254.096)" fill="#455a64"/>
      <path id="Path_5906" data-name="Path 5906" d="M243.519,374.257c-.081,0-.108-.4-.06-.873s.146-.846.228-.835.114.4.065.867S243.606,374.263,243.519,374.257Z" transform="translate(-162.218 -256.982)" fill="#455a64"/>
      <path id="Path_5907" data-name="Path 5907" d="M242.925,380.557c-.087,0-.114-.4-.065-.867s.146-.851.233-.84.108.4.06.867S243,380.557,242.925,380.557Z" transform="translate(-161.943 -259.867)" fill="#455a64"/>
      <path id="Path_5908" data-name="Path 5908" d="M242.286,386.857c-.081,0-.114-.4-.065-.867s.152-.851.233-.84.108.4.065.867S242.367,386.862,242.286,386.857Z" transform="translate(-161.651 -262.752)" fill="#455a64"/>
      <path id="Path_5909" data-name="Path 5909" d="M241.668,393.157c-.081,0-.108-.4-.065-.867s.152-.845.233-.84.108.4.065.867S241.749,393.168,241.668,393.157Z" transform="translate(-161.369 -265.638)" fill="#455a64"/>
      <path id="Path_5910" data-name="Path 5910" d="M241.048,399.457c-.081,0-.108-.4-.065-.867s.152-.846.233-.84.108.4.065.867S241.129,399.468,241.048,399.457Z" transform="translate(-161.085 -268.523)" fill="#455a64"/>
      <path id="Path_5911" data-name="Path 5911" d="M240.428,405.757c-.081,0-.108-.4-.065-.867s.152-.846.233-.84.114.4.065.867S240.509,405.768,240.428,405.757Z" transform="translate(-160.801 -271.409)" fill="#455a64"/>
      <path id="Path_5912" data-name="Path 5912" d="M239.815,412.057c-.087,0-.114-.4-.065-.867s.146-.846.228-.84.114.4.065.873S239.874,412.068,239.815,412.057Z" transform="translate(-160.519 -274.294)" fill="#455a64"/>
      <path id="Path_5913" data-name="Path 5913" d="M239.2,418.357c-.081,0-.114-.4-.065-.867s.146-.846.233-.84.108.4.06.873S239.277,418.368,239.2,418.357Z" transform="translate(-160.236 -277.179)" fill="#455a64"/>
      <path id="Path_5914" data-name="Path 5914" d="M238.576,424.667c-.081,0-.114-.4-.065-.873s.152-.846.233-.835.108.4.065.867S238.657,424.672,238.576,424.667Z" transform="translate(-159.952 -280.069)" fill="#455a64"/>
      <path id="Path_5915" data-name="Path 5915" d="M237.928,430.967c-.081,0-.108-.4-.065-.867s.152-.851.233-.84.108.4.065.867S238.025,430.972,237.928,430.967Z" transform="translate(-159.656 -282.955)" fill="#455a64"/>
      <path id="Path_5916" data-name="Path 5916" d="M237.581,435.661c-.081,0-.146-.038-.141-.065s.07-.049.152-.038.146.038.146.065S237.662,435.666,237.581,435.661Z" transform="translate(-159.472 -285.838)" fill="#455a64"/>
      <path id="Path_5917" data-name="Path 5917" d="M237.657,344.56a4.987,4.987,0,0,1-1.165,1.274,5.2,5.2,0,0,1-1.371,1.051,10.086,10.086,0,0,1,2.537-2.325Z" transform="translate(-158.409 -244.163)" fill="#263238"/>
      <path id="Path_5918" data-name="Path 5918" d="M238.731,345.78a8.131,8.131,0,0,1-1.913,1.024,7.964,7.964,0,0,1-2.038.748,8.129,8.129,0,0,1,1.913-1.024A8.038,8.038,0,0,1,238.731,345.78Z" transform="translate(-158.254 -244.721)" fill="#263238"/>
      <path id="Path_5919" data-name="Path 5919" d="M152.423,245.988s-1.816-19.453-5.041-27.967l.64-.482-.959-3.355L135,212.72l.184,2.618a8.6,8.6,0,0,0-4.125,3.924c-4.336,9.182-2.168,19.9-4.493,39.767,0,0-2.71,9.317.087,12.233l26.325-6.135-1.241-6.005c11.49-.217,30.385-2.331,30.385-2.331l-.542-10.873s-28.233.168-29.154.07" transform="translate(-108.151 -183.78)" fill="#455a64"/>
      <path id="Path_5920" data-name="Path 5920" d="M165.271,215.39a9.111,9.111,0,0,1,.873,2.168,3.794,3.794,0,0,1,.239.921.65.65,0,0,1-.152.45.78.78,0,0,1-.325.228c-.455.141-.715.043-.715,0s.282-.049.623-.211a.5.5,0,0,0,.3-.477,5.728,5.728,0,0,0-.249-.84A9.29,9.29,0,0,1,165.271,215.39Z" transform="translate(-126.382 -185.003)" fill="#e0e0e0"/>
      <path id="Path_5921" data-name="Path 5921" d="M152.33,241.986c0,.087-4.878.152-10.84.152s-10.84-.065-10.84-.152,4.878-.146,10.84-.146S152.33,241.927,152.33,241.986Z" transform="translate(-110.562 -197.117)" fill="#263238"/>
      <path id="Path_5922" data-name="Path 5922" d="M152.329,231.876c0,.081-4.3.152-9.6.152s-9.6-.07-9.6-.152,4.3-.146,9.6-.146S152.329,231.8,152.329,231.876Z" transform="translate(-111.694 -192.487)" fill="#263238"/>
      <path id="Path_5923" data-name="Path 5923" d="M152.216,222.982c0,.081-3.556.146-7.946.146s-7.94-.065-7.94-.146,3.556-.152,7.94-.152S152.216,222.922,152.216,222.982Z" transform="translate(-113.164 -188.411)" fill="#263238"/>
      <path id="Path_5924" data-name="Path 5924" d="M155.063,216.706a60.15,60.15,0,0,1-6.087.152,60.15,60.15,0,0,1-6.087-.152c0-.081,2.71-.146,6.087-.146S155.063,216.625,155.063,216.706Z" transform="translate(-116.168 -185.539)" fill="#263238"/>
      <path id="Path_5925" data-name="Path 5925" d="M152.687,251.712c0,.081-5.133.146-11.463.146s-11.463-.065-11.463-.146,5.133-.152,11.463-.152S152.687,251.625,152.687,251.712Z" transform="translate(-110.155 -201.569)" fill="#263238"/>
      <path id="Path_5926" data-name="Path 5926" d="M153.628,261.482c0,.081-5.339.146-11.924.146s-11.924-.065-11.924-.146,5.339-.152,11.924-.152S153.628,261.4,153.628,261.482Z" transform="translate(-110.164 -206.044)" fill="#263238"/>
      <path id="Path_5927" data-name="Path 5927" d="M154.2,270.486c0,.087-5.474.152-12.222.152s-12.222-.065-12.222-.152,5.474-.146,12.222-.146S154.2,270.405,154.2,270.486Z" transform="translate(-110.155 -210.17)" fill="#263238"/>
      <path id="Path_5928" data-name="Path 5928" d="M180.5,280.332c0,.081-11.545.146-25.783.146s-25.789-.065-25.789-.146,11.545-.152,25.789-.152S180.5,280.25,180.5,280.332Z" transform="translate(-109.775 -214.677)" fill="#263238"/>
      <path id="Path_5929" data-name="Path 5929" d="M180.542,288.216c0,.087-11.631.152-25.978.152s-25.984-.065-25.984-.152,11.631-.146,25.984-.146S180.542,288.135,180.542,288.216Z" transform="translate(-109.614 -218.29)" fill="#263238"/>
      <path id="Path_5930" data-name="Path 5930" d="M152.259,297.936c0,.087-5.556.152-12.412.152s-12.417-.065-12.417-.152,5.556-.146,12.417-.146S152.259,297.855,152.259,297.936Z" transform="translate(-109.088 -222.742)" fill="#263238"/>
      <path id="Path_5931" data-name="Path 5931" d="M152.762,306.956c0,.081-6.043.152-13.5.152s-13.5-.07-13.5-.152,6.043-.146,13.5-.146S152.762,306.875,152.762,306.956Z" transform="translate(-108.327 -226.873)" fill="#263238"/>
      <path id="Path_5932" data-name="Path 5932" d="M133.042,273.691c-.087,0-.152-9.48-.152-21.171s.065-21.171.152-21.171.146,9.48.146,21.171S133.123,273.691,133.042,273.691Z" transform="translate(-111.588 -192.313)" fill="#263238"/>
      <path id="Path_5933" data-name="Path 5933" d="M145.056,264.767c-.081,0-.146-11.588-.146-25.881s.049-25.886.146-25.886.152,11.583.152,25.881S145.143,264.767,145.056,264.767Z" transform="translate(-117.093 -183.909)" fill="#263238"/>
      <path id="Path_5934" data-name="Path 5934" d="M158.326,264.944c-.081,0-.146-11.171-.146-24.932s.065-24.932.146-24.932.152,11.171.152,24.932S158.413,264.944,158.326,264.944Z" transform="translate(-123.171 -184.861)" fill="#263238"/>
      <path id="Path_5935" data-name="Path 5935" d="M169.476,276.341c-.081,0-.146-8.77-.146-19.583s.065-19.588.146-19.588.152,8.77.152,19.588S169.558,276.341,169.476,276.341Z" transform="translate(-128.278 -194.978)" fill="#263238"/>
      <path id="Path_5936" data-name="Path 5936" d="M181.087,274.05a12.018,12.018,0,0,1,.06,1.908c0,1.176,0,2.8-.065,4.585s-.1,3.415-.152,4.585a13.312,13.312,0,0,1-.152,1.9,11.862,11.862,0,0,1-.06-1.9c0-1.176,0-2.8.065-4.591s.1-3.415.152-4.591A11.553,11.553,0,0,1,181.087,274.05Z" transform="translate(-133.487 -211.869)" fill="#263238"/>
      <path id="Path_5937" data-name="Path 5937" d="M193.692,274.47a11.3,11.3,0,0,1,.06,1.789c0,1.084,0,2.618-.054,4.293s-.1,3.2-.146,4.3a10.111,10.111,0,0,1-.152,1.778,11.105,11.105,0,0,1-.06-1.778c0-1.084,0-2.623.06-4.3s.092-3.2.146-4.3A9.866,9.866,0,0,1,193.692,274.47Z" transform="translate(-139.269 -212.062)" fill="#263238"/>
      <path id="Path_5938" data-name="Path 5938" d="M206.219,274.25a9.529,9.529,0,0,1,.065,1.729c0,1.084,0,2.542-.054,4.168s-.092,3.1-.146,4.163a9.266,9.266,0,0,1-.146,1.729,10.723,10.723,0,0,1-.065-1.724c0-1.084,0-2.542.06-4.168s.092-3.106.141-4.168A10.605,10.605,0,0,1,206.219,274.25Z" transform="translate(-145.009 -211.961)" fill="#263238"/>
      <path id="Path_5939" data-name="Path 5939" d="M218.792,273.9a8.848,8.848,0,0,1,.065,1.675c0,1.035,0,2.466-.054,4.043s-.087,3.008-.141,4.038a9.76,9.76,0,0,1-.141,1.675,9.07,9.07,0,0,1-.07-1.675c0-1.035,0-2.466.054-4.043s.092-3.014.141-4.043A9.214,9.214,0,0,1,218.792,273.9Z" transform="translate(-150.769 -211.801)" fill="#263238"/>
      <path id="Path_5940" data-name="Path 5940" d="M170.91,276.184a5.632,5.632,0,0,1,2.526-2.824,14.693,14.693,0,0,1-1.285,1.393A15.174,15.174,0,0,1,170.91,276.184Z" transform="translate(-129.001 -211.553)" fill="#263238"/>
      <path id="Path_5941" data-name="Path 5941" d="M173.727,276.314a2.976,2.976,0,0,1,1.084-2.954c.065.06-.39.612-.683,1.425S173.846,276.314,173.727,276.314Z" transform="translate(-130.263 -211.553)" fill="#263238"/>
      <path id="Path_5942" data-name="Path 5942" d="M224.2,285.108a93.164,93.164,0,0,1-.943-10.428,44.128,44.128,0,0,1,.623,5.2,45.823,45.823,0,0,1,.32,5.225Z" transform="translate(-152.977 -212.158)" fill="#263238"/>
      <path id="Path_5943" data-name="Path 5943" d="M225.294,278.355a.864.864,0,0,0-.173.417.542.542,0,0,0,.135.4.406.406,0,0,0,.455.06.423.423,0,0,0,.271-.374.542.542,0,0,0-.2-.369c-.211-.168-.412-.114-.423-.157s.2-.2.542,0a.683.683,0,0,1,.358.542.672.672,0,0,1-.423.661.683.683,0,0,1-.78-.141.694.694,0,0,1-.135-.623C225.017,278.371,225.3,278.317,225.294,278.355Z" transform="translate(-153.727 -213.784)" fill="#263238"/>
      <path id="Path_5944" data-name="Path 5944" d="M161.414,252.286h.135l.4.033c.352.038.873.07,1.556.092,1.366.054,3.371.081,5.924.06,5.1-.033,12.39-.222,21.138-.542h.125v.125c.173,3.377.358,7.046.542,10.938v.125h-.114c-1.388.26-2.791.369-4.228.515l-4.379.379c-2.976.244-6.038.472-9.154.694l-11.458.77h0a13.9,13.9,0,0,1-8.8-3.594,10.764,10.764,0,0,1-2.553-3.756,26.775,26.775,0,0,1-1.285-4.13c-1.339-5.42-2.168-10.358-2.846-14.455-.325-2.049-.6-3.9-.835-5.512a33.638,33.638,0,0,1-.482-4.157,5.111,5.111,0,0,1,.542-2.558,2.581,2.581,0,0,1,.542-.721,5.076,5.076,0,0,0-.5.748,5.176,5.176,0,0,0-.477,2.531A34.849,34.849,0,0,0,145.74,234c.255,1.626.542,3.458.878,5.507.683,4.087,1.55,8.992,2.9,14.417a27.22,27.22,0,0,0,1.285,4.092,10.483,10.483,0,0,0,2.5,3.659,13.6,13.6,0,0,0,8.623,3.507h0l11.453-.78,9.149-.688,4.379-.374c1.425-.146,2.856-.255,4.184-.5l-.108.146c-.184-3.875-.358-7.561-.542-10.943l.135.125c-8.743.32-16.032.472-21.138.461-2.553,0-4.558-.049-5.924-.13-.683-.038-1.209-.081-1.561-.135l-.4-.049A.542.542,0,0,1,161.414,252.286Z" transform="translate(-117.175 -190.133)" fill="#263238"/>
      <path id="Path_5945" data-name="Path 5945" d="M170.74,255.332a4.945,4.945,0,0,1-.282-.851c-.157-.542-.374-1.355-.634-2.352-.542-1.989-1.165-4.759-1.859-7.816s-1.328-5.827-1.8-7.827l-.542-2.369a4.559,4.559,0,0,1-.168-.878,5.631,5.631,0,0,1,.282.851c.168.542.385,1.35.65,2.347.542,1.984,1.2,4.748,1.9,7.81s1.263,5.778,1.751,7.832c.217.965.4,1.762.542,2.374A5.961,5.961,0,0,1,170.74,255.332Z" transform="translate(-126.501 -193.178)" fill="#263238"/>
      <path id="Path_5946" data-name="Path 5946" d="M155.348,215.81a2.427,2.427,0,0,1-.06.6c-.054.385-.141.932-.26,1.626a8.963,8.963,0,0,1-.228,1.122.808.808,0,0,1-.488.542,1.426,1.426,0,0,1-.726,0c-.894-.184-1.87-.423-2.889-.7-2.033-.542-3.843-1.144-5.16-1.55l-1.556-.488a2.342,2.342,0,0,1-.542-.211,2.232,2.232,0,0,1,.591.1c.379.087.921.217,1.588.4,1.333.352,3.154.905,5.182,1.463,1.014.276,1.978.542,2.867.721a1.192,1.192,0,0,0,.591.038.542.542,0,0,0,.336-.363c.119-.347.168-.748.249-1.084.141-.672.266-1.214.352-1.593A2.206,2.206,0,0,1,155.348,215.81Z" transform="translate(-116.42 -185.196)" fill="#263238"/>
      <path id="Path_5947" data-name="Path 5947" d="M147.91,354.25l3.789,51.42,1.583-.369-.591-49.967Z" transform="translate(-118.467 -248.6)" fill="#263238"/>
      <path id="Path_5948" data-name="Path 5948" d="M108.567,357.55,97.06,407.122h2.081l16.471-49.572Z" transform="translate(-95.178 -250.112)" fill="#263238"/>
      <path id="Path_5949" data-name="Path 5949" d="M174.44,357.55l15.7,49.572h1.68L179.345,357.55Z" transform="translate(-130.618 -250.112)" fill="#263238"/>
      <path id="Path_5950" data-name="Path 5950" d="M148.6,363.69,113.42,386.676v1.257l36.157-24.244Z" transform="translate(-102.671 -252.924)" fill="#263238"/>
      <path id="Path_5951" data-name="Path 5951" d="M123.25,362.742l38.114,25.648v-1.962l-37-24.808Z" transform="translate(-107.173 -251.976)" fill="#263238"/>
      <path id="Path_5952" data-name="Path 5952" d="M107.963,353.518l45.322-.818a2.9,2.9,0,0,0,2.824-3.252h0a2.889,2.889,0,0,0-2.921-2.558l-45.967.737Z" transform="translate(-99.832 -245.229)" fill="#9672fb"/>
      <g id="Group_6847" data-name="Group 6847" transform="translate(7.388 101.66)" opacity="0.2">
        <path id="Path_5953" data-name="Path 5953" d="M107.963,353.518l45.322-.818a2.9,2.9,0,0,0,2.824-3.252h0a2.889,2.889,0,0,0-2.921-2.558l-45.967.737Z" transform="translate(-107.22 -346.889)"/>
      </g>
      <path id="Path_5954" data-name="Path 5954" d="M97.133,270.727l4.575,35.035,35.734-.851-.092-21.279a5.962,5.962,0,0,0-6.5-6.027L103.6,280.066l-3.588-37.133-3.621-.309a2.547,2.547,0,0,0-2.71,2.883Z" transform="translate(-93.62 -197.473)" fill="#9672fb"/>
    </g>
  </g>
</svg>
