<svg xmlns="http://www.w3.org/2000/svg" width="24" height="24" viewBox="0 0 24 24">
  <g id="settings" transform="translate(-1604 -201)">
    <rect id="Rectangle_25" data-name="Rectangle 25" width="24" height="24" transform="translate(1604 201)" fill="#fff" opacity="0"/>
    <path id="Path_5742" data-name="Path 5742" d="M88.84,5.505a2.013,2.013,0,0,0-1.83-1.164,2.794,2.794,0,0,1-1.893-.574,2.76,2.76,0,0,1-.631-1.877A2.011,2.011,0,0,0,83.264.1a2.012,2.012,0,0,0-2.116.466,2.855,2.855,0,0,1-1.745.941,2.749,2.749,0,0,1-1.77-.877A2.017,2.017,0,0,0,75.5.221a2.017,2.017,0,0,0-1.168,1.83,2.793,2.793,0,0,1-.574,1.893,2.776,2.776,0,0,1-1.873.631A2.024,2.024,0,0,0,70.1,5.8a2.012,2.012,0,0,0,.466,2.116A2.856,2.856,0,0,1,71.5,9.659a2.743,2.743,0,0,1-.877,1.77,1.934,1.934,0,0,0,1.422,3.3,2.794,2.794,0,0,1,1.893.574,2.749,2.749,0,0,1,.631,1.873A1.938,1.938,0,0,0,77.913,18.5a2.159,2.159,0,0,1,3.518-.052,1.938,1.938,0,0,0,3.3-1.426,2.794,2.794,0,0,1,.574-1.893,2.744,2.744,0,0,1,1.875-.625A1.94,1.94,0,0,0,88.5,11.16a2.825,2.825,0,0,1-.943-1.745,2.734,2.734,0,0,1,.881-1.77,2.044,2.044,0,0,0,.4-2.139ZM81,12.949a1.992,1.992,0,1,1,.006,0Z" transform="translate(1536.581 203.579)" fill="#3a3a3a"/>
  </g>
</svg>
