<svg xmlns="http://www.w3.org/2000/svg" width="35" height="35" viewBox="0 0 35 35">
  <g id="trash" transform="translate(14175 5952)">
    <circle id="Ellipse_1" data-name="Ellipse 1" cx="17.5" cy="17.5" r="17.5" transform="translate(-14175 -5952)" fill="#fff" opacity="0"/>
    <path id="Path_686" data-name="Path 686" d="M138.4,49.114h-4.025v-.527a2.114,2.114,0,0,0-2.108-2.108h-3.2a2.114,2.114,0,0,0-2.108,2.108v.527h-4.025a.843.843,0,1,0,0,1.686h1.18l.337,10.011a3.361,3.361,0,0,0,3.372,3.267h5.69a3.361,3.361,0,0,0,3.372-3.267l.337-10.011h1.18a.843.843,0,1,0,0-1.686Zm-9.758-.527a.423.423,0,0,1,.421-.421h3.2a.423.423,0,0,1,.421.421v.527h-4.047Zm.337,11.086a.843.843,0,0,1-1.686,0v-6.3a.843.843,0,1,1,1.686,0Zm2.529,0a.843.843,0,0,1-1.686,0v-6.3a.843.843,0,0,1,1.686,0Zm2.529,0a.843.843,0,0,1-1.686,0v-6.3a.843.843,0,1,1,1.686,0Z" transform="translate(-14288.085 -5989.48)" fill="#433f4d"/>
  </g>
</svg>
